solid OpenSCAD_Model
  facet normal 0.975917 0.218143 0
    outer loop
      vertex 3.92915 0.749525 4
      vertex 3.87433 0.994759 0
      vertex 3.87433 0.994759 4
    endloop
  endfacet
  facet normal 0.975917 0.218143 0
    outer loop
      vertex 3.87433 0.994759 0
      vertex 3.92915 0.749525 4
      vertex 3.92915 0.749525 0
    endloop
  endfacet
  facet normal 0.999506 0.0314127 0
    outer loop
      vertex 4 0 4
      vertex 3.99211 0.251162 0
      vertex 3.99211 0.251162 4
    endloop
  endfacet
  facet normal 0.999506 0.0314127 0
    outer loop
      vertex 3.99211 0.251162 0
      vertex 4 0 4
      vertex 4 0 0
    endloop
  endfacet
  facet normal -0.999506 0.0314127 0
    outer loop
      vertex -4 0 0
      vertex -3.99211 0.251162 4
      vertex -3.99211 0.251162 0
    endloop
  endfacet
  facet normal -0.999506 0.0314127 0
    outer loop
      vertex -3.99211 0.251162 4
      vertex -4 0 0
      vertex -4 0 4
    endloop
  endfacet
  facet normal 0.0314127 0.999506 -0
    outer loop
      vertex 0.251162 3.99211 0
      vertex 0 4 4
      vertex 0.251162 3.99211 4
    endloop
  endfacet
  facet normal 0.0314127 0.999506 0
    outer loop
      vertex 0 4 4
      vertex 0.251162 3.99211 0
      vertex 0 4 0
    endloop
  endfacet
  facet normal 0.707107 0.707107 0
    outer loop
      vertex 2.91587 2.73819 4
      vertex 2.73819 2.91587 0
      vertex 2.73819 2.91587 4
    endloop
  endfacet
  facet normal 0.707107 0.707107 0
    outer loop
      vertex 2.73819 2.91587 0
      vertex 2.91587 2.73819 4
      vertex 2.91587 2.73819 0
    endloop
  endfacet
  facet normal -0.338738 0.940881 0
    outer loop
      vertex -1.23607 3.80423 0
      vertex -1.4725 3.71911 4
      vertex -1.23607 3.80423 4
    endloop
  endfacet
  facet normal -0.338738 0.940881 0
    outer loop
      vertex -1.4725 3.71911 4
      vertex -1.23607 3.80423 0
      vertex -1.4725 3.71911 0
    endloop
  endfacet
  facet normal -0.827082 -0.562081 0
    outer loop
      vertex -3.23607 -2.35114 0
      vertex -3.37731 -2.14331 4
      vertex -3.37731 -2.14331 0
    endloop
  endfacet
  facet normal -0.827082 -0.562081 0
    outer loop
      vertex -3.37731 -2.14331 4
      vertex -3.23607 -2.35114 0
      vertex -3.23607 -2.35114 4
    endloop
  endfacet
  facet normal 0.960294 0.27899 0
    outer loop
      vertex 3.87433 0.994759 4
      vertex 3.80423 1.23607 0
      vertex 3.80423 1.23607 4
    endloop
  endfacet
  facet normal 0.960294 0.27899 0
    outer loop
      vertex 3.80423 1.23607 0
      vertex 3.87433 0.994759 4
      vertex 3.87433 0.994759 0
    endloop
  endfacet
  facet normal -0.827082 0.562081 0
    outer loop
      vertex -3.37731 2.14331 0
      vertex -3.23607 2.35114 4
      vertex -3.23607 2.35114 0
    endloop
  endfacet
  facet normal -0.827082 0.562081 0
    outer loop
      vertex -3.23607 2.35114 4
      vertex -3.37731 2.14331 0
      vertex -3.37731 2.14331 4
    endloop
  endfacet
  facet normal 0.891007 -0.45399 0
    outer loop
      vertex 3.50523 -1.92701 4
      vertex 3.61931 -1.70312 0
      vertex 3.61931 -1.70312 4
    endloop
  endfacet
  facet normal 0.891007 -0.45399 0
    outer loop
      vertex 3.61931 -1.70312 0
      vertex 3.50523 -1.92701 4
      vertex 3.50523 -1.92701 0
    endloop
  endfacet
  facet normal 0.218143 -0.975917 0
    outer loop
      vertex 0.749525 -3.92915 0
      vertex 0.994759 -3.87433 4
      vertex 0.749525 -3.92915 4
    endloop
  endfacet
  facet normal 0.218143 -0.975917 0
    outer loop
      vertex 0.994759 -3.87433 4
      vertex 0.749525 -3.92915 0
      vertex 0.994759 -3.87433 0
    endloop
  endfacet
  facet normal 0.707107 -0.707107 0
    outer loop
      vertex 2.73819 -2.91587 4
      vertex 2.91587 -2.73819 0
      vertex 2.91587 -2.73819 4
    endloop
  endfacet
  facet normal 0.707107 -0.707107 0
    outer loop
      vertex 2.91587 -2.73819 0
      vertex 2.73819 -2.91587 4
      vertex 2.73819 -2.91587 0
    endloop
  endfacet
  facet normal 0.987689 -0.156433 0
    outer loop
      vertex 3.92915 -0.749525 4
      vertex 3.96846 -0.501332 0
      vertex 3.96846 -0.501332 4
    endloop
  endfacet
  facet normal 0.987689 -0.156433 0
    outer loop
      vertex 3.96846 -0.501332 0
      vertex 3.92915 -0.749525 4
      vertex 3.92915 -0.749525 0
    endloop
  endfacet
  facet normal 0.975917 -0.218143 0
    outer loop
      vertex 3.87433 -0.994759 4
      vertex 3.92915 -0.749525 0
      vertex 3.92915 -0.749525 4
    endloop
  endfacet
  facet normal 0.975917 -0.218143 0
    outer loop
      vertex 3.92915 -0.749525 0
      vertex 3.87433 -0.994759 4
      vertex 3.87433 -0.994759 0
    endloop
  endfacet
  facet normal -0.338738 -0.940881 0
    outer loop
      vertex -1.4725 -3.71911 0
      vertex -1.23607 -3.80423 4
      vertex -1.4725 -3.71911 4
    endloop
  endfacet
  facet normal -0.338738 -0.940881 -0
    outer loop
      vertex -1.23607 -3.80423 4
      vertex -1.4725 -3.71911 0
      vertex -1.23607 -3.80423 0
    endloop
  endfacet
  facet normal 0.917754 0.39715 0
    outer loop
      vertex 3.71911 1.4725 4
      vertex 3.61931 1.70312 0
      vertex 3.61931 1.70312 4
    endloop
  endfacet
  facet normal 0.917754 0.39715 0
    outer loop
      vertex 3.61931 1.70312 0
      vertex 3.71911 1.4725 4
      vertex 3.71911 1.4725 0
    endloop
  endfacet
  facet normal 0.891007 0.45399 0
    outer loop
      vertex 3.61931 1.70312 4
      vertex 3.50523 1.92701 0
      vertex 3.50523 1.92701 4
    endloop
  endfacet
  facet normal 0.891007 0.45399 0
    outer loop
      vertex 3.50523 1.92701 0
      vertex 3.61931 1.70312 4
      vertex 3.61931 1.70312 0
    endloop
  endfacet
  facet normal 0.750113 0.66131 0
    outer loop
      vertex 3.08205 2.5497 4
      vertex 2.91587 2.73819 0
      vertex 2.91587 2.73819 4
    endloop
  endfacet
  facet normal 0.750113 0.66131 0
    outer loop
      vertex 2.91587 2.73819 0
      vertex 3.08205 2.5497 4
      vertex 3.08205 2.5497 0
    endloop
  endfacet
  facet normal 0.218143 0.975917 -0
    outer loop
      vertex 0.994759 3.87433 0
      vertex 0.749525 3.92915 4
      vertex 0.994759 3.87433 4
    endloop
  endfacet
  facet normal 0.218143 0.975917 0
    outer loop
      vertex 0.749525 3.92915 4
      vertex 0.994759 3.87433 0
      vertex 0.749525 3.92915 0
    endloop
  endfacet
  facet normal 0.338738 0.940881 -0
    outer loop
      vertex 1.4725 3.71911 0
      vertex 1.23607 3.80423 4
      vertex 1.4725 3.71911 4
    endloop
  endfacet
  facet normal 0.338738 0.940881 0
    outer loop
      vertex 1.23607 3.80423 4
      vertex 1.4725 3.71911 0
      vertex 1.23607 3.80423 0
    endloop
  endfacet
  facet normal 0.094109 0.995562 -0
    outer loop
      vertex 0.501332 3.96846 0
      vertex 0.251162 3.99211 4
      vertex 0.501332 3.96846 4
    endloop
  endfacet
  facet normal 0.094109 0.995562 0
    outer loop
      vertex 0.251162 3.99211 4
      vertex 0.501332 3.96846 0
      vertex 0.251162 3.99211 0
    endloop
  endfacet
  facet normal 0.61291 0.790153 -0
    outer loop
      vertex 2.5497 3.08205 0
      vertex 2.35114 3.23607 4
      vertex 2.5497 3.08205 4
    endloop
  endfacet
  facet normal 0.61291 0.790153 0
    outer loop
      vertex 2.35114 3.23607 4
      vertex 2.5497 3.08205 0
      vertex 2.35114 3.23607 0
    endloop
  endfacet
  facet normal 0.509043 0.860741 -0
    outer loop
      vertex 2.14331 3.37731 0
      vertex 1.92701 3.50523 4
      vertex 2.14331 3.37731 4
    endloop
  endfacet
  facet normal 0.509043 0.860741 0
    outer loop
      vertex 1.92701 3.50523 4
      vertex 2.14331 3.37731 0
      vertex 1.92701 3.50523 0
    endloop
  endfacet
  facet normal 0.562081 0.827082 -0
    outer loop
      vertex 2.35114 3.23607 0
      vertex 2.14331 3.37731 4
      vertex 2.35114 3.23607 4
    endloop
  endfacet
  facet normal 0.562081 0.827082 0
    outer loop
      vertex 2.14331 3.37731 4
      vertex 2.35114 3.23607 0
      vertex 2.14331 3.37731 0
    endloop
  endfacet
  facet normal -0.975917 0.218143 0
    outer loop
      vertex -3.92915 0.749525 0
      vertex -3.87433 0.994759 4
      vertex -3.87433 0.994759 0
    endloop
  endfacet
  facet normal -0.975917 0.218143 0
    outer loop
      vertex -3.87433 0.994759 4
      vertex -3.92915 0.749525 0
      vertex -3.92915 0.749525 4
    endloop
  endfacet
  facet normal -0.940881 0.338738 0
    outer loop
      vertex -3.80423 1.23607 0
      vertex -3.71911 1.4725 4
      vertex -3.71911 1.4725 0
    endloop
  endfacet
  facet normal -0.940881 0.338738 0
    outer loop
      vertex -3.71911 1.4725 4
      vertex -3.80423 1.23607 0
      vertex -3.80423 1.23607 4
    endloop
  endfacet
  facet normal -0.995562 0.094109 0
    outer loop
      vertex -3.99211 0.251162 0
      vertex -3.96846 0.501332 4
      vertex -3.96846 0.501332 0
    endloop
  endfacet
  facet normal -0.995562 0.094109 0
    outer loop
      vertex -3.96846 0.501332 4
      vertex -3.99211 0.251162 0
      vertex -3.99211 0.251162 4
    endloop
  endfacet
  facet normal -0.509043 0.860741 0
    outer loop
      vertex -1.92701 3.50523 0
      vertex -2.14331 3.37731 4
      vertex -1.92701 3.50523 4
    endloop
  endfacet
  facet normal -0.509043 0.860741 0
    outer loop
      vertex -2.14331 3.37731 4
      vertex -1.92701 3.50523 0
      vertex -2.14331 3.37731 0
    endloop
  endfacet
  facet normal -0.562081 0.827082 0
    outer loop
      vertex -2.14331 3.37731 0
      vertex -2.35114 3.23607 4
      vertex -2.14331 3.37731 4
    endloop
  endfacet
  facet normal -0.562081 0.827082 0
    outer loop
      vertex -2.35114 3.23607 4
      vertex -2.14331 3.37731 0
      vertex -2.35114 3.23607 0
    endloop
  endfacet
  facet normal -0.0314127 0.999506 0
    outer loop
      vertex 0 4 0
      vertex -0.251162 3.99211 4
      vertex 0 4 4
    endloop
  endfacet
  facet normal -0.0314127 0.999506 0
    outer loop
      vertex -0.251162 3.99211 4
      vertex 0 4 0
      vertex -0.251162 3.99211 0
    endloop
  endfacet
  facet normal -0.27899 0.960294 0
    outer loop
      vertex -0.994759 3.87433 0
      vertex -1.23607 3.80423 4
      vertex -0.994759 3.87433 4
    endloop
  endfacet
  facet normal -0.27899 0.960294 0
    outer loop
      vertex -1.23607 3.80423 4
      vertex -0.994759 3.87433 0
      vertex -1.23607 3.80423 0
    endloop
  endfacet
  facet normal 0.999506 -0.0314127 0
    outer loop
      vertex 3.99211 -0.251162 4
      vertex 4 0 0
      vertex 4 0 4
    endloop
  endfacet
  facet normal 0.999506 -0.0314127 0
    outer loop
      vertex 4 0 0
      vertex 3.99211 -0.251162 4
      vertex 3.99211 -0.251162 0
    endloop
  endfacet
  facet normal 0.0314127 -0.999506 0
    outer loop
      vertex 0 -4 0
      vertex 0.251162 -3.99211 4
      vertex 0 -4 4
    endloop
  endfacet
  facet normal 0.0314127 -0.999506 0
    outer loop
      vertex 0.251162 -3.99211 4
      vertex 0 -4 0
      vertex 0.251162 -3.99211 0
    endloop
  endfacet
  facet normal -0.707107 -0.707107 0
    outer loop
      vertex -2.73819 -2.91587 0
      vertex -2.91587 -2.73819 4
      vertex -2.91587 -2.73819 0
    endloop
  endfacet
  facet normal -0.707107 -0.707107 0
    outer loop
      vertex -2.91587 -2.73819 4
      vertex -2.73819 -2.91587 0
      vertex -2.73819 -2.91587 4
    endloop
  endfacet
  facet normal -0.0314127 -0.999506 0
    outer loop
      vertex -0.251162 -3.99211 0
      vertex 0 -4 4
      vertex -0.251162 -3.99211 4
    endloop
  endfacet
  facet normal -0.0314127 -0.999506 -0
    outer loop
      vertex 0 -4 4
      vertex -0.251162 -3.99211 0
      vertex 0 -4 0
    endloop
  endfacet
  facet normal -0.750113 -0.66131 0
    outer loop
      vertex -2.91587 -2.73819 0
      vertex -3.08205 -2.5497 4
      vertex -3.08205 -2.5497 0
    endloop
  endfacet
  facet normal -0.750113 -0.66131 0
    outer loop
      vertex -3.08205 -2.5497 4
      vertex -2.91587 -2.73819 0
      vertex -2.91587 -2.73819 4
    endloop
  endfacet
  facet normal -0.917754 -0.39715 0
    outer loop
      vertex -3.61931 -1.70312 0
      vertex -3.71911 -1.4725 4
      vertex -3.71911 -1.4725 0
    endloop
  endfacet
  facet normal -0.917754 -0.39715 0
    outer loop
      vertex -3.71911 -1.4725 4
      vertex -3.61931 -1.70312 0
      vertex -3.61931 -1.70312 4
    endloop
  endfacet
  facet normal -0.999506 -0.0314127 0
    outer loop
      vertex -3.99211 -0.251162 0
      vertex -4 0 4
      vertex -4 0 0
    endloop
  endfacet
  facet normal -0.999506 -0.0314127 0
    outer loop
      vertex -4 0 4
      vertex -3.99211 -0.251162 0
      vertex -3.99211 -0.251162 4
    endloop
  endfacet
  facet normal 0 0 -1
    outer loop
      vertex 3.99211 -0.251162 0
      vertex 3.99211 0.251162 0
      vertex 4 0 0
    endloop
  endfacet
  facet normal 0 0 -1
    outer loop
      vertex 3.96846 -0.501332 0
      vertex 3.99211 0.251162 0
      vertex 3.99211 -0.251162 0
    endloop
  endfacet
  facet normal 0 0 -1
    outer loop
      vertex 3.96846 -0.501332 0
      vertex 3.96846 0.501332 0
      vertex 3.99211 0.251162 0
    endloop
  endfacet
  facet normal 0 0 -1
    outer loop
      vertex 3.92915 -0.749525 0
      vertex 3.96846 0.501332 0
      vertex 3.96846 -0.501332 0
    endloop
  endfacet
  facet normal 0 0 -1
    outer loop
      vertex 3.92915 -0.749525 0
      vertex 3.92915 0.749525 0
      vertex 3.96846 0.501332 0
    endloop
  endfacet
  facet normal 0 0 -1
    outer loop
      vertex 3.87433 -0.994759 0
      vertex 3.92915 0.749525 0
      vertex 3.92915 -0.749525 0
    endloop
  endfacet
  facet normal 0 0 -1
    outer loop
      vertex 3.87433 -0.994759 0
      vertex 3.87433 0.994759 0
      vertex 3.92915 0.749525 0
    endloop
  endfacet
  facet normal 0 0 -1
    outer loop
      vertex 3.80423 -1.23607 0
      vertex 3.87433 0.994759 0
      vertex 3.87433 -0.994759 0
    endloop
  endfacet
  facet normal 0 0 -1
    outer loop
      vertex 3.80423 -1.23607 0
      vertex 3.80423 1.23607 0
      vertex 3.87433 0.994759 0
    endloop
  endfacet
  facet normal 0 0 -1
    outer loop
      vertex 3.71911 -1.4725 0
      vertex 3.80423 1.23607 0
      vertex 3.80423 -1.23607 0
    endloop
  endfacet
  facet normal 0 0 -1
    outer loop
      vertex 3.71911 -1.4725 0
      vertex 3.71911 1.4725 0
      vertex 3.80423 1.23607 0
    endloop
  endfacet
  facet normal 0 0 -1
    outer loop
      vertex 3.61931 -1.70312 0
      vertex 3.71911 1.4725 0
      vertex 3.71911 -1.4725 0
    endloop
  endfacet
  facet normal 0 0 -1
    outer loop
      vertex 3.61931 -1.70312 0
      vertex 3.61931 1.70312 0
      vertex 3.71911 1.4725 0
    endloop
  endfacet
  facet normal 0 0 -1
    outer loop
      vertex 3.50523 -1.92701 0
      vertex 3.61931 1.70312 0
      vertex 3.61931 -1.70312 0
    endloop
  endfacet
  facet normal 0 0 -1
    outer loop
      vertex 3.50523 -1.92701 0
      vertex 3.50523 1.92701 0
      vertex 3.61931 1.70312 0
    endloop
  endfacet
  facet normal 0 0 -1
    outer loop
      vertex 3.37731 -2.14331 0
      vertex 3.50523 1.92701 0
      vertex 3.50523 -1.92701 0
    endloop
  endfacet
  facet normal 0 0 -1
    outer loop
      vertex 3.37731 -2.14331 0
      vertex 3.37731 2.14331 0
      vertex 3.50523 1.92701 0
    endloop
  endfacet
  facet normal 0 0 -1
    outer loop
      vertex 3.23607 -2.35114 0
      vertex 3.37731 2.14331 0
      vertex 3.37731 -2.14331 0
    endloop
  endfacet
  facet normal 0 0 -1
    outer loop
      vertex 3.23607 -2.35114 0
      vertex 3.23607 2.35114 0
      vertex 3.37731 2.14331 0
    endloop
  endfacet
  facet normal 0 0 -1
    outer loop
      vertex 3.08205 -2.5497 0
      vertex 3.23607 2.35114 0
      vertex 3.23607 -2.35114 0
    endloop
  endfacet
  facet normal 0 0 -1
    outer loop
      vertex 3.08205 -2.5497 0
      vertex 3.08205 2.5497 0
      vertex 3.23607 2.35114 0
    endloop
  endfacet
  facet normal 0 0 -1
    outer loop
      vertex 2.91587 -2.73819 0
      vertex 3.08205 2.5497 0
      vertex 3.08205 -2.5497 0
    endloop
  endfacet
  facet normal 0 0 -1
    outer loop
      vertex 2.91587 -2.73819 0
      vertex 2.91587 2.73819 0
      vertex 3.08205 2.5497 0
    endloop
  endfacet
  facet normal 0 0 -1
    outer loop
      vertex 2.73819 -2.91587 0
      vertex 2.91587 2.73819 0
      vertex 2.91587 -2.73819 0
    endloop
  endfacet
  facet normal 0 0 -1
    outer loop
      vertex 2.73819 -2.91587 0
      vertex 2.73819 2.91587 0
      vertex 2.91587 2.73819 0
    endloop
  endfacet
  facet normal 0 0 -1
    outer loop
      vertex 2.5497 -3.08205 0
      vertex 2.73819 2.91587 0
      vertex 2.73819 -2.91587 0
    endloop
  endfacet
  facet normal 0 0 -1
    outer loop
      vertex 2.5497 -3.08205 0
      vertex 2.5497 3.08205 0
      vertex 2.73819 2.91587 0
    endloop
  endfacet
  facet normal 0 0 -1
    outer loop
      vertex 2.35114 -3.23607 0
      vertex 2.5497 3.08205 0
      vertex 2.5497 -3.08205 0
    endloop
  endfacet
  facet normal 0 0 -1
    outer loop
      vertex 2.35114 -3.23607 0
      vertex 2.35114 3.23607 0
      vertex 2.5497 3.08205 0
    endloop
  endfacet
  facet normal 0 0 -1
    outer loop
      vertex 2.14331 -3.37731 0
      vertex 2.35114 3.23607 0
      vertex 2.35114 -3.23607 0
    endloop
  endfacet
  facet normal 0 0 -1
    outer loop
      vertex 2.14331 -3.37731 0
      vertex 2.14331 3.37731 0
      vertex 2.35114 3.23607 0
    endloop
  endfacet
  facet normal 0 0 -1
    outer loop
      vertex 1.92701 -3.50523 0
      vertex 2.14331 3.37731 0
      vertex 2.14331 -3.37731 0
    endloop
  endfacet
  facet normal 0 0 -1
    outer loop
      vertex 1.92701 -3.50523 0
      vertex 1.92701 3.50523 0
      vertex 2.14331 3.37731 0
    endloop
  endfacet
  facet normal 0 0 -1
    outer loop
      vertex 1.70312 -3.61931 0
      vertex 1.92701 3.50523 0
      vertex 1.92701 -3.50523 0
    endloop
  endfacet
  facet normal 0 0 -1
    outer loop
      vertex 1.70312 -3.61931 0
      vertex 1.70312 3.61931 0
      vertex 1.92701 3.50523 0
    endloop
  endfacet
  facet normal 0 0 -1
    outer loop
      vertex 1.4725 -3.71911 0
      vertex 1.70312 3.61931 0
      vertex 1.70312 -3.61931 0
    endloop
  endfacet
  facet normal 0 0 -1
    outer loop
      vertex 1.4725 -3.71911 0
      vertex 1.4725 3.71911 0
      vertex 1.70312 3.61931 0
    endloop
  endfacet
  facet normal 0 0 -1
    outer loop
      vertex 1.23607 -3.80423 0
      vertex 1.4725 3.71911 0
      vertex 1.4725 -3.71911 0
    endloop
  endfacet
  facet normal 0 0 -1
    outer loop
      vertex 1.23607 -3.80423 0
      vertex 1.23607 3.80423 0
      vertex 1.4725 3.71911 0
    endloop
  endfacet
  facet normal 0 0 -1
    outer loop
      vertex 0.994759 -3.87433 0
      vertex 1.23607 3.80423 0
      vertex 1.23607 -3.80423 0
    endloop
  endfacet
  facet normal 0 0 -1
    outer loop
      vertex 0.994759 -3.87433 0
      vertex 0.994759 3.87433 0
      vertex 1.23607 3.80423 0
    endloop
  endfacet
  facet normal 0 0 -1
    outer loop
      vertex 0.749525 -3.92915 0
      vertex 0.994759 3.87433 0
      vertex 0.994759 -3.87433 0
    endloop
  endfacet
  facet normal 0 0 -1
    outer loop
      vertex 0.749525 -3.92915 0
      vertex 0.749525 3.92915 0
      vertex 0.994759 3.87433 0
    endloop
  endfacet
  facet normal 0 0 -1
    outer loop
      vertex 0.501332 -3.96846 0
      vertex 0.749525 3.92915 0
      vertex 0.749525 -3.92915 0
    endloop
  endfacet
  facet normal 0 0 -1
    outer loop
      vertex 0.501332 -3.96846 0
      vertex 0.501332 3.96846 0
      vertex 0.749525 3.92915 0
    endloop
  endfacet
  facet normal 0 0 -1
    outer loop
      vertex 0.251162 -3.99211 0
      vertex 0.501332 3.96846 0
      vertex 0.501332 -3.96846 0
    endloop
  endfacet
  facet normal 0 0 -1
    outer loop
      vertex 0.251162 -3.99211 0
      vertex 0.251162 3.99211 0
      vertex 0.501332 3.96846 0
    endloop
  endfacet
  facet normal 0 0 -1
    outer loop
      vertex 0 -4 0
      vertex 0.251162 3.99211 0
      vertex 0.251162 -3.99211 0
    endloop
  endfacet
  facet normal 0 0 -1
    outer loop
      vertex 0 -4 0
      vertex 0 4 0
      vertex 0.251162 3.99211 0
    endloop
  endfacet
  facet normal 0 0 -1
    outer loop
      vertex -0.251162 -3.99211 0
      vertex 0 4 0
      vertex 0 -4 0
    endloop
  endfacet
  facet normal 0 0 -1
    outer loop
      vertex -0.251162 -3.99211 0
      vertex -0.251162 3.99211 0
      vertex 0 4 0
    endloop
  endfacet
  facet normal 0 0 -1
    outer loop
      vertex -0.501332 -3.96846 0
      vertex -0.251162 3.99211 0
      vertex -0.251162 -3.99211 0
    endloop
  endfacet
  facet normal 0 0 -1
    outer loop
      vertex -0.501332 -3.96846 0
      vertex -0.501332 3.96846 0
      vertex -0.251162 3.99211 0
    endloop
  endfacet
  facet normal 0 0 -1
    outer loop
      vertex -0.749525 -3.92915 0
      vertex -0.501332 3.96846 0
      vertex -0.501332 -3.96846 0
    endloop
  endfacet
  facet normal 0 0 -1
    outer loop
      vertex -0.749525 -3.92915 0
      vertex -0.749525 3.92915 0
      vertex -0.501332 3.96846 0
    endloop
  endfacet
  facet normal 0 0 -1
    outer loop
      vertex -0.994759 -3.87433 0
      vertex -0.749525 3.92915 0
      vertex -0.749525 -3.92915 0
    endloop
  endfacet
  facet normal 0 0 -1
    outer loop
      vertex -0.994759 -3.87433 0
      vertex -0.994759 3.87433 0
      vertex -0.749525 3.92915 0
    endloop
  endfacet
  facet normal 0 0 -1
    outer loop
      vertex -1.23607 -3.80423 0
      vertex -0.994759 3.87433 0
      vertex -0.994759 -3.87433 0
    endloop
  endfacet
  facet normal 0 0 -1
    outer loop
      vertex -1.23607 -3.80423 0
      vertex -1.23607 3.80423 0
      vertex -0.994759 3.87433 0
    endloop
  endfacet
  facet normal 0 0 -1
    outer loop
      vertex -1.4725 -3.71911 0
      vertex -1.23607 3.80423 0
      vertex -1.23607 -3.80423 0
    endloop
  endfacet
  facet normal 0 0 -1
    outer loop
      vertex -1.4725 -3.71911 0
      vertex -1.4725 3.71911 0
      vertex -1.23607 3.80423 0
    endloop
  endfacet
  facet normal 0 0 -1
    outer loop
      vertex -1.70312 -3.61931 0
      vertex -1.4725 3.71911 0
      vertex -1.4725 -3.71911 0
    endloop
  endfacet
  facet normal 0 0 -1
    outer loop
      vertex -1.70312 -3.61931 0
      vertex -1.70312 3.61931 0
      vertex -1.4725 3.71911 0
    endloop
  endfacet
  facet normal 0 0 -1
    outer loop
      vertex -1.92701 -3.50523 0
      vertex -1.70312 3.61931 0
      vertex -1.70312 -3.61931 0
    endloop
  endfacet
  facet normal 0 0 -1
    outer loop
      vertex -1.92701 -3.50523 0
      vertex -1.92701 3.50523 0
      vertex -1.70312 3.61931 0
    endloop
  endfacet
  facet normal 0 0 -1
    outer loop
      vertex -2.14331 -3.37731 0
      vertex -1.92701 3.50523 0
      vertex -1.92701 -3.50523 0
    endloop
  endfacet
  facet normal 0 0 -1
    outer loop
      vertex -2.14331 -3.37731 0
      vertex -2.14331 3.37731 0
      vertex -1.92701 3.50523 0
    endloop
  endfacet
  facet normal 0 0 -1
    outer loop
      vertex -2.35114 -3.23607 0
      vertex -2.14331 3.37731 0
      vertex -2.14331 -3.37731 0
    endloop
  endfacet
  facet normal 0 0 -1
    outer loop
      vertex -2.35114 -3.23607 0
      vertex -2.35114 3.23607 0
      vertex -2.14331 3.37731 0
    endloop
  endfacet
  facet normal 0 0 -1
    outer loop
      vertex -2.5497 -3.08205 0
      vertex -2.35114 3.23607 0
      vertex -2.35114 -3.23607 0
    endloop
  endfacet
  facet normal 0 0 -1
    outer loop
      vertex -2.5497 -3.08205 0
      vertex -2.5497 3.08205 0
      vertex -2.35114 3.23607 0
    endloop
  endfacet
  facet normal 0 0 -1
    outer loop
      vertex -2.73819 -2.91587 0
      vertex -2.5497 3.08205 0
      vertex -2.5497 -3.08205 0
    endloop
  endfacet
  facet normal 0 0 -1
    outer loop
      vertex -2.73819 -2.91587 0
      vertex -2.73819 2.91587 0
      vertex -2.5497 3.08205 0
    endloop
  endfacet
  facet normal 0 0 -1
    outer loop
      vertex -2.91587 -2.73819 0
      vertex -2.73819 2.91587 0
      vertex -2.73819 -2.91587 0
    endloop
  endfacet
  facet normal 0 0 -1
    outer loop
      vertex -2.91587 -2.73819 0
      vertex -2.91587 2.73819 0
      vertex -2.73819 2.91587 0
    endloop
  endfacet
  facet normal 0 0 -1
    outer loop
      vertex -3.08205 -2.5497 0
      vertex -2.91587 2.73819 0
      vertex -2.91587 -2.73819 0
    endloop
  endfacet
  facet normal 0 0 -1
    outer loop
      vertex -3.08205 -2.5497 0
      vertex -3.08205 2.5497 0
      vertex -2.91587 2.73819 0
    endloop
  endfacet
  facet normal 0 0 -1
    outer loop
      vertex -3.23607 -2.35114 0
      vertex -3.08205 2.5497 0
      vertex -3.08205 -2.5497 0
    endloop
  endfacet
  facet normal 0 0 -1
    outer loop
      vertex -3.23607 -2.35114 0
      vertex -3.23607 2.35114 0
      vertex -3.08205 2.5497 0
    endloop
  endfacet
  facet normal 0 0 -1
    outer loop
      vertex -3.37731 -2.14331 0
      vertex -3.23607 2.35114 0
      vertex -3.23607 -2.35114 0
    endloop
  endfacet
  facet normal 0 0 -1
    outer loop
      vertex -3.37731 -2.14331 0
      vertex -3.37731 2.14331 0
      vertex -3.23607 2.35114 0
    endloop
  endfacet
  facet normal 0 0 -1
    outer loop
      vertex -3.50523 -1.92701 0
      vertex -3.37731 2.14331 0
      vertex -3.37731 -2.14331 0
    endloop
  endfacet
  facet normal 0 0 -1
    outer loop
      vertex -3.50523 -1.92701 0
      vertex -3.50523 1.92701 0
      vertex -3.37731 2.14331 0
    endloop
  endfacet
  facet normal 0 0 -1
    outer loop
      vertex -3.61931 -1.70312 0
      vertex -3.50523 1.92701 0
      vertex -3.50523 -1.92701 0
    endloop
  endfacet
  facet normal 0 0 -1
    outer loop
      vertex -3.61931 -1.70312 0
      vertex -3.61931 1.70312 0
      vertex -3.50523 1.92701 0
    endloop
  endfacet
  facet normal 0 0 -1
    outer loop
      vertex -3.71911 -1.4725 0
      vertex -3.61931 1.70312 0
      vertex -3.61931 -1.70312 0
    endloop
  endfacet
  facet normal 0 0 -1
    outer loop
      vertex -3.71911 -1.4725 0
      vertex -3.71911 1.4725 0
      vertex -3.61931 1.70312 0
    endloop
  endfacet
  facet normal 0 0 -1
    outer loop
      vertex -3.80423 -1.23607 0
      vertex -3.71911 1.4725 0
      vertex -3.71911 -1.4725 0
    endloop
  endfacet
  facet normal 0 0 -1
    outer loop
      vertex -3.80423 -1.23607 0
      vertex -3.80423 1.23607 0
      vertex -3.71911 1.4725 0
    endloop
  endfacet
  facet normal 0 0 -1
    outer loop
      vertex -3.87433 -0.994759 0
      vertex -3.80423 1.23607 0
      vertex -3.80423 -1.23607 0
    endloop
  endfacet
  facet normal 0 0 -1
    outer loop
      vertex -3.87433 -0.994759 0
      vertex -3.87433 0.994759 0
      vertex -3.80423 1.23607 0
    endloop
  endfacet
  facet normal 0 0 -1
    outer loop
      vertex -3.92915 -0.749525 0
      vertex -3.87433 0.994759 0
      vertex -3.87433 -0.994759 0
    endloop
  endfacet
  facet normal 0 0 -1
    outer loop
      vertex -3.92915 -0.749525 0
      vertex -3.92915 0.749525 0
      vertex -3.87433 0.994759 0
    endloop
  endfacet
  facet normal 0 0 -1
    outer loop
      vertex -3.96846 -0.501332 0
      vertex -3.92915 0.749525 0
      vertex -3.92915 -0.749525 0
    endloop
  endfacet
  facet normal 0 0 -1
    outer loop
      vertex -3.96846 -0.501332 0
      vertex -3.96846 0.501332 0
      vertex -3.92915 0.749525 0
    endloop
  endfacet
  facet normal 0 0 -1
    outer loop
      vertex -3.99211 -0.251162 0
      vertex -3.96846 0.501332 0
      vertex -3.96846 -0.501332 0
    endloop
  endfacet
  facet normal 0 0 -1
    outer loop
      vertex -3.99211 -0.251162 0
      vertex -3.99211 0.251162 0
      vertex -3.96846 0.501332 0
    endloop
  endfacet
  facet normal 0 -0 -1
    outer loop
      vertex -3.99211 0.251162 0
      vertex -3.99211 -0.251162 0
      vertex -4 0 0
    endloop
  endfacet
  facet normal 0.995562 0.094109 0
    outer loop
      vertex 3.99211 0.251162 4
      vertex 3.96846 0.501332 0
      vertex 3.96846 0.501332 4
    endloop
  endfacet
  facet normal 0.995562 0.094109 0
    outer loop
      vertex 3.96846 0.501332 0
      vertex 3.99211 0.251162 4
      vertex 3.99211 0.251162 0
    endloop
  endfacet
  facet normal 0.987689 0.156433 0
    outer loop
      vertex 3.96846 0.501332 4
      vertex 3.92915 0.749525 0
      vertex 3.92915 0.749525 4
    endloop
  endfacet
  facet normal 0.987689 0.156433 0
    outer loop
      vertex 3.92915 0.749525 0
      vertex 3.96846 0.501332 4
      vertex 3.96846 0.501332 0
    endloop
  endfacet
  facet normal 0.940881 0.338738 0
    outer loop
      vertex 3.80423 1.23607 4
      vertex 3.71911 1.4725 0
      vertex 3.71911 1.4725 4
    endloop
  endfacet
  facet normal 0.940881 0.338738 0
    outer loop
      vertex 3.71911 1.4725 0
      vertex 3.80423 1.23607 4
      vertex 3.80423 1.23607 0
    endloop
  endfacet
  facet normal 0.790153 0.61291 0
    outer loop
      vertex 3.23607 2.35114 4
      vertex 3.08205 2.5497 0
      vertex 3.08205 2.5497 4
    endloop
  endfacet
  facet normal 0.790153 0.61291 0
    outer loop
      vertex 3.08205 2.5497 0
      vertex 3.23607 2.35114 4
      vertex 3.23607 2.35114 0
    endloop
  endfacet
  facet normal 0.860741 0.509043 0
    outer loop
      vertex 3.50523 1.92701 4
      vertex 3.37731 2.14331 0
      vertex 3.37731 2.14331 4
    endloop
  endfacet
  facet normal 0.860741 0.509043 0
    outer loop
      vertex 3.37731 2.14331 0
      vertex 3.50523 1.92701 4
      vertex 3.50523 1.92701 0
    endloop
  endfacet
  facet normal 0.827082 0.562081 0
    outer loop
      vertex 3.37731 2.14331 4
      vertex 3.23607 2.35114 0
      vertex 3.23607 2.35114 4
    endloop
  endfacet
  facet normal 0.827082 0.562081 0
    outer loop
      vertex 3.23607 2.35114 0
      vertex 3.37731 2.14331 4
      vertex 3.37731 2.14331 0
    endloop
  endfacet
  facet normal 0.27899 0.960294 -0
    outer loop
      vertex 1.23607 3.80423 0
      vertex 0.994759 3.87433 4
      vertex 1.23607 3.80423 4
    endloop
  endfacet
  facet normal 0.27899 0.960294 0
    outer loop
      vertex 0.994759 3.87433 4
      vertex 1.23607 3.80423 0
      vertex 0.994759 3.87433 0
    endloop
  endfacet
  facet normal 0.156433 0.987689 -0
    outer loop
      vertex 0.749525 3.92915 0
      vertex 0.501332 3.96846 4
      vertex 0.749525 3.92915 4
    endloop
  endfacet
  facet normal 0.156433 0.987689 0
    outer loop
      vertex 0.501332 3.96846 4
      vertex 0.749525 3.92915 0
      vertex 0.501332 3.96846 0
    endloop
  endfacet
  facet normal 0.39715 0.917754 -0
    outer loop
      vertex 1.70312 3.61931 0
      vertex 1.4725 3.71911 4
      vertex 1.70312 3.61931 4
    endloop
  endfacet
  facet normal 0.39715 0.917754 0
    outer loop
      vertex 1.4725 3.71911 4
      vertex 1.70312 3.61931 0
      vertex 1.4725 3.71911 0
    endloop
  endfacet
  facet normal 0.66131 0.750113 -0
    outer loop
      vertex 2.73819 2.91587 0
      vertex 2.5497 3.08205 4
      vertex 2.73819 2.91587 4
    endloop
  endfacet
  facet normal 0.66131 0.750113 0
    outer loop
      vertex 2.5497 3.08205 4
      vertex 2.73819 2.91587 0
      vertex 2.5497 3.08205 0
    endloop
  endfacet
  facet normal -0.860741 0.509043 0
    outer loop
      vertex -3.50523 1.92701 0
      vertex -3.37731 2.14331 4
      vertex -3.37731 2.14331 0
    endloop
  endfacet
  facet normal -0.860741 0.509043 0
    outer loop
      vertex -3.37731 2.14331 4
      vertex -3.50523 1.92701 0
      vertex -3.50523 1.92701 4
    endloop
  endfacet
  facet normal -0.917754 0.39715 0
    outer loop
      vertex -3.71911 1.4725 0
      vertex -3.61931 1.70312 4
      vertex -3.61931 1.70312 0
    endloop
  endfacet
  facet normal -0.917754 0.39715 0
    outer loop
      vertex -3.61931 1.70312 4
      vertex -3.71911 1.4725 0
      vertex -3.71911 1.4725 4
    endloop
  endfacet
  facet normal 0 0 1
    outer loop
      vertex 3.99211 0.251162 4
      vertex 3.99211 -0.251162 4
      vertex 4 0 4
    endloop
  endfacet
  facet normal 0 0 1
    outer loop
      vertex 3.96846 0.501332 4
      vertex 3.99211 -0.251162 4
      vertex 3.99211 0.251162 4
    endloop
  endfacet
  facet normal 0 0 1
    outer loop
      vertex 3.96846 0.501332 4
      vertex 3.96846 -0.501332 4
      vertex 3.99211 -0.251162 4
    endloop
  endfacet
  facet normal 0 0 1
    outer loop
      vertex 3.92915 0.749525 4
      vertex 3.96846 -0.501332 4
      vertex 3.96846 0.501332 4
    endloop
  endfacet
  facet normal 0 0 1
    outer loop
      vertex 3.92915 0.749525 4
      vertex 3.92915 -0.749525 4
      vertex 3.96846 -0.501332 4
    endloop
  endfacet
  facet normal 0 0 1
    outer loop
      vertex 3.87433 0.994759 4
      vertex 3.92915 -0.749525 4
      vertex 3.92915 0.749525 4
    endloop
  endfacet
  facet normal 0 0 1
    outer loop
      vertex 3.87433 0.994759 4
      vertex 3.87433 -0.994759 4
      vertex 3.92915 -0.749525 4
    endloop
  endfacet
  facet normal 0 0 1
    outer loop
      vertex 3.80423 1.23607 4
      vertex 3.87433 -0.994759 4
      vertex 3.87433 0.994759 4
    endloop
  endfacet
  facet normal 0 0 1
    outer loop
      vertex 3.80423 1.23607 4
      vertex 3.80423 -1.23607 4
      vertex 3.87433 -0.994759 4
    endloop
  endfacet
  facet normal 0 0 1
    outer loop
      vertex 3.71911 1.4725 4
      vertex 3.80423 -1.23607 4
      vertex 3.80423 1.23607 4
    endloop
  endfacet
  facet normal 0 0 1
    outer loop
      vertex 3.71911 1.4725 4
      vertex 3.71911 -1.4725 4
      vertex 3.80423 -1.23607 4
    endloop
  endfacet
  facet normal 0 0 1
    outer loop
      vertex 3.61931 1.70312 4
      vertex 3.71911 -1.4725 4
      vertex 3.71911 1.4725 4
    endloop
  endfacet
  facet normal 0 0 1
    outer loop
      vertex 3.61931 1.70312 4
      vertex 3.61931 -1.70312 4
      vertex 3.71911 -1.4725 4
    endloop
  endfacet
  facet normal 0 0 1
    outer loop
      vertex 3.50523 1.92701 4
      vertex 3.61931 -1.70312 4
      vertex 3.61931 1.70312 4
    endloop
  endfacet
  facet normal 0 0 1
    outer loop
      vertex 3.50523 1.92701 4
      vertex 3.50523 -1.92701 4
      vertex 3.61931 -1.70312 4
    endloop
  endfacet
  facet normal 0 0 1
    outer loop
      vertex 3.37731 2.14331 4
      vertex 3.50523 -1.92701 4
      vertex 3.50523 1.92701 4
    endloop
  endfacet
  facet normal 0 0 1
    outer loop
      vertex 3.37731 2.14331 4
      vertex 3.37731 -2.14331 4
      vertex 3.50523 -1.92701 4
    endloop
  endfacet
  facet normal 0 0 1
    outer loop
      vertex 3.23607 2.35114 4
      vertex 3.37731 -2.14331 4
      vertex 3.37731 2.14331 4
    endloop
  endfacet
  facet normal 0 0 1
    outer loop
      vertex 3.23607 2.35114 4
      vertex 3.23607 -2.35114 4
      vertex 3.37731 -2.14331 4
    endloop
  endfacet
  facet normal 0 0 1
    outer loop
      vertex 3.08205 2.5497 4
      vertex 3.23607 -2.35114 4
      vertex 3.23607 2.35114 4
    endloop
  endfacet
  facet normal 0 0 1
    outer loop
      vertex 3.08205 2.5497 4
      vertex 3.08205 -2.5497 4
      vertex 3.23607 -2.35114 4
    endloop
  endfacet
  facet normal 0 0 1
    outer loop
      vertex 2.91587 2.73819 4
      vertex 3.08205 -2.5497 4
      vertex 3.08205 2.5497 4
    endloop
  endfacet
  facet normal 0 0 1
    outer loop
      vertex 2.91587 2.73819 4
      vertex 2.91587 -2.73819 4
      vertex 3.08205 -2.5497 4
    endloop
  endfacet
  facet normal 0 0 1
    outer loop
      vertex 2.73819 2.91587 4
      vertex 2.91587 -2.73819 4
      vertex 2.91587 2.73819 4
    endloop
  endfacet
  facet normal 0 0 1
    outer loop
      vertex 2.73819 2.91587 4
      vertex 2.73819 -2.91587 4
      vertex 2.91587 -2.73819 4
    endloop
  endfacet
  facet normal 0 0 1
    outer loop
      vertex 2.5497 3.08205 4
      vertex 2.73819 -2.91587 4
      vertex 2.73819 2.91587 4
    endloop
  endfacet
  facet normal 0 0 1
    outer loop
      vertex 2.5497 3.08205 4
      vertex 2.5497 -3.08205 4
      vertex 2.73819 -2.91587 4
    endloop
  endfacet
  facet normal 0 0 1
    outer loop
      vertex 2.35114 3.23607 4
      vertex 2.5497 -3.08205 4
      vertex 2.5497 3.08205 4
    endloop
  endfacet
  facet normal 0 0 1
    outer loop
      vertex 2.35114 3.23607 4
      vertex 2.35114 -3.23607 4
      vertex 2.5497 -3.08205 4
    endloop
  endfacet
  facet normal 0 0 1
    outer loop
      vertex 2.14331 3.37731 4
      vertex 2.35114 -3.23607 4
      vertex 2.35114 3.23607 4
    endloop
  endfacet
  facet normal 0 0 1
    outer loop
      vertex 2.14331 3.37731 4
      vertex 2.14331 -3.37731 4
      vertex 2.35114 -3.23607 4
    endloop
  endfacet
  facet normal 0 0 1
    outer loop
      vertex 1.92701 3.50523 4
      vertex 2.14331 -3.37731 4
      vertex 2.14331 3.37731 4
    endloop
  endfacet
  facet normal 0 0 1
    outer loop
      vertex 1.92701 3.50523 4
      vertex 1.92701 -3.50523 4
      vertex 2.14331 -3.37731 4
    endloop
  endfacet
  facet normal 0 0 1
    outer loop
      vertex 1.70312 3.61931 4
      vertex 1.92701 -3.50523 4
      vertex 1.92701 3.50523 4
    endloop
  endfacet
  facet normal 0 0 1
    outer loop
      vertex 1.70312 3.61931 4
      vertex 1.70312 -3.61931 4
      vertex 1.92701 -3.50523 4
    endloop
  endfacet
  facet normal 0 0 1
    outer loop
      vertex 1.4725 3.71911 4
      vertex 1.70312 -3.61931 4
      vertex 1.70312 3.61931 4
    endloop
  endfacet
  facet normal 0 0 1
    outer loop
      vertex 1.4725 3.71911 4
      vertex 1.4725 -3.71911 4
      vertex 1.70312 -3.61931 4
    endloop
  endfacet
  facet normal 0 0 1
    outer loop
      vertex 1.23607 3.80423 4
      vertex 1.4725 -3.71911 4
      vertex 1.4725 3.71911 4
    endloop
  endfacet
  facet normal 0 0 1
    outer loop
      vertex 1.23607 3.80423 4
      vertex 1.23607 -3.80423 4
      vertex 1.4725 -3.71911 4
    endloop
  endfacet
  facet normal 0 0 1
    outer loop
      vertex 0.994759 3.87433 4
      vertex 1.23607 -3.80423 4
      vertex 1.23607 3.80423 4
    endloop
  endfacet
  facet normal 0 0 1
    outer loop
      vertex 0.994759 3.87433 4
      vertex 0.994759 -3.87433 4
      vertex 1.23607 -3.80423 4
    endloop
  endfacet
  facet normal 0 0 1
    outer loop
      vertex 0.749525 3.92915 4
      vertex 0.994759 -3.87433 4
      vertex 0.994759 3.87433 4
    endloop
  endfacet
  facet normal 0 0 1
    outer loop
      vertex 0.749525 3.92915 4
      vertex 0.749525 -3.92915 4
      vertex 0.994759 -3.87433 4
    endloop
  endfacet
  facet normal 0 0 1
    outer loop
      vertex 0.501332 3.96846 4
      vertex 0.749525 -3.92915 4
      vertex 0.749525 3.92915 4
    endloop
  endfacet
  facet normal 0 0 1
    outer loop
      vertex 0.501332 3.96846 4
      vertex 0.501332 -3.96846 4
      vertex 0.749525 -3.92915 4
    endloop
  endfacet
  facet normal 0 0 1
    outer loop
      vertex 0.251162 3.99211 4
      vertex 0.501332 -3.96846 4
      vertex 0.501332 3.96846 4
    endloop
  endfacet
  facet normal 0 0 1
    outer loop
      vertex 0.251162 3.99211 4
      vertex 0.251162 -3.99211 4
      vertex 0.501332 -3.96846 4
    endloop
  endfacet
  facet normal 0 0 1
    outer loop
      vertex 0 4 4
      vertex 0.251162 -3.99211 4
      vertex 0.251162 3.99211 4
    endloop
  endfacet
  facet normal 0 0 1
    outer loop
      vertex 0 4 4
      vertex 0 -4 4
      vertex 0.251162 -3.99211 4
    endloop
  endfacet
  facet normal -0 0 1
    outer loop
      vertex -0.251162 3.99211 4
      vertex 0 -4 4
      vertex 0 4 4
    endloop
  endfacet
  facet normal 0 0 1
    outer loop
      vertex -0.251162 3.99211 4
      vertex -0.251162 -3.99211 4
      vertex 0 -4 4
    endloop
  endfacet
  facet normal -0 0 1
    outer loop
      vertex -0.501332 3.96846 4
      vertex -0.251162 -3.99211 4
      vertex -0.251162 3.99211 4
    endloop
  endfacet
  facet normal 0 0 1
    outer loop
      vertex -0.501332 3.96846 4
      vertex -0.501332 -3.96846 4
      vertex -0.251162 -3.99211 4
    endloop
  endfacet
  facet normal -0 0 1
    outer loop
      vertex -0.749525 3.92915 4
      vertex -0.501332 -3.96846 4
      vertex -0.501332 3.96846 4
    endloop
  endfacet
  facet normal 0 0 1
    outer loop
      vertex -0.749525 3.92915 4
      vertex -0.749525 -3.92915 4
      vertex -0.501332 -3.96846 4
    endloop
  endfacet
  facet normal -0 0 1
    outer loop
      vertex -0.994759 3.87433 4
      vertex -0.749525 -3.92915 4
      vertex -0.749525 3.92915 4
    endloop
  endfacet
  facet normal 0 0 1
    outer loop
      vertex -0.994759 3.87433 4
      vertex -0.994759 -3.87433 4
      vertex -0.749525 -3.92915 4
    endloop
  endfacet
  facet normal -0 0 1
    outer loop
      vertex -1.23607 3.80423 4
      vertex -0.994759 -3.87433 4
      vertex -0.994759 3.87433 4
    endloop
  endfacet
  facet normal 0 0 1
    outer loop
      vertex -1.23607 3.80423 4
      vertex -1.23607 -3.80423 4
      vertex -0.994759 -3.87433 4
    endloop
  endfacet
  facet normal -0 0 1
    outer loop
      vertex -1.4725 3.71911 4
      vertex -1.23607 -3.80423 4
      vertex -1.23607 3.80423 4
    endloop
  endfacet
  facet normal 0 0 1
    outer loop
      vertex -1.4725 3.71911 4
      vertex -1.4725 -3.71911 4
      vertex -1.23607 -3.80423 4
    endloop
  endfacet
  facet normal -0 0 1
    outer loop
      vertex -1.70312 3.61931 4
      vertex -1.4725 -3.71911 4
      vertex -1.4725 3.71911 4
    endloop
  endfacet
  facet normal 0 0 1
    outer loop
      vertex -1.70312 3.61931 4
      vertex -1.70312 -3.61931 4
      vertex -1.4725 -3.71911 4
    endloop
  endfacet
  facet normal -0 0 1
    outer loop
      vertex -1.92701 3.50523 4
      vertex -1.70312 -3.61931 4
      vertex -1.70312 3.61931 4
    endloop
  endfacet
  facet normal 0 0 1
    outer loop
      vertex -1.92701 3.50523 4
      vertex -1.92701 -3.50523 4
      vertex -1.70312 -3.61931 4
    endloop
  endfacet
  facet normal -0 0 1
    outer loop
      vertex -2.14331 3.37731 4
      vertex -1.92701 -3.50523 4
      vertex -1.92701 3.50523 4
    endloop
  endfacet
  facet normal 0 0 1
    outer loop
      vertex -2.14331 3.37731 4
      vertex -2.14331 -3.37731 4
      vertex -1.92701 -3.50523 4
    endloop
  endfacet
  facet normal -0 0 1
    outer loop
      vertex -2.35114 3.23607 4
      vertex -2.14331 -3.37731 4
      vertex -2.14331 3.37731 4
    endloop
  endfacet
  facet normal 0 0 1
    outer loop
      vertex -2.35114 3.23607 4
      vertex -2.35114 -3.23607 4
      vertex -2.14331 -3.37731 4
    endloop
  endfacet
  facet normal -0 0 1
    outer loop
      vertex -2.5497 3.08205 4
      vertex -2.35114 -3.23607 4
      vertex -2.35114 3.23607 4
    endloop
  endfacet
  facet normal 0 0 1
    outer loop
      vertex -2.5497 3.08205 4
      vertex -2.5497 -3.08205 4
      vertex -2.35114 -3.23607 4
    endloop
  endfacet
  facet normal -0 0 1
    outer loop
      vertex -2.73819 2.91587 4
      vertex -2.5497 -3.08205 4
      vertex -2.5497 3.08205 4
    endloop
  endfacet
  facet normal 0 0 1
    outer loop
      vertex -2.73819 2.91587 4
      vertex -2.73819 -2.91587 4
      vertex -2.5497 -3.08205 4
    endloop
  endfacet
  facet normal -0 0 1
    outer loop
      vertex -2.91587 2.73819 4
      vertex -2.73819 -2.91587 4
      vertex -2.73819 2.91587 4
    endloop
  endfacet
  facet normal 0 0 1
    outer loop
      vertex -2.91587 2.73819 4
      vertex -2.91587 -2.73819 4
      vertex -2.73819 -2.91587 4
    endloop
  endfacet
  facet normal -0 0 1
    outer loop
      vertex -3.08205 2.5497 4
      vertex -2.91587 -2.73819 4
      vertex -2.91587 2.73819 4
    endloop
  endfacet
  facet normal 0 0 1
    outer loop
      vertex -3.08205 2.5497 4
      vertex -3.08205 -2.5497 4
      vertex -2.91587 -2.73819 4
    endloop
  endfacet
  facet normal -0 0 1
    outer loop
      vertex -3.23607 2.35114 4
      vertex -3.08205 -2.5497 4
      vertex -3.08205 2.5497 4
    endloop
  endfacet
  facet normal 0 0 1
    outer loop
      vertex -3.23607 2.35114 4
      vertex -3.23607 -2.35114 4
      vertex -3.08205 -2.5497 4
    endloop
  endfacet
  facet normal -0 0 1
    outer loop
      vertex -3.37731 2.14331 4
      vertex -3.23607 -2.35114 4
      vertex -3.23607 2.35114 4
    endloop
  endfacet
  facet normal 0 0 1
    outer loop
      vertex -3.37731 2.14331 4
      vertex -3.37731 -2.14331 4
      vertex -3.23607 -2.35114 4
    endloop
  endfacet
  facet normal -0 0 1
    outer loop
      vertex -3.50523 1.92701 4
      vertex -3.37731 -2.14331 4
      vertex -3.37731 2.14331 4
    endloop
  endfacet
  facet normal 0 0 1
    outer loop
      vertex -3.50523 1.92701 4
      vertex -3.50523 -1.92701 4
      vertex -3.37731 -2.14331 4
    endloop
  endfacet
  facet normal -0 0 1
    outer loop
      vertex -3.61931 1.70312 4
      vertex -3.50523 -1.92701 4
      vertex -3.50523 1.92701 4
    endloop
  endfacet
  facet normal 0 0 1
    outer loop
      vertex -3.61931 1.70312 4
      vertex -3.61931 -1.70312 4
      vertex -3.50523 -1.92701 4
    endloop
  endfacet
  facet normal -0 0 1
    outer loop
      vertex -3.71911 1.4725 4
      vertex -3.61931 -1.70312 4
      vertex -3.61931 1.70312 4
    endloop
  endfacet
  facet normal 0 0 1
    outer loop
      vertex -3.71911 1.4725 4
      vertex -3.71911 -1.4725 4
      vertex -3.61931 -1.70312 4
    endloop
  endfacet
  facet normal -0 0 1
    outer loop
      vertex -3.80423 1.23607 4
      vertex -3.71911 -1.4725 4
      vertex -3.71911 1.4725 4
    endloop
  endfacet
  facet normal 0 0 1
    outer loop
      vertex -3.80423 1.23607 4
      vertex -3.80423 -1.23607 4
      vertex -3.71911 -1.4725 4
    endloop
  endfacet
  facet normal -0 0 1
    outer loop
      vertex -3.87433 0.994759 4
      vertex -3.80423 -1.23607 4
      vertex -3.80423 1.23607 4
    endloop
  endfacet
  facet normal 0 0 1
    outer loop
      vertex -3.87433 0.994759 4
      vertex -3.87433 -0.994759 4
      vertex -3.80423 -1.23607 4
    endloop
  endfacet
  facet normal -0 0 1
    outer loop
      vertex -3.92915 0.749525 4
      vertex -3.87433 -0.994759 4
      vertex -3.87433 0.994759 4
    endloop
  endfacet
  facet normal 0 0 1
    outer loop
      vertex -3.92915 0.749525 4
      vertex -3.92915 -0.749525 4
      vertex -3.87433 -0.994759 4
    endloop
  endfacet
  facet normal -0 0 1
    outer loop
      vertex -3.96846 0.501332 4
      vertex -3.92915 -0.749525 4
      vertex -3.92915 0.749525 4
    endloop
  endfacet
  facet normal 0 0 1
    outer loop
      vertex -3.96846 0.501332 4
      vertex -3.96846 -0.501332 4
      vertex -3.92915 -0.749525 4
    endloop
  endfacet
  facet normal -0 0 1
    outer loop
      vertex -3.99211 0.251162 4
      vertex -3.96846 -0.501332 4
      vertex -3.96846 0.501332 4
    endloop
  endfacet
  facet normal 0 0 1
    outer loop
      vertex -3.99211 0.251162 4
      vertex -3.99211 -0.251162 4
      vertex -3.96846 -0.501332 4
    endloop
  endfacet
  facet normal 0 -0 1
    outer loop
      vertex -3.99211 -0.251162 4
      vertex -3.99211 0.251162 4
      vertex -4 0 4
    endloop
  endfacet
  facet normal -0.960294 0.27899 0
    outer loop
      vertex -3.87433 0.994759 0
      vertex -3.80423 1.23607 4
      vertex -3.80423 1.23607 0
    endloop
  endfacet
  facet normal -0.960294 0.27899 0
    outer loop
      vertex -3.80423 1.23607 4
      vertex -3.87433 0.994759 0
      vertex -3.87433 0.994759 4
    endloop
  endfacet
  facet normal -0.987689 0.156433 0
    outer loop
      vertex -3.96846 0.501332 0
      vertex -3.92915 0.749525 4
      vertex -3.92915 0.749525 0
    endloop
  endfacet
  facet normal -0.987689 0.156433 0
    outer loop
      vertex -3.92915 0.749525 4
      vertex -3.96846 0.501332 0
      vertex -3.96846 0.501332 4
    endloop
  endfacet
  facet normal -0.66131 0.750113 0
    outer loop
      vertex -2.5497 3.08205 0
      vertex -2.73819 2.91587 4
      vertex -2.5497 3.08205 4
    endloop
  endfacet
  facet normal -0.66131 0.750113 0
    outer loop
      vertex -2.73819 2.91587 4
      vertex -2.5497 3.08205 0
      vertex -2.73819 2.91587 0
    endloop
  endfacet
  facet normal -0.39715 0.917754 0
    outer loop
      vertex -1.4725 3.71911 0
      vertex -1.70312 3.61931 4
      vertex -1.4725 3.71911 4
    endloop
  endfacet
  facet normal -0.39715 0.917754 0
    outer loop
      vertex -1.70312 3.61931 4
      vertex -1.4725 3.71911 0
      vertex -1.70312 3.61931 0
    endloop
  endfacet
  facet normal -0.45399 0.891007 0
    outer loop
      vertex -1.70312 3.61931 0
      vertex -1.92701 3.50523 4
      vertex -1.70312 3.61931 4
    endloop
  endfacet
  facet normal -0.45399 0.891007 0
    outer loop
      vertex -1.92701 3.50523 4
      vertex -1.70312 3.61931 0
      vertex -1.92701 3.50523 0
    endloop
  endfacet
  facet normal -0.218143 0.975917 0
    outer loop
      vertex -0.749525 3.92915 0
      vertex -0.994759 3.87433 4
      vertex -0.749525 3.92915 4
    endloop
  endfacet
  facet normal -0.218143 0.975917 0
    outer loop
      vertex -0.994759 3.87433 4
      vertex -0.749525 3.92915 0
      vertex -0.994759 3.87433 0
    endloop
  endfacet
  facet normal -0.094109 0.995562 0
    outer loop
      vertex -0.251162 3.99211 0
      vertex -0.501332 3.96846 4
      vertex -0.251162 3.99211 4
    endloop
  endfacet
  facet normal -0.094109 0.995562 0
    outer loop
      vertex -0.501332 3.96846 4
      vertex -0.251162 3.99211 0
      vertex -0.501332 3.96846 0
    endloop
  endfacet
  facet normal -0.156433 0.987689 0
    outer loop
      vertex -0.501332 3.96846 0
      vertex -0.749525 3.92915 4
      vertex -0.501332 3.96846 4
    endloop
  endfacet
  facet normal -0.156433 0.987689 0
    outer loop
      vertex -0.749525 3.92915 4
      vertex -0.501332 3.96846 0
      vertex -0.749525 3.92915 0
    endloop
  endfacet
  facet normal 0.094109 -0.995562 0
    outer loop
      vertex 0.251162 -3.99211 0
      vertex 0.501332 -3.96846 4
      vertex 0.251162 -3.99211 4
    endloop
  endfacet
  facet normal 0.094109 -0.995562 0
    outer loop
      vertex 0.501332 -3.96846 4
      vertex 0.251162 -3.99211 0
      vertex 0.501332 -3.96846 0
    endloop
  endfacet
  facet normal 0.338738 -0.940881 0
    outer loop
      vertex 1.23607 -3.80423 0
      vertex 1.4725 -3.71911 4
      vertex 1.23607 -3.80423 4
    endloop
  endfacet
  facet normal 0.338738 -0.940881 0
    outer loop
      vertex 1.4725 -3.71911 4
      vertex 1.23607 -3.80423 0
      vertex 1.4725 -3.71911 0
    endloop
  endfacet
  facet normal 0.61291 -0.790153 0
    outer loop
      vertex 2.35114 -3.23607 0
      vertex 2.5497 -3.08205 4
      vertex 2.35114 -3.23607 4
    endloop
  endfacet
  facet normal 0.61291 -0.790153 0
    outer loop
      vertex 2.5497 -3.08205 4
      vertex 2.35114 -3.23607 0
      vertex 2.5497 -3.08205 0
    endloop
  endfacet
  facet normal 0.509043 -0.860741 0
    outer loop
      vertex 1.92701 -3.50523 0
      vertex 2.14331 -3.37731 4
      vertex 1.92701 -3.50523 4
    endloop
  endfacet
  facet normal 0.509043 -0.860741 0
    outer loop
      vertex 2.14331 -3.37731 4
      vertex 1.92701 -3.50523 0
      vertex 2.14331 -3.37731 0
    endloop
  endfacet
  facet normal 0.39715 -0.917754 0
    outer loop
      vertex 1.4725 -3.71911 0
      vertex 1.70312 -3.61931 4
      vertex 1.4725 -3.71911 4
    endloop
  endfacet
  facet normal 0.39715 -0.917754 0
    outer loop
      vertex 1.70312 -3.61931 4
      vertex 1.4725 -3.71911 0
      vertex 1.70312 -3.61931 0
    endloop
  endfacet
  facet normal 0.562081 -0.827082 0
    outer loop
      vertex 2.14331 -3.37731 0
      vertex 2.35114 -3.23607 4
      vertex 2.14331 -3.37731 4
    endloop
  endfacet
  facet normal 0.562081 -0.827082 0
    outer loop
      vertex 2.35114 -3.23607 4
      vertex 2.14331 -3.37731 0
      vertex 2.35114 -3.23607 0
    endloop
  endfacet
  facet normal 0.750113 -0.66131 0
    outer loop
      vertex 2.91587 -2.73819 4
      vertex 3.08205 -2.5497 0
      vertex 3.08205 -2.5497 4
    endloop
  endfacet
  facet normal 0.750113 -0.66131 0
    outer loop
      vertex 3.08205 -2.5497 0
      vertex 2.91587 -2.73819 4
      vertex 2.91587 -2.73819 0
    endloop
  endfacet
  facet normal 0.827082 -0.562081 0
    outer loop
      vertex 3.23607 -2.35114 4
      vertex 3.37731 -2.14331 0
      vertex 3.37731 -2.14331 4
    endloop
  endfacet
  facet normal 0.827082 -0.562081 0
    outer loop
      vertex 3.37731 -2.14331 0
      vertex 3.23607 -2.35114 4
      vertex 3.23607 -2.35114 0
    endloop
  endfacet
  facet normal 0.940881 -0.338738 0
    outer loop
      vertex 3.71911 -1.4725 4
      vertex 3.80423 -1.23607 0
      vertex 3.80423 -1.23607 4
    endloop
  endfacet
  facet normal 0.940881 -0.338738 0
    outer loop
      vertex 3.80423 -1.23607 0
      vertex 3.71911 -1.4725 4
      vertex 3.71911 -1.4725 0
    endloop
  endfacet
  facet normal 0.960294 -0.27899 0
    outer loop
      vertex 3.80423 -1.23607 4
      vertex 3.87433 -0.994759 0
      vertex 3.87433 -0.994759 4
    endloop
  endfacet
  facet normal 0.960294 -0.27899 0
    outer loop
      vertex 3.87433 -0.994759 0
      vertex 3.80423 -1.23607 4
      vertex 3.80423 -1.23607 0
    endloop
  endfacet
  facet normal -0.39715 -0.917754 0
    outer loop
      vertex -1.70312 -3.61931 0
      vertex -1.4725 -3.71911 4
      vertex -1.70312 -3.61931 4
    endloop
  endfacet
  facet normal -0.39715 -0.917754 -0
    outer loop
      vertex -1.4725 -3.71911 4
      vertex -1.70312 -3.61931 0
      vertex -1.4725 -3.71911 0
    endloop
  endfacet
  facet normal -0.27899 -0.960294 0
    outer loop
      vertex -1.23607 -3.80423 0
      vertex -0.994759 -3.87433 4
      vertex -1.23607 -3.80423 4
    endloop
  endfacet
  facet normal -0.27899 -0.960294 -0
    outer loop
      vertex -0.994759 -3.87433 4
      vertex -1.23607 -3.80423 0
      vertex -0.994759 -3.87433 0
    endloop
  endfacet
  facet normal -0.156433 -0.987689 0
    outer loop
      vertex -0.749525 -3.92915 0
      vertex -0.501332 -3.96846 4
      vertex -0.749525 -3.92915 4
    endloop
  endfacet
  facet normal -0.156433 -0.987689 -0
    outer loop
      vertex -0.501332 -3.96846 4
      vertex -0.749525 -3.92915 0
      vertex -0.501332 -3.96846 0
    endloop
  endfacet
  facet normal -0.562081 -0.827082 0
    outer loop
      vertex -2.35114 -3.23607 0
      vertex -2.14331 -3.37731 4
      vertex -2.35114 -3.23607 4
    endloop
  endfacet
  facet normal -0.562081 -0.827082 -0
    outer loop
      vertex -2.14331 -3.37731 4
      vertex -2.35114 -3.23607 0
      vertex -2.14331 -3.37731 0
    endloop
  endfacet
  facet normal -0.45399 -0.891007 0
    outer loop
      vertex -1.92701 -3.50523 0
      vertex -1.70312 -3.61931 4
      vertex -1.92701 -3.50523 4
    endloop
  endfacet
  facet normal -0.45399 -0.891007 -0
    outer loop
      vertex -1.70312 -3.61931 4
      vertex -1.92701 -3.50523 0
      vertex -1.70312 -3.61931 0
    endloop
  endfacet
  facet normal -0.66131 -0.750113 0
    outer loop
      vertex -2.73819 -2.91587 0
      vertex -2.5497 -3.08205 4
      vertex -2.73819 -2.91587 4
    endloop
  endfacet
  facet normal -0.66131 -0.750113 -0
    outer loop
      vertex -2.5497 -3.08205 4
      vertex -2.73819 -2.91587 0
      vertex -2.5497 -3.08205 0
    endloop
  endfacet
  facet normal -0.790153 -0.61291 0
    outer loop
      vertex -3.08205 -2.5497 0
      vertex -3.23607 -2.35114 4
      vertex -3.23607 -2.35114 0
    endloop
  endfacet
  facet normal -0.790153 -0.61291 0
    outer loop
      vertex -3.23607 -2.35114 4
      vertex -3.08205 -2.5497 0
      vertex -3.08205 -2.5497 4
    endloop
  endfacet
  facet normal -0.860741 -0.509043 0
    outer loop
      vertex -3.37731 -2.14331 0
      vertex -3.50523 -1.92701 4
      vertex -3.50523 -1.92701 0
    endloop
  endfacet
  facet normal -0.860741 -0.509043 0
    outer loop
      vertex -3.50523 -1.92701 4
      vertex -3.37731 -2.14331 0
      vertex -3.37731 -2.14331 4
    endloop
  endfacet
  facet normal -0.995562 -0.094109 0
    outer loop
      vertex -3.96846 -0.501332 0
      vertex -3.99211 -0.251162 4
      vertex -3.99211 -0.251162 0
    endloop
  endfacet
  facet normal -0.995562 -0.094109 0
    outer loop
      vertex -3.99211 -0.251162 4
      vertex -3.96846 -0.501332 0
      vertex -3.96846 -0.501332 4
    endloop
  endfacet
  facet normal -0.987689 -0.156433 0
    outer loop
      vertex -3.92915 -0.749525 0
      vertex -3.96846 -0.501332 4
      vertex -3.96846 -0.501332 0
    endloop
  endfacet
  facet normal -0.987689 -0.156433 0
    outer loop
      vertex -3.96846 -0.501332 4
      vertex -3.92915 -0.749525 0
      vertex -3.92915 -0.749525 4
    endloop
  endfacet
  facet normal -0.960294 -0.27899 0
    outer loop
      vertex -3.80423 -1.23607 0
      vertex -3.87433 -0.994759 4
      vertex -3.87433 -0.994759 0
    endloop
  endfacet
  facet normal -0.960294 -0.27899 0
    outer loop
      vertex -3.87433 -0.994759 4
      vertex -3.80423 -1.23607 0
      vertex -3.80423 -1.23607 4
    endloop
  endfacet
  facet normal -0.940881 -0.338738 0
    outer loop
      vertex -3.71911 -1.4725 0
      vertex -3.80423 -1.23607 4
      vertex -3.80423 -1.23607 0
    endloop
  endfacet
  facet normal -0.940881 -0.338738 0
    outer loop
      vertex -3.80423 -1.23607 4
      vertex -3.71911 -1.4725 0
      vertex -3.71911 -1.4725 4
    endloop
  endfacet
  facet normal -0.975917 -0.218143 0
    outer loop
      vertex -3.87433 -0.994759 0
      vertex -3.92915 -0.749525 4
      vertex -3.92915 -0.749525 0
    endloop
  endfacet
  facet normal -0.975917 -0.218143 0
    outer loop
      vertex -3.92915 -0.749525 4
      vertex -3.87433 -0.994759 0
      vertex -3.87433 -0.994759 4
    endloop
  endfacet
  facet normal 0.45399 0.891007 -0
    outer loop
      vertex 1.92701 3.50523 0
      vertex 1.70312 3.61931 4
      vertex 1.92701 3.50523 4
    endloop
  endfacet
  facet normal 0.45399 0.891007 0
    outer loop
      vertex 1.70312 3.61931 4
      vertex 1.92701 3.50523 0
      vertex 1.70312 3.61931 0
    endloop
  endfacet
  facet normal -0.790153 0.61291 0
    outer loop
      vertex -3.23607 2.35114 0
      vertex -3.08205 2.5497 4
      vertex -3.08205 2.5497 0
    endloop
  endfacet
  facet normal -0.790153 0.61291 0
    outer loop
      vertex -3.08205 2.5497 4
      vertex -3.23607 2.35114 0
      vertex -3.23607 2.35114 4
    endloop
  endfacet
  facet normal -0.750113 0.66131 0
    outer loop
      vertex -3.08205 2.5497 0
      vertex -2.91587 2.73819 4
      vertex -2.91587 2.73819 0
    endloop
  endfacet
  facet normal -0.750113 0.66131 0
    outer loop
      vertex -2.91587 2.73819 4
      vertex -3.08205 2.5497 0
      vertex -3.08205 2.5497 4
    endloop
  endfacet
  facet normal -0.707107 0.707107 0
    outer loop
      vertex -2.91587 2.73819 0
      vertex -2.73819 2.91587 4
      vertex -2.73819 2.91587 0
    endloop
  endfacet
  facet normal -0.707107 0.707107 0
    outer loop
      vertex -2.73819 2.91587 4
      vertex -2.91587 2.73819 0
      vertex -2.91587 2.73819 4
    endloop
  endfacet
  facet normal -0.891007 0.45399 0
    outer loop
      vertex -3.61931 1.70312 0
      vertex -3.50523 1.92701 4
      vertex -3.50523 1.92701 0
    endloop
  endfacet
  facet normal -0.891007 0.45399 0
    outer loop
      vertex -3.50523 1.92701 4
      vertex -3.61931 1.70312 0
      vertex -3.61931 1.70312 4
    endloop
  endfacet
  facet normal -0.61291 0.790153 0
    outer loop
      vertex -2.35114 3.23607 0
      vertex -2.5497 3.08205 4
      vertex -2.35114 3.23607 4
    endloop
  endfacet
  facet normal -0.61291 0.790153 0
    outer loop
      vertex -2.5497 3.08205 4
      vertex -2.35114 3.23607 0
      vertex -2.5497 3.08205 0
    endloop
  endfacet
  facet normal 0.156433 -0.987689 0
    outer loop
      vertex 0.501332 -3.96846 0
      vertex 0.749525 -3.92915 4
      vertex 0.501332 -3.96846 4
    endloop
  endfacet
  facet normal 0.156433 -0.987689 0
    outer loop
      vertex 0.749525 -3.92915 4
      vertex 0.501332 -3.96846 0
      vertex 0.749525 -3.92915 0
    endloop
  endfacet
  facet normal 0.27899 -0.960294 0
    outer loop
      vertex 0.994759 -3.87433 0
      vertex 1.23607 -3.80423 4
      vertex 0.994759 -3.87433 4
    endloop
  endfacet
  facet normal 0.27899 -0.960294 0
    outer loop
      vertex 1.23607 -3.80423 4
      vertex 0.994759 -3.87433 0
      vertex 1.23607 -3.80423 0
    endloop
  endfacet
  facet normal 0.66131 -0.750113 0
    outer loop
      vertex 2.5497 -3.08205 0
      vertex 2.73819 -2.91587 4
      vertex 2.5497 -3.08205 4
    endloop
  endfacet
  facet normal 0.66131 -0.750113 0
    outer loop
      vertex 2.73819 -2.91587 4
      vertex 2.5497 -3.08205 0
      vertex 2.73819 -2.91587 0
    endloop
  endfacet
  facet normal 0.45399 -0.891007 0
    outer loop
      vertex 1.70312 -3.61931 0
      vertex 1.92701 -3.50523 4
      vertex 1.70312 -3.61931 4
    endloop
  endfacet
  facet normal 0.45399 -0.891007 0
    outer loop
      vertex 1.92701 -3.50523 4
      vertex 1.70312 -3.61931 0
      vertex 1.92701 -3.50523 0
    endloop
  endfacet
  facet normal 0.860741 -0.509043 0
    outer loop
      vertex 3.37731 -2.14331 4
      vertex 3.50523 -1.92701 0
      vertex 3.50523 -1.92701 4
    endloop
  endfacet
  facet normal 0.860741 -0.509043 0
    outer loop
      vertex 3.50523 -1.92701 0
      vertex 3.37731 -2.14331 4
      vertex 3.37731 -2.14331 0
    endloop
  endfacet
  facet normal 0.790153 -0.61291 0
    outer loop
      vertex 3.08205 -2.5497 4
      vertex 3.23607 -2.35114 0
      vertex 3.23607 -2.35114 4
    endloop
  endfacet
  facet normal 0.790153 -0.61291 0
    outer loop
      vertex 3.23607 -2.35114 0
      vertex 3.08205 -2.5497 4
      vertex 3.08205 -2.5497 0
    endloop
  endfacet
  facet normal 0.917754 -0.39715 0
    outer loop
      vertex 3.61931 -1.70312 4
      vertex 3.71911 -1.4725 0
      vertex 3.71911 -1.4725 4
    endloop
  endfacet
  facet normal 0.917754 -0.39715 0
    outer loop
      vertex 3.71911 -1.4725 0
      vertex 3.61931 -1.70312 4
      vertex 3.61931 -1.70312 0
    endloop
  endfacet
  facet normal 0.995562 -0.094109 0
    outer loop
      vertex 3.96846 -0.501332 4
      vertex 3.99211 -0.251162 0
      vertex 3.99211 -0.251162 4
    endloop
  endfacet
  facet normal 0.995562 -0.094109 0
    outer loop
      vertex 3.99211 -0.251162 0
      vertex 3.96846 -0.501332 4
      vertex 3.96846 -0.501332 0
    endloop
  endfacet
  facet normal -0.218143 -0.975917 0
    outer loop
      vertex -0.994759 -3.87433 0
      vertex -0.749525 -3.92915 4
      vertex -0.994759 -3.87433 4
    endloop
  endfacet
  facet normal -0.218143 -0.975917 -0
    outer loop
      vertex -0.749525 -3.92915 4
      vertex -0.994759 -3.87433 0
      vertex -0.749525 -3.92915 0
    endloop
  endfacet
  facet normal -0.094109 -0.995562 0
    outer loop
      vertex -0.501332 -3.96846 0
      vertex -0.251162 -3.99211 4
      vertex -0.501332 -3.96846 4
    endloop
  endfacet
  facet normal -0.094109 -0.995562 -0
    outer loop
      vertex -0.251162 -3.99211 4
      vertex -0.501332 -3.96846 0
      vertex -0.251162 -3.99211 0
    endloop
  endfacet
  facet normal -0.509043 -0.860741 0
    outer loop
      vertex -2.14331 -3.37731 0
      vertex -1.92701 -3.50523 4
      vertex -2.14331 -3.37731 4
    endloop
  endfacet
  facet normal -0.509043 -0.860741 -0
    outer loop
      vertex -1.92701 -3.50523 4
      vertex -2.14331 -3.37731 0
      vertex -1.92701 -3.50523 0
    endloop
  endfacet
  facet normal -0.61291 -0.790153 0
    outer loop
      vertex -2.5497 -3.08205 0
      vertex -2.35114 -3.23607 4
      vertex -2.5497 -3.08205 4
    endloop
  endfacet
  facet normal -0.61291 -0.790153 -0
    outer loop
      vertex -2.35114 -3.23607 4
      vertex -2.5497 -3.08205 0
      vertex -2.35114 -3.23607 0
    endloop
  endfacet
  facet normal -0.891007 -0.45399 0
    outer loop
      vertex -3.50523 -1.92701 0
      vertex -3.61931 -1.70312 4
      vertex -3.61931 -1.70312 0
    endloop
  endfacet
  facet normal -0.891007 -0.45399 0
    outer loop
      vertex -3.61931 -1.70312 4
      vertex -3.50523 -1.92701 0
      vertex -3.50523 -1.92701 4
    endloop
  endfacet
endsolid OpenSCAD_Model
