solid OpenSCAD_Model
  facet normal 0 0 -1
    outer loop
      vertex 57.7107 -12.2668 200
      vertex 57.7107 12.2668 200
      vertex 59 0 200
    endloop
  endfacet
  facet normal 0 0 -1
    outer loop
      vertex 53.8992 -23.9975 200
      vertex 57.7107 12.2668 200
      vertex 57.7107 -12.2668 200
    endloop
  endfacet
  facet normal 0 0 -1
    outer loop
      vertex 53.8992 -23.9975 200
      vertex 53.8992 23.9975 200
      vertex 57.7107 12.2668 200
    endloop
  endfacet
  facet normal 0 0 -1
    outer loop
      vertex 47.732 -34.6793 200
      vertex 53.8992 23.9975 200
      vertex 53.8992 -23.9975 200
    endloop
  endfacet
  facet normal 0 0 -1
    outer loop
      vertex 47.732 -34.6793 200
      vertex 47.732 34.6793 200
      vertex 53.8992 23.9975 200
    endloop
  endfacet
  facet normal 0 0 -1
    outer loop
      vertex 39.4787 -43.8455 200
      vertex 47.732 34.6793 200
      vertex 47.732 -34.6793 200
    endloop
  endfacet
  facet normal 0 0 -1
    outer loop
      vertex 39.4787 -43.8455 200
      vertex 39.4787 43.8455 200
      vertex 47.732 34.6793 200
    endloop
  endfacet
  facet normal 0 0 -1
    outer loop
      vertex 29.5 -51.0955 200
      vertex 39.4787 43.8455 200
      vertex 39.4787 -43.8455 200
    endloop
  endfacet
  facet normal 0 0 -1
    outer loop
      vertex 29.5 -51.0955 200
      vertex 29.5 51.0955 200
      vertex 39.4787 43.8455 200
    endloop
  endfacet
  facet normal 0 0 -1
    outer loop
      vertex 18.232 -56.1123 200
      vertex 29.5 51.0955 200
      vertex 29.5 -51.0955 200
    endloop
  endfacet
  facet normal 0 0 -1
    outer loop
      vertex 18.232 -56.1123 200
      vertex 18.232 56.1123 200
      vertex 29.5 51.0955 200
    endloop
  endfacet
  facet normal 0 0 -1
    outer loop
      vertex 6.16718 -58.6768 200
      vertex 18.232 56.1123 200
      vertex 18.232 -56.1123 200
    endloop
  endfacet
  facet normal 0 0 -1
    outer loop
      vertex 6.16718 -58.6768 200
      vertex 6.16718 58.6768 200
      vertex 18.232 56.1123 200
    endloop
  endfacet
  facet normal 0 0 -1
    outer loop
      vertex -6.16718 -58.6768 200
      vertex 6.16718 58.6768 200
      vertex 6.16718 -58.6768 200
    endloop
  endfacet
  facet normal 0 0 -1
    outer loop
      vertex -6.16718 -58.6768 200
      vertex -6.16718 58.6768 200
      vertex 6.16718 58.6768 200
    endloop
  endfacet
  facet normal 0 0 -1
    outer loop
      vertex -18.232 -56.1123 200
      vertex -6.16718 58.6768 200
      vertex -6.16718 -58.6768 200
    endloop
  endfacet
  facet normal 0 0 -1
    outer loop
      vertex -18.232 -56.1123 200
      vertex -18.232 56.1123 200
      vertex -6.16718 58.6768 200
    endloop
  endfacet
  facet normal 0 0 -1
    outer loop
      vertex -29.5 -51.0955 200
      vertex -18.232 56.1123 200
      vertex -18.232 -56.1123 200
    endloop
  endfacet
  facet normal 0 0 -1
    outer loop
      vertex -29.5 -51.0955 200
      vertex -29.5 51.0955 200
      vertex -18.232 56.1123 200
    endloop
  endfacet
  facet normal 0 0 -1
    outer loop
      vertex -39.4787 -43.8455 200
      vertex -29.5 51.0955 200
      vertex -29.5 -51.0955 200
    endloop
  endfacet
  facet normal 0 0 -1
    outer loop
      vertex -39.4787 -43.8455 200
      vertex -39.4787 43.8455 200
      vertex -29.5 51.0955 200
    endloop
  endfacet
  facet normal 0 0 -1
    outer loop
      vertex -47.732 -34.6793 200
      vertex -39.4787 43.8455 200
      vertex -39.4787 -43.8455 200
    endloop
  endfacet
  facet normal 0 0 -1
    outer loop
      vertex -47.732 -34.6793 200
      vertex -47.732 34.6793 200
      vertex -39.4787 43.8455 200
    endloop
  endfacet
  facet normal 0 0 -1
    outer loop
      vertex -53.8992 -23.9975 200
      vertex -47.732 34.6793 200
      vertex -47.732 -34.6793 200
    endloop
  endfacet
  facet normal 0 0 -1
    outer loop
      vertex -53.8992 -23.9975 200
      vertex -53.8992 23.9975 200
      vertex -47.732 34.6793 200
    endloop
  endfacet
  facet normal 0 0 -1
    outer loop
      vertex -57.7107 -12.2668 200
      vertex -53.8992 23.9975 200
      vertex -53.8992 -23.9975 200
    endloop
  endfacet
  facet normal 0 0 -1
    outer loop
      vertex -57.7107 -12.2668 200
      vertex -57.7107 12.2668 200
      vertex -53.8992 23.9975 200
    endloop
  endfacet
  facet normal 0 -0 -1
    outer loop
      vertex -57.7107 12.2668 200
      vertex -57.7107 -12.2668 200
      vertex -59 0 200
    endloop
  endfacet
  facet normal 0.994522 0.104528 0
    outer loop
      vertex 59 0 230
      vertex 57.7107 12.2668 200
      vertex 57.7107 12.2668 230
    endloop
  endfacet
  facet normal 0.994522 0.104528 0
    outer loop
      vertex 57.7107 12.2668 200
      vertex 59 0 230
      vertex 59 0 200
    endloop
  endfacet
  facet normal -0.994522 0.104528 0
    outer loop
      vertex -59 0 200
      vertex -57.7107 12.2668 230
      vertex -57.7107 12.2668 200
    endloop
  endfacet
  facet normal -0.994522 0.104528 0
    outer loop
      vertex -57.7107 12.2668 230
      vertex -59 0 200
      vertex -59 0 230
    endloop
  endfacet
  facet normal 0 1 -0
    outer loop
      vertex 6.16718 58.6768 200
      vertex -6.16718 58.6768 230
      vertex 6.16718 58.6768 230
    endloop
  endfacet
  facet normal 0 1 0
    outer loop
      vertex -6.16718 58.6768 230
      vertex 6.16718 58.6768 200
      vertex -6.16718 58.6768 200
    endloop
  endfacet
  facet normal 0 -1 0
    outer loop
      vertex -6.16718 -58.6768 200
      vertex 6.16718 -58.6768 230
      vertex -6.16718 -58.6768 230
    endloop
  endfacet
  facet normal 0 -1 -0
    outer loop
      vertex 6.16718 -58.6768 230
      vertex -6.16718 -58.6768 200
      vertex 6.16718 -58.6768 200
    endloop
  endfacet
  facet normal 0.587785 0.809017 -0
    outer loop
      vertex 39.4787 43.8455 200
      vertex 29.5 51.0955 230
      vertex 39.4787 43.8455 230
    endloop
  endfacet
  facet normal 0.587785 0.809017 0
    outer loop
      vertex 29.5 51.0955 230
      vertex 39.4787 43.8455 200
      vertex 29.5 51.0955 200
    endloop
  endfacet
  facet normal 0.406737 0.913545 -0
    outer loop
      vertex 29.5 51.0955 200
      vertex 18.232 56.1123 230
      vertex 29.5 51.0955 230
    endloop
  endfacet
  facet normal 0.406737 0.913545 0
    outer loop
      vertex 18.232 56.1123 230
      vertex 29.5 51.0955 200
      vertex 18.232 56.1123 200
    endloop
  endfacet
  facet normal -0.743145 0.669131 0
    outer loop
      vertex -47.732 34.6793 200
      vertex -39.4787 43.8455 230
      vertex -39.4787 43.8455 200
    endloop
  endfacet
  facet normal -0.743145 0.669131 0
    outer loop
      vertex -39.4787 43.8455 230
      vertex -47.732 34.6793 200
      vertex -47.732 34.6793 230
    endloop
  endfacet
  facet normal -0.866025 0.5 0
    outer loop
      vertex -53.8992 23.9975 200
      vertex -47.732 34.6793 230
      vertex -47.732 34.6793 200
    endloop
  endfacet
  facet normal -0.866025 0.5 0
    outer loop
      vertex -47.732 34.6793 230
      vertex -53.8992 23.9975 200
      vertex -53.8992 23.9975 230
    endloop
  endfacet
  facet normal -0.406737 0.913545 0
    outer loop
      vertex -18.232 56.1123 200
      vertex -29.5 51.0955 230
      vertex -18.232 56.1123 230
    endloop
  endfacet
  facet normal -0.406737 0.913545 0
    outer loop
      vertex -29.5 51.0955 230
      vertex -18.232 56.1123 200
      vertex -29.5 51.0955 200
    endloop
  endfacet
  facet normal 0.866025 0.5 0
    outer loop
      vertex 53.8992 23.9975 230
      vertex 47.732 34.6793 200
      vertex 47.732 34.6793 230
    endloop
  endfacet
  facet normal 0.866025 0.5 0
    outer loop
      vertex 47.732 34.6793 200
      vertex 53.8992 23.9975 230
      vertex 53.8992 23.9975 200
    endloop
  endfacet
  facet normal 0.951056 0.309017 0
    outer loop
      vertex 57.7107 12.2668 230
      vertex 53.8992 23.9975 200
      vertex 53.8992 23.9975 230
    endloop
  endfacet
  facet normal 0.951056 0.309017 0
    outer loop
      vertex 53.8992 23.9975 200
      vertex 57.7107 12.2668 230
      vertex 57.7107 12.2668 200
    endloop
  endfacet
  facet normal 0.743145 0.669131 0
    outer loop
      vertex 47.732 34.6793 230
      vertex 39.4787 43.8455 200
      vertex 39.4787 43.8455 230
    endloop
  endfacet
  facet normal 0.743145 0.669131 0
    outer loop
      vertex 39.4787 43.8455 200
      vertex 47.732 34.6793 230
      vertex 47.732 34.6793 200
    endloop
  endfacet
  facet normal 0.207912 0.978148 -0
    outer loop
      vertex 18.232 56.1123 200
      vertex 6.16718 58.6768 230
      vertex 18.232 56.1123 230
    endloop
  endfacet
  facet normal 0.207912 0.978148 0
    outer loop
      vertex 6.16718 58.6768 230
      vertex 18.232 56.1123 200
      vertex 6.16718 58.6768 200
    endloop
  endfacet
  facet normal -0.951056 0.309017 0
    outer loop
      vertex -57.7107 12.2668 200
      vertex -53.8992 23.9975 230
      vertex -53.8992 23.9975 200
    endloop
  endfacet
  facet normal -0.951056 0.309017 0
    outer loop
      vertex -53.8992 23.9975 230
      vertex -57.7107 12.2668 200
      vertex -57.7107 12.2668 230
    endloop
  endfacet
  facet normal 0 0 1
    outer loop
      vertex 57.7107 12.2668 230
      vertex 57.7107 -12.2668 230
      vertex 59 0 230
    endloop
  endfacet
  facet normal 0 0 1
    outer loop
      vertex 53.8992 23.9975 230
      vertex 57.7107 -12.2668 230
      vertex 57.7107 12.2668 230
    endloop
  endfacet
  facet normal 0 0 1
    outer loop
      vertex 53.8992 23.9975 230
      vertex 53.8992 -23.9975 230
      vertex 57.7107 -12.2668 230
    endloop
  endfacet
  facet normal 0 0 1
    outer loop
      vertex 47.732 34.6793 230
      vertex 53.8992 -23.9975 230
      vertex 53.8992 23.9975 230
    endloop
  endfacet
  facet normal 0 0 1
    outer loop
      vertex 47.732 34.6793 230
      vertex 47.732 -34.6793 230
      vertex 53.8992 -23.9975 230
    endloop
  endfacet
  facet normal 0 0 1
    outer loop
      vertex 39.4787 43.8455 230
      vertex 47.732 -34.6793 230
      vertex 47.732 34.6793 230
    endloop
  endfacet
  facet normal 0 0 1
    outer loop
      vertex 39.4787 43.8455 230
      vertex 39.4787 -43.8455 230
      vertex 47.732 -34.6793 230
    endloop
  endfacet
  facet normal 0 0 1
    outer loop
      vertex 29.5 51.0955 230
      vertex 39.4787 -43.8455 230
      vertex 39.4787 43.8455 230
    endloop
  endfacet
  facet normal 0 0 1
    outer loop
      vertex 29.5 51.0955 230
      vertex 29.5 -51.0955 230
      vertex 39.4787 -43.8455 230
    endloop
  endfacet
  facet normal 0 0 1
    outer loop
      vertex 18.232 56.1123 230
      vertex 29.5 -51.0955 230
      vertex 29.5 51.0955 230
    endloop
  endfacet
  facet normal 0 0 1
    outer loop
      vertex 18.232 56.1123 230
      vertex 18.232 -56.1123 230
      vertex 29.5 -51.0955 230
    endloop
  endfacet
  facet normal 0 0 1
    outer loop
      vertex 6.16718 58.6768 230
      vertex 18.232 -56.1123 230
      vertex 18.232 56.1123 230
    endloop
  endfacet
  facet normal 0 0 1
    outer loop
      vertex 6.16718 58.6768 230
      vertex 6.16718 -58.6768 230
      vertex 18.232 -56.1123 230
    endloop
  endfacet
  facet normal -0 0 1
    outer loop
      vertex -6.16718 58.6768 230
      vertex 6.16718 -58.6768 230
      vertex 6.16718 58.6768 230
    endloop
  endfacet
  facet normal 0 0 1
    outer loop
      vertex -6.16718 58.6768 230
      vertex -6.16718 -58.6768 230
      vertex 6.16718 -58.6768 230
    endloop
  endfacet
  facet normal -0 0 1
    outer loop
      vertex -18.232 56.1123 230
      vertex -6.16718 -58.6768 230
      vertex -6.16718 58.6768 230
    endloop
  endfacet
  facet normal 0 0 1
    outer loop
      vertex -18.232 56.1123 230
      vertex -18.232 -56.1123 230
      vertex -6.16718 -58.6768 230
    endloop
  endfacet
  facet normal -0 0 1
    outer loop
      vertex -29.5 51.0955 230
      vertex -18.232 -56.1123 230
      vertex -18.232 56.1123 230
    endloop
  endfacet
  facet normal 0 0 1
    outer loop
      vertex -29.5 51.0955 230
      vertex -29.5 -51.0955 230
      vertex -18.232 -56.1123 230
    endloop
  endfacet
  facet normal -0 0 1
    outer loop
      vertex -39.4787 43.8455 230
      vertex -29.5 -51.0955 230
      vertex -29.5 51.0955 230
    endloop
  endfacet
  facet normal 0 0 1
    outer loop
      vertex -39.4787 43.8455 230
      vertex -39.4787 -43.8455 230
      vertex -29.5 -51.0955 230
    endloop
  endfacet
  facet normal -0 0 1
    outer loop
      vertex -47.732 34.6793 230
      vertex -39.4787 -43.8455 230
      vertex -39.4787 43.8455 230
    endloop
  endfacet
  facet normal 0 0 1
    outer loop
      vertex -47.732 34.6793 230
      vertex -47.732 -34.6793 230
      vertex -39.4787 -43.8455 230
    endloop
  endfacet
  facet normal -0 0 1
    outer loop
      vertex -53.8992 23.9975 230
      vertex -47.732 -34.6793 230
      vertex -47.732 34.6793 230
    endloop
  endfacet
  facet normal 0 0 1
    outer loop
      vertex -53.8992 23.9975 230
      vertex -53.8992 -23.9975 230
      vertex -47.732 -34.6793 230
    endloop
  endfacet
  facet normal -0 0 1
    outer loop
      vertex -57.7107 12.2668 230
      vertex -53.8992 -23.9975 230
      vertex -53.8992 23.9975 230
    endloop
  endfacet
  facet normal 0 0 1
    outer loop
      vertex -57.7107 12.2668 230
      vertex -57.7107 -12.2668 230
      vertex -53.8992 -23.9975 230
    endloop
  endfacet
  facet normal 0 -0 1
    outer loop
      vertex -57.7107 -12.2668 230
      vertex -57.7107 12.2668 230
      vertex -59 0 230
    endloop
  endfacet
  facet normal -0.587785 0.809017 0
    outer loop
      vertex -29.5 51.0955 200
      vertex -39.4787 43.8455 230
      vertex -29.5 51.0955 230
    endloop
  endfacet
  facet normal -0.587785 0.809017 0
    outer loop
      vertex -39.4787 43.8455 230
      vertex -29.5 51.0955 200
      vertex -39.4787 43.8455 200
    endloop
  endfacet
  facet normal -0.207912 0.978148 0
    outer loop
      vertex -6.16718 58.6768 200
      vertex -18.232 56.1123 230
      vertex -6.16718 58.6768 230
    endloop
  endfacet
  facet normal -0.207912 0.978148 0
    outer loop
      vertex -18.232 56.1123 230
      vertex -6.16718 58.6768 200
      vertex -18.232 56.1123 200
    endloop
  endfacet
  facet normal 0.994522 -0.104528 0
    outer loop
      vertex 57.7107 -12.2668 230
      vertex 59 0 200
      vertex 59 0 230
    endloop
  endfacet
  facet normal 0.994522 -0.104528 0
    outer loop
      vertex 59 0 200
      vertex 57.7107 -12.2668 230
      vertex 57.7107 -12.2668 200
    endloop
  endfacet
  facet normal 0.207912 -0.978148 0
    outer loop
      vertex 6.16718 -58.6768 200
      vertex 18.232 -56.1123 230
      vertex 6.16718 -58.6768 230
    endloop
  endfacet
  facet normal 0.207912 -0.978148 0
    outer loop
      vertex 18.232 -56.1123 230
      vertex 6.16718 -58.6768 200
      vertex 18.232 -56.1123 200
    endloop
  endfacet
  facet normal 0.866025 -0.5 0
    outer loop
      vertex 47.732 -34.6793 230
      vertex 53.8992 -23.9975 200
      vertex 53.8992 -23.9975 230
    endloop
  endfacet
  facet normal 0.866025 -0.5 0
    outer loop
      vertex 53.8992 -23.9975 200
      vertex 47.732 -34.6793 230
      vertex 47.732 -34.6793 200
    endloop
  endfacet
  facet normal -0.866025 -0.5 0
    outer loop
      vertex -47.732 -34.6793 200
      vertex -53.8992 -23.9975 230
      vertex -53.8992 -23.9975 200
    endloop
  endfacet
  facet normal -0.866025 -0.5 0
    outer loop
      vertex -53.8992 -23.9975 230
      vertex -47.732 -34.6793 200
      vertex -47.732 -34.6793 230
    endloop
  endfacet
  facet normal -0.994522 -0.104528 0
    outer loop
      vertex -57.7107 -12.2668 200
      vertex -59 0 230
      vertex -59 0 200
    endloop
  endfacet
  facet normal -0.994522 -0.104528 0
    outer loop
      vertex -59 0 230
      vertex -57.7107 -12.2668 200
      vertex -57.7107 -12.2668 230
    endloop
  endfacet
  facet normal 0.587785 -0.809017 0
    outer loop
      vertex 29.5 -51.0955 200
      vertex 39.4787 -43.8455 230
      vertex 29.5 -51.0955 230
    endloop
  endfacet
  facet normal 0.587785 -0.809017 0
    outer loop
      vertex 39.4787 -43.8455 230
      vertex 29.5 -51.0955 200
      vertex 39.4787 -43.8455 200
    endloop
  endfacet
  facet normal 0.406737 -0.913545 0
    outer loop
      vertex 18.232 -56.1123 200
      vertex 29.5 -51.0955 230
      vertex 18.232 -56.1123 230
    endloop
  endfacet
  facet normal 0.406737 -0.913545 0
    outer loop
      vertex 29.5 -51.0955 230
      vertex 18.232 -56.1123 200
      vertex 29.5 -51.0955 200
    endloop
  endfacet
  facet normal 0.951056 -0.309017 0
    outer loop
      vertex 53.8992 -23.9975 230
      vertex 57.7107 -12.2668 200
      vertex 57.7107 -12.2668 230
    endloop
  endfacet
  facet normal 0.951056 -0.309017 0
    outer loop
      vertex 57.7107 -12.2668 200
      vertex 53.8992 -23.9975 230
      vertex 53.8992 -23.9975 200
    endloop
  endfacet
  facet normal -0.207912 -0.978148 0
    outer loop
      vertex -18.232 -56.1123 200
      vertex -6.16718 -58.6768 230
      vertex -18.232 -56.1123 230
    endloop
  endfacet
  facet normal -0.207912 -0.978148 -0
    outer loop
      vertex -6.16718 -58.6768 230
      vertex -18.232 -56.1123 200
      vertex -6.16718 -58.6768 200
    endloop
  endfacet
  facet normal -0.743145 -0.669131 0
    outer loop
      vertex -39.4787 -43.8455 200
      vertex -47.732 -34.6793 230
      vertex -47.732 -34.6793 200
    endloop
  endfacet
  facet normal -0.743145 -0.669131 0
    outer loop
      vertex -47.732 -34.6793 230
      vertex -39.4787 -43.8455 200
      vertex -39.4787 -43.8455 230
    endloop
  endfacet
  facet normal -0.951056 -0.309017 0
    outer loop
      vertex -53.8992 -23.9975 200
      vertex -57.7107 -12.2668 230
      vertex -57.7107 -12.2668 200
    endloop
  endfacet
  facet normal -0.951056 -0.309017 0
    outer loop
      vertex -57.7107 -12.2668 230
      vertex -53.8992 -23.9975 200
      vertex -53.8992 -23.9975 230
    endloop
  endfacet
  facet normal 0.743145 -0.669131 0
    outer loop
      vertex 39.4787 -43.8455 230
      vertex 47.732 -34.6793 200
      vertex 47.732 -34.6793 230
    endloop
  endfacet
  facet normal 0.743145 -0.669131 0
    outer loop
      vertex 47.732 -34.6793 200
      vertex 39.4787 -43.8455 230
      vertex 39.4787 -43.8455 200
    endloop
  endfacet
  facet normal -0.406737 -0.913545 0
    outer loop
      vertex -29.5 -51.0955 200
      vertex -18.232 -56.1123 230
      vertex -29.5 -51.0955 230
    endloop
  endfacet
  facet normal -0.406737 -0.913545 -0
    outer loop
      vertex -18.232 -56.1123 230
      vertex -29.5 -51.0955 200
      vertex -18.232 -56.1123 200
    endloop
  endfacet
  facet normal -0.587785 -0.809017 0
    outer loop
      vertex -39.4787 -43.8455 200
      vertex -29.5 -51.0955 230
      vertex -39.4787 -43.8455 230
    endloop
  endfacet
  facet normal -0.587785 -0.809017 -0
    outer loop
      vertex -29.5 -51.0955 230
      vertex -39.4787 -43.8455 200
      vertex -29.5 -51.0955 200
    endloop
  endfacet
endsolid OpenSCAD_Model
