<?xml version="1.0" encoding="UTF-8" standalone="no"?>
<!-- Created with Inkscape (http://www.inkscape.org/) -->

<svg
   xmlns:dc="http://purl.org/dc/elements/1.1/"
   xmlns:cc="http://creativecommons.org/ns#"
   xmlns:rdf="http://www.w3.org/1999/02/22-rdf-syntax-ns#"
   xmlns:svg="http://www.w3.org/2000/svg"
   xmlns="http://www.w3.org/2000/svg"
   xmlns:sodipodi="http://sodipodi.sourceforge.net/DTD/sodipodi-0.dtd"
   xmlns:inkscape="http://www.inkscape.org/namespaces/inkscape"
   width="210mm"
   height="297mm"
   viewBox="0 0 210 297"
   version="1.1"
   id="svg8"
   inkscape:version="0.91 r13725"
   sodipodi:docname="Supermaaaaaaan.svg">
  <defs
     id="defs2" />
  <sodipodi:namedview
     id="base"
     pagecolor="#ffffff"
     bordercolor="#666666"
     borderopacity="1.0"
     inkscape:pageopacity="0.0"
     inkscape:pageshadow="2"
     inkscape:zoom="1.25"
     inkscape:cx="150.50021"
     inkscape:cy="625.18839"
     inkscape:document-units="mm"
     inkscape:current-layer="layer1"
     showgrid="false"
     inkscape:window-width="1535"
     inkscape:window-height="876"
     inkscape:window-x="65"
     inkscape:window-y="24"
     inkscape:window-maximized="1" />
  <metadata
     id="metadata5">
    <rdf:RDF>
      <cc:Work
         rdf:about="">
        <dc:format>image/svg+xml</dc:format>
        <dc:type
           rdf:resource="http://purl.org/dc/dcmitype/StillImage" />
        <dc:title />
      </cc:Work>
    </rdf:RDF>
  </metadata>
  <g
     inkscape:label="Vrstva 1"
     inkscape:groupmode="layer"
     id="layer1">
    <path
       style="fill:#000000;fill-opacity:1;stroke:none;stroke-width:0.04638867px;stroke-linecap:butt;stroke-linejoin:miter;stroke-opacity:1"
       d="m 97.845048,83.185226 c -2.67916,0 -4.25965,1.82053 -4.25969,4.3321 -3.016122,0.0319 -5.505892,0.0129 -8.522992,0.0129 l -7.17321,7.24245 19.864432,22.830654 20.071642,-23.037364 -7.65638,-7.03574 h -8.06462 c 1.7e-4,-0.004 2.6e-4,-0.009 5.2e-4,-0.0129 0,-2.57976 -1.54545,-4.33204 -4.259702,-4.33204 z m 0,2.13889 c 1.10652,1.3e-4 1.79047,0.48948 1.79214,2.19321 h -3.58428 c 0.002,-1.63024 0.7715,-2.19321 1.79214,-2.19321 z"
       id="path3693-3"
       inkscape:connector-curvature="0"
       sodipodi:nodetypes="ccccccccccccccc" />
    <path
       style="fill:#fe0000;fill-opacity:1;stroke:#fd0202;stroke-width:0.29051125;stroke-linecap:butt;stroke-linejoin:miter;stroke-miterlimit:4;stroke-dasharray:none;stroke-opacity:1"
       d="m 87.821907,54.727924 -5.55939,5.74642 15.395443,18.11458 15.55614,-18.27866 -5.93391,-5.58234 z m 1.49676,2.52941 h 2.67998 l -1.44027,8.658 -4.54114,-5.27871 z m 3.665582,0 h 9.497311 l -4.764855,8.47816 z m 10.482921,0 h 2.66355 l 3.54608,3.31694 -4.77859,5.49389 z m -10.532437,2.6039 4.781972,8.68524 4.856915,-8.54119 1.15532,7.40726 -0.014,0.016 -1.96334,-0.0713 -0.52308,-3.42364 -0.9712,1.80196 0.44812,2.77497 2.05472,0.0162 -5.004788,5.75408 -4.942446,-5.74485 2.027035,0.0466 0.373623,-3.02728 -0.971425,-1.65769 -0.560214,3.45965 h -1.882988 l -0.0191,-0.0221 z"
       id="path4528"
       inkscape:connector-curvature="0" />
  </g>
</svg>
