solid OpenSCAD_Model
  facet normal -1 0 0
    outer loop
      vertex -10 20 -2.5
      vertex -10 11.95 0.5
      vertex -10 20 0.5
    endloop
  endfacet
  facet normal -1 0 0
    outer loop
      vertex -10 11.95 0.5
      vertex -10 -11.95 0.5
      vertex -10 11.95 2.5
    endloop
  endfacet
  facet normal -1 0 0
    outer loop
      vertex -10 20 -2.5
      vertex -10 -11.95 0.5
      vertex -10 11.95 0.5
    endloop
  endfacet
  facet normal -1 0 0
    outer loop
      vertex -10 -20 -2.5
      vertex -10 -11.95 0.5
      vertex -10 20 -2.5
    endloop
  endfacet
  facet normal -1 -0 0
    outer loop
      vertex -10 -11.95 0.5
      vertex -10 -20 -2.5
      vertex -10 -20 0.5
    endloop
  endfacet
  facet normal -1 -0 0
    outer loop
      vertex -10 11.95 2.5
      vertex -10 -11.95 0.5
      vertex -10 -11.95 2.5
    endloop
  endfacet
  facet normal 0 0 1
    outer loop
      vertex 4.793 0.406994 2.5
      vertex 10 11.95 2.5
      vertex 4.793 9.993 2.5
    endloop
  endfacet
  facet normal 0 0 1
    outer loop
      vertex 10 11.95 2.5
      vertex -4.793 9.993 2.5
      vertex 4.793 9.993 2.5
    endloop
  endfacet
  facet normal 0 0 1
    outer loop
      vertex -4.793 9.993 2.5
      vertex -10 11.95 2.5
      vertex -4.793 0.406994 2.5
    endloop
  endfacet
  facet normal -0 0 1
    outer loop
      vertex -10 11.95 2.5
      vertex -4.793 9.993 2.5
      vertex 10 11.95 2.5
    endloop
  endfacet
  facet normal 0 0 1
    outer loop
      vertex 10 11.95 2.5
      vertex 4.793 0.406994 2.5
      vertex 10 -11.95 2.5
    endloop
  endfacet
  facet normal -0 0 1
    outer loop
      vertex -4.793 0.406994 2.5
      vertex 10 -11.95 2.5
      vertex 4.793 0.406994 2.5
    endloop
  endfacet
  facet normal 0 0 1
    outer loop
      vertex -4.793 0.406994 2.5
      vertex -10 -11.95 2.5
      vertex 10 -11.95 2.5
    endloop
  endfacet
  facet normal 0 0 1
    outer loop
      vertex -10 -11.95 2.5
      vertex -4.793 0.406994 2.5
      vertex -10 11.95 2.5
    endloop
  endfacet
  facet normal 1 0 0
    outer loop
      vertex 10 11.95 2.5
      vertex 10 -11.95 2.5
      vertex 10 11.95 0.5
    endloop
  endfacet
  facet normal 1 -0 0
    outer loop
      vertex 10 11.95 0.5
      vertex 10 20 -2.5
      vertex 10 20 0.5
    endloop
  endfacet
  facet normal 1 0 0
    outer loop
      vertex 10 -11.95 0.5
      vertex 10 11.95 0.5
      vertex 10 -11.95 2.5
    endloop
  endfacet
  facet normal 1 0 0
    outer loop
      vertex 10 11.95 0.5
      vertex 10 -11.95 0.5
      vertex 10 20 -2.5
    endloop
  endfacet
  facet normal 1 0 0
    outer loop
      vertex 10 -20 -2.5
      vertex 10 -11.95 0.5
      vertex 10 -20 0.5
    endloop
  endfacet
  facet normal 1 0 0
    outer loop
      vertex 10 -11.95 0.5
      vertex 10 -20 -2.5
      vertex 10 20 -2.5
    endloop
  endfacet
  facet normal 0 1 -0
    outer loop
      vertex 10 20 -2.5
      vertex -10 20 0.5
      vertex 10 20 0.5
    endloop
  endfacet
  facet normal 0 1 0
    outer loop
      vertex -10 20 0.5
      vertex 10 20 -2.5
      vertex -10 20 -2.5
    endloop
  endfacet
  facet normal 0 0 -1
    outer loop
      vertex 3.41715 14.8865 -2.5
      vertex -3.41715 14.8865 -2.5
      vertex -3.38 15.24 -2.5
    endloop
  endfacet
  facet normal 0 0 -1
    outer loop
      vertex -2 8.45 -2.5
      vertex -3.52697 14.5485 -2.5
      vertex -3.41715 14.8865 -2.5
    endloop
  endfacet
  facet normal 0 0 -1
    outer loop
      vertex -2 8.45 -2.5
      vertex -3.70467 14.2408 -2.5
      vertex -3.52697 14.5485 -2.5
    endloop
  endfacet
  facet normal 0 0 -1
    outer loop
      vertex -2 8.45 -2.5
      vertex -3.94248 13.9767 -2.5
      vertex -3.70467 14.2408 -2.5
    endloop
  endfacet
  facet normal 0 0 -1
    outer loop
      vertex -2.5 8.5 -2.5
      vertex -4.23 13.7678 -2.5
      vertex -3.94248 13.9767 -2.5
    endloop
  endfacet
  facet normal 0 0 -1
    outer loop
      vertex -2.5 8.5 -2.5
      vertex -4.55467 13.6232 -2.5
      vertex -4.23 13.7678 -2.5
    endloop
  endfacet
  facet normal 0 0 -1
    outer loop
      vertex -2.5 8.5 -2.5
      vertex -4.9023 13.5493 -2.5
      vertex -4.55467 13.6232 -2.5
    endloop
  endfacet
  facet normal 0 0 -1
    outer loop
      vertex -7.5 8.5 -2.5
      vertex -4.9023 13.5493 -2.5
      vertex -2.5 8.5 -2.5
    endloop
  endfacet
  facet normal -0 0 -1
    outer loop
      vertex -4.9023 13.5493 -2.5
      vertex -7.5 8.5 -2.5
      vertex -5.2577 13.5493 -2.5
    endloop
  endfacet
  facet normal -0 0 -1
    outer loop
      vertex -5.2577 13.5493 -2.5
      vertex -7.5 8.5 -2.5
      vertex -5.60533 13.6232 -2.5
    endloop
  endfacet
  facet normal -0 0 -1
    outer loop
      vertex -5.60533 13.6232 -2.5
      vertex -7.5 8.5 -2.5
      vertex -5.93 13.7678 -2.5
    endloop
  endfacet
  facet normal -0 0 -1
    outer loop
      vertex -5.93 13.7678 -2.5
      vertex -7.5 8.5 -2.5
      vertex -6.21752 13.9767 -2.5
    endloop
  endfacet
  facet normal 0 0 -1
    outer loop
      vertex -10 20 -2.5
      vertex -6.74285 14.8865 -2.5
      vertex -7.5 8.5 -2.5
    endloop
  endfacet
  facet normal -0 0 -1
    outer loop
      vertex -6.63303 14.5485 -2.5
      vertex -7.5 8.5 -2.5
      vertex -6.74285 14.8865 -2.5
    endloop
  endfacet
  facet normal -0 0 -1
    outer loop
      vertex -6.45533 14.2408 -2.5
      vertex -7.5 8.5 -2.5
      vertex -6.63303 14.5485 -2.5
    endloop
  endfacet
  facet normal -0 0 -1
    outer loop
      vertex -6.21752 13.9767 -2.5
      vertex -7.5 8.5 -2.5
      vertex -6.45533 14.2408 -2.5
    endloop
  endfacet
  facet normal 0 0 -1
    outer loop
      vertex -0.5 1.5 -2.5
      vertex 2 2.95 -2.5
      vertex -0.5 -11.5 -2.5
    endloop
  endfacet
  facet normal 0 0 -1
    outer loop
      vertex -0.5 1.5 -2.5
      vertex -2 2.95 -2.5
      vertex 2 2.95 -2.5
    endloop
  endfacet
  facet normal 0 0 -1
    outer loop
      vertex -2.5 8.5 -2.5
      vertex -2 2.95 -2.5
      vertex -2.5 2 -2.5
    endloop
  endfacet
  facet normal 0 0 -1
    outer loop
      vertex -0.5 1.5 -2.5
      vertex -2.5 2 -2.5
      vertex -2 2.95 -2.5
    endloop
  endfacet
  facet normal 0 0 -1
    outer loop
      vertex -5.5 1.5 -2.5
      vertex -2.5 2 -2.5
      vertex -0.5 1.5 -2.5
    endloop
  endfacet
  facet normal 0 0 -1
    outer loop
      vertex -6.21752 -13.9767 -2.5
      vertex -5.5 -11.5 -2.5
      vertex -5.93 -13.7678 -2.5
    endloop
  endfacet
  facet normal 0 0 -1
    outer loop
      vertex -6.45533 -14.2408 -2.5
      vertex -5.5 -11.5 -2.5
      vertex -6.21752 -13.9767 -2.5
    endloop
  endfacet
  facet normal 0 0 -1
    outer loop
      vertex -6.63303 -14.5485 -2.5
      vertex -5.5 -11.5 -2.5
      vertex -6.45533 -14.2408 -2.5
    endloop
  endfacet
  facet normal -0 0 -1
    outer loop
      vertex -5.5 -11.5 -2.5
      vertex -6.63303 -14.5485 -2.5
      vertex -7.5 2 -2.5
    endloop
  endfacet
  facet normal 0 0 -1
    outer loop
      vertex -10 -20 -2.5
      vertex -6.63303 -14.5485 -2.5
      vertex -6.74285 -14.8865 -2.5
    endloop
  endfacet
  facet normal 0 0 -1
    outer loop
      vertex -10 -20 -2.5
      vertex -6.74285 -14.8865 -2.5
      vertex -6.78 -15.24 -2.5
    endloop
  endfacet
  facet normal 0 0 -1
    outer loop
      vertex -5.5 1.5 -2.5
      vertex -7.5 2 -2.5
      vertex -2.5 2 -2.5
    endloop
  endfacet
  facet normal 0 0 -1
    outer loop
      vertex -5.5 -11.5 -2.5
      vertex -7.5 2 -2.5
      vertex -5.5 1.5 -2.5
    endloop
  endfacet
  facet normal 0 0 -1
    outer loop
      vertex -3.41715 -14.8865 -2.5
      vertex -0.5 -11.5 -2.5
      vertex -3.38 -15.24 -2.5
    endloop
  endfacet
  facet normal 0 0 -1
    outer loop
      vertex -3.52697 -14.5485 -2.5
      vertex -0.5 -11.5 -2.5
      vertex -3.41715 -14.8865 -2.5
    endloop
  endfacet
  facet normal 0 0 -1
    outer loop
      vertex -3.70467 -14.2408 -2.5
      vertex -0.5 -11.5 -2.5
      vertex -3.52697 -14.5485 -2.5
    endloop
  endfacet
  facet normal 0 0 -1
    outer loop
      vertex -3.94248 -13.9767 -2.5
      vertex -0.5 -11.5 -2.5
      vertex -3.70467 -14.2408 -2.5
    endloop
  endfacet
  facet normal 0 0 -1
    outer loop
      vertex -4.23 -13.7678 -2.5
      vertex -0.5 -11.5 -2.5
      vertex -3.94248 -13.9767 -2.5
    endloop
  endfacet
  facet normal 0 0 -1
    outer loop
      vertex -5.5 -11.5 -2.5
      vertex -4.23 -13.7678 -2.5
      vertex -4.55467 -13.6232 -2.5
    endloop
  endfacet
  facet normal 0 0 -1
    outer loop
      vertex -5.5 -11.5 -2.5
      vertex -4.55467 -13.6232 -2.5
      vertex -4.9023 -13.5493 -2.5
    endloop
  endfacet
  facet normal 0 0 -1
    outer loop
      vertex -5.5 -11.5 -2.5
      vertex -4.9023 -13.5493 -2.5
      vertex -5.2577 -13.5493 -2.5
    endloop
  endfacet
  facet normal 0 0 -1
    outer loop
      vertex -4.23 -13.7678 -2.5
      vertex -5.5 -11.5 -2.5
      vertex -0.5 -11.5 -2.5
    endloop
  endfacet
  facet normal 0 0 -1
    outer loop
      vertex -5.93 -13.7678 -2.5
      vertex -5.5 -11.5 -2.5
      vertex -5.60533 -13.6232 -2.5
    endloop
  endfacet
  facet normal 0 0 -1
    outer loop
      vertex -5.60533 -13.6232 -2.5
      vertex -5.5 -11.5 -2.5
      vertex -5.2577 -13.5493 -2.5
    endloop
  endfacet
  facet normal 0 0 -1
    outer loop
      vertex 10 20 -2.5
      vertex 6.74285 14.8865 -2.5
      vertex 6.78 15.24 -2.5
    endloop
  endfacet
  facet normal 0 0 -1
    outer loop
      vertex 8 9.5 -2.5
      vertex 6.63303 14.5485 -2.5
      vertex 6.74285 14.8865 -2.5
    endloop
  endfacet
  facet normal 0 0 -1
    outer loop
      vertex 8 9.5 -2.5
      vertex 6.45533 14.2408 -2.5
      vertex 6.63303 14.5485 -2.5
    endloop
  endfacet
  facet normal 0 0 -1
    outer loop
      vertex 8 9.5 -2.5
      vertex 6.21752 13.9767 -2.5
      vertex 6.45533 14.2408 -2.5
    endloop
  endfacet
  facet normal 0 0 -1
    outer loop
      vertex 8 9.5 -2.5
      vertex 5.93 13.7678 -2.5
      vertex 6.21752 13.9767 -2.5
    endloop
  endfacet
  facet normal 0 0 -1
    outer loop
      vertex 8 9.5 -2.5
      vertex 5.60533 13.6232 -2.5
      vertex 5.93 13.7678 -2.5
    endloop
  endfacet
  facet normal 0 0 -1
    outer loop
      vertex 8 9.5 -2.5
      vertex 5.2577 13.5493 -2.5
      vertex 5.60533 13.6232 -2.5
    endloop
  endfacet
  facet normal 0 0 -1
    outer loop
      vertex 3 9.5 -2.5
      vertex 5.2577 13.5493 -2.5
      vertex 8 9.5 -2.5
    endloop
  endfacet
  facet normal -0 0 -1
    outer loop
      vertex 5.2577 13.5493 -2.5
      vertex 3 9.5 -2.5
      vertex 4.9023 13.5493 -2.5
    endloop
  endfacet
  facet normal -0 0 -1
    outer loop
      vertex 4.9023 13.5493 -2.5
      vertex 3 9.5 -2.5
      vertex 4.55467 13.6232 -2.5
    endloop
  endfacet
  facet normal -0 0 -1
    outer loop
      vertex 4.55467 13.6232 -2.5
      vertex 3 9.5 -2.5
      vertex 4.23 13.7678 -2.5
    endloop
  endfacet
  facet normal 0 0 -1
    outer loop
      vertex -3.41715 14.8865 -2.5
      vertex 3.41715 14.8865 -2.5
      vertex 3.52697 14.5485 -2.5
    endloop
  endfacet
  facet normal 0 0 -1
    outer loop
      vertex -3.41715 14.8865 -2.5
      vertex 3.52697 14.5485 -2.5
      vertex 3 9.5 -2.5
    endloop
  endfacet
  facet normal -0 0 -1
    outer loop
      vertex 3.70467 14.2408 -2.5
      vertex 3 9.5 -2.5
      vertex 3.52697 14.5485 -2.5
    endloop
  endfacet
  facet normal -0 0 -1
    outer loop
      vertex 3.94248 13.9767 -2.5
      vertex 3 9.5 -2.5
      vertex 3.70467 14.2408 -2.5
    endloop
  endfacet
  facet normal -0 0 -1
    outer loop
      vertex 4.23 13.7678 -2.5
      vertex 3 9.5 -2.5
      vertex 3.94248 13.9767 -2.5
    endloop
  endfacet
  facet normal 0 0 -1
    outer loop
      vertex 10 -20 -2.5
      vertex 8 1.5 -2.5
      vertex 10 20 -2.5
    endloop
  endfacet
  facet normal 0 0 -1
    outer loop
      vertex 6.74285 -14.8865 -2.5
      vertex 10 -20 -2.5
      vertex 6.78 -15.24 -2.5
    endloop
  endfacet
  facet normal 0 0 -1
    outer loop
      vertex 10 -20 -2.5
      vertex 6.74285 -15.5934 -2.5
      vertex 6.78 -15.24 -2.5
    endloop
  endfacet
  facet normal 0 0 -1
    outer loop
      vertex 10 -20 -2.5
      vertex 6.63303 -15.9315 -2.5
      vertex 6.74285 -15.5934 -2.5
    endloop
  endfacet
  facet normal 0 0 -1
    outer loop
      vertex 10 -20 -2.5
      vertex 6.45533 -16.2392 -2.5
      vertex 6.63303 -15.9315 -2.5
    endloop
  endfacet
  facet normal 0 0 -1
    outer loop
      vertex 10 -20 -2.5
      vertex 6.21752 -16.5033 -2.5
      vertex 6.45533 -16.2392 -2.5
    endloop
  endfacet
  facet normal 0 0 -1
    outer loop
      vertex 10 -20 -2.5
      vertex 5.93 -16.7122 -2.5
      vertex 6.21752 -16.5033 -2.5
    endloop
  endfacet
  facet normal 0 0 -1
    outer loop
      vertex 10 -20 -2.5
      vertex 5.60533 -16.8568 -2.5
      vertex 5.93 -16.7122 -2.5
    endloop
  endfacet
  facet normal 0 0 -1
    outer loop
      vertex 10 -20 -2.5
      vertex 5.2577 -16.9307 -2.5
      vertex 5.60533 -16.8568 -2.5
    endloop
  endfacet
  facet normal 0 0 -1
    outer loop
      vertex 10 -20 -2.5
      vertex 4.9023 -16.9307 -2.5
      vertex 5.2577 -16.9307 -2.5
    endloop
  endfacet
  facet normal 0 0 -1
    outer loop
      vertex 10 -20 -2.5
      vertex 4.55467 -16.8568 -2.5
      vertex 4.9023 -16.9307 -2.5
    endloop
  endfacet
  facet normal 0 0 -1
    outer loop
      vertex -4.55467 -16.8568 -2.5
      vertex 4.55467 -16.8568 -2.5
      vertex 10 -20 -2.5
    endloop
  endfacet
  facet normal 0 0 -1
    outer loop
      vertex 3 1.5 -2.5
      vertex 2 2.95 -2.5
      vertex 3 9.5 -2.5
    endloop
  endfacet
  facet normal 0 0 -1
    outer loop
      vertex 3.52697 -14.5485 -2.5
      vertex 2 2.95 -2.5
      vertex 3 1.5 -2.5
    endloop
  endfacet
  facet normal 0 0 -1
    outer loop
      vertex 3.41715 -14.8865 -2.5
      vertex -0.5 -11.5 -2.5
      vertex 2 2.95 -2.5
    endloop
  endfacet
  facet normal 0 0 -1
    outer loop
      vertex -3.38 -15.24 -2.5
      vertex 3.38 -15.24 -2.5
      vertex 3.41715 -15.5934 -2.5
    endloop
  endfacet
  facet normal 0 0 -1
    outer loop
      vertex -3.41715 -15.5934 -2.5
      vertex 3.41715 -15.5934 -2.5
      vertex 3.52697 -15.9315 -2.5
    endloop
  endfacet
  facet normal 0 0 -1
    outer loop
      vertex -3.52697 -15.9315 -2.5
      vertex 3.52697 -15.9315 -2.5
      vertex 3.70467 -16.2392 -2.5
    endloop
  endfacet
  facet normal 0 0 -1
    outer loop
      vertex 3.38 -15.24 -2.5
      vertex -3.38 -15.24 -2.5
      vertex -0.5 -11.5 -2.5
    endloop
  endfacet
  facet normal 0 0 -1
    outer loop
      vertex -3.70467 -16.2392 -2.5
      vertex 3.70467 -16.2392 -2.5
      vertex 3.94248 -16.5033 -2.5
    endloop
  endfacet
  facet normal 0 0 -1
    outer loop
      vertex -3.94248 -16.5033 -2.5
      vertex 3.94248 -16.5033 -2.5
      vertex 4.23 -16.7122 -2.5
    endloop
  endfacet
  facet normal 0 0 -1
    outer loop
      vertex 4.55467 -16.8568 -2.5
      vertex -4.55467 -16.8568 -2.5
      vertex 4.23 -16.7122 -2.5
    endloop
  endfacet
  facet normal 0 0 -1
    outer loop
      vertex 3.41715 -15.5934 -2.5
      vertex -3.41715 -15.5934 -2.5
      vertex -3.38 -15.24 -2.5
    endloop
  endfacet
  facet normal 0 0 -1
    outer loop
      vertex 3.52697 -15.9315 -2.5
      vertex -3.52697 -15.9315 -2.5
      vertex -3.41715 -15.5934 -2.5
    endloop
  endfacet
  facet normal 0 0 -1
    outer loop
      vertex 3.70467 -16.2392 -2.5
      vertex -3.70467 -16.2392 -2.5
      vertex -3.52697 -15.9315 -2.5
    endloop
  endfacet
  facet normal 0 0 -1
    outer loop
      vertex 3.94248 -16.5033 -2.5
      vertex -3.94248 -16.5033 -2.5
      vertex -3.70467 -16.2392 -2.5
    endloop
  endfacet
  facet normal 0 0 -1
    outer loop
      vertex 4.23 -16.7122 -2.5
      vertex -4.23 -16.7122 -2.5
      vertex -3.94248 -16.5033 -2.5
    endloop
  endfacet
  facet normal -0 0 -1
    outer loop
      vertex 4.23 -16.7122 -2.5
      vertex -4.55467 -16.8568 -2.5
      vertex -4.23 -16.7122 -2.5
    endloop
  endfacet
  facet normal 0 0 -1
    outer loop
      vertex -10 -20 -2.5
      vertex -4.55467 -16.8568 -2.5
      vertex 10 -20 -2.5
    endloop
  endfacet
  facet normal 0 0 -1
    outer loop
      vertex -4.55467 -16.8568 -2.5
      vertex -10 -20 -2.5
      vertex -4.9023 -16.9307 -2.5
    endloop
  endfacet
  facet normal 0 0 -1
    outer loop
      vertex -10 20 -2.5
      vertex -7.5 2 -2.5
      vertex -10 -20 -2.5
    endloop
  endfacet
  facet normal -0 0 -1
    outer loop
      vertex -6.63303 -14.5485 -2.5
      vertex -10 -20 -2.5
      vertex -7.5 2 -2.5
    endloop
  endfacet
  facet normal -0 0 -1
    outer loop
      vertex -6.74285 -15.5934 -2.5
      vertex -10 -20 -2.5
      vertex -6.78 -15.24 -2.5
    endloop
  endfacet
  facet normal -0 0 -1
    outer loop
      vertex -6.63303 -15.9315 -2.5
      vertex -10 -20 -2.5
      vertex -6.74285 -15.5934 -2.5
    endloop
  endfacet
  facet normal -0 0 -1
    outer loop
      vertex -6.45533 -16.2392 -2.5
      vertex -10 -20 -2.5
      vertex -6.63303 -15.9315 -2.5
    endloop
  endfacet
  facet normal -0 0 -1
    outer loop
      vertex -6.21752 -16.5033 -2.5
      vertex -10 -20 -2.5
      vertex -6.45533 -16.2392 -2.5
    endloop
  endfacet
  facet normal -0 0 -1
    outer loop
      vertex -5.93 -16.7122 -2.5
      vertex -10 -20 -2.5
      vertex -6.21752 -16.5033 -2.5
    endloop
  endfacet
  facet normal -0 0 -1
    outer loop
      vertex -5.60533 -16.8568 -2.5
      vertex -10 -20 -2.5
      vertex -5.93 -16.7122 -2.5
    endloop
  endfacet
  facet normal -0 0 -1
    outer loop
      vertex -5.2577 -16.9307 -2.5
      vertex -10 -20 -2.5
      vertex -5.60533 -16.8568 -2.5
    endloop
  endfacet
  facet normal -0 0 -1
    outer loop
      vertex -4.9023 -16.9307 -2.5
      vertex -10 -20 -2.5
      vertex -5.2577 -16.9307 -2.5
    endloop
  endfacet
  facet normal 0 0 -1
    outer loop
      vertex 8 9.5 -2.5
      vertex 10 20 -2.5
      vertex 8 1.5 -2.5
    endloop
  endfacet
  facet normal 0 0 -1
    outer loop
      vertex 6.74285 14.8865 -2.5
      vertex 10 20 -2.5
      vertex 8 9.5 -2.5
    endloop
  endfacet
  facet normal 0 0 -1
    outer loop
      vertex 6.74285 15.5934 -2.5
      vertex 10 20 -2.5
      vertex 6.78 15.24 -2.5
    endloop
  endfacet
  facet normal 0 0 -1
    outer loop
      vertex 6.63303 15.9315 -2.5
      vertex 10 20 -2.5
      vertex 6.74285 15.5934 -2.5
    endloop
  endfacet
  facet normal 0 0 -1
    outer loop
      vertex 6.45533 16.2392 -2.5
      vertex 10 20 -2.5
      vertex 6.63303 15.9315 -2.5
    endloop
  endfacet
  facet normal 0 0 -1
    outer loop
      vertex 6.21752 16.5033 -2.5
      vertex 10 20 -2.5
      vertex 6.45533 16.2392 -2.5
    endloop
  endfacet
  facet normal 0 0 -1
    outer loop
      vertex 5.93 16.7122 -2.5
      vertex 10 20 -2.5
      vertex 6.21752 16.5033 -2.5
    endloop
  endfacet
  facet normal 0 0 -1
    outer loop
      vertex 5.60533 16.8568 -2.5
      vertex 10 20 -2.5
      vertex 5.93 16.7122 -2.5
    endloop
  endfacet
  facet normal 0 0 -1
    outer loop
      vertex 5.2577 16.9307 -2.5
      vertex 10 20 -2.5
      vertex 5.60533 16.8568 -2.5
    endloop
  endfacet
  facet normal 0 0 -1
    outer loop
      vertex 4.9023 16.9307 -2.5
      vertex 10 20 -2.5
      vertex 5.2577 16.9307 -2.5
    endloop
  endfacet
  facet normal 0 0 -1
    outer loop
      vertex 4.55467 16.8568 -2.5
      vertex 10 20 -2.5
      vertex 4.9023 16.9307 -2.5
    endloop
  endfacet
  facet normal 0 0 -1
    outer loop
      vertex -4.55467 16.8568 -2.5
      vertex 4.55467 16.8568 -2.5
      vertex 4.23 16.7122 -2.5
    endloop
  endfacet
  facet normal 0 0 -1
    outer loop
      vertex 2 8.45 -2.5
      vertex 3 9.5 -2.5
      vertex 2 2.95 -2.5
    endloop
  endfacet
  facet normal 0 0 -1
    outer loop
      vertex -2 8.45 -2.5
      vertex 3 9.5 -2.5
      vertex 2 8.45 -2.5
    endloop
  endfacet
  facet normal 0 0 -1
    outer loop
      vertex 3.41715 14.8865 -2.5
      vertex -3.38 15.24 -2.5
      vertex 3.38 15.24 -2.5
    endloop
  endfacet
  facet normal 0 0 -1
    outer loop
      vertex -3.41715 14.8865 -2.5
      vertex 3 9.5 -2.5
      vertex -2 8.45 -2.5
    endloop
  endfacet
  facet normal 0 0 -1
    outer loop
      vertex 3.38 15.24 -2.5
      vertex -3.38 15.24 -2.5
      vertex 3.41715 15.5934 -2.5
    endloop
  endfacet
  facet normal 0 0 -1
    outer loop
      vertex -3.41715 15.5934 -2.5
      vertex 3.41715 15.5934 -2.5
      vertex -3.38 15.24 -2.5
    endloop
  endfacet
  facet normal 0 0 -1
    outer loop
      vertex -2 2.95 -2.5
      vertex -2.5 8.5 -2.5
      vertex -2 8.45 -2.5
    endloop
  endfacet
  facet normal 0 0 -1
    outer loop
      vertex -3.94248 13.9767 -2.5
      vertex -2 8.45 -2.5
      vertex -2.5 8.5 -2.5
    endloop
  endfacet
  facet normal 0 0 -1
    outer loop
      vertex 3.41715 15.5934 -2.5
      vertex -3.41715 15.5934 -2.5
      vertex 3.52697 15.9315 -2.5
    endloop
  endfacet
  facet normal 0 0 -1
    outer loop
      vertex -3.52697 15.9315 -2.5
      vertex 3.52697 15.9315 -2.5
      vertex -3.41715 15.5934 -2.5
    endloop
  endfacet
  facet normal 0 0 -1
    outer loop
      vertex 3.52697 15.9315 -2.5
      vertex -3.52697 15.9315 -2.5
      vertex 3.70467 16.2392 -2.5
    endloop
  endfacet
  facet normal 0 0 -1
    outer loop
      vertex -3.70467 16.2392 -2.5
      vertex 3.70467 16.2392 -2.5
      vertex -3.52697 15.9315 -2.5
    endloop
  endfacet
  facet normal 0 0 -1
    outer loop
      vertex 3.70467 16.2392 -2.5
      vertex -3.70467 16.2392 -2.5
      vertex 3.94248 16.5033 -2.5
    endloop
  endfacet
  facet normal 0 0 -1
    outer loop
      vertex -3.94248 16.5033 -2.5
      vertex 3.94248 16.5033 -2.5
      vertex -3.70467 16.2392 -2.5
    endloop
  endfacet
  facet normal 0 0 -1
    outer loop
      vertex 3.94248 16.5033 -2.5
      vertex -3.94248 16.5033 -2.5
      vertex 4.23 16.7122 -2.5
    endloop
  endfacet
  facet normal 0 0 -1
    outer loop
      vertex -4.23 16.7122 -2.5
      vertex 4.23 16.7122 -2.5
      vertex -3.94248 16.5033 -2.5
    endloop
  endfacet
  facet normal 0 0 -1
    outer loop
      vertex -4.55467 16.8568 -2.5
      vertex 4.23 16.7122 -2.5
      vertex -4.23 16.7122 -2.5
    endloop
  endfacet
  facet normal 0 0 -1
    outer loop
      vertex 4.55467 16.8568 -2.5
      vertex -4.55467 16.8568 -2.5
      vertex 10 20 -2.5
    endloop
  endfacet
  facet normal 0 0 -1
    outer loop
      vertex -10 20 -2.5
      vertex -4.55467 16.8568 -2.5
      vertex -4.9023 16.9307 -2.5
    endloop
  endfacet
  facet normal 0 0 -1
    outer loop
      vertex -10 20 -2.5
      vertex -4.9023 16.9307 -2.5
      vertex -5.2577 16.9307 -2.5
    endloop
  endfacet
  facet normal 0 0 -1
    outer loop
      vertex -6.74285 14.8865 -2.5
      vertex -10 20 -2.5
      vertex -6.78 15.24 -2.5
    endloop
  endfacet
  facet normal 0 0 -1
    outer loop
      vertex -4.55467 16.8568 -2.5
      vertex -10 20 -2.5
      vertex 10 20 -2.5
    endloop
  endfacet
  facet normal 0 0 -1
    outer loop
      vertex -5.60533 16.8568 -2.5
      vertex -10 20 -2.5
      vertex -5.2577 16.9307 -2.5
    endloop
  endfacet
  facet normal 0 0 -1
    outer loop
      vertex -5.93 16.7122 -2.5
      vertex -10 20 -2.5
      vertex -5.60533 16.8568 -2.5
    endloop
  endfacet
  facet normal 0 0 -1
    outer loop
      vertex -6.21752 16.5033 -2.5
      vertex -10 20 -2.5
      vertex -5.93 16.7122 -2.5
    endloop
  endfacet
  facet normal 0 0 -1
    outer loop
      vertex -6.45533 16.2392 -2.5
      vertex -10 20 -2.5
      vertex -6.21752 16.5033 -2.5
    endloop
  endfacet
  facet normal 0 0 -1
    outer loop
      vertex -6.63303 15.9315 -2.5
      vertex -10 20 -2.5
      vertex -6.45533 16.2392 -2.5
    endloop
  endfacet
  facet normal 0 0 -1
    outer loop
      vertex -6.74285 15.5934 -2.5
      vertex -10 20 -2.5
      vertex -6.63303 15.9315 -2.5
    endloop
  endfacet
  facet normal 0 0 -1
    outer loop
      vertex -6.78 15.24 -2.5
      vertex -10 20 -2.5
      vertex -6.74285 15.5934 -2.5
    endloop
  endfacet
  facet normal 0 0 -1
    outer loop
      vertex -7.5 2 -2.5
      vertex -10 20 -2.5
      vertex -7.5 8.5 -2.5
    endloop
  endfacet
  facet normal 0 0 -1
    outer loop
      vertex 6.63303 -14.5485 -2.5
      vertex 10 -20 -2.5
      vertex 6.74285 -14.8865 -2.5
    endloop
  endfacet
  facet normal 0 0 -1
    outer loop
      vertex 10 -20 -2.5
      vertex 6.63303 -14.5485 -2.5
      vertex 8 1.5 -2.5
    endloop
  endfacet
  facet normal 0 0 -1
    outer loop
      vertex 6.45533 -14.2408 -2.5
      vertex 8 1.5 -2.5
      vertex 6.63303 -14.5485 -2.5
    endloop
  endfacet
  facet normal 0 0 -1
    outer loop
      vertex 6.21752 -13.9767 -2.5
      vertex 8 1.5 -2.5
      vertex 6.45533 -14.2408 -2.5
    endloop
  endfacet
  facet normal 0 0 -1
    outer loop
      vertex 5.93 -13.7678 -2.5
      vertex 8 1.5 -2.5
      vertex 6.21752 -13.9767 -2.5
    endloop
  endfacet
  facet normal 0 0 -1
    outer loop
      vertex 5.60533 -13.6232 -2.5
      vertex 8 1.5 -2.5
      vertex 5.93 -13.7678 -2.5
    endloop
  endfacet
  facet normal 0 0 -1
    outer loop
      vertex 5.2577 -13.5493 -2.5
      vertex 8 1.5 -2.5
      vertex 5.60533 -13.6232 -2.5
    endloop
  endfacet
  facet normal 0 0 -1
    outer loop
      vertex 3 1.5 -2.5
      vertex 5.2577 -13.5493 -2.5
      vertex 4.9023 -13.5493 -2.5
    endloop
  endfacet
  facet normal 0 0 -1
    outer loop
      vertex 3 1.5 -2.5
      vertex 4.9023 -13.5493 -2.5
      vertex 4.55467 -13.6232 -2.5
    endloop
  endfacet
  facet normal 0 0 -1
    outer loop
      vertex 3 1.5 -2.5
      vertex 4.55467 -13.6232 -2.5
      vertex 4.23 -13.7678 -2.5
    endloop
  endfacet
  facet normal 0 0 -1
    outer loop
      vertex 3 1.5 -2.5
      vertex 4.23 -13.7678 -2.5
      vertex 3.94248 -13.9767 -2.5
    endloop
  endfacet
  facet normal 0 0 -1
    outer loop
      vertex 3 1.5 -2.5
      vertex 3.94248 -13.9767 -2.5
      vertex 3.70467 -14.2408 -2.5
    endloop
  endfacet
  facet normal 0 0 -1
    outer loop
      vertex 3 1.5 -2.5
      vertex 3.70467 -14.2408 -2.5
      vertex 3.52697 -14.5485 -2.5
    endloop
  endfacet
  facet normal 0 0 -1
    outer loop
      vertex 2 2.95 -2.5
      vertex 3.52697 -14.5485 -2.5
      vertex 3.41715 -14.8865 -2.5
    endloop
  endfacet
  facet normal 0 0 -1
    outer loop
      vertex 5.2577 -13.5493 -2.5
      vertex 3 1.5 -2.5
      vertex 8 1.5 -2.5
    endloop
  endfacet
  facet normal 0 0 -1
    outer loop
      vertex -0.5 -11.5 -2.5
      vertex 3.41715 -14.8865 -2.5
      vertex 3.38 -15.24 -2.5
    endloop
  endfacet
  facet normal 0 -1 0
    outer loop
      vertex -10 -20 -2.5
      vertex 10 -20 0.5
      vertex -10 -20 0.5
    endloop
  endfacet
  facet normal 0 -1 -0
    outer loop
      vertex 10 -20 0.5
      vertex -10 -20 -2.5
      vertex 10 -20 -2.5
    endloop
  endfacet
  facet normal -0.994522 -0.104529 0
    outer loop
      vertex 6.78 15.24 -2.5
      vertex 6.74285 15.5934 0.5
      vertex 6.74285 15.5934 -2.5
    endloop
  endfacet
  facet normal -0.994522 -0.104529 0
    outer loop
      vertex 6.74285 15.5934 0.5
      vertex 6.78 15.24 -2.5
      vertex 6.78 15.24 0.5
    endloop
  endfacet
  facet normal 0.994522 -0.104529 0
    outer loop
      vertex 3.38 15.24 0.5
      vertex 3.41715 15.5934 -2.5
      vertex 3.41715 15.5934 0.5
    endloop
  endfacet
  facet normal 0.994522 -0.104529 0
    outer loop
      vertex 3.41715 15.5934 -2.5
      vertex 3.38 15.24 0.5
      vertex 3.38 15.24 -2.5
    endloop
  endfacet
  facet normal 0 -1 0
    outer loop
      vertex 4.9023 16.9307 -2.5
      vertex 5.2577 16.9307 0.5
      vertex 4.9023 16.9307 0.5
    endloop
  endfacet
  facet normal 0 -1 -0
    outer loop
      vertex 5.2577 16.9307 0.5
      vertex 4.9023 16.9307 -2.5
      vertex 5.2577 16.9307 -2.5
    endloop
  endfacet
  facet normal 0 1 -0
    outer loop
      vertex 5.2577 13.5493 -2.5
      vertex 4.9023 13.5493 0.5
      vertex 5.2577 13.5493 0.5
    endloop
  endfacet
  facet normal 0 1 0
    outer loop
      vertex 4.9023 13.5493 0.5
      vertex 5.2577 13.5493 -2.5
      vertex 4.9023 13.5493 -2.5
    endloop
  endfacet
  facet normal -0.587784 -0.809018 0
    outer loop
      vertex 5.93 16.7122 -2.5
      vertex 6.21752 16.5033 0.5
      vertex 5.93 16.7122 0.5
    endloop
  endfacet
  facet normal -0.587784 -0.809018 -0
    outer loop
      vertex 6.21752 16.5033 0.5
      vertex 5.93 16.7122 -2.5
      vertex 6.21752 16.5033 -2.5
    endloop
  endfacet
  facet normal 0.743145 -0.669131 0
    outer loop
      vertex 3.70467 16.2392 0.5
      vertex 3.94248 16.5033 -2.5
      vertex 3.94248 16.5033 0.5
    endloop
  endfacet
  facet normal 0.743145 -0.669131 0
    outer loop
      vertex 3.94248 16.5033 -2.5
      vertex 3.70467 16.2392 0.5
      vertex 3.70467 16.2392 -2.5
    endloop
  endfacet
  facet normal 0.866025 -0.500001 0
    outer loop
      vertex 3.52697 15.9315 0.5
      vertex 3.70467 16.2392 -2.5
      vertex 3.70467 16.2392 0.5
    endloop
  endfacet
  facet normal 0.866025 -0.500001 0
    outer loop
      vertex 3.70467 16.2392 -2.5
      vertex 3.52697 15.9315 0.5
      vertex 3.52697 15.9315 -2.5
    endloop
  endfacet
  facet normal 0.40674 -0.913544 0
    outer loop
      vertex 4.23 16.7122 -2.5
      vertex 4.55467 16.8568 0.5
      vertex 4.23 16.7122 0.5
    endloop
  endfacet
  facet normal 0.40674 -0.913544 0
    outer loop
      vertex 4.55467 16.8568 0.5
      vertex 4.23 16.7122 -2.5
      vertex 4.55467 16.8568 -2.5
    endloop
  endfacet
  facet normal -0.866024 0.500002 0
    outer loop
      vertex 6.45533 14.2408 -2.5
      vertex 6.63303 14.5485 0.5
      vertex 6.63303 14.5485 -2.5
    endloop
  endfacet
  facet normal -0.866024 0.500002 0
    outer loop
      vertex 6.63303 14.5485 0.5
      vertex 6.45533 14.2408 -2.5
      vertex 6.45533 14.2408 0.5
    endloop
  endfacet
  facet normal -0.866025 -0.500001 0
    outer loop
      vertex 6.63303 15.9315 -2.5
      vertex 6.45533 16.2392 0.5
      vertex 6.45533 16.2392 -2.5
    endloop
  endfacet
  facet normal -0.866025 -0.500001 0
    outer loop
      vertex 6.45533 16.2392 0.5
      vertex 6.63303 15.9315 -2.5
      vertex 6.63303 15.9315 0.5
    endloop
  endfacet
  facet normal -0.951057 -0.309016 0
    outer loop
      vertex 6.74285 15.5934 -2.5
      vertex 6.63303 15.9315 0.5
      vertex 6.63303 15.9315 -2.5
    endloop
  endfacet
  facet normal -0.951057 -0.309016 0
    outer loop
      vertex 6.63303 15.9315 0.5
      vertex 6.74285 15.5934 -2.5
      vertex 6.74285 15.5934 0.5
    endloop
  endfacet
  facet normal -0.743145 -0.669131 0
    outer loop
      vertex 6.45533 16.2392 -2.5
      vertex 6.21752 16.5033 0.5
      vertex 6.21752 16.5033 -2.5
    endloop
  endfacet
  facet normal -0.743145 -0.669131 0
    outer loop
      vertex 6.21752 16.5033 0.5
      vertex 6.45533 16.2392 -2.5
      vertex 6.45533 16.2392 0.5
    endloop
  endfacet
  facet normal -0.20791 -0.978148 0
    outer loop
      vertex 5.2577 16.9307 -2.5
      vertex 5.60533 16.8568 0.5
      vertex 5.2577 16.9307 0.5
    endloop
  endfacet
  facet normal -0.20791 -0.978148 -0
    outer loop
      vertex 5.60533 16.8568 0.5
      vertex 5.2577 16.9307 -2.5
      vertex 5.60533 16.8568 -2.5
    endloop
  endfacet
  facet normal -0.40674 -0.913544 0
    outer loop
      vertex 5.60533 16.8568 -2.5
      vertex 5.93 16.7122 0.5
      vertex 5.60533 16.8568 0.5
    endloop
  endfacet
  facet normal -0.40674 -0.913544 -0
    outer loop
      vertex 5.93 16.7122 0.5
      vertex 5.60533 16.8568 -2.5
      vertex 5.93 16.7122 -2.5
    endloop
  endfacet
  facet normal 0.951057 -0.309016 0
    outer loop
      vertex 3.41715 15.5934 0.5
      vertex 3.52697 15.9315 -2.5
      vertex 3.52697 15.9315 0.5
    endloop
  endfacet
  facet normal 0.951057 -0.309016 0
    outer loop
      vertex 3.52697 15.9315 -2.5
      vertex 3.41715 15.5934 0.5
      vertex 3.41715 15.5934 -2.5
    endloop
  endfacet
  facet normal 0.587784 -0.809018 0
    outer loop
      vertex 3.94248 16.5033 -2.5
      vertex 4.23 16.7122 0.5
      vertex 3.94248 16.5033 0.5
    endloop
  endfacet
  facet normal 0.587784 -0.809018 0
    outer loop
      vertex 4.23 16.7122 0.5
      vertex 3.94248 16.5033 -2.5
      vertex 4.23 16.7122 -2.5
    endloop
  endfacet
  facet normal 0.20791 -0.978148 0
    outer loop
      vertex 4.55467 16.8568 -2.5
      vertex 4.9023 16.9307 0.5
      vertex 4.55467 16.8568 0.5
    endloop
  endfacet
  facet normal 0.20791 -0.978148 0
    outer loop
      vertex 4.9023 16.9307 0.5
      vertex 4.55467 16.8568 -2.5
      vertex 4.9023 16.9307 -2.5
    endloop
  endfacet
  facet normal -0.994522 0.104529 0
    outer loop
      vertex 6.74285 14.8865 -2.5
      vertex 6.78 15.24 0.5
      vertex 6.78 15.24 -2.5
    endloop
  endfacet
  facet normal -0.994522 0.104529 0
    outer loop
      vertex 6.78 15.24 0.5
      vertex 6.74285 14.8865 -2.5
      vertex 6.74285 14.8865 0.5
    endloop
  endfacet
  facet normal -0.20791 0.978148 0
    outer loop
      vertex 5.60533 13.6232 -2.5
      vertex 5.2577 13.5493 0.5
      vertex 5.60533 13.6232 0.5
    endloop
  endfacet
  facet normal -0.20791 0.978148 0
    outer loop
      vertex 5.2577 13.5493 0.5
      vertex 5.60533 13.6232 -2.5
      vertex 5.2577 13.5493 -2.5
    endloop
  endfacet
  facet normal -0.587784 0.809018 0
    outer loop
      vertex 6.21752 13.9767 -2.5
      vertex 5.93 13.7678 0.5
      vertex 6.21752 13.9767 0.5
    endloop
  endfacet
  facet normal -0.587784 0.809018 0
    outer loop
      vertex 5.93 13.7678 0.5
      vertex 6.21752 13.9767 -2.5
      vertex 5.93 13.7678 -2.5
    endloop
  endfacet
  facet normal -0.743146 0.669129 0
    outer loop
      vertex 6.21752 13.9767 -2.5
      vertex 6.45533 14.2408 0.5
      vertex 6.45533 14.2408 -2.5
    endloop
  endfacet
  facet normal -0.743146 0.669129 0
    outer loop
      vertex 6.45533 14.2408 0.5
      vertex 6.21752 13.9767 -2.5
      vertex 6.21752 13.9767 0.5
    endloop
  endfacet
  facet normal -0.951057 0.309015 0
    outer loop
      vertex 6.63303 14.5485 -2.5
      vertex 6.74285 14.8865 0.5
      vertex 6.74285 14.8865 -2.5
    endloop
  endfacet
  facet normal -0.951057 0.309015 0
    outer loop
      vertex 6.74285 14.8865 0.5
      vertex 6.63303 14.5485 -2.5
      vertex 6.63303 14.5485 0.5
    endloop
  endfacet
  facet normal 0.587784 0.809018 -0
    outer loop
      vertex 4.23 13.7678 -2.5
      vertex 3.94248 13.9767 0.5
      vertex 4.23 13.7678 0.5
    endloop
  endfacet
  facet normal 0.587784 0.809018 0
    outer loop
      vertex 3.94248 13.9767 0.5
      vertex 4.23 13.7678 -2.5
      vertex 3.94248 13.9767 -2.5
    endloop
  endfacet
  facet normal 0.866024 0.500002 0
    outer loop
      vertex 3.70467 14.2408 0.5
      vertex 3.52697 14.5485 -2.5
      vertex 3.52697 14.5485 0.5
    endloop
  endfacet
  facet normal 0.866024 0.500002 0
    outer loop
      vertex 3.52697 14.5485 -2.5
      vertex 3.70467 14.2408 0.5
      vertex 3.70467 14.2408 -2.5
    endloop
  endfacet
  facet normal 0.743146 0.669129 0
    outer loop
      vertex 3.94248 13.9767 0.5
      vertex 3.70467 14.2408 -2.5
      vertex 3.70467 14.2408 0.5
    endloop
  endfacet
  facet normal 0.743146 0.669129 0
    outer loop
      vertex 3.70467 14.2408 -2.5
      vertex 3.94248 13.9767 0.5
      vertex 3.94248 13.9767 -2.5
    endloop
  endfacet
  facet normal -0.406738 0.913545 0
    outer loop
      vertex 5.93 13.7678 -2.5
      vertex 5.60533 13.6232 0.5
      vertex 5.93 13.7678 0.5
    endloop
  endfacet
  facet normal -0.406738 0.913545 0
    outer loop
      vertex 5.60533 13.6232 0.5
      vertex 5.93 13.7678 -2.5
      vertex 5.60533 13.6232 -2.5
    endloop
  endfacet
  facet normal 0.20791 0.978148 -0
    outer loop
      vertex 4.9023 13.5493 -2.5
      vertex 4.55467 13.6232 0.5
      vertex 4.9023 13.5493 0.5
    endloop
  endfacet
  facet normal 0.20791 0.978148 0
    outer loop
      vertex 4.55467 13.6232 0.5
      vertex 4.9023 13.5493 -2.5
      vertex 4.55467 13.6232 -2.5
    endloop
  endfacet
  facet normal 0.951057 0.309015 0
    outer loop
      vertex 3.52697 14.5485 0.5
      vertex 3.41715 14.8865 -2.5
      vertex 3.41715 14.8865 0.5
    endloop
  endfacet
  facet normal 0.951057 0.309015 0
    outer loop
      vertex 3.41715 14.8865 -2.5
      vertex 3.52697 14.5485 0.5
      vertex 3.52697 14.5485 -2.5
    endloop
  endfacet
  facet normal 0.994522 0.104529 0
    outer loop
      vertex 3.41715 14.8865 0.5
      vertex 3.38 15.24 -2.5
      vertex 3.38 15.24 0.5
    endloop
  endfacet
  facet normal 0.994522 0.104529 0
    outer loop
      vertex 3.38 15.24 -2.5
      vertex 3.41715 14.8865 0.5
      vertex 3.41715 14.8865 -2.5
    endloop
  endfacet
  facet normal 0.406738 0.913545 -0
    outer loop
      vertex 4.55467 13.6232 -2.5
      vertex 4.23 13.7678 0.5
      vertex 4.55467 13.6232 0.5
    endloop
  endfacet
  facet normal 0.406738 0.913545 0
    outer loop
      vertex 4.23 13.7678 0.5
      vertex 4.55467 13.6232 -2.5
      vertex 4.23 13.7678 -2.5
    endloop
  endfacet
  facet normal -0.994522 -0.104529 0
    outer loop
      vertex -3.38 15.24 -2.5
      vertex -3.41715 15.5934 0.5
      vertex -3.41715 15.5934 -2.5
    endloop
  endfacet
  facet normal -0.994522 -0.104529 0
    outer loop
      vertex -3.41715 15.5934 0.5
      vertex -3.38 15.24 -2.5
      vertex -3.38 15.24 0.5
    endloop
  endfacet
  facet normal 0.994522 -0.104529 0
    outer loop
      vertex -6.78 15.24 0.5
      vertex -6.74285 15.5934 -2.5
      vertex -6.74285 15.5934 0.5
    endloop
  endfacet
  facet normal 0.994522 -0.104529 0
    outer loop
      vertex -6.74285 15.5934 -2.5
      vertex -6.78 15.24 0.5
      vertex -6.78 15.24 -2.5
    endloop
  endfacet
  facet normal 0 -1 0
    outer loop
      vertex -5.2577 16.9307 -2.5
      vertex -4.9023 16.9307 0.5
      vertex -5.2577 16.9307 0.5
    endloop
  endfacet
  facet normal 0 -1 -0
    outer loop
      vertex -4.9023 16.9307 0.5
      vertex -5.2577 16.9307 -2.5
      vertex -4.9023 16.9307 -2.5
    endloop
  endfacet
  facet normal -0.587784 -0.809018 0
    outer loop
      vertex -4.23 16.7122 -2.5
      vertex -3.94248 16.5033 0.5
      vertex -4.23 16.7122 0.5
    endloop
  endfacet
  facet normal -0.587784 -0.809018 -0
    outer loop
      vertex -3.94248 16.5033 0.5
      vertex -4.23 16.7122 -2.5
      vertex -3.94248 16.5033 -2.5
    endloop
  endfacet
  facet normal 0.743145 -0.669131 0
    outer loop
      vertex -6.45533 16.2392 0.5
      vertex -6.21752 16.5033 -2.5
      vertex -6.21752 16.5033 0.5
    endloop
  endfacet
  facet normal 0.743145 -0.669131 0
    outer loop
      vertex -6.21752 16.5033 -2.5
      vertex -6.45533 16.2392 0.5
      vertex -6.45533 16.2392 -2.5
    endloop
  endfacet
  facet normal 0.866025 -0.500001 0
    outer loop
      vertex -6.63303 15.9315 0.5
      vertex -6.45533 16.2392 -2.5
      vertex -6.45533 16.2392 0.5
    endloop
  endfacet
  facet normal 0.866025 -0.500001 0
    outer loop
      vertex -6.45533 16.2392 -2.5
      vertex -6.63303 15.9315 0.5
      vertex -6.63303 15.9315 -2.5
    endloop
  endfacet
  facet normal 0.40674 -0.913544 0
    outer loop
      vertex -5.93 16.7122 -2.5
      vertex -5.60533 16.8568 0.5
      vertex -5.93 16.7122 0.5
    endloop
  endfacet
  facet normal 0.40674 -0.913544 0
    outer loop
      vertex -5.60533 16.8568 0.5
      vertex -5.93 16.7122 -2.5
      vertex -5.60533 16.8568 -2.5
    endloop
  endfacet
  facet normal -0.866024 0.500002 0
    outer loop
      vertex -3.70467 14.2408 -2.5
      vertex -3.52697 14.5485 0.5
      vertex -3.52697 14.5485 -2.5
    endloop
  endfacet
  facet normal -0.866024 0.500002 0
    outer loop
      vertex -3.52697 14.5485 0.5
      vertex -3.70467 14.2408 -2.5
      vertex -3.70467 14.2408 0.5
    endloop
  endfacet
  facet normal -0.866025 -0.500001 0
    outer loop
      vertex -3.52697 15.9315 -2.5
      vertex -3.70467 16.2392 0.5
      vertex -3.70467 16.2392 -2.5
    endloop
  endfacet
  facet normal -0.866025 -0.500001 0
    outer loop
      vertex -3.70467 16.2392 0.5
      vertex -3.52697 15.9315 -2.5
      vertex -3.52697 15.9315 0.5
    endloop
  endfacet
  facet normal -0.951057 -0.309016 0
    outer loop
      vertex -3.41715 15.5934 -2.5
      vertex -3.52697 15.9315 0.5
      vertex -3.52697 15.9315 -2.5
    endloop
  endfacet
  facet normal -0.951057 -0.309016 0
    outer loop
      vertex -3.52697 15.9315 0.5
      vertex -3.41715 15.5934 -2.5
      vertex -3.41715 15.5934 0.5
    endloop
  endfacet
  facet normal -0.743145 -0.669131 0
    outer loop
      vertex -3.70467 16.2392 -2.5
      vertex -3.94248 16.5033 0.5
      vertex -3.94248 16.5033 -2.5
    endloop
  endfacet
  facet normal -0.743145 -0.669131 0
    outer loop
      vertex -3.94248 16.5033 0.5
      vertex -3.70467 16.2392 -2.5
      vertex -3.70467 16.2392 0.5
    endloop
  endfacet
  facet normal -0.20791 -0.978148 0
    outer loop
      vertex -4.9023 16.9307 -2.5
      vertex -4.55467 16.8568 0.5
      vertex -4.9023 16.9307 0.5
    endloop
  endfacet
  facet normal -0.20791 -0.978148 -0
    outer loop
      vertex -4.55467 16.8568 0.5
      vertex -4.9023 16.9307 -2.5
      vertex -4.55467 16.8568 -2.5
    endloop
  endfacet
  facet normal -0.40674 -0.913544 0
    outer loop
      vertex -4.55467 16.8568 -2.5
      vertex -4.23 16.7122 0.5
      vertex -4.55467 16.8568 0.5
    endloop
  endfacet
  facet normal -0.40674 -0.913544 -0
    outer loop
      vertex -4.23 16.7122 0.5
      vertex -4.55467 16.8568 -2.5
      vertex -4.23 16.7122 -2.5
    endloop
  endfacet
  facet normal 0.951057 -0.309016 0
    outer loop
      vertex -6.74285 15.5934 0.5
      vertex -6.63303 15.9315 -2.5
      vertex -6.63303 15.9315 0.5
    endloop
  endfacet
  facet normal 0.951057 -0.309016 0
    outer loop
      vertex -6.63303 15.9315 -2.5
      vertex -6.74285 15.5934 0.5
      vertex -6.74285 15.5934 -2.5
    endloop
  endfacet
  facet normal 0.587784 -0.809018 0
    outer loop
      vertex -6.21752 16.5033 -2.5
      vertex -5.93 16.7122 0.5
      vertex -6.21752 16.5033 0.5
    endloop
  endfacet
  facet normal 0.587784 -0.809018 0
    outer loop
      vertex -5.93 16.7122 0.5
      vertex -6.21752 16.5033 -2.5
      vertex -5.93 16.7122 -2.5
    endloop
  endfacet
  facet normal 0.20791 -0.978148 0
    outer loop
      vertex -5.60533 16.8568 -2.5
      vertex -5.2577 16.9307 0.5
      vertex -5.60533 16.8568 0.5
    endloop
  endfacet
  facet normal 0.20791 -0.978148 0
    outer loop
      vertex -5.2577 16.9307 0.5
      vertex -5.60533 16.8568 -2.5
      vertex -5.2577 16.9307 -2.5
    endloop
  endfacet
  facet normal -0.994522 0.104529 0
    outer loop
      vertex -3.41715 14.8865 -2.5
      vertex -3.38 15.24 0.5
      vertex -3.38 15.24 -2.5
    endloop
  endfacet
  facet normal -0.994522 0.104529 0
    outer loop
      vertex -3.38 15.24 0.5
      vertex -3.41715 14.8865 -2.5
      vertex -3.41715 14.8865 0.5
    endloop
  endfacet
  facet normal 0.20791 0.978148 -0
    outer loop
      vertex -5.2577 13.5493 -2.5
      vertex -5.60533 13.6232 0.5
      vertex -5.2577 13.5493 0.5
    endloop
  endfacet
  facet normal 0.20791 0.978148 0
    outer loop
      vertex -5.60533 13.6232 0.5
      vertex -5.2577 13.5493 -2.5
      vertex -5.60533 13.6232 -2.5
    endloop
  endfacet
  facet normal -0.20791 0.978148 0
    outer loop
      vertex -4.55467 13.6232 -2.5
      vertex -4.9023 13.5493 0.5
      vertex -4.55467 13.6232 0.5
    endloop
  endfacet
  facet normal -0.20791 0.978148 0
    outer loop
      vertex -4.9023 13.5493 0.5
      vertex -4.55467 13.6232 -2.5
      vertex -4.9023 13.5493 -2.5
    endloop
  endfacet
  facet normal -0.587784 0.809018 0
    outer loop
      vertex -3.94248 13.9767 -2.5
      vertex -4.23 13.7678 0.5
      vertex -3.94248 13.9767 0.5
    endloop
  endfacet
  facet normal -0.587784 0.809018 0
    outer loop
      vertex -4.23 13.7678 0.5
      vertex -3.94248 13.9767 -2.5
      vertex -4.23 13.7678 -2.5
    endloop
  endfacet
  facet normal -0.743146 0.669129 0
    outer loop
      vertex -3.94248 13.9767 -2.5
      vertex -3.70467 14.2408 0.5
      vertex -3.70467 14.2408 -2.5
    endloop
  endfacet
  facet normal -0.743146 0.669129 0
    outer loop
      vertex -3.70467 14.2408 0.5
      vertex -3.94248 13.9767 -2.5
      vertex -3.94248 13.9767 0.5
    endloop
  endfacet
  facet normal -0.951057 0.309015 0
    outer loop
      vertex -3.52697 14.5485 -2.5
      vertex -3.41715 14.8865 0.5
      vertex -3.41715 14.8865 -2.5
    endloop
  endfacet
  facet normal -0.951057 0.309015 0
    outer loop
      vertex -3.41715 14.8865 0.5
      vertex -3.52697 14.5485 -2.5
      vertex -3.52697 14.5485 0.5
    endloop
  endfacet
  facet normal 0.866024 0.500002 0
    outer loop
      vertex -6.45533 14.2408 0.5
      vertex -6.63303 14.5485 -2.5
      vertex -6.63303 14.5485 0.5
    endloop
  endfacet
  facet normal 0.866024 0.500002 0
    outer loop
      vertex -6.63303 14.5485 -2.5
      vertex -6.45533 14.2408 0.5
      vertex -6.45533 14.2408 -2.5
    endloop
  endfacet
  facet normal 0.994522 0.104529 0
    outer loop
      vertex -6.74285 14.8865 0.5
      vertex -6.78 15.24 -2.5
      vertex -6.78 15.24 0.5
    endloop
  endfacet
  facet normal 0.994522 0.104529 0
    outer loop
      vertex -6.78 15.24 -2.5
      vertex -6.74285 14.8865 0.5
      vertex -6.74285 14.8865 -2.5
    endloop
  endfacet
  facet normal 0.951057 0.309015 0
    outer loop
      vertex -6.63303 14.5485 0.5
      vertex -6.74285 14.8865 -2.5
      vertex -6.74285 14.8865 0.5
    endloop
  endfacet
  facet normal 0.951057 0.309015 0
    outer loop
      vertex -6.74285 14.8865 -2.5
      vertex -6.63303 14.5485 0.5
      vertex -6.63303 14.5485 -2.5
    endloop
  endfacet
  facet normal -0.406738 0.913545 0
    outer loop
      vertex -4.23 13.7678 -2.5
      vertex -4.55467 13.6232 0.5
      vertex -4.23 13.7678 0.5
    endloop
  endfacet
  facet normal -0.406738 0.913545 0
    outer loop
      vertex -4.55467 13.6232 0.5
      vertex -4.23 13.7678 -2.5
      vertex -4.55467 13.6232 -2.5
    endloop
  endfacet
  facet normal 0 1 -0
    outer loop
      vertex -4.9023 13.5493 -2.5
      vertex -5.2577 13.5493 0.5
      vertex -4.9023 13.5493 0.5
    endloop
  endfacet
  facet normal 0 1 0
    outer loop
      vertex -5.2577 13.5493 0.5
      vertex -4.9023 13.5493 -2.5
      vertex -5.2577 13.5493 -2.5
    endloop
  endfacet
  facet normal 0.587784 0.809018 -0
    outer loop
      vertex -5.93 13.7678 -2.5
      vertex -6.21752 13.9767 0.5
      vertex -5.93 13.7678 0.5
    endloop
  endfacet
  facet normal 0.587784 0.809018 0
    outer loop
      vertex -6.21752 13.9767 0.5
      vertex -5.93 13.7678 -2.5
      vertex -6.21752 13.9767 -2.5
    endloop
  endfacet
  facet normal 0.743146 0.669129 0
    outer loop
      vertex -6.21752 13.9767 0.5
      vertex -6.45533 14.2408 -2.5
      vertex -6.45533 14.2408 0.5
    endloop
  endfacet
  facet normal 0.743146 0.669129 0
    outer loop
      vertex -6.45533 14.2408 -2.5
      vertex -6.21752 13.9767 0.5
      vertex -6.21752 13.9767 -2.5
    endloop
  endfacet
  facet normal 0.406738 0.913545 -0
    outer loop
      vertex -5.60533 13.6232 -2.5
      vertex -5.93 13.7678 0.5
      vertex -5.60533 13.6232 0.5
    endloop
  endfacet
  facet normal 0.406738 0.913545 0
    outer loop
      vertex -5.93 13.7678 0.5
      vertex -5.60533 13.6232 -2.5
      vertex -5.93 13.7678 -2.5
    endloop
  endfacet
  facet normal -0.994522 -0.104529 0
    outer loop
      vertex 6.78 -15.24 -2.5
      vertex 6.74285 -14.8865 0.5
      vertex 6.74285 -14.8865 -2.5
    endloop
  endfacet
  facet normal -0.994522 -0.104529 0
    outer loop
      vertex 6.74285 -14.8865 0.5
      vertex 6.78 -15.24 -2.5
      vertex 6.78 -15.24 0.5
    endloop
  endfacet
  facet normal 0.994522 -0.104529 0
    outer loop
      vertex 3.38 -15.24 0.5
      vertex 3.41715 -14.8865 -2.5
      vertex 3.41715 -14.8865 0.5
    endloop
  endfacet
  facet normal 0.994522 -0.104529 0
    outer loop
      vertex 3.41715 -14.8865 -2.5
      vertex 3.38 -15.24 0.5
      vertex 3.38 -15.24 -2.5
    endloop
  endfacet
  facet normal 0 -1 0
    outer loop
      vertex 4.9023 -13.5493 -2.5
      vertex 5.2577 -13.5493 0.5
      vertex 4.9023 -13.5493 0.5
    endloop
  endfacet
  facet normal 0 -1 -0
    outer loop
      vertex 5.2577 -13.5493 0.5
      vertex 4.9023 -13.5493 -2.5
      vertex 5.2577 -13.5493 -2.5
    endloop
  endfacet
  facet normal 0 1 -0
    outer loop
      vertex 5.2577 -16.9307 -2.5
      vertex 4.9023 -16.9307 0.5
      vertex 5.2577 -16.9307 0.5
    endloop
  endfacet
  facet normal 0 1 0
    outer loop
      vertex 4.9023 -16.9307 0.5
      vertex 5.2577 -16.9307 -2.5
      vertex 4.9023 -16.9307 -2.5
    endloop
  endfacet
  facet normal -0.743146 -0.669129 0
    outer loop
      vertex 6.45533 -14.2408 -2.5
      vertex 6.21752 -13.9767 0.5
      vertex 6.21752 -13.9767 -2.5
    endloop
  endfacet
  facet normal -0.743146 -0.669129 0
    outer loop
      vertex 6.21752 -13.9767 0.5
      vertex 6.45533 -14.2408 -2.5
      vertex 6.45533 -14.2408 0.5
    endloop
  endfacet
  facet normal -0.951057 -0.309015 0
    outer loop
      vertex 6.74285 -14.8865 -2.5
      vertex 6.63303 -14.5485 0.5
      vertex 6.63303 -14.5485 -2.5
    endloop
  endfacet
  facet normal -0.951057 -0.309015 0
    outer loop
      vertex 6.63303 -14.5485 0.5
      vertex 6.74285 -14.8865 -2.5
      vertex 6.74285 -14.8865 0.5
    endloop
  endfacet
  facet normal 0.587784 -0.809018 0
    outer loop
      vertex 3.94248 -13.9767 -2.5
      vertex 4.23 -13.7678 0.5
      vertex 3.94248 -13.9767 0.5
    endloop
  endfacet
  facet normal 0.587784 -0.809018 0
    outer loop
      vertex 4.23 -13.7678 0.5
      vertex 3.94248 -13.9767 -2.5
      vertex 4.23 -13.7678 -2.5
    endloop
  endfacet
  facet normal 0.20791 -0.978148 0
    outer loop
      vertex 4.55467 -13.6232 -2.5
      vertex 4.9023 -13.5493 0.5
      vertex 4.55467 -13.6232 0.5
    endloop
  endfacet
  facet normal 0.20791 -0.978148 0
    outer loop
      vertex 4.9023 -13.5493 0.5
      vertex 4.55467 -13.6232 -2.5
      vertex 4.9023 -13.5493 -2.5
    endloop
  endfacet
  facet normal -0.866025 0.500001 0
    outer loop
      vertex 6.45533 -16.2392 -2.5
      vertex 6.63303 -15.9315 0.5
      vertex 6.63303 -15.9315 -2.5
    endloop
  endfacet
  facet normal -0.866025 0.500001 0
    outer loop
      vertex 6.63303 -15.9315 0.5
      vertex 6.45533 -16.2392 -2.5
      vertex 6.45533 -16.2392 0.5
    endloop
  endfacet
  facet normal -0.866024 -0.500002 0
    outer loop
      vertex 6.63303 -14.5485 -2.5
      vertex 6.45533 -14.2408 0.5
      vertex 6.45533 -14.2408 -2.5
    endloop
  endfacet
  facet normal -0.866024 -0.500002 0
    outer loop
      vertex 6.45533 -14.2408 0.5
      vertex 6.63303 -14.5485 -2.5
      vertex 6.63303 -14.5485 0.5
    endloop
  endfacet
  facet normal -0.406738 -0.913545 0
    outer loop
      vertex 5.60533 -13.6232 -2.5
      vertex 5.93 -13.7678 0.5
      vertex 5.60533 -13.6232 0.5
    endloop
  endfacet
  facet normal -0.406738 -0.913545 -0
    outer loop
      vertex 5.93 -13.7678 0.5
      vertex 5.60533 -13.6232 -2.5
      vertex 5.93 -13.7678 -2.5
    endloop
  endfacet
  facet normal -0.20791 -0.978148 0
    outer loop
      vertex 5.2577 -13.5493 -2.5
      vertex 5.60533 -13.6232 0.5
      vertex 5.2577 -13.5493 0.5
    endloop
  endfacet
  facet normal -0.20791 -0.978148 -0
    outer loop
      vertex 5.60533 -13.6232 0.5
      vertex 5.2577 -13.5493 -2.5
      vertex 5.60533 -13.6232 -2.5
    endloop
  endfacet
  facet normal -0.587784 -0.809018 0
    outer loop
      vertex 5.93 -13.7678 -2.5
      vertex 6.21752 -13.9767 0.5
      vertex 5.93 -13.7678 0.5
    endloop
  endfacet
  facet normal -0.587784 -0.809018 -0
    outer loop
      vertex 6.21752 -13.9767 0.5
      vertex 5.93 -13.7678 -2.5
      vertex 6.21752 -13.9767 -2.5
    endloop
  endfacet
  facet normal 0.866024 -0.500002 0
    outer loop
      vertex 3.52697 -14.5485 0.5
      vertex 3.70467 -14.2408 -2.5
      vertex 3.70467 -14.2408 0.5
    endloop
  endfacet
  facet normal 0.866024 -0.500002 0
    outer loop
      vertex 3.70467 -14.2408 -2.5
      vertex 3.52697 -14.5485 0.5
      vertex 3.52697 -14.5485 -2.5
    endloop
  endfacet
  facet normal 0.743146 -0.669129 0
    outer loop
      vertex 3.70467 -14.2408 0.5
      vertex 3.94248 -13.9767 -2.5
      vertex 3.94248 -13.9767 0.5
    endloop
  endfacet
  facet normal 0.743146 -0.669129 0
    outer loop
      vertex 3.94248 -13.9767 -2.5
      vertex 3.70467 -14.2408 0.5
      vertex 3.70467 -14.2408 -2.5
    endloop
  endfacet
  facet normal 0.951057 -0.309015 0
    outer loop
      vertex 3.41715 -14.8865 0.5
      vertex 3.52697 -14.5485 -2.5
      vertex 3.52697 -14.5485 0.5
    endloop
  endfacet
  facet normal 0.951057 -0.309015 0
    outer loop
      vertex 3.52697 -14.5485 -2.5
      vertex 3.41715 -14.8865 0.5
      vertex 3.41715 -14.8865 -2.5
    endloop
  endfacet
  facet normal 0.406738 -0.913545 0
    outer loop
      vertex 4.23 -13.7678 -2.5
      vertex 4.55467 -13.6232 0.5
      vertex 4.23 -13.7678 0.5
    endloop
  endfacet
  facet normal 0.406738 -0.913545 0
    outer loop
      vertex 4.55467 -13.6232 0.5
      vertex 4.23 -13.7678 -2.5
      vertex 4.55467 -13.6232 -2.5
    endloop
  endfacet
  facet normal -0.994522 0.104529 0
    outer loop
      vertex 6.74285 -15.5934 -2.5
      vertex 6.78 -15.24 0.5
      vertex 6.78 -15.24 -2.5
    endloop
  endfacet
  facet normal -0.994522 0.104529 0
    outer loop
      vertex 6.78 -15.24 0.5
      vertex 6.74285 -15.5934 -2.5
      vertex 6.74285 -15.5934 0.5
    endloop
  endfacet
  facet normal -0.951057 0.309016 0
    outer loop
      vertex 6.63303 -15.9315 -2.5
      vertex 6.74285 -15.5934 0.5
      vertex 6.74285 -15.5934 -2.5
    endloop
  endfacet
  facet normal -0.951057 0.309016 0
    outer loop
      vertex 6.74285 -15.5934 0.5
      vertex 6.63303 -15.9315 -2.5
      vertex 6.63303 -15.9315 0.5
    endloop
  endfacet
  facet normal 0.866025 0.500001 0
    outer loop
      vertex 3.70467 -16.2392 0.5
      vertex 3.52697 -15.9315 -2.5
      vertex 3.52697 -15.9315 0.5
    endloop
  endfacet
  facet normal 0.866025 0.500001 0
    outer loop
      vertex 3.52697 -15.9315 -2.5
      vertex 3.70467 -16.2392 0.5
      vertex 3.70467 -16.2392 -2.5
    endloop
  endfacet
  facet normal -0.587784 0.809018 0
    outer loop
      vertex 6.21752 -16.5033 -2.5
      vertex 5.93 -16.7122 0.5
      vertex 6.21752 -16.5033 0.5
    endloop
  endfacet
  facet normal -0.587784 0.809018 0
    outer loop
      vertex 5.93 -16.7122 0.5
      vertex 6.21752 -16.5033 -2.5
      vertex 5.93 -16.7122 -2.5
    endloop
  endfacet
  facet normal 0.20791 0.978148 -0
    outer loop
      vertex 4.9023 -16.9307 -2.5
      vertex 4.55467 -16.8568 0.5
      vertex 4.9023 -16.9307 0.5
    endloop
  endfacet
  facet normal 0.20791 0.978148 0
    outer loop
      vertex 4.55467 -16.8568 0.5
      vertex 4.9023 -16.9307 -2.5
      vertex 4.55467 -16.8568 -2.5
    endloop
  endfacet
  facet normal 0.743145 0.669131 0
    outer loop
      vertex 3.94248 -16.5033 0.5
      vertex 3.70467 -16.2392 -2.5
      vertex 3.70467 -16.2392 0.5
    endloop
  endfacet
  facet normal 0.743145 0.669131 0
    outer loop
      vertex 3.70467 -16.2392 -2.5
      vertex 3.94248 -16.5033 0.5
      vertex 3.94248 -16.5033 -2.5
    endloop
  endfacet
  facet normal 0.951057 0.309016 0
    outer loop
      vertex 3.52697 -15.9315 0.5
      vertex 3.41715 -15.5934 -2.5
      vertex 3.41715 -15.5934 0.5
    endloop
  endfacet
  facet normal 0.951057 0.309016 0
    outer loop
      vertex 3.41715 -15.5934 -2.5
      vertex 3.52697 -15.9315 0.5
      vertex 3.52697 -15.9315 -2.5
    endloop
  endfacet
  facet normal 0.994522 0.104529 0
    outer loop
      vertex 3.41715 -15.5934 0.5
      vertex 3.38 -15.24 -2.5
      vertex 3.38 -15.24 0.5
    endloop
  endfacet
  facet normal 0.994522 0.104529 0
    outer loop
      vertex 3.38 -15.24 -2.5
      vertex 3.41715 -15.5934 0.5
      vertex 3.41715 -15.5934 -2.5
    endloop
  endfacet
  facet normal -0.40674 0.913544 0
    outer loop
      vertex 5.93 -16.7122 -2.5
      vertex 5.60533 -16.8568 0.5
      vertex 5.93 -16.7122 0.5
    endloop
  endfacet
  facet normal -0.40674 0.913544 0
    outer loop
      vertex 5.60533 -16.8568 0.5
      vertex 5.93 -16.7122 -2.5
      vertex 5.60533 -16.8568 -2.5
    endloop
  endfacet
  facet normal -0.20791 0.978148 0
    outer loop
      vertex 5.60533 -16.8568 -2.5
      vertex 5.2577 -16.9307 0.5
      vertex 5.60533 -16.8568 0.5
    endloop
  endfacet
  facet normal -0.20791 0.978148 0
    outer loop
      vertex 5.2577 -16.9307 0.5
      vertex 5.60533 -16.8568 -2.5
      vertex 5.2577 -16.9307 -2.5
    endloop
  endfacet
  facet normal -0.743145 0.669131 0
    outer loop
      vertex 6.21752 -16.5033 -2.5
      vertex 6.45533 -16.2392 0.5
      vertex 6.45533 -16.2392 -2.5
    endloop
  endfacet
  facet normal -0.743145 0.669131 0
    outer loop
      vertex 6.45533 -16.2392 0.5
      vertex 6.21752 -16.5033 -2.5
      vertex 6.21752 -16.5033 0.5
    endloop
  endfacet
  facet normal 0.40674 0.913544 -0
    outer loop
      vertex 4.55467 -16.8568 -2.5
      vertex 4.23 -16.7122 0.5
      vertex 4.55467 -16.8568 0.5
    endloop
  endfacet
  facet normal 0.40674 0.913544 0
    outer loop
      vertex 4.23 -16.7122 0.5
      vertex 4.55467 -16.8568 -2.5
      vertex 4.23 -16.7122 -2.5
    endloop
  endfacet
  facet normal 0.587784 0.809018 -0
    outer loop
      vertex 4.23 -16.7122 -2.5
      vertex 3.94248 -16.5033 0.5
      vertex 4.23 -16.7122 0.5
    endloop
  endfacet
  facet normal 0.587784 0.809018 0
    outer loop
      vertex 3.94248 -16.5033 0.5
      vertex 4.23 -16.7122 -2.5
      vertex 3.94248 -16.5033 -2.5
    endloop
  endfacet
  facet normal -0.866024 -0.500002 0
    outer loop
      vertex -3.52697 -14.5485 -2.5
      vertex -3.70467 -14.2408 0.5
      vertex -3.70467 -14.2408 -2.5
    endloop
  endfacet
  facet normal -0.866024 -0.500002 0
    outer loop
      vertex -3.70467 -14.2408 0.5
      vertex -3.52697 -14.5485 -2.5
      vertex -3.52697 -14.5485 0.5
    endloop
  endfacet
  facet normal -0.951057 -0.309015 0
    outer loop
      vertex -3.41715 -14.8865 -2.5
      vertex -3.52697 -14.5485 0.5
      vertex -3.52697 -14.5485 -2.5
    endloop
  endfacet
  facet normal -0.951057 -0.309015 0
    outer loop
      vertex -3.52697 -14.5485 0.5
      vertex -3.41715 -14.8865 -2.5
      vertex -3.41715 -14.8865 0.5
    endloop
  endfacet
  facet normal -0.406738 -0.913545 0
    outer loop
      vertex -4.55467 -13.6232 -2.5
      vertex -4.23 -13.7678 0.5
      vertex -4.55467 -13.6232 0.5
    endloop
  endfacet
  facet normal -0.406738 -0.913545 -0
    outer loop
      vertex -4.23 -13.7678 0.5
      vertex -4.55467 -13.6232 -2.5
      vertex -4.23 -13.7678 -2.5
    endloop
  endfacet
  facet normal 0.20791 -0.978148 0
    outer loop
      vertex -5.60533 -13.6232 -2.5
      vertex -5.2577 -13.5493 0.5
      vertex -5.60533 -13.6232 0.5
    endloop
  endfacet
  facet normal 0.20791 -0.978148 0
    outer loop
      vertex -5.2577 -13.5493 0.5
      vertex -5.60533 -13.6232 -2.5
      vertex -5.2577 -13.5493 -2.5
    endloop
  endfacet
  facet normal 0.866024 -0.500002 0
    outer loop
      vertex -6.63303 -14.5485 0.5
      vertex -6.45533 -14.2408 -2.5
      vertex -6.45533 -14.2408 0.5
    endloop
  endfacet
  facet normal 0.866024 -0.500002 0
    outer loop
      vertex -6.45533 -14.2408 -2.5
      vertex -6.63303 -14.5485 0.5
      vertex -6.63303 -14.5485 -2.5
    endloop
  endfacet
  facet normal -0.994522 0.104529 0
    outer loop
      vertex -3.41715 -15.5934 -2.5
      vertex -3.38 -15.24 0.5
      vertex -3.38 -15.24 -2.5
    endloop
  endfacet
  facet normal -0.994522 0.104529 0
    outer loop
      vertex -3.38 -15.24 0.5
      vertex -3.41715 -15.5934 -2.5
      vertex -3.41715 -15.5934 0.5
    endloop
  endfacet
  facet normal -0.20791 0.978148 0
    outer loop
      vertex -4.55467 -16.8568 -2.5
      vertex -4.9023 -16.9307 0.5
      vertex -4.55467 -16.8568 0.5
    endloop
  endfacet
  facet normal -0.20791 0.978148 0
    outer loop
      vertex -4.9023 -16.9307 0.5
      vertex -4.55467 -16.8568 -2.5
      vertex -4.9023 -16.9307 -2.5
    endloop
  endfacet
  facet normal -0.743146 -0.669129 0
    outer loop
      vertex -3.70467 -14.2408 -2.5
      vertex -3.94248 -13.9767 0.5
      vertex -3.94248 -13.9767 -2.5
    endloop
  endfacet
  facet normal -0.743146 -0.669129 0
    outer loop
      vertex -3.94248 -13.9767 0.5
      vertex -3.70467 -14.2408 -2.5
      vertex -3.70467 -14.2408 0.5
    endloop
  endfacet
  facet normal 0 -1 0
    outer loop
      vertex -5.2577 -13.5493 -2.5
      vertex -4.9023 -13.5493 0.5
      vertex -5.2577 -13.5493 0.5
    endloop
  endfacet
  facet normal 0 -1 -0
    outer loop
      vertex -4.9023 -13.5493 0.5
      vertex -5.2577 -13.5493 -2.5
      vertex -4.9023 -13.5493 -2.5
    endloop
  endfacet
  facet normal -0.587784 -0.809018 0
    outer loop
      vertex -4.23 -13.7678 -2.5
      vertex -3.94248 -13.9767 0.5
      vertex -4.23 -13.7678 0.5
    endloop
  endfacet
  facet normal -0.587784 -0.809018 -0
    outer loop
      vertex -3.94248 -13.9767 0.5
      vertex -4.23 -13.7678 -2.5
      vertex -3.94248 -13.9767 -2.5
    endloop
  endfacet
  facet normal 0.994522 -0.104529 0
    outer loop
      vertex -6.78 -15.24 0.5
      vertex -6.74285 -14.8865 -2.5
      vertex -6.74285 -14.8865 0.5
    endloop
  endfacet
  facet normal 0.994522 -0.104529 0
    outer loop
      vertex -6.74285 -14.8865 -2.5
      vertex -6.78 -15.24 0.5
      vertex -6.78 -15.24 -2.5
    endloop
  endfacet
  facet normal 0.743146 -0.669129 0
    outer loop
      vertex -6.45533 -14.2408 0.5
      vertex -6.21752 -13.9767 -2.5
      vertex -6.21752 -13.9767 0.5
    endloop
  endfacet
  facet normal 0.743146 -0.669129 0
    outer loop
      vertex -6.21752 -13.9767 -2.5
      vertex -6.45533 -14.2408 0.5
      vertex -6.45533 -14.2408 -2.5
    endloop
  endfacet
  facet normal 0.406738 -0.913545 0
    outer loop
      vertex -5.93 -13.7678 -2.5
      vertex -5.60533 -13.6232 0.5
      vertex -5.93 -13.7678 0.5
    endloop
  endfacet
  facet normal 0.406738 -0.913545 0
    outer loop
      vertex -5.60533 -13.6232 0.5
      vertex -5.93 -13.7678 -2.5
      vertex -5.60533 -13.6232 -2.5
    endloop
  endfacet
  facet normal 0.587784 -0.809018 0
    outer loop
      vertex -6.21752 -13.9767 -2.5
      vertex -5.93 -13.7678 0.5
      vertex -6.21752 -13.9767 0.5
    endloop
  endfacet
  facet normal 0.587784 -0.809018 0
    outer loop
      vertex -5.93 -13.7678 0.5
      vertex -6.21752 -13.9767 -2.5
      vertex -5.93 -13.7678 -2.5
    endloop
  endfacet
  facet normal -0.994522 -0.104529 0
    outer loop
      vertex -3.38 -15.24 -2.5
      vertex -3.41715 -14.8865 0.5
      vertex -3.41715 -14.8865 -2.5
    endloop
  endfacet
  facet normal -0.994522 -0.104529 0
    outer loop
      vertex -3.41715 -14.8865 0.5
      vertex -3.38 -15.24 -2.5
      vertex -3.38 -15.24 0.5
    endloop
  endfacet
  facet normal -0.587784 0.809018 0
    outer loop
      vertex -3.94248 -16.5033 -2.5
      vertex -4.23 -16.7122 0.5
      vertex -3.94248 -16.5033 0.5
    endloop
  endfacet
  facet normal -0.587784 0.809018 0
    outer loop
      vertex -4.23 -16.7122 0.5
      vertex -3.94248 -16.5033 -2.5
      vertex -4.23 -16.7122 -2.5
    endloop
  endfacet
  facet normal -0.951057 0.309016 0
    outer loop
      vertex -3.52697 -15.9315 -2.5
      vertex -3.41715 -15.5934 0.5
      vertex -3.41715 -15.5934 -2.5
    endloop
  endfacet
  facet normal -0.951057 0.309016 0
    outer loop
      vertex -3.41715 -15.5934 0.5
      vertex -3.52697 -15.9315 -2.5
      vertex -3.52697 -15.9315 0.5
    endloop
  endfacet
  facet normal 0.20791 0.978148 -0
    outer loop
      vertex -5.2577 -16.9307 -2.5
      vertex -5.60533 -16.8568 0.5
      vertex -5.2577 -16.9307 0.5
    endloop
  endfacet
  facet normal 0.20791 0.978148 0
    outer loop
      vertex -5.60533 -16.8568 0.5
      vertex -5.2577 -16.9307 -2.5
      vertex -5.60533 -16.8568 -2.5
    endloop
  endfacet
  facet normal -0.20791 -0.978148 0
    outer loop
      vertex -4.9023 -13.5493 -2.5
      vertex -4.55467 -13.6232 0.5
      vertex -4.9023 -13.5493 0.5
    endloop
  endfacet
  facet normal -0.20791 -0.978148 -0
    outer loop
      vertex -4.55467 -13.6232 0.5
      vertex -4.9023 -13.5493 -2.5
      vertex -4.55467 -13.6232 -2.5
    endloop
  endfacet
  facet normal 0.951057 -0.309015 0
    outer loop
      vertex -6.74285 -14.8865 0.5
      vertex -6.63303 -14.5485 -2.5
      vertex -6.63303 -14.5485 0.5
    endloop
  endfacet
  facet normal 0.951057 -0.309015 0
    outer loop
      vertex -6.63303 -14.5485 -2.5
      vertex -6.74285 -14.8865 0.5
      vertex -6.74285 -14.8865 -2.5
    endloop
  endfacet
  facet normal -0.866025 0.500001 0
    outer loop
      vertex -3.70467 -16.2392 -2.5
      vertex -3.52697 -15.9315 0.5
      vertex -3.52697 -15.9315 -2.5
    endloop
  endfacet
  facet normal -0.866025 0.500001 0
    outer loop
      vertex -3.52697 -15.9315 0.5
      vertex -3.70467 -16.2392 -2.5
      vertex -3.70467 -16.2392 0.5
    endloop
  endfacet
  facet normal 0.994522 0.104529 0
    outer loop
      vertex -6.74285 -15.5934 0.5
      vertex -6.78 -15.24 -2.5
      vertex -6.78 -15.24 0.5
    endloop
  endfacet
  facet normal 0.994522 0.104529 0
    outer loop
      vertex -6.78 -15.24 -2.5
      vertex -6.74285 -15.5934 0.5
      vertex -6.74285 -15.5934 -2.5
    endloop
  endfacet
  facet normal 0.866025 0.500001 0
    outer loop
      vertex -6.45533 -16.2392 0.5
      vertex -6.63303 -15.9315 -2.5
      vertex -6.63303 -15.9315 0.5
    endloop
  endfacet
  facet normal 0.866025 0.500001 0
    outer loop
      vertex -6.63303 -15.9315 -2.5
      vertex -6.45533 -16.2392 0.5
      vertex -6.45533 -16.2392 -2.5
    endloop
  endfacet
  facet normal 0 1 -0
    outer loop
      vertex -4.9023 -16.9307 -2.5
      vertex -5.2577 -16.9307 0.5
      vertex -4.9023 -16.9307 0.5
    endloop
  endfacet
  facet normal 0 1 0
    outer loop
      vertex -5.2577 -16.9307 0.5
      vertex -4.9023 -16.9307 -2.5
      vertex -5.2577 -16.9307 -2.5
    endloop
  endfacet
  facet normal 0.587784 0.809018 -0
    outer loop
      vertex -5.93 -16.7122 -2.5
      vertex -6.21752 -16.5033 0.5
      vertex -5.93 -16.7122 0.5
    endloop
  endfacet
  facet normal 0.587784 0.809018 0
    outer loop
      vertex -6.21752 -16.5033 0.5
      vertex -5.93 -16.7122 -2.5
      vertex -6.21752 -16.5033 -2.5
    endloop
  endfacet
  facet normal 0.40674 0.913544 -0
    outer loop
      vertex -5.60533 -16.8568 -2.5
      vertex -5.93 -16.7122 0.5
      vertex -5.60533 -16.8568 0.5
    endloop
  endfacet
  facet normal 0.40674 0.913544 0
    outer loop
      vertex -5.93 -16.7122 0.5
      vertex -5.60533 -16.8568 -2.5
      vertex -5.93 -16.7122 -2.5
    endloop
  endfacet
  facet normal 0.951057 0.309016 0
    outer loop
      vertex -6.63303 -15.9315 0.5
      vertex -6.74285 -15.5934 -2.5
      vertex -6.74285 -15.5934 0.5
    endloop
  endfacet
  facet normal 0.951057 0.309016 0
    outer loop
      vertex -6.74285 -15.5934 -2.5
      vertex -6.63303 -15.9315 0.5
      vertex -6.63303 -15.9315 -2.5
    endloop
  endfacet
  facet normal 0.743145 0.669131 0
    outer loop
      vertex -6.21752 -16.5033 0.5
      vertex -6.45533 -16.2392 -2.5
      vertex -6.45533 -16.2392 0.5
    endloop
  endfacet
  facet normal 0.743145 0.669131 0
    outer loop
      vertex -6.45533 -16.2392 -2.5
      vertex -6.21752 -16.5033 0.5
      vertex -6.21752 -16.5033 -2.5
    endloop
  endfacet
  facet normal -0.40674 0.913544 0
    outer loop
      vertex -4.23 -16.7122 -2.5
      vertex -4.55467 -16.8568 0.5
      vertex -4.23 -16.7122 0.5
    endloop
  endfacet
  facet normal -0.40674 0.913544 0
    outer loop
      vertex -4.55467 -16.8568 0.5
      vertex -4.23 -16.7122 -2.5
      vertex -4.55467 -16.8568 -2.5
    endloop
  endfacet
  facet normal -0.743145 0.669131 0
    outer loop
      vertex -3.94248 -16.5033 -2.5
      vertex -3.70467 -16.2392 0.5
      vertex -3.70467 -16.2392 -2.5
    endloop
  endfacet
  facet normal -0.743145 0.669131 0
    outer loop
      vertex -3.70467 -16.2392 0.5
      vertex -3.94248 -16.5033 -2.5
      vertex -3.94248 -16.5033 0.5
    endloop
  endfacet
  facet normal -0 0 1
    outer loop
      vertex 6.74285 15.5934 0.5
      vertex 10 11.95 0.5
      vertex 10 20 0.5
    endloop
  endfacet
  facet normal 0 0 1
    outer loop
      vertex 10 11.95 0.5
      vertex 6.74285 15.5934 0.5
      vertex 6.78 15.24 0.5
    endloop
  endfacet
  facet normal 0 0 1
    outer loop
      vertex 10 20 0.5
      vertex 6.63303 15.9315 0.5
      vertex 6.74285 15.5934 0.5
    endloop
  endfacet
  facet normal 0 0 1
    outer loop
      vertex 10 20 0.5
      vertex 6.45533 16.2392 0.5
      vertex 6.63303 15.9315 0.5
    endloop
  endfacet
  facet normal 0 0 1
    outer loop
      vertex 10 20 0.5
      vertex 6.21752 16.5033 0.5
      vertex 6.45533 16.2392 0.5
    endloop
  endfacet
  facet normal 0 0 1
    outer loop
      vertex 10 20 0.5
      vertex 5.93 16.7122 0.5
      vertex 6.21752 16.5033 0.5
    endloop
  endfacet
  facet normal 0 0 1
    outer loop
      vertex 10 20 0.5
      vertex 5.60533 16.8568 0.5
      vertex 5.93 16.7122 0.5
    endloop
  endfacet
  facet normal 0 0 1
    outer loop
      vertex 10 20 0.5
      vertex 5.2577 16.9307 0.5
      vertex 5.60533 16.8568 0.5
    endloop
  endfacet
  facet normal 0 0 1
    outer loop
      vertex 10 20 0.5
      vertex 4.9023 16.9307 0.5
      vertex 5.2577 16.9307 0.5
    endloop
  endfacet
  facet normal 0 0 1
    outer loop
      vertex 10 20 0.5
      vertex 4.55467 16.8568 0.5
      vertex 4.9023 16.9307 0.5
    endloop
  endfacet
  facet normal 0 0 1
    outer loop
      vertex -4.55467 16.8568 0.5
      vertex 4.55467 16.8568 0.5
      vertex 10 20 0.5
    endloop
  endfacet
  facet normal 0 0 1
    outer loop
      vertex 3.41715 15.5934 0.5
      vertex -3.38 15.24 0.5
      vertex 3.38 15.24 0.5
    endloop
  endfacet
  facet normal 0 0 1
    outer loop
      vertex -3.41715 15.5934 0.5
      vertex 3.41715 15.5934 0.5
      vertex 3.52697 15.9315 0.5
    endloop
  endfacet
  facet normal 0 0 1
    outer loop
      vertex -3.52697 15.9315 0.5
      vertex 3.52697 15.9315 0.5
      vertex 3.70467 16.2392 0.5
    endloop
  endfacet
  facet normal 0 0 1
    outer loop
      vertex -3.70467 16.2392 0.5
      vertex 3.70467 16.2392 0.5
      vertex 3.94248 16.5033 0.5
    endloop
  endfacet
  facet normal 0 0 1
    outer loop
      vertex -3.94248 16.5033 0.5
      vertex 3.94248 16.5033 0.5
      vertex 4.23 16.7122 0.5
    endloop
  endfacet
  facet normal 0 0 1
    outer loop
      vertex 4.55467 16.8568 0.5
      vertex -4.55467 16.8568 0.5
      vertex 4.23 16.7122 0.5
    endloop
  endfacet
  facet normal 0 0 1
    outer loop
      vertex 3.41715 15.5934 0.5
      vertex -3.41715 15.5934 0.5
      vertex -3.38 15.24 0.5
    endloop
  endfacet
  facet normal 0 0 1
    outer loop
      vertex 3.52697 15.9315 0.5
      vertex -3.52697 15.9315 0.5
      vertex -3.41715 15.5934 0.5
    endloop
  endfacet
  facet normal 0 0 1
    outer loop
      vertex 3.70467 16.2392 0.5
      vertex -3.70467 16.2392 0.5
      vertex -3.52697 15.9315 0.5
    endloop
  endfacet
  facet normal 0 0 1
    outer loop
      vertex 3.94248 16.5033 0.5
      vertex -3.94248 16.5033 0.5
      vertex -3.70467 16.2392 0.5
    endloop
  endfacet
  facet normal 0 0 1
    outer loop
      vertex 4.23 16.7122 0.5
      vertex -4.23 16.7122 0.5
      vertex -3.94248 16.5033 0.5
    endloop
  endfacet
  facet normal 0 0 1
    outer loop
      vertex 4.23 16.7122 0.5
      vertex -4.55467 16.8568 0.5
      vertex -4.23 16.7122 0.5
    endloop
  endfacet
  facet normal -0 0 1
    outer loop
      vertex -10 20 0.5
      vertex -4.55467 16.8568 0.5
      vertex 10 20 0.5
    endloop
  endfacet
  facet normal 0 0 1
    outer loop
      vertex -4.55467 16.8568 0.5
      vertex -10 20 0.5
      vertex -4.9023 16.9307 0.5
    endloop
  endfacet
  facet normal 0 0 1
    outer loop
      vertex -10 11.95 0.5
      vertex -6.74285 15.5934 0.5
      vertex -10 20 0.5
    endloop
  endfacet
  facet normal 0 0 1
    outer loop
      vertex -6.63303 15.9315 0.5
      vertex -10 20 0.5
      vertex -6.74285 15.5934 0.5
    endloop
  endfacet
  facet normal 0 0 1
    outer loop
      vertex -6.45533 16.2392 0.5
      vertex -10 20 0.5
      vertex -6.63303 15.9315 0.5
    endloop
  endfacet
  facet normal 0 0 1
    outer loop
      vertex -6.21752 16.5033 0.5
      vertex -10 20 0.5
      vertex -6.45533 16.2392 0.5
    endloop
  endfacet
  facet normal 0 0 1
    outer loop
      vertex -5.93 16.7122 0.5
      vertex -10 20 0.5
      vertex -6.21752 16.5033 0.5
    endloop
  endfacet
  facet normal 0 0 1
    outer loop
      vertex -5.60533 16.8568 0.5
      vertex -10 20 0.5
      vertex -5.93 16.7122 0.5
    endloop
  endfacet
  facet normal 0 0 1
    outer loop
      vertex -5.2577 16.9307 0.5
      vertex -10 20 0.5
      vertex -5.60533 16.8568 0.5
    endloop
  endfacet
  facet normal 0 0 1
    outer loop
      vertex -4.9023 16.9307 0.5
      vertex -10 20 0.5
      vertex -5.2577 16.9307 0.5
    endloop
  endfacet
  facet normal -0 0 1
    outer loop
      vertex 6.74285 14.8865 0.5
      vertex 10 11.95 0.5
      vertex 6.78 15.24 0.5
    endloop
  endfacet
  facet normal -0 0 1
    outer loop
      vertex 6.63303 14.5485 0.5
      vertex 10 11.95 0.5
      vertex 6.74285 14.8865 0.5
    endloop
  endfacet
  facet normal -0 0 1
    outer loop
      vertex 6.45533 14.2408 0.5
      vertex 10 11.95 0.5
      vertex 6.63303 14.5485 0.5
    endloop
  endfacet
  facet normal -0 0 1
    outer loop
      vertex 6.21752 13.9767 0.5
      vertex 10 11.95 0.5
      vertex 6.45533 14.2408 0.5
    endloop
  endfacet
  facet normal -0 0 1
    outer loop
      vertex 5.93 13.7678 0.5
      vertex 10 11.95 0.5
      vertex 6.21752 13.9767 0.5
    endloop
  endfacet
  facet normal -0 0 1
    outer loop
      vertex 5.60533 13.6232 0.5
      vertex 10 11.95 0.5
      vertex 5.93 13.7678 0.5
    endloop
  endfacet
  facet normal -0 0 1
    outer loop
      vertex 5.2577 13.5493 0.5
      vertex 10 11.95 0.5
      vertex 5.60533 13.6232 0.5
    endloop
  endfacet
  facet normal -0 0 1
    outer loop
      vertex 4.9023 13.5493 0.5
      vertex 10 11.95 0.5
      vertex 5.2577 13.5493 0.5
    endloop
  endfacet
  facet normal 0 0 1
    outer loop
      vertex -4.9023 13.5493 0.5
      vertex 4.9023 13.5493 0.5
      vertex 4.55467 13.6232 0.5
    endloop
  endfacet
  facet normal -0 0 1
    outer loop
      vertex -3.38 15.24 0.5
      vertex 3.41715 14.8865 0.5
      vertex 3.38 15.24 0.5
    endloop
  endfacet
  facet normal 0 0 1
    outer loop
      vertex -3.41715 14.8865 0.5
      vertex 3.41715 14.8865 0.5
      vertex -3.38 15.24 0.5
    endloop
  endfacet
  facet normal 0 0 1
    outer loop
      vertex 3.41715 14.8865 0.5
      vertex -3.41715 14.8865 0.5
      vertex 3.52697 14.5485 0.5
    endloop
  endfacet
  facet normal 0 0 1
    outer loop
      vertex -3.52697 14.5485 0.5
      vertex 3.52697 14.5485 0.5
      vertex -3.41715 14.8865 0.5
    endloop
  endfacet
  facet normal 0 0 1
    outer loop
      vertex 3.52697 14.5485 0.5
      vertex -3.52697 14.5485 0.5
      vertex 3.70467 14.2408 0.5
    endloop
  endfacet
  facet normal 0 0 1
    outer loop
      vertex -3.70467 14.2408 0.5
      vertex 3.70467 14.2408 0.5
      vertex -3.52697 14.5485 0.5
    endloop
  endfacet
  facet normal 0 0 1
    outer loop
      vertex 3.70467 14.2408 0.5
      vertex -3.70467 14.2408 0.5
      vertex 3.94248 13.9767 0.5
    endloop
  endfacet
  facet normal 0 0 1
    outer loop
      vertex -3.94248 13.9767 0.5
      vertex 3.94248 13.9767 0.5
      vertex -3.70467 14.2408 0.5
    endloop
  endfacet
  facet normal 0 0 1
    outer loop
      vertex 3.94248 13.9767 0.5
      vertex -3.94248 13.9767 0.5
      vertex 4.23 13.7678 0.5
    endloop
  endfacet
  facet normal 0 0 1
    outer loop
      vertex -4.23 13.7678 0.5
      vertex 4.23 13.7678 0.5
      vertex -3.94248 13.9767 0.5
    endloop
  endfacet
  facet normal 0 0 1
    outer loop
      vertex 4.23 13.7678 0.5
      vertex -4.23 13.7678 0.5
      vertex 4.55467 13.6232 0.5
    endloop
  endfacet
  facet normal 0 0 1
    outer loop
      vertex -4.55467 13.6232 0.5
      vertex 4.55467 13.6232 0.5
      vertex -4.23 13.7678 0.5
    endloop
  endfacet
  facet normal 0 0 1
    outer loop
      vertex -4.9023 13.5493 0.5
      vertex 4.55467 13.6232 0.5
      vertex -4.55467 13.6232 0.5
    endloop
  endfacet
  facet normal 0 0 1
    outer loop
      vertex 4.9023 13.5493 0.5
      vertex -4.9023 13.5493 0.5
      vertex 10 11.95 0.5
    endloop
  endfacet
  facet normal 0 0 1
    outer loop
      vertex -10 11.95 0.5
      vertex -4.9023 13.5493 0.5
      vertex -5.2577 13.5493 0.5
    endloop
  endfacet
  facet normal 0 0 1
    outer loop
      vertex -6.74285 15.5934 0.5
      vertex -10 11.95 0.5
      vertex -6.78 15.24 0.5
    endloop
  endfacet
  facet normal 0 0 1
    outer loop
      vertex -6.78 15.24 0.5
      vertex -10 11.95 0.5
      vertex -6.74285 14.8865 0.5
    endloop
  endfacet
  facet normal 0 0 1
    outer loop
      vertex -6.74285 14.8865 0.5
      vertex -10 11.95 0.5
      vertex -6.63303 14.5485 0.5
    endloop
  endfacet
  facet normal 0 0 1
    outer loop
      vertex -4.9023 13.5493 0.5
      vertex -10 11.95 0.5
      vertex 10 11.95 0.5
    endloop
  endfacet
  facet normal 0 0 1
    outer loop
      vertex -5.60533 13.6232 0.5
      vertex -10 11.95 0.5
      vertex -5.2577 13.5493 0.5
    endloop
  endfacet
  facet normal 0 0 1
    outer loop
      vertex -5.93 13.7678 0.5
      vertex -10 11.95 0.5
      vertex -5.60533 13.6232 0.5
    endloop
  endfacet
  facet normal 0 0 1
    outer loop
      vertex -6.21752 13.9767 0.5
      vertex -10 11.95 0.5
      vertex -5.93 13.7678 0.5
    endloop
  endfacet
  facet normal 0 0 1
    outer loop
      vertex -6.45533 14.2408 0.5
      vertex -10 11.95 0.5
      vertex -6.21752 13.9767 0.5
    endloop
  endfacet
  facet normal 0 0 1
    outer loop
      vertex -6.63303 14.5485 0.5
      vertex -10 11.95 0.5
      vertex -6.45533 14.2408 0.5
    endloop
  endfacet
  facet normal 0 1 -0
    outer loop
      vertex 10 11.95 0.5
      vertex -10 11.95 2.5
      vertex 10 11.95 2.5
    endloop
  endfacet
  facet normal 0 1 0
    outer loop
      vertex -10 11.95 2.5
      vertex 10 11.95 0.5
      vertex -10 11.95 0.5
    endloop
  endfacet
  facet normal 0 -1 0
    outer loop
      vertex -10 -11.95 0.5
      vertex 10 -11.95 2.5
      vertex -10 -11.95 2.5
    endloop
  endfacet
  facet normal 0 -1 -0
    outer loop
      vertex 10 -11.95 2.5
      vertex -10 -11.95 0.5
      vertex 10 -11.95 0.5
    endloop
  endfacet
  facet normal 0 0 1
    outer loop
      vertex 6.74285 -15.5934 0.5
      vertex 10 -11.95 0.5
      vertex 6.78 -15.24 0.5
    endloop
  endfacet
  facet normal 0 0 1
    outer loop
      vertex 10 -11.95 0.5
      vertex 6.74285 -14.8865 0.5
      vertex 6.78 -15.24 0.5
    endloop
  endfacet
  facet normal 0 0 1
    outer loop
      vertex 10 -11.95 0.5
      vertex 6.63303 -14.5485 0.5
      vertex 6.74285 -14.8865 0.5
    endloop
  endfacet
  facet normal 0 0 1
    outer loop
      vertex 10 -11.95 0.5
      vertex 6.45533 -14.2408 0.5
      vertex 6.63303 -14.5485 0.5
    endloop
  endfacet
  facet normal 0 0 1
    outer loop
      vertex 10 -11.95 0.5
      vertex 6.21752 -13.9767 0.5
      vertex 6.45533 -14.2408 0.5
    endloop
  endfacet
  facet normal 0 0 1
    outer loop
      vertex 10 -11.95 0.5
      vertex 5.93 -13.7678 0.5
      vertex 6.21752 -13.9767 0.5
    endloop
  endfacet
  facet normal 0 0 1
    outer loop
      vertex 10 -11.95 0.5
      vertex 5.60533 -13.6232 0.5
      vertex 5.93 -13.7678 0.5
    endloop
  endfacet
  facet normal 0 0 1
    outer loop
      vertex 10 -11.95 0.5
      vertex 5.2577 -13.5493 0.5
      vertex 5.60533 -13.6232 0.5
    endloop
  endfacet
  facet normal 0 0 1
    outer loop
      vertex 10 -11.95 0.5
      vertex 4.9023 -13.5493 0.5
      vertex 5.2577 -13.5493 0.5
    endloop
  endfacet
  facet normal 0 0 1
    outer loop
      vertex -4.9023 -13.5493 0.5
      vertex 4.9023 -13.5493 0.5
      vertex 10 -11.95 0.5
    endloop
  endfacet
  facet normal 0 0 1
    outer loop
      vertex 3.41715 -14.8865 0.5
      vertex -3.38 -15.24 0.5
      vertex 3.38 -15.24 0.5
    endloop
  endfacet
  facet normal 0 0 1
    outer loop
      vertex -3.41715 -14.8865 0.5
      vertex 3.41715 -14.8865 0.5
      vertex 3.52697 -14.5485 0.5
    endloop
  endfacet
  facet normal 0 0 1
    outer loop
      vertex -3.52697 -14.5485 0.5
      vertex 3.52697 -14.5485 0.5
      vertex 3.70467 -14.2408 0.5
    endloop
  endfacet
  facet normal 0 0 1
    outer loop
      vertex -3.70467 -14.2408 0.5
      vertex 3.70467 -14.2408 0.5
      vertex 3.94248 -13.9767 0.5
    endloop
  endfacet
  facet normal 0 0 1
    outer loop
      vertex -3.94248 -13.9767 0.5
      vertex 3.94248 -13.9767 0.5
      vertex 4.23 -13.7678 0.5
    endloop
  endfacet
  facet normal 0 0 1
    outer loop
      vertex -4.23 -13.7678 0.5
      vertex 4.23 -13.7678 0.5
      vertex 4.55467 -13.6232 0.5
    endloop
  endfacet
  facet normal 0 0 1
    outer loop
      vertex 4.9023 -13.5493 0.5
      vertex -4.9023 -13.5493 0.5
      vertex 4.55467 -13.6232 0.5
    endloop
  endfacet
  facet normal 0 0 1
    outer loop
      vertex 3.41715 -14.8865 0.5
      vertex -3.41715 -14.8865 0.5
      vertex -3.38 -15.24 0.5
    endloop
  endfacet
  facet normal 0 0 1
    outer loop
      vertex 3.52697 -14.5485 0.5
      vertex -3.52697 -14.5485 0.5
      vertex -3.41715 -14.8865 0.5
    endloop
  endfacet
  facet normal 0 0 1
    outer loop
      vertex 3.70467 -14.2408 0.5
      vertex -3.70467 -14.2408 0.5
      vertex -3.52697 -14.5485 0.5
    endloop
  endfacet
  facet normal 0 0 1
    outer loop
      vertex 3.94248 -13.9767 0.5
      vertex -3.94248 -13.9767 0.5
      vertex -3.70467 -14.2408 0.5
    endloop
  endfacet
  facet normal 0 0 1
    outer loop
      vertex 4.23 -13.7678 0.5
      vertex -4.23 -13.7678 0.5
      vertex -3.94248 -13.9767 0.5
    endloop
  endfacet
  facet normal 0 0 1
    outer loop
      vertex 4.55467 -13.6232 0.5
      vertex -4.55467 -13.6232 0.5
      vertex -4.23 -13.7678 0.5
    endloop
  endfacet
  facet normal 0 0 1
    outer loop
      vertex 4.55467 -13.6232 0.5
      vertex -4.9023 -13.5493 0.5
      vertex -4.55467 -13.6232 0.5
    endloop
  endfacet
  facet normal -0 0 1
    outer loop
      vertex -10 -11.95 0.5
      vertex -4.9023 -13.5493 0.5
      vertex 10 -11.95 0.5
    endloop
  endfacet
  facet normal 0 0 1
    outer loop
      vertex -6.74285 -14.8865 0.5
      vertex -10 -11.95 0.5
      vertex -6.78 -15.24 0.5
    endloop
  endfacet
  facet normal 0 0 1
    outer loop
      vertex -6.63303 -14.5485 0.5
      vertex -10 -11.95 0.5
      vertex -6.74285 -14.8865 0.5
    endloop
  endfacet
  facet normal 0 0 1
    outer loop
      vertex -6.45533 -14.2408 0.5
      vertex -10 -11.95 0.5
      vertex -6.63303 -14.5485 0.5
    endloop
  endfacet
  facet normal 0 0 1
    outer loop
      vertex -6.21752 -13.9767 0.5
      vertex -10 -11.95 0.5
      vertex -6.45533 -14.2408 0.5
    endloop
  endfacet
  facet normal 0 0 1
    outer loop
      vertex -5.93 -13.7678 0.5
      vertex -10 -11.95 0.5
      vertex -6.21752 -13.9767 0.5
    endloop
  endfacet
  facet normal 0 0 1
    outer loop
      vertex -5.60533 -13.6232 0.5
      vertex -10 -11.95 0.5
      vertex -5.93 -13.7678 0.5
    endloop
  endfacet
  facet normal 0 0 1
    outer loop
      vertex -5.2577 -13.5493 0.5
      vertex -10 -11.95 0.5
      vertex -5.60533 -13.6232 0.5
    endloop
  endfacet
  facet normal 0 0 1
    outer loop
      vertex -4.9023 -13.5493 0.5
      vertex -10 -11.95 0.5
      vertex -5.2577 -13.5493 0.5
    endloop
  endfacet
  facet normal 0 0 1
    outer loop
      vertex 10 -11.95 0.5
      vertex 6.74285 -15.5934 0.5
      vertex 10 -20 0.5
    endloop
  endfacet
  facet normal -0 0 1
    outer loop
      vertex 6.63303 -15.9315 0.5
      vertex 10 -20 0.5
      vertex 6.74285 -15.5934 0.5
    endloop
  endfacet
  facet normal -0 0 1
    outer loop
      vertex 6.45533 -16.2392 0.5
      vertex 10 -20 0.5
      vertex 6.63303 -15.9315 0.5
    endloop
  endfacet
  facet normal -0 0 1
    outer loop
      vertex 6.21752 -16.5033 0.5
      vertex 10 -20 0.5
      vertex 6.45533 -16.2392 0.5
    endloop
  endfacet
  facet normal -0 0 1
    outer loop
      vertex 5.93 -16.7122 0.5
      vertex 10 -20 0.5
      vertex 6.21752 -16.5033 0.5
    endloop
  endfacet
  facet normal -0 0 1
    outer loop
      vertex 5.60533 -16.8568 0.5
      vertex 10 -20 0.5
      vertex 5.93 -16.7122 0.5
    endloop
  endfacet
  facet normal -0 0 1
    outer loop
      vertex 5.2577 -16.9307 0.5
      vertex 10 -20 0.5
      vertex 5.60533 -16.8568 0.5
    endloop
  endfacet
  facet normal -0 0 1
    outer loop
      vertex 4.9023 -16.9307 0.5
      vertex 10 -20 0.5
      vertex 5.2577 -16.9307 0.5
    endloop
  endfacet
  facet normal 0 0 1
    outer loop
      vertex 4.55467 -16.8568 0.5
      vertex 10 -20 0.5
      vertex 4.9023 -16.9307 0.5
    endloop
  endfacet
  facet normal 0 0 1
    outer loop
      vertex -4.55467 -16.8568 0.5
      vertex 4.55467 -16.8568 0.5
      vertex 4.23 -16.7122 0.5
    endloop
  endfacet
  facet normal -0 0 1
    outer loop
      vertex -3.38 -15.24 0.5
      vertex 3.41715 -15.5934 0.5
      vertex 3.38 -15.24 0.5
    endloop
  endfacet
  facet normal 0 0 1
    outer loop
      vertex -3.41715 -15.5934 0.5
      vertex 3.41715 -15.5934 0.5
      vertex -3.38 -15.24 0.5
    endloop
  endfacet
  facet normal 0 0 1
    outer loop
      vertex 3.41715 -15.5934 0.5
      vertex -3.41715 -15.5934 0.5
      vertex 3.52697 -15.9315 0.5
    endloop
  endfacet
  facet normal 0 0 1
    outer loop
      vertex -3.52697 -15.9315 0.5
      vertex 3.52697 -15.9315 0.5
      vertex -3.41715 -15.5934 0.5
    endloop
  endfacet
  facet normal 0 0 1
    outer loop
      vertex 3.52697 -15.9315 0.5
      vertex -3.52697 -15.9315 0.5
      vertex 3.70467 -16.2392 0.5
    endloop
  endfacet
  facet normal 0 0 1
    outer loop
      vertex -3.70467 -16.2392 0.5
      vertex 3.70467 -16.2392 0.5
      vertex -3.52697 -15.9315 0.5
    endloop
  endfacet
  facet normal 0 0 1
    outer loop
      vertex 3.70467 -16.2392 0.5
      vertex -3.70467 -16.2392 0.5
      vertex 3.94248 -16.5033 0.5
    endloop
  endfacet
  facet normal 0 0 1
    outer loop
      vertex -3.94248 -16.5033 0.5
      vertex 3.94248 -16.5033 0.5
      vertex -3.70467 -16.2392 0.5
    endloop
  endfacet
  facet normal 0 0 1
    outer loop
      vertex 3.94248 -16.5033 0.5
      vertex -3.94248 -16.5033 0.5
      vertex 4.23 -16.7122 0.5
    endloop
  endfacet
  facet normal 0 0 1
    outer loop
      vertex -4.23 -16.7122 0.5
      vertex 4.23 -16.7122 0.5
      vertex -3.94248 -16.5033 0.5
    endloop
  endfacet
  facet normal 0 0 1
    outer loop
      vertex -4.55467 -16.8568 0.5
      vertex 4.23 -16.7122 0.5
      vertex -4.23 -16.7122 0.5
    endloop
  endfacet
  facet normal 0 0 1
    outer loop
      vertex 4.55467 -16.8568 0.5
      vertex -4.55467 -16.8568 0.5
      vertex 10 -20 0.5
    endloop
  endfacet
  facet normal 0 0 1
    outer loop
      vertex -10 -20 0.5
      vertex -4.55467 -16.8568 0.5
      vertex -4.9023 -16.9307 0.5
    endloop
  endfacet
  facet normal 0 0 1
    outer loop
      vertex -10 -20 0.5
      vertex -4.9023 -16.9307 0.5
      vertex -5.2577 -16.9307 0.5
    endloop
  endfacet
  facet normal 0 0 1
    outer loop
      vertex -10 -11.95 0.5
      vertex -6.74285 -15.5934 0.5
      vertex -6.78 -15.24 0.5
    endloop
  endfacet
  facet normal 0 0 1
    outer loop
      vertex -10 -20 0.5
      vertex -6.74285 -15.5934 0.5
      vertex -10 -11.95 0.5
    endloop
  endfacet
  facet normal 0 0 1
    outer loop
      vertex -6.74285 -15.5934 0.5
      vertex -10 -20 0.5
      vertex -6.63303 -15.9315 0.5
    endloop
  endfacet
  facet normal 0 0 1
    outer loop
      vertex -4.55467 -16.8568 0.5
      vertex -10 -20 0.5
      vertex 10 -20 0.5
    endloop
  endfacet
  facet normal 0 0 1
    outer loop
      vertex -5.60533 -16.8568 0.5
      vertex -10 -20 0.5
      vertex -5.2577 -16.9307 0.5
    endloop
  endfacet
  facet normal 0 0 1
    outer loop
      vertex -5.93 -16.7122 0.5
      vertex -10 -20 0.5
      vertex -5.60533 -16.8568 0.5
    endloop
  endfacet
  facet normal 0 0 1
    outer loop
      vertex -6.21752 -16.5033 0.5
      vertex -10 -20 0.5
      vertex -5.93 -16.7122 0.5
    endloop
  endfacet
  facet normal 0 0 1
    outer loop
      vertex -6.45533 -16.2392 0.5
      vertex -10 -20 0.5
      vertex -6.21752 -16.5033 0.5
    endloop
  endfacet
  facet normal 0 0 1
    outer loop
      vertex -6.63303 -15.9315 0.5
      vertex -10 -20 0.5
      vertex -6.45533 -16.2392 0.5
    endloop
  endfacet
  facet normal -0.892002 0 0.452031
    outer loop
      vertex 3.3234 1.8766 -0.4
      vertex 4.793 9.993 2.5
      vertex 3.3234 8.5234 -0.4
    endloop
  endfacet
  facet normal -0.892002 0 0.452031
    outer loop
      vertex 4.793 9.993 2.5
      vertex 3.3234 1.8766 -0.4
      vertex 4.793 0.406994 2.5
    endloop
  endfacet
  facet normal 0 -0.892002 0.452031
    outer loop
      vertex -3.3234 8.5234 -0.4
      vertex 4.793 9.993 2.5
      vertex -4.793 9.993 2.5
    endloop
  endfacet
  facet normal 0 -0.892002 0.452031
    outer loop
      vertex 4.793 9.993 2.5
      vertex -3.3234 8.5234 -0.4
      vertex 3.3234 8.5234 -0.4
    endloop
  endfacet
  facet normal 0 0 1
    outer loop
      vertex 2 2.95 -0.4
      vertex 3.3234 8.5234 -0.4
      vertex 2 8.45 -0.4
    endloop
  endfacet
  facet normal 0 0 1
    outer loop
      vertex 3.3234 8.5234 -0.4
      vertex -2 8.45 -0.4
      vertex 2 8.45 -0.4
    endloop
  endfacet
  facet normal 0 0 1
    outer loop
      vertex -2 8.45 -0.4
      vertex -3.3234 8.5234 -0.4
      vertex -2 2.95 -0.4
    endloop
  endfacet
  facet normal -0 0 1
    outer loop
      vertex -3.3234 8.5234 -0.4
      vertex -2 8.45 -0.4
      vertex 3.3234 8.5234 -0.4
    endloop
  endfacet
  facet normal 0 0 1
    outer loop
      vertex 3.3234 8.5234 -0.4
      vertex 2 2.95 -0.4
      vertex 3.3234 1.8766 -0.4
    endloop
  endfacet
  facet normal -0 0 1
    outer loop
      vertex -2 2.95 -0.4
      vertex 3.3234 1.8766 -0.4
      vertex 2 2.95 -0.4
    endloop
  endfacet
  facet normal 0 0 1
    outer loop
      vertex -2 2.95 -0.4
      vertex -3.3234 1.8766 -0.4
      vertex 3.3234 1.8766 -0.4
    endloop
  endfacet
  facet normal 0 0 1
    outer loop
      vertex -3.3234 1.8766 -0.4
      vertex -2 2.95 -0.4
      vertex -3.3234 8.5234 -0.4
    endloop
  endfacet
  facet normal 0 0.892002 0.452031
    outer loop
      vertex 3.3234 1.8766 -0.4
      vertex -4.793 0.406994 2.5
      vertex 4.793 0.406994 2.5
    endloop
  endfacet
  facet normal 0 0.892002 0.452031
    outer loop
      vertex -4.793 0.406994 2.5
      vertex 3.3234 1.8766 -0.4
      vertex -3.3234 1.8766 -0.4
    endloop
  endfacet
  facet normal 0.892002 0 0.452031
    outer loop
      vertex -4.793 9.993 2.5
      vertex -3.3234 1.8766 -0.4
      vertex -3.3234 8.5234 -0.4
    endloop
  endfacet
  facet normal 0.892002 0 0.452031
    outer loop
      vertex -3.3234 1.8766 -0.4
      vertex -4.793 9.993 2.5
      vertex -4.793 0.406994 2.5
    endloop
  endfacet
  facet normal 1 -0 0
    outer loop
      vertex -2 2.95 -0.4
      vertex -2 8.45 -2.5
      vertex -2 8.45 -0.4
    endloop
  endfacet
  facet normal 1 0 0
    outer loop
      vertex -2 8.45 -2.5
      vertex -2 2.95 -0.4
      vertex -2 2.95 -2.5
    endloop
  endfacet
  facet normal -1 0 0
    outer loop
      vertex 2 2.95 -2.5
      vertex 2 8.45 -0.4
      vertex 2 8.45 -2.5
    endloop
  endfacet
  facet normal -1 -0 0
    outer loop
      vertex 2 8.45 -0.4
      vertex 2 2.95 -2.5
      vertex 2 2.95 -0.4
    endloop
  endfacet
  facet normal 0 -1 0
    outer loop
      vertex -2 8.45 -2.5
      vertex 2 8.45 -0.4
      vertex -2 8.45 -0.4
    endloop
  endfacet
  facet normal 0 -1 -0
    outer loop
      vertex 2 8.45 -0.4
      vertex -2 8.45 -2.5
      vertex 2 8.45 -2.5
    endloop
  endfacet
  facet normal 0 1 -0
    outer loop
      vertex 2 2.95 -2.5
      vertex -2 2.95 -0.4
      vertex 2 2.95 -0.4
    endloop
  endfacet
  facet normal 0 1 0
    outer loop
      vertex -2 2.95 -0.4
      vertex 2 2.95 -2.5
      vertex -2 2.95 -2.5
    endloop
  endfacet
  facet normal 1 -0 0
    outer loop
      vertex -5.5 -11.5 -0.5
      vertex -5.5 1.5 -2.5
      vertex -5.5 1.5 -0.5
    endloop
  endfacet
  facet normal 1 0 0
    outer loop
      vertex -5.5 1.5 -2.5
      vertex -5.5 -11.5 -0.5
      vertex -5.5 -11.5 -2.5
    endloop
  endfacet
  facet normal 0 0 -1
    outer loop
      vertex -5.5 -11.5 -0.5
      vertex -0.5 1.5 -0.5
      vertex -0.5 -11.5 -0.5
    endloop
  endfacet
  facet normal -0 0 -1
    outer loop
      vertex -0.5 1.5 -0.5
      vertex -5.5 -11.5 -0.5
      vertex -5.5 1.5 -0.5
    endloop
  endfacet
  facet normal -1 0 0
    outer loop
      vertex -0.5 -11.5 -2.5
      vertex -0.5 1.5 -0.5
      vertex -0.5 1.5 -2.5
    endloop
  endfacet
  facet normal -1 -0 0
    outer loop
      vertex -0.5 1.5 -0.5
      vertex -0.5 -11.5 -2.5
      vertex -0.5 -11.5 -0.5
    endloop
  endfacet
  facet normal 0 1 -0
    outer loop
      vertex -0.5 -11.5 -2.5
      vertex -5.5 -11.5 -0.5
      vertex -0.5 -11.5 -0.5
    endloop
  endfacet
  facet normal 0 1 0
    outer loop
      vertex -5.5 -11.5 -0.5
      vertex -0.5 -11.5 -2.5
      vertex -5.5 -11.5 -2.5
    endloop
  endfacet
  facet normal 0 -1 0
    outer loop
      vertex -5.5 1.5 -2.5
      vertex -0.5 1.5 -0.5
      vertex -5.5 1.5 -0.5
    endloop
  endfacet
  facet normal 0 -1 -0
    outer loop
      vertex -0.5 1.5 -0.5
      vertex -5.5 1.5 -2.5
      vertex -0.5 1.5 -2.5
    endloop
  endfacet
  facet normal 1 -0 0
    outer loop
      vertex -7.5 2 -0.799999
      vertex -7.5 8.5 -2.5
      vertex -7.5 8.5 -0.799999
    endloop
  endfacet
  facet normal 1 0 0
    outer loop
      vertex -7.5 8.5 -2.5
      vertex -7.5 2 -0.799999
      vertex -7.5 2 -2.5
    endloop
  endfacet
  facet normal 0 0 -1
    outer loop
      vertex -7.5 2 -0.799999
      vertex -2.5 8.5 -0.799999
      vertex -2.5 2 -0.799999
    endloop
  endfacet
  facet normal -0 0 -1
    outer loop
      vertex -2.5 8.5 -0.799999
      vertex -7.5 2 -0.799999
      vertex -7.5 8.5 -0.799999
    endloop
  endfacet
  facet normal -1 0 0
    outer loop
      vertex -2.5 2 -2.5
      vertex -2.5 8.5 -0.799999
      vertex -2.5 8.5 -2.5
    endloop
  endfacet
  facet normal -1 -0 0
    outer loop
      vertex -2.5 8.5 -0.799999
      vertex -2.5 2 -2.5
      vertex -2.5 2 -0.799999
    endloop
  endfacet
  facet normal 0 -1 0
    outer loop
      vertex -7.5 8.5 -2.5
      vertex -2.5 8.5 -0.799999
      vertex -7.5 8.5 -0.799999
    endloop
  endfacet
  facet normal 0 -1 -0
    outer loop
      vertex -2.5 8.5 -0.799999
      vertex -7.5 8.5 -2.5
      vertex -2.5 8.5 -2.5
    endloop
  endfacet
  facet normal 0 1 -0
    outer loop
      vertex -2.5 2 -2.5
      vertex -7.5 2 -0.799999
      vertex -2.5 2 -0.799999
    endloop
  endfacet
  facet normal 0 1 0
    outer loop
      vertex -7.5 2 -0.799999
      vertex -2.5 2 -2.5
      vertex -7.5 2 -2.5
    endloop
  endfacet
  facet normal 1 -0 0
    outer loop
      vertex 3 1.5 -0.799999
      vertex 3 9.5 -2.5
      vertex 3 9.5 -0.799999
    endloop
  endfacet
  facet normal 1 0 0
    outer loop
      vertex 3 9.5 -2.5
      vertex 3 1.5 -0.799999
      vertex 3 1.5 -2.5
    endloop
  endfacet
  facet normal 0 0 -1
    outer loop
      vertex 3 1.5 -0.799999
      vertex 8 9.5 -0.799999
      vertex 8 1.5 -0.799999
    endloop
  endfacet
  facet normal -0 0 -1
    outer loop
      vertex 8 9.5 -0.799999
      vertex 3 1.5 -0.799999
      vertex 3 9.5 -0.799999
    endloop
  endfacet
  facet normal -1 0 0
    outer loop
      vertex 8 1.5 -2.5
      vertex 8 9.5 -0.799999
      vertex 8 9.5 -2.5
    endloop
  endfacet
  facet normal -1 -0 0
    outer loop
      vertex 8 9.5 -0.799999
      vertex 8 1.5 -2.5
      vertex 8 1.5 -0.799999
    endloop
  endfacet
  facet normal 0 1 -0
    outer loop
      vertex 8 1.5 -2.5
      vertex 3 1.5 -0.799999
      vertex 8 1.5 -0.799999
    endloop
  endfacet
  facet normal 0 1 0
    outer loop
      vertex 3 1.5 -0.799999
      vertex 8 1.5 -2.5
      vertex 3 1.5 -2.5
    endloop
  endfacet
  facet normal 0 -1 0
    outer loop
      vertex 3 9.5 -2.5
      vertex 8 9.5 -0.799999
      vertex 3 9.5 -0.799999
    endloop
  endfacet
  facet normal 0 -1 -0
    outer loop
      vertex 8 9.5 -0.799999
      vertex 3 9.5 -2.5
      vertex 8 9.5 -2.5
    endloop
  endfacet
endsolid OpenSCAD_Model
