solid OpenSCAD_Model
  facet normal 0.994522 0.104528 0
    outer loop
      vertex 11.6 0 5
      vertex 11.3465 2.41178 -5
      vertex 11.3465 2.41178 5
    endloop
  endfacet
  facet normal 0.994522 0.104528 0
    outer loop
      vertex 11.3465 2.41178 -5
      vertex 11.6 0 5
      vertex 11.6 0 -5
    endloop
  endfacet
  facet normal 0.587785 0.809017 -0
    outer loop
      vertex 7.76191 8.62048 -5
      vertex 5.8 10.0459 5
      vertex 7.76191 8.62048 5
    endloop
  endfacet
  facet normal 0.587785 0.809017 0
    outer loop
      vertex 5.8 10.0459 5
      vertex 7.76191 8.62048 -5
      vertex 5.8 10.0459 -5
    endloop
  endfacet
  facet normal 0.406736 0.913546 -0
    outer loop
      vertex 5.8 10.0459 -5
      vertex 4 10.8473 5
      vertex 5.8 10.0459 5
    endloop
  endfacet
  facet normal 0.406736 0.913546 0
    outer loop
      vertex 4 10.8473 5
      vertex 5.8 10.0459 -5
      vertex 4 10.8473 -5
    endloop
  endfacet
  facet normal -0 0 1
    outer loop
      vertex 1.5 11.6 5
      vertex 4 10.8473 5
      vertex 4 20.32 5
    endloop
  endfacet
  facet normal 0 0 1
    outer loop
      vertex 1.5 11.6 5
      vertex 4 20.32 5
      vertex 1.5 20.32 5
    endloop
  endfacet
  facet normal 0 0 1
    outer loop
      vertex 4 10.8473 5
      vertex 1.5 11.6 5
      vertex 2.81205 8.65461 5
    endloop
  endfacet
  facet normal 0 0 1
    outer loop
      vertex 2.81205 8.65461 5
      vertex 1.5 11.6 5
      vertex 1.5 8.9335 5
    endloop
  endfacet
  facet normal 0 0 1
    outer loop
      vertex 9.1 0 5
      vertex 11.6 0 5
      vertex 11.3465 2.41178 5
    endloop
  endfacet
  facet normal 0 0 1
    outer loop
      vertex 8.90114 1.892 5
      vertex 11.3465 2.41178 5
      vertex 10.5971 4.71814 5
    endloop
  endfacet
  facet normal 0 0 1
    outer loop
      vertex 11.6 0 5
      vertex 9.1 0 5
      vertex 11.3465 -2.41178 5
    endloop
  endfacet
  facet normal 0 0 1
    outer loop
      vertex 8.31326 3.7013 5
      vertex 10.5971 4.71814 5
      vertex 9.3846 6.81831 5
    endloop
  endfacet
  facet normal -0 0 1
    outer loop
      vertex 8.90114 -1.892 5
      vertex 11.3465 -2.41178 5
      vertex 9.1 0 5
    endloop
  endfacet
  facet normal 0 0 1
    outer loop
      vertex 11.3465 -2.41178 5
      vertex 8.90114 -1.892 5
      vertex 10.5971 -4.71814 5
    endloop
  endfacet
  facet normal 0 0 1
    outer loop
      vertex 11.3465 2.41178 5
      vertex 8.90114 1.892 5
      vertex 9.1 0 5
    endloop
  endfacet
  facet normal 0 0 1
    outer loop
      vertex 10.5971 4.71814 5
      vertex 8.31326 3.7013 5
      vertex 8.90114 1.892 5
    endloop
  endfacet
  facet normal 0 0 1
    outer loop
      vertex 7.36205 5.34885 5
      vertex 9.3846 6.81831 5
      vertex 7.76191 8.62048 5
    endloop
  endfacet
  facet normal 0 0 1
    outer loop
      vertex 9.3846 6.81831 5
      vertex 7.36205 5.34885 5
      vertex 8.31326 3.7013 5
    endloop
  endfacet
  facet normal 0 0 1
    outer loop
      vertex 7.76191 8.62048 5
      vertex 6.08909 6.76262 5
      vertex 7.36205 5.34885 5
    endloop
  endfacet
  facet normal 0 0 1
    outer loop
      vertex 5.8 10.0459 5
      vertex 6.08909 6.76262 5
      vertex 7.76191 8.62048 5
    endloop
  endfacet
  facet normal 0 0 1
    outer loop
      vertex 5.8 10.0459 5
      vertex 4.55 7.88083 5
      vertex 6.08909 6.76262 5
    endloop
  endfacet
  facet normal 0 0 1
    outer loop
      vertex 4 10.8473 5
      vertex 4.55 7.88083 5
      vertex 5.8 10.0459 5
    endloop
  endfacet
  facet normal 0 0 1
    outer loop
      vertex 4.55 7.88083 5
      vertex 4 10.8473 5
      vertex 2.81205 8.65461 5
    endloop
  endfacet
  facet normal -0 0 1
    outer loop
      vertex 8.31326 -3.7013 5
      vertex 10.5971 -4.71814 5
      vertex 8.90114 -1.892 5
    endloop
  endfacet
  facet normal 0 0 1
    outer loop
      vertex 10.5971 -4.71814 5
      vertex 8.31326 -3.7013 5
      vertex 9.3846 -6.81831 5
    endloop
  endfacet
  facet normal -0 0 1
    outer loop
      vertex 7.36205 -5.34885 5
      vertex 9.3846 -6.81831 5
      vertex 8.31326 -3.7013 5
    endloop
  endfacet
  facet normal 0 0 1
    outer loop
      vertex 9.3846 -6.81831 5
      vertex 7.36205 -5.34885 5
      vertex 7.76191 -8.62048 5
    endloop
  endfacet
  facet normal -0 0 1
    outer loop
      vertex 6.08909 -6.76262 5
      vertex 7.76191 -8.62048 5
      vertex 7.36205 -5.34885 5
    endloop
  endfacet
  facet normal 0 0 1
    outer loop
      vertex 6.08909 -6.76262 5
      vertex 5.8 -10.0459 5
      vertex 7.76191 -8.62048 5
    endloop
  endfacet
  facet normal -0 0 1
    outer loop
      vertex 4.55 -7.88083 5
      vertex 5.8 -10.0459 5
      vertex 6.08909 -6.76262 5
    endloop
  endfacet
  facet normal 0 0 1
    outer loop
      vertex 4.55 -7.88083 5
      vertex 4 -10.8473 5
      vertex 5.8 -10.0459 5
    endloop
  endfacet
  facet normal -0 0 1
    outer loop
      vertex 2.81205 -8.65461 5
      vertex 4 -10.8473 5
      vertex 4.55 -7.88083 5
    endloop
  endfacet
  facet normal 0 0 1
    outer loop
      vertex 1.5 -11.6 5
      vertex 4 -10.8473 5
      vertex 2.81205 -8.65461 5
    endloop
  endfacet
  facet normal 0 0 1
    outer loop
      vertex 1.5 -11.6 5
      vertex 2.81205 -8.65461 5
      vertex 1.5 -8.9335 5
    endloop
  endfacet
  facet normal 0 0 1
    outer loop
      vertex 4 -10.8473 5
      vertex 1.5 -11.6 5
      vertex 4 -20.32 5
    endloop
  endfacet
  facet normal 0 0 1
    outer loop
      vertex 4 -20.32 5
      vertex 1.5 -11.6 5
      vertex 1.5 -20.32 5
    endloop
  endfacet
  facet normal 0.866025 -0.5 0
    outer loop
      vertex 9.3846 -6.81831 5
      vertex 10.5971 -4.71814 -5
      vertex 10.5971 -4.71814 5
    endloop
  endfacet
  facet normal 0.866025 -0.5 0
    outer loop
      vertex 10.5971 -4.71814 -5
      vertex 9.3846 -6.81831 5
      vertex 9.3846 -6.81831 -5
    endloop
  endfacet
  facet normal 0.866025 0.5 0
    outer loop
      vertex 10.5971 4.71814 5
      vertex 9.3846 6.81831 -5
      vertex 9.3846 6.81831 5
    endloop
  endfacet
  facet normal 0.866025 0.5 0
    outer loop
      vertex 9.3846 6.81831 -5
      vertex 10.5971 4.71814 5
      vertex 10.5971 4.71814 -5
    endloop
  endfacet
  facet normal 0.951056 0.309017 0
    outer loop
      vertex 11.3465 2.41178 5
      vertex 10.5971 4.71814 -5
      vertex 10.5971 4.71814 5
    endloop
  endfacet
  facet normal 0.951056 0.309017 0
    outer loop
      vertex 10.5971 4.71814 -5
      vertex 11.3465 2.41178 5
      vertex 11.3465 2.41178 -5
    endloop
  endfacet
  facet normal 0.743145 0.669131 0
    outer loop
      vertex 9.3846 6.81831 5
      vertex 7.76191 8.62048 -5
      vertex 7.76191 8.62048 5
    endloop
  endfacet
  facet normal 0.743145 0.669131 0
    outer loop
      vertex 7.76191 8.62048 -5
      vertex 9.3846 6.81831 5
      vertex 9.3846 6.81831 -5
    endloop
  endfacet
  facet normal 0.994522 -0.104528 0
    outer loop
      vertex 11.3465 -2.41178 5
      vertex 11.6 0 -5
      vertex 11.6 0 5
    endloop
  endfacet
  facet normal 0.994522 -0.104528 0
    outer loop
      vertex 11.6 0 -5
      vertex 11.3465 -2.41178 5
      vertex 11.3465 -2.41178 -5
    endloop
  endfacet
  facet normal 0.951056 -0.309017 0
    outer loop
      vertex 10.5971 -4.71814 5
      vertex 11.3465 -2.41178 -5
      vertex 11.3465 -2.41178 5
    endloop
  endfacet
  facet normal 0.951056 -0.309017 0
    outer loop
      vertex 11.3465 -2.41178 -5
      vertex 10.5971 -4.71814 5
      vertex 10.5971 -4.71814 -5
    endloop
  endfacet
  facet normal 0 0 -1
    outer loop
      vertex 1.5 -11.6 -5
      vertex 4 -10.8473 -5
      vertex 4 -20.32 -5
    endloop
  endfacet
  facet normal 0 0 -1
    outer loop
      vertex 1.5 -11.6 -5
      vertex 4 -20.32 -5
      vertex 1.5 -20.32 -5
    endloop
  endfacet
  facet normal -0 0 -1
    outer loop
      vertex 4 -10.8473 -5
      vertex 1.5 -11.6 -5
      vertex 2.81205 -8.65461 -5
    endloop
  endfacet
  facet normal 0 0 -1
    outer loop
      vertex 2.81205 -8.65461 -5
      vertex 1.5 -11.6 -5
      vertex 1.5 -8.9335 -5
    endloop
  endfacet
  facet normal 0 0 -1
    outer loop
      vertex 9.1 0 -5
      vertex 11.6 0 -5
      vertex 11.3465 -2.41178 -5
    endloop
  endfacet
  facet normal 0 0 -1
    outer loop
      vertex 8.90114 -1.892 -5
      vertex 11.3465 -2.41178 -5
      vertex 10.5971 -4.71814 -5
    endloop
  endfacet
  facet normal 0 0 -1
    outer loop
      vertex 11.6 0 -5
      vertex 9.1 0 -5
      vertex 11.3465 2.41178 -5
    endloop
  endfacet
  facet normal 0 0 -1
    outer loop
      vertex 8.31326 -3.7013 -5
      vertex 10.5971 -4.71814 -5
      vertex 9.3846 -6.81831 -5
    endloop
  endfacet
  facet normal 0 0 -1
    outer loop
      vertex 8.90114 1.892 -5
      vertex 11.3465 2.41178 -5
      vertex 9.1 0 -5
    endloop
  endfacet
  facet normal -0 0 -1
    outer loop
      vertex 11.3465 2.41178 -5
      vertex 8.90114 1.892 -5
      vertex 10.5971 4.71814 -5
    endloop
  endfacet
  facet normal 0 0 -1
    outer loop
      vertex 11.3465 -2.41178 -5
      vertex 8.90114 -1.892 -5
      vertex 9.1 0 -5
    endloop
  endfacet
  facet normal 0 0 -1
    outer loop
      vertex 10.5971 -4.71814 -5
      vertex 8.31326 -3.7013 -5
      vertex 8.90114 -1.892 -5
    endloop
  endfacet
  facet normal 0 0 -1
    outer loop
      vertex 7.36205 -5.34885 -5
      vertex 9.3846 -6.81831 -5
      vertex 7.76191 -8.62048 -5
    endloop
  endfacet
  facet normal 0 0 -1
    outer loop
      vertex 9.3846 -6.81831 -5
      vertex 7.36205 -5.34885 -5
      vertex 8.31326 -3.7013 -5
    endloop
  endfacet
  facet normal 0 0 -1
    outer loop
      vertex 7.76191 -8.62048 -5
      vertex 6.08909 -6.76262 -5
      vertex 7.36205 -5.34885 -5
    endloop
  endfacet
  facet normal 0 0 -1
    outer loop
      vertex 5.8 -10.0459 -5
      vertex 6.08909 -6.76262 -5
      vertex 7.76191 -8.62048 -5
    endloop
  endfacet
  facet normal 0 0 -1
    outer loop
      vertex 5.8 -10.0459 -5
      vertex 4.55 -7.88083 -5
      vertex 6.08909 -6.76262 -5
    endloop
  endfacet
  facet normal 0 0 -1
    outer loop
      vertex 4 -10.8473 -5
      vertex 4.55 -7.88083 -5
      vertex 5.8 -10.0459 -5
    endloop
  endfacet
  facet normal 0 0 -1
    outer loop
      vertex 4.55 -7.88083 -5
      vertex 4 -10.8473 -5
      vertex 2.81205 -8.65461 -5
    endloop
  endfacet
  facet normal 0 0 -1
    outer loop
      vertex 8.31326 3.7013 -5
      vertex 10.5971 4.71814 -5
      vertex 8.90114 1.892 -5
    endloop
  endfacet
  facet normal -0 0 -1
    outer loop
      vertex 10.5971 4.71814 -5
      vertex 8.31326 3.7013 -5
      vertex 9.3846 6.81831 -5
    endloop
  endfacet
  facet normal 0 0 -1
    outer loop
      vertex 7.36205 5.34885 -5
      vertex 9.3846 6.81831 -5
      vertex 8.31326 3.7013 -5
    endloop
  endfacet
  facet normal -0 0 -1
    outer loop
      vertex 9.3846 6.81831 -5
      vertex 7.36205 5.34885 -5
      vertex 7.76191 8.62048 -5
    endloop
  endfacet
  facet normal 0 0 -1
    outer loop
      vertex 6.08909 6.76262 -5
      vertex 7.76191 8.62048 -5
      vertex 7.36205 5.34885 -5
    endloop
  endfacet
  facet normal 0 0 -1
    outer loop
      vertex 6.08909 6.76262 -5
      vertex 5.8 10.0459 -5
      vertex 7.76191 8.62048 -5
    endloop
  endfacet
  facet normal 0 0 -1
    outer loop
      vertex 4.55 7.88083 -5
      vertex 5.8 10.0459 -5
      vertex 6.08909 6.76262 -5
    endloop
  endfacet
  facet normal 0 0 -1
    outer loop
      vertex 4.55 7.88083 -5
      vertex 4 10.8473 -5
      vertex 5.8 10.0459 -5
    endloop
  endfacet
  facet normal 0 0 -1
    outer loop
      vertex 2.81205 8.65461 -5
      vertex 4 10.8473 -5
      vertex 4.55 7.88083 -5
    endloop
  endfacet
  facet normal 0 0 -1
    outer loop
      vertex 1.5 11.6 -5
      vertex 4 10.8473 -5
      vertex 2.81205 8.65461 -5
    endloop
  endfacet
  facet normal 0 0 -1
    outer loop
      vertex 1.5 11.6 -5
      vertex 2.81205 8.65461 -5
      vertex 1.5 8.9335 -5
    endloop
  endfacet
  facet normal 0 0 -1
    outer loop
      vertex 4 10.8473 -5
      vertex 1.5 11.6 -5
      vertex 4 20.32 -5
    endloop
  endfacet
  facet normal -0 0 -1
    outer loop
      vertex 4 20.32 -5
      vertex 1.5 11.6 -5
      vertex 1.5 20.32 -5
    endloop
  endfacet
  facet normal 0.587785 -0.809017 0
    outer loop
      vertex 5.8 -10.0459 -5
      vertex 7.76191 -8.62048 5
      vertex 5.8 -10.0459 5
    endloop
  endfacet
  facet normal 0.587785 -0.809017 0
    outer loop
      vertex 7.76191 -8.62048 5
      vertex 5.8 -10.0459 -5
      vertex 7.76191 -8.62048 -5
    endloop
  endfacet
  facet normal 0.406736 -0.913546 0
    outer loop
      vertex 4 -10.8473 -5
      vertex 5.8 -10.0459 5
      vertex 4 -10.8473 5
    endloop
  endfacet
  facet normal 0.406736 -0.913546 0
    outer loop
      vertex 5.8 -10.0459 5
      vertex 4 -10.8473 -5
      vertex 5.8 -10.0459 -5
    endloop
  endfacet
  facet normal 0.743145 -0.669131 0
    outer loop
      vertex 7.76191 -8.62048 5
      vertex 9.3846 -6.81831 -5
      vertex 9.3846 -6.81831 5
    endloop
  endfacet
  facet normal 0.743145 -0.669131 0
    outer loop
      vertex 9.3846 -6.81831 -5
      vertex 7.76191 -8.62048 5
      vertex 7.76191 -8.62048 -5
    endloop
  endfacet
  facet normal -1 0 0
    outer loop
      vertex 1.5 -11.6 -5
      vertex 1.5 -13.8715 -0.219509
      vertex 1.5 -11.6 5
    endloop
  endfacet
  facet normal -1 0 0
    outer loop
      vertex 1.5 -11.6 -5
      vertex 1.5 -13.9628 -0.648935
      vertex 1.5 -13.8715 -0.219509
    endloop
  endfacet
  facet normal -1 0 0
    outer loop
      vertex 1.5 -11.6 -5
      vertex 1.5 -14.1413 -1.05
      vertex 1.5 -13.9628 -0.648935
    endloop
  endfacet
  facet normal -1 0 0
    outer loop
      vertex 1.5 -11.6 -5
      vertex 1.5 -14.3994 -1.40517
      vertex 1.5 -14.1413 -1.05
    endloop
  endfacet
  facet normal -1 0 0
    outer loop
      vertex 1.5 -11.6 -5
      vertex 1.5 -14.7257 -1.69894
      vertex 1.5 -14.3994 -1.40517
    endloop
  endfacet
  facet normal -1 0 0
    outer loop
      vertex 1.5 -11.6 -5
      vertex 1.5 -15.1059 -1.91844
      vertex 1.5 -14.7257 -1.69894
    endloop
  endfacet
  facet normal -1 0 0
    outer loop
      vertex 1.5 -11.6 -5
      vertex 1.5 -15.5234 -2.05411
      vertex 1.5 -15.1059 -1.91844
    endloop
  endfacet
  facet normal -1 0 0
    outer loop
      vertex 1.5 -11.6 -5
      vertex 1.5 -15.96 -2.1
      vertex 1.5 -15.5234 -2.05411
    endloop
  endfacet
  facet normal -1 0 0
    outer loop
      vertex 1.5 -20.32 -5
      vertex 1.5 -15.96 -2.1
      vertex 1.5 -11.6 -5
    endloop
  endfacet
  facet normal -1 -0 0
    outer loop
      vertex 1.5 -15.96 -2.1
      vertex 1.5 -20.32 -5
      vertex 1.5 -16.3966 -2.05411
    endloop
  endfacet
  facet normal -1 -0 0
    outer loop
      vertex 1.5 -16.3966 -2.05411
      vertex 1.5 -20.32 -5
      vertex 1.5 -16.8141 -1.91844
    endloop
  endfacet
  facet normal -1 -0 0
    outer loop
      vertex 1.5 -18.0485 -0.219509
      vertex 1.5 -20.32 -5
      vertex 1.5 -18.0485 0.219509
    endloop
  endfacet
  facet normal -1 -0 0
    outer loop
      vertex 1.5 -17.9572 -0.648935
      vertex 1.5 -20.32 -5
      vertex 1.5 -18.0485 -0.219509
    endloop
  endfacet
  facet normal -1 -0 0
    outer loop
      vertex 1.5 -17.7787 -1.05
      vertex 1.5 -20.32 -5
      vertex 1.5 -17.9572 -0.648935
    endloop
  endfacet
  facet normal -1 -0 0
    outer loop
      vertex 1.5 -17.5206 -1.40517
      vertex 1.5 -20.32 -5
      vertex 1.5 -17.7787 -1.05
    endloop
  endfacet
  facet normal -1 -0 0
    outer loop
      vertex 1.5 -17.1943 -1.69894
      vertex 1.5 -20.32 -5
      vertex 1.5 -17.5206 -1.40517
    endloop
  endfacet
  facet normal -1 -0 0
    outer loop
      vertex 1.5 -16.8141 -1.91844
      vertex 1.5 -20.32 -5
      vertex 1.5 -17.1943 -1.69894
    endloop
  endfacet
  facet normal -1 0 0
    outer loop
      vertex 1.5 -13.8715 0.219509
      vertex 1.5 -11.6 5
      vertex 1.5 -13.8715 -0.219509
    endloop
  endfacet
  facet normal -1 0 0
    outer loop
      vertex 1.5 -13.9628 0.648935
      vertex 1.5 -11.6 5
      vertex 1.5 -13.8715 0.219509
    endloop
  endfacet
  facet normal -1 0 0
    outer loop
      vertex 1.5 -14.1413 1.05
      vertex 1.5 -11.6 5
      vertex 1.5 -13.9628 0.648935
    endloop
  endfacet
  facet normal -1 0 0
    outer loop
      vertex 1.5 -14.3994 1.40517
      vertex 1.5 -11.6 5
      vertex 1.5 -14.1413 1.05
    endloop
  endfacet
  facet normal -1 0 0
    outer loop
      vertex 1.5 -14.7257 1.69894
      vertex 1.5 -11.6 5
      vertex 1.5 -14.3994 1.40517
    endloop
  endfacet
  facet normal -1 0 0
    outer loop
      vertex 1.5 -15.1059 1.91844
      vertex 1.5 -11.6 5
      vertex 1.5 -14.7257 1.69894
    endloop
  endfacet
  facet normal -1 0 0
    outer loop
      vertex 1.5 -15.5234 2.05411
      vertex 1.5 -11.6 5
      vertex 1.5 -15.1059 1.91844
    endloop
  endfacet
  facet normal -1 0 0
    outer loop
      vertex 1.5 -15.96 2.1
      vertex 1.5 -11.6 5
      vertex 1.5 -15.5234 2.05411
    endloop
  endfacet
  facet normal -1 0 0
    outer loop
      vertex 1.5 -20.32 5
      vertex 1.5 -15.96 2.1
      vertex 1.5 -16.3966 2.05411
    endloop
  endfacet
  facet normal -1 0 0
    outer loop
      vertex 1.5 -20.32 5
      vertex 1.5 -16.3966 2.05411
      vertex 1.5 -16.8141 1.91844
    endloop
  endfacet
  facet normal -1 0 0
    outer loop
      vertex 1.5 -20.32 5
      vertex 1.5 -16.8141 1.91844
      vertex 1.5 -17.1943 1.69894
    endloop
  endfacet
  facet normal -1 0 0
    outer loop
      vertex 1.5 -20.32 5
      vertex 1.5 -18.0485 0.219509
      vertex 1.5 -20.32 -5
    endloop
  endfacet
  facet normal -1 0 0
    outer loop
      vertex 1.5 -15.96 2.1
      vertex 1.5 -20.32 5
      vertex 1.5 -11.6 5
    endloop
  endfacet
  facet normal -1 0 0
    outer loop
      vertex 1.5 -17.5206 1.40517
      vertex 1.5 -20.32 5
      vertex 1.5 -17.1943 1.69894
    endloop
  endfacet
  facet normal -1 0 0
    outer loop
      vertex 1.5 -17.7787 1.05
      vertex 1.5 -20.32 5
      vertex 1.5 -17.5206 1.40517
    endloop
  endfacet
  facet normal -1 0 0
    outer loop
      vertex 1.5 -17.9572 0.648935
      vertex 1.5 -20.32 5
      vertex 1.5 -17.7787 1.05
    endloop
  endfacet
  facet normal -1 0 0
    outer loop
      vertex 1.5 -18.0485 0.219509
      vertex 1.5 -20.32 5
      vertex 1.5 -17.9572 0.648935
    endloop
  endfacet
  facet normal -1 0 0
    outer loop
      vertex 1.5 20.32 -5
      vertex 1.5 18.0485 -0.219509
      vertex 1.5 20.32 5
    endloop
  endfacet
  facet normal -1 0 0
    outer loop
      vertex 1.5 20.32 -5
      vertex 1.5 17.9572 -0.648935
      vertex 1.5 18.0485 -0.219509
    endloop
  endfacet
  facet normal -1 0 0
    outer loop
      vertex 1.5 20.32 -5
      vertex 1.5 17.7787 -1.05
      vertex 1.5 17.9572 -0.648935
    endloop
  endfacet
  facet normal -1 0 0
    outer loop
      vertex 1.5 20.32 -5
      vertex 1.5 17.5206 -1.40517
      vertex 1.5 17.7787 -1.05
    endloop
  endfacet
  facet normal -1 0 0
    outer loop
      vertex 1.5 20.32 -5
      vertex 1.5 17.1943 -1.69894
      vertex 1.5 17.5206 -1.40517
    endloop
  endfacet
  facet normal -1 0 0
    outer loop
      vertex 1.5 20.32 -5
      vertex 1.5 16.8141 -1.91844
      vertex 1.5 17.1943 -1.69894
    endloop
  endfacet
  facet normal -1 0 0
    outer loop
      vertex 1.5 20.32 -5
      vertex 1.5 16.3966 -2.05411
      vertex 1.5 16.8141 -1.91844
    endloop
  endfacet
  facet normal -1 0 0
    outer loop
      vertex 1.5 20.32 -5
      vertex 1.5 15.96 -2.1
      vertex 1.5 16.3966 -2.05411
    endloop
  endfacet
  facet normal -1 0 0
    outer loop
      vertex 1.5 11.6 -5
      vertex 1.5 15.96 -2.1
      vertex 1.5 20.32 -5
    endloop
  endfacet
  facet normal -1 -0 0
    outer loop
      vertex 1.5 15.96 -2.1
      vertex 1.5 11.6 -5
      vertex 1.5 15.5234 -2.05411
    endloop
  endfacet
  facet normal -1 -0 0
    outer loop
      vertex 1.5 15.5234 -2.05411
      vertex 1.5 11.6 -5
      vertex 1.5 15.1059 -1.91844
    endloop
  endfacet
  facet normal -1 -0 0
    outer loop
      vertex 1.5 13.8715 -0.219509
      vertex 1.5 11.6 -5
      vertex 1.5 13.8715 0.219509
    endloop
  endfacet
  facet normal -1 -0 0
    outer loop
      vertex 1.5 13.9628 -0.648935
      vertex 1.5 11.6 -5
      vertex 1.5 13.8715 -0.219509
    endloop
  endfacet
  facet normal -1 -0 0
    outer loop
      vertex 1.5 14.1413 -1.05
      vertex 1.5 11.6 -5
      vertex 1.5 13.9628 -0.648935
    endloop
  endfacet
  facet normal -1 -0 0
    outer loop
      vertex 1.5 14.3994 -1.40517
      vertex 1.5 11.6 -5
      vertex 1.5 14.1413 -1.05
    endloop
  endfacet
  facet normal -1 -0 0
    outer loop
      vertex 1.5 14.7257 -1.69894
      vertex 1.5 11.6 -5
      vertex 1.5 14.3994 -1.40517
    endloop
  endfacet
  facet normal -1 -0 0
    outer loop
      vertex 1.5 15.1059 -1.91844
      vertex 1.5 11.6 -5
      vertex 1.5 14.7257 -1.69894
    endloop
  endfacet
  facet normal -1 0 0
    outer loop
      vertex 1.5 18.0485 0.219509
      vertex 1.5 20.32 5
      vertex 1.5 18.0485 -0.219509
    endloop
  endfacet
  facet normal -1 0 0
    outer loop
      vertex 1.5 17.9572 0.648935
      vertex 1.5 20.32 5
      vertex 1.5 18.0485 0.219509
    endloop
  endfacet
  facet normal -1 0 0
    outer loop
      vertex 1.5 17.7787 1.05
      vertex 1.5 20.32 5
      vertex 1.5 17.9572 0.648935
    endloop
  endfacet
  facet normal -1 0 0
    outer loop
      vertex 1.5 17.5206 1.40517
      vertex 1.5 20.32 5
      vertex 1.5 17.7787 1.05
    endloop
  endfacet
  facet normal -1 0 0
    outer loop
      vertex 1.5 17.1943 1.69894
      vertex 1.5 20.32 5
      vertex 1.5 17.5206 1.40517
    endloop
  endfacet
  facet normal -1 0 0
    outer loop
      vertex 1.5 16.8141 1.91844
      vertex 1.5 20.32 5
      vertex 1.5 17.1943 1.69894
    endloop
  endfacet
  facet normal -1 0 0
    outer loop
      vertex 1.5 16.3966 2.05411
      vertex 1.5 20.32 5
      vertex 1.5 16.8141 1.91844
    endloop
  endfacet
  facet normal -1 0 0
    outer loop
      vertex 1.5 15.96 2.1
      vertex 1.5 20.32 5
      vertex 1.5 16.3966 2.05411
    endloop
  endfacet
  facet normal -1 0 0
    outer loop
      vertex 1.5 11.6 5
      vertex 1.5 15.96 2.1
      vertex 1.5 15.5234 2.05411
    endloop
  endfacet
  facet normal -1 0 0
    outer loop
      vertex 1.5 11.6 5
      vertex 1.5 15.5234 2.05411
      vertex 1.5 15.1059 1.91844
    endloop
  endfacet
  facet normal -1 0 0
    outer loop
      vertex 1.5 11.6 5
      vertex 1.5 15.1059 1.91844
      vertex 1.5 14.7257 1.69894
    endloop
  endfacet
  facet normal -1 0 0
    outer loop
      vertex 1.5 11.6 5
      vertex 1.5 13.8715 0.219509
      vertex 1.5 11.6 -5
    endloop
  endfacet
  facet normal -1 0 0
    outer loop
      vertex 1.5 15.96 2.1
      vertex 1.5 11.6 5
      vertex 1.5 20.32 5
    endloop
  endfacet
  facet normal -1 0 0
    outer loop
      vertex 1.5 14.3994 1.40517
      vertex 1.5 11.6 5
      vertex 1.5 14.7257 1.69894
    endloop
  endfacet
  facet normal -1 0 0
    outer loop
      vertex 1.5 14.1413 1.05
      vertex 1.5 11.6 5
      vertex 1.5 14.3994 1.40517
    endloop
  endfacet
  facet normal -1 0 0
    outer loop
      vertex 1.5 13.9628 0.648935
      vertex 1.5 11.6 5
      vertex 1.5 14.1413 1.05
    endloop
  endfacet
  facet normal -1 0 0
    outer loop
      vertex 1.5 13.8715 0.219509
      vertex 1.5 11.6 5
      vertex 1.5 13.9628 0.648935
    endloop
  endfacet
  facet normal -1 0 0
    outer loop
      vertex 1.5 8.9335 -5
      vertex 1.5 11.6 5
      vertex 1.5 11.6 -5
    endloop
  endfacet
  facet normal -1 -0 0
    outer loop
      vertex 1.5 11.6 5
      vertex 1.5 8.9335 -5
      vertex 1.5 8.9335 5
    endloop
  endfacet
  facet normal -1 0 0
    outer loop
      vertex 1.5 -11.6 -5
      vertex 1.5 -8.9335 5
      vertex 1.5 -8.9335 -5
    endloop
  endfacet
  facet normal -1 -0 0
    outer loop
      vertex 1.5 -8.9335 5
      vertex 1.5 -11.6 -5
      vertex 1.5 -11.6 5
    endloop
  endfacet
  facet normal 1 0 0
    outer loop
      vertex 4 -10.8473 5
      vertex 4 -13.8715 0.219509
      vertex 4 -10.8473 -5
    endloop
  endfacet
  facet normal 1 0 0
    outer loop
      vertex 4 -10.8473 5
      vertex 4 -13.9628 0.648935
      vertex 4 -13.8715 0.219509
    endloop
  endfacet
  facet normal 1 0 0
    outer loop
      vertex 4 -10.8473 5
      vertex 4 -14.1413 1.05
      vertex 4 -13.9628 0.648935
    endloop
  endfacet
  facet normal 1 0 0
    outer loop
      vertex 4 -10.8473 5
      vertex 4 -14.3994 1.40517
      vertex 4 -14.1413 1.05
    endloop
  endfacet
  facet normal 1 0 0
    outer loop
      vertex 4 -10.8473 5
      vertex 4 -14.7257 1.69894
      vertex 4 -14.3994 1.40517
    endloop
  endfacet
  facet normal 1 0 0
    outer loop
      vertex 4 -10.8473 5
      vertex 4 -15.1059 1.91844
      vertex 4 -14.7257 1.69894
    endloop
  endfacet
  facet normal 1 0 0
    outer loop
      vertex 4 -10.8473 5
      vertex 4 -15.5234 2.05411
      vertex 4 -15.1059 1.91844
    endloop
  endfacet
  facet normal 1 0 0
    outer loop
      vertex 4 -10.8473 5
      vertex 4 -15.96 2.1
      vertex 4 -15.5234 2.05411
    endloop
  endfacet
  facet normal 1 -0 0
    outer loop
      vertex 4 -20.32 5
      vertex 4 -15.96 2.1
      vertex 4 -10.8473 5
    endloop
  endfacet
  facet normal 1 0 0
    outer loop
      vertex 4 -15.96 2.1
      vertex 4 -20.32 5
      vertex 4 -16.3966 2.05411
    endloop
  endfacet
  facet normal 1 0 0
    outer loop
      vertex 4 -18.0485 0.219509
      vertex 4 -20.32 5
      vertex 4 -18.0485 -0.219509
    endloop
  endfacet
  facet normal 1 0 0
    outer loop
      vertex 4 -17.9572 0.648935
      vertex 4 -20.32 5
      vertex 4 -18.0485 0.219509
    endloop
  endfacet
  facet normal 1 0 0
    outer loop
      vertex 4 -17.7787 1.05
      vertex 4 -20.32 5
      vertex 4 -17.9572 0.648935
    endloop
  endfacet
  facet normal 1 0 0
    outer loop
      vertex 4 -17.5206 1.40517
      vertex 4 -20.32 5
      vertex 4 -17.7787 1.05
    endloop
  endfacet
  facet normal 1 0 0
    outer loop
      vertex 4 -17.1943 1.69894
      vertex 4 -20.32 5
      vertex 4 -17.5206 1.40517
    endloop
  endfacet
  facet normal 1 0 0
    outer loop
      vertex 4 -16.8141 1.91844
      vertex 4 -20.32 5
      vertex 4 -17.1943 1.69894
    endloop
  endfacet
  facet normal 1 0 0
    outer loop
      vertex 4 -16.3966 2.05411
      vertex 4 -20.32 5
      vertex 4 -16.8141 1.91844
    endloop
  endfacet
  facet normal 1 -0 0
    outer loop
      vertex 4 -13.8715 -0.219509
      vertex 4 -10.8473 -5
      vertex 4 -13.8715 0.219509
    endloop
  endfacet
  facet normal 1 -0 0
    outer loop
      vertex 4 -13.9628 -0.648935
      vertex 4 -10.8473 -5
      vertex 4 -13.8715 -0.219509
    endloop
  endfacet
  facet normal 1 -0 0
    outer loop
      vertex 4 -14.1413 -1.05
      vertex 4 -10.8473 -5
      vertex 4 -13.9628 -0.648935
    endloop
  endfacet
  facet normal 1 -0 0
    outer loop
      vertex 4 -14.3994 -1.40517
      vertex 4 -10.8473 -5
      vertex 4 -14.1413 -1.05
    endloop
  endfacet
  facet normal 1 -0 0
    outer loop
      vertex 4 -14.7257 -1.69894
      vertex 4 -10.8473 -5
      vertex 4 -14.3994 -1.40517
    endloop
  endfacet
  facet normal 1 -0 0
    outer loop
      vertex 4 -15.1059 -1.91844
      vertex 4 -10.8473 -5
      vertex 4 -14.7257 -1.69894
    endloop
  endfacet
  facet normal 1 -0 0
    outer loop
      vertex 4 -15.5234 -2.05411
      vertex 4 -10.8473 -5
      vertex 4 -15.1059 -1.91844
    endloop
  endfacet
  facet normal 1 -0 0
    outer loop
      vertex 4 -15.96 -2.1
      vertex 4 -10.8473 -5
      vertex 4 -15.5234 -2.05411
    endloop
  endfacet
  facet normal 1 0 0
    outer loop
      vertex 4 -20.32 -5
      vertex 4 -15.96 -2.1
      vertex 4 -16.3966 -2.05411
    endloop
  endfacet
  facet normal 1 0 0
    outer loop
      vertex 4 -20.32 -5
      vertex 4 -16.3966 -2.05411
      vertex 4 -16.8141 -1.91844
    endloop
  endfacet
  facet normal 1 0 0
    outer loop
      vertex 4 -20.32 -5
      vertex 4 -18.0485 -0.219509
      vertex 4 -20.32 5
    endloop
  endfacet
  facet normal 1 0 0
    outer loop
      vertex 4 -15.96 -2.1
      vertex 4 -20.32 -5
      vertex 4 -10.8473 -5
    endloop
  endfacet
  facet normal 1 0 0
    outer loop
      vertex 4 -17.1943 -1.69894
      vertex 4 -20.32 -5
      vertex 4 -16.8141 -1.91844
    endloop
  endfacet
  facet normal 1 0 0
    outer loop
      vertex 4 -17.5206 -1.40517
      vertex 4 -20.32 -5
      vertex 4 -17.1943 -1.69894
    endloop
  endfacet
  facet normal 1 0 0
    outer loop
      vertex 4 -17.7787 -1.05
      vertex 4 -20.32 -5
      vertex 4 -17.5206 -1.40517
    endloop
  endfacet
  facet normal 1 0 0
    outer loop
      vertex 4 -17.9572 -0.648935
      vertex 4 -20.32 -5
      vertex 4 -17.7787 -1.05
    endloop
  endfacet
  facet normal 1 0 0
    outer loop
      vertex 4 -18.0485 -0.219509
      vertex 4 -20.32 -5
      vertex 4 -17.9572 -0.648935
    endloop
  endfacet
  facet normal 1 0 0
    outer loop
      vertex 4 20.32 5
      vertex 4 18.0485 0.219509
      vertex 4 20.32 -5
    endloop
  endfacet
  facet normal 1 0 0
    outer loop
      vertex 4 20.32 5
      vertex 4 17.9572 0.648935
      vertex 4 18.0485 0.219509
    endloop
  endfacet
  facet normal 1 0 0
    outer loop
      vertex 4 20.32 5
      vertex 4 17.7787 1.05
      vertex 4 17.9572 0.648935
    endloop
  endfacet
  facet normal 1 0 0
    outer loop
      vertex 4 20.32 5
      vertex 4 17.5206 1.40517
      vertex 4 17.7787 1.05
    endloop
  endfacet
  facet normal 1 0 0
    outer loop
      vertex 4 20.32 5
      vertex 4 17.1943 1.69894
      vertex 4 17.5206 1.40517
    endloop
  endfacet
  facet normal 1 0 0
    outer loop
      vertex 4 20.32 5
      vertex 4 16.8141 1.91844
      vertex 4 17.1943 1.69894
    endloop
  endfacet
  facet normal 1 0 0
    outer loop
      vertex 4 20.32 5
      vertex 4 16.3966 2.05411
      vertex 4 16.8141 1.91844
    endloop
  endfacet
  facet normal 1 0 0
    outer loop
      vertex 4 20.32 5
      vertex 4 15.96 2.1
      vertex 4 16.3966 2.05411
    endloop
  endfacet
  facet normal 1 -0 0
    outer loop
      vertex 4 10.8473 5
      vertex 4 15.96 2.1
      vertex 4 20.32 5
    endloop
  endfacet
  facet normal 1 0 0
    outer loop
      vertex 4 15.96 2.1
      vertex 4 10.8473 5
      vertex 4 15.5234 2.05411
    endloop
  endfacet
  facet normal 1 0 0
    outer loop
      vertex 4 15.5234 2.05411
      vertex 4 10.8473 5
      vertex 4 15.1059 1.91844
    endloop
  endfacet
  facet normal 1 0 0
    outer loop
      vertex 4 13.8715 0.219509
      vertex 4 10.8473 5
      vertex 4 13.8715 -0.219509
    endloop
  endfacet
  facet normal 1 0 0
    outer loop
      vertex 4 13.9628 0.648935
      vertex 4 10.8473 5
      vertex 4 13.8715 0.219509
    endloop
  endfacet
  facet normal 1 0 0
    outer loop
      vertex 4 14.1413 1.05
      vertex 4 10.8473 5
      vertex 4 13.9628 0.648935
    endloop
  endfacet
  facet normal 1 0 0
    outer loop
      vertex 4 14.3994 1.40517
      vertex 4 10.8473 5
      vertex 4 14.1413 1.05
    endloop
  endfacet
  facet normal 1 0 0
    outer loop
      vertex 4 14.7257 1.69894
      vertex 4 10.8473 5
      vertex 4 14.3994 1.40517
    endloop
  endfacet
  facet normal 1 0 0
    outer loop
      vertex 4 15.1059 1.91844
      vertex 4 10.8473 5
      vertex 4 14.7257 1.69894
    endloop
  endfacet
  facet normal 1 -0 0
    outer loop
      vertex 4 18.0485 -0.219509
      vertex 4 20.32 -5
      vertex 4 18.0485 0.219509
    endloop
  endfacet
  facet normal 1 -0 0
    outer loop
      vertex 4 17.9572 -0.648935
      vertex 4 20.32 -5
      vertex 4 18.0485 -0.219509
    endloop
  endfacet
  facet normal 1 -0 0
    outer loop
      vertex 4 17.7787 -1.05
      vertex 4 20.32 -5
      vertex 4 17.9572 -0.648935
    endloop
  endfacet
  facet normal 1 -0 0
    outer loop
      vertex 4 17.5206 -1.40517
      vertex 4 20.32 -5
      vertex 4 17.7787 -1.05
    endloop
  endfacet
  facet normal 1 -0 0
    outer loop
      vertex 4 17.1943 -1.69894
      vertex 4 20.32 -5
      vertex 4 17.5206 -1.40517
    endloop
  endfacet
  facet normal 1 -0 0
    outer loop
      vertex 4 16.8141 -1.91844
      vertex 4 20.32 -5
      vertex 4 17.1943 -1.69894
    endloop
  endfacet
  facet normal 1 -0 0
    outer loop
      vertex 4 16.3966 -2.05411
      vertex 4 20.32 -5
      vertex 4 16.8141 -1.91844
    endloop
  endfacet
  facet normal 1 -0 0
    outer loop
      vertex 4 15.96 -2.1
      vertex 4 20.32 -5
      vertex 4 16.3966 -2.05411
    endloop
  endfacet
  facet normal 1 0 0
    outer loop
      vertex 4 10.8473 -5
      vertex 4 15.96 -2.1
      vertex 4 15.5234 -2.05411
    endloop
  endfacet
  facet normal 1 0 0
    outer loop
      vertex 4 10.8473 -5
      vertex 4 15.5234 -2.05411
      vertex 4 15.1059 -1.91844
    endloop
  endfacet
  facet normal 1 0 0
    outer loop
      vertex 4 10.8473 -5
      vertex 4 15.1059 -1.91844
      vertex 4 14.7257 -1.69894
    endloop
  endfacet
  facet normal 1 0 0
    outer loop
      vertex 4 10.8473 -5
      vertex 4 13.8715 -0.219509
      vertex 4 10.8473 5
    endloop
  endfacet
  facet normal 1 0 0
    outer loop
      vertex 4 13.8715 -0.219509
      vertex 4 10.8473 -5
      vertex 4 13.9628 -0.648935
    endloop
  endfacet
  facet normal 1 0 0
    outer loop
      vertex 4 15.96 -2.1
      vertex 4 10.8473 -5
      vertex 4 20.32 -5
    endloop
  endfacet
  facet normal 1 0 0
    outer loop
      vertex 4 14.3994 -1.40517
      vertex 4 10.8473 -5
      vertex 4 14.7257 -1.69894
    endloop
  endfacet
  facet normal 1 0 0
    outer loop
      vertex 4 14.1413 -1.05
      vertex 4 10.8473 -5
      vertex 4 14.3994 -1.40517
    endloop
  endfacet
  facet normal 1 0 0
    outer loop
      vertex 4 13.9628 -0.648935
      vertex 4 10.8473 -5
      vertex 4 14.1413 -1.05
    endloop
  endfacet
  facet normal 0 -1 0
    outer loop
      vertex 1.5 -20.32 -5
      vertex 4 -20.32 5
      vertex 1.5 -20.32 5
    endloop
  endfacet
  facet normal 0 -1 -0
    outer loop
      vertex 4 -20.32 5
      vertex 1.5 -20.32 -5
      vertex 4 -20.32 -5
    endloop
  endfacet
  facet normal 0 1 -0
    outer loop
      vertex 4 20.32 -5
      vertex 1.5 20.32 5
      vertex 4 20.32 5
    endloop
  endfacet
  facet normal 0 1 0
    outer loop
      vertex 1.5 20.32 5
      vertex 4 20.32 -5
      vertex 1.5 20.32 -5
    endloop
  endfacet
  facet normal -0.994522 -0.104528 0
    outer loop
      vertex 9.1 0 -5
      vertex 8.90114 1.892 5
      vertex 8.90114 1.892 -5
    endloop
  endfacet
  facet normal -0.994522 -0.104528 0
    outer loop
      vertex 8.90114 1.892 5
      vertex 9.1 0 -5
      vertex 9.1 0 5
    endloop
  endfacet
  facet normal -0.743145 -0.669131 0
    outer loop
      vertex 7.36205 5.34885 -5
      vertex 6.08909 6.76262 5
      vertex 6.08909 6.76262 -5
    endloop
  endfacet
  facet normal -0.743145 -0.669131 0
    outer loop
      vertex 6.08909 6.76262 5
      vertex 7.36205 5.34885 -5
      vertex 7.36205 5.34885 5
    endloop
  endfacet
  facet normal -0.866025 0.5 0
    outer loop
      vertex 7.36205 -5.34885 -5
      vertex 8.31326 -3.7013 5
      vertex 8.31326 -3.7013 -5
    endloop
  endfacet
  facet normal -0.866025 0.5 0
    outer loop
      vertex 8.31326 -3.7013 5
      vertex 7.36205 -5.34885 -5
      vertex 7.36205 -5.34885 5
    endloop
  endfacet
  facet normal -0.866025 -0.5 0
    outer loop
      vertex 8.31326 3.7013 -5
      vertex 7.36205 5.34885 5
      vertex 7.36205 5.34885 -5
    endloop
  endfacet
  facet normal -0.866025 -0.5 0
    outer loop
      vertex 7.36205 5.34885 5
      vertex 8.31326 3.7013 -5
      vertex 8.31326 3.7013 5
    endloop
  endfacet
  facet normal -0.951056 -0.309017 0
    outer loop
      vertex 8.90114 1.892 -5
      vertex 8.31326 3.7013 5
      vertex 8.31326 3.7013 -5
    endloop
  endfacet
  facet normal -0.951056 -0.309017 0
    outer loop
      vertex 8.31326 3.7013 5
      vertex 8.90114 1.892 -5
      vertex 8.90114 1.892 5
    endloop
  endfacet
  facet normal -0.406737 -0.913545 0
    outer loop
      vertex 2.81205 8.65461 -5
      vertex 4.55 7.88083 5
      vertex 2.81205 8.65461 5
    endloop
  endfacet
  facet normal -0.406737 -0.913545 -0
    outer loop
      vertex 4.55 7.88083 5
      vertex 2.81205 8.65461 -5
      vertex 4.55 7.88083 -5
    endloop
  endfacet
  facet normal -0.207912 -0.978148 0
    outer loop
      vertex 1.5 8.9335 -5
      vertex 2.81205 8.65461 5
      vertex 1.5 8.9335 5
    endloop
  endfacet
  facet normal -0.207912 -0.978148 -0
    outer loop
      vertex 2.81205 8.65461 5
      vertex 1.5 8.9335 -5
      vertex 2.81205 8.65461 -5
    endloop
  endfacet
  facet normal -0.587785 -0.809017 0
    outer loop
      vertex 4.55 7.88083 -5
      vertex 6.08909 6.76262 5
      vertex 4.55 7.88083 5
    endloop
  endfacet
  facet normal -0.587785 -0.809017 -0
    outer loop
      vertex 6.08909 6.76262 5
      vertex 4.55 7.88083 -5
      vertex 6.08909 6.76262 -5
    endloop
  endfacet
  facet normal -0.994522 0.104528 0
    outer loop
      vertex 8.90114 -1.892 -5
      vertex 9.1 0 5
      vertex 9.1 0 -5
    endloop
  endfacet
  facet normal -0.994522 0.104528 0
    outer loop
      vertex 9.1 0 5
      vertex 8.90114 -1.892 -5
      vertex 8.90114 -1.892 5
    endloop
  endfacet
  facet normal -0.587785 0.809017 0
    outer loop
      vertex 6.08909 -6.76262 -5
      vertex 4.55 -7.88083 5
      vertex 6.08909 -6.76262 5
    endloop
  endfacet
  facet normal -0.587785 0.809017 0
    outer loop
      vertex 4.55 -7.88083 5
      vertex 6.08909 -6.76262 -5
      vertex 4.55 -7.88083 -5
    endloop
  endfacet
  facet normal -0.743145 0.669131 0
    outer loop
      vertex 6.08909 -6.76262 -5
      vertex 7.36205 -5.34885 5
      vertex 7.36205 -5.34885 -5
    endloop
  endfacet
  facet normal -0.743145 0.669131 0
    outer loop
      vertex 7.36205 -5.34885 5
      vertex 6.08909 -6.76262 -5
      vertex 6.08909 -6.76262 5
    endloop
  endfacet
  facet normal -0.951056 0.309017 0
    outer loop
      vertex 8.31326 -3.7013 -5
      vertex 8.90114 -1.892 5
      vertex 8.90114 -1.892 -5
    endloop
  endfacet
  facet normal -0.951056 0.309017 0
    outer loop
      vertex 8.90114 -1.892 5
      vertex 8.31326 -3.7013 -5
      vertex 8.31326 -3.7013 5
    endloop
  endfacet
  facet normal -0.207912 0.978148 0
    outer loop
      vertex 2.81205 -8.65461 -5
      vertex 1.5 -8.9335 5
      vertex 2.81205 -8.65461 5
    endloop
  endfacet
  facet normal -0.207912 0.978148 0
    outer loop
      vertex 1.5 -8.9335 5
      vertex 2.81205 -8.65461 -5
      vertex 1.5 -8.9335 -5
    endloop
  endfacet
  facet normal -0.406737 0.913545 0
    outer loop
      vertex 4.55 -7.88083 -5
      vertex 2.81205 -8.65461 5
      vertex 4.55 -7.88083 5
    endloop
  endfacet
  facet normal -0.406737 0.913545 0
    outer loop
      vertex 2.81205 -8.65461 5
      vertex 4.55 -7.88083 -5
      vertex 2.81205 -8.65461 -5
    endloop
  endfacet
  facet normal -0 0.309018 0.951056
    outer loop
      vertex 1.5 15.5234 -2.05411
      vertex 4 15.1059 -1.91844
      vertex 4 15.5234 -2.05411
    endloop
  endfacet
  facet normal 0 0.309018 0.951056
    outer loop
      vertex 4 15.1059 -1.91844
      vertex 1.5 15.5234 -2.05411
      vertex 1.5 15.1059 -1.91844
    endloop
  endfacet
  facet normal 0 -0.913545 0.406738
    outer loop
      vertex 1.5 17.7787 -1.05
      vertex 4 17.9572 -0.648935
      vertex 1.5 17.9572 -0.648935
    endloop
  endfacet
  facet normal 0 -0.913545 0.406738
    outer loop
      vertex 4 17.9572 -0.648935
      vertex 1.5 17.7787 -1.05
      vertex 4 17.7787 -1.05
    endloop
  endfacet
  facet normal 0 -0.104528 0.994522
    outer loop
      vertex 1.5 16.3966 -2.05411
      vertex 4 15.96 -2.1
      vertex 4 16.3966 -2.05411
    endloop
  endfacet
  facet normal 0 -0.104528 0.994522
    outer loop
      vertex 4 15.96 -2.1
      vertex 1.5 16.3966 -2.05411
      vertex 1.5 15.96 -2.1
    endloop
  endfacet
  facet normal 0 -0.104528 -0.994522
    outer loop
      vertex 1.5 15.96 2.1
      vertex 4 16.3966 2.05411
      vertex 4 15.96 2.1
    endloop
  endfacet
  facet normal -0 -0.104528 -0.994522
    outer loop
      vertex 4 16.3966 2.05411
      vertex 1.5 15.96 2.1
      vertex 1.5 16.3966 2.05411
    endloop
  endfacet
  facet normal 0 1 -0
    outer loop
      vertex 4 13.8715 -0.219509
      vertex 1.5 13.8715 0.219509
      vertex 4 13.8715 0.219509
    endloop
  endfacet
  facet normal 0 1 0
    outer loop
      vertex 1.5 13.8715 0.219509
      vertex 4 13.8715 -0.219509
      vertex 1.5 13.8715 -0.219509
    endloop
  endfacet
  facet normal 0 -0.978147 -0.207913
    outer loop
      vertex 1.5 18.0485 0.219509
      vertex 4 17.9572 0.648935
      vertex 1.5 17.9572 0.648935
    endloop
  endfacet
  facet normal 0 -0.978147 -0.207913
    outer loop
      vertex 4 17.9572 0.648935
      vertex 1.5 18.0485 0.219509
      vertex 4 18.0485 0.219509
    endloop
  endfacet
  facet normal -0 0.104528 0.994522
    outer loop
      vertex 1.5 15.96 -2.1
      vertex 4 15.5234 -2.05411
      vertex 4 15.96 -2.1
    endloop
  endfacet
  facet normal 0 0.104528 0.994522
    outer loop
      vertex 4 15.5234 -2.05411
      vertex 1.5 15.96 -2.1
      vertex 1.5 15.5234 -2.05411
    endloop
  endfacet
  facet normal 0 -0.809018 0.587784
    outer loop
      vertex 1.5 17.5206 -1.40517
      vertex 4 17.7787 -1.05
      vertex 1.5 17.7787 -1.05
    endloop
  endfacet
  facet normal 0 -0.809018 0.587784
    outer loop
      vertex 4 17.7787 -1.05
      vertex 1.5 17.5206 -1.40517
      vertex 4 17.5206 -1.40517
    endloop
  endfacet
  facet normal 0 -0.5 -0.866026
    outer loop
      vertex 1.5 16.8141 1.91844
      vertex 4 17.1943 1.69894
      vertex 4 16.8141 1.91844
    endloop
  endfacet
  facet normal -0 -0.5 -0.866026
    outer loop
      vertex 4 17.1943 1.69894
      vertex 1.5 16.8141 1.91844
      vertex 1.5 17.1943 1.69894
    endloop
  endfacet
  facet normal 0 -0.309018 -0.951056
    outer loop
      vertex 1.5 16.3966 2.05411
      vertex 4 16.8141 1.91844
      vertex 4 16.3966 2.05411
    endloop
  endfacet
  facet normal -0 -0.309018 -0.951056
    outer loop
      vertex 4 16.8141 1.91844
      vertex 1.5 16.3966 2.05411
      vertex 1.5 16.8141 1.91844
    endloop
  endfacet
  facet normal 0 -0.66913 0.743146
    outer loop
      vertex 1.5 17.5206 -1.40517
      vertex 4 17.1943 -1.69894
      vertex 4 17.5206 -1.40517
    endloop
  endfacet
  facet normal 0 -0.66913 0.743146
    outer loop
      vertex 4 17.1943 -1.69894
      vertex 1.5 17.5206 -1.40517
      vertex 1.5 17.1943 -1.69894
    endloop
  endfacet
  facet normal 0 -0.309018 0.951056
    outer loop
      vertex 1.5 16.8141 -1.91844
      vertex 4 16.3966 -2.05411
      vertex 4 16.8141 -1.91844
    endloop
  endfacet
  facet normal 0 -0.309018 0.951056
    outer loop
      vertex 4 16.3966 -2.05411
      vertex 1.5 16.8141 -1.91844
      vertex 1.5 16.3966 -2.05411
    endloop
  endfacet
  facet normal 0 -0.978147 0.207913
    outer loop
      vertex 1.5 17.9572 -0.648935
      vertex 4 18.0485 -0.219509
      vertex 1.5 18.0485 -0.219509
    endloop
  endfacet
  facet normal 0 -0.978147 0.207913
    outer loop
      vertex 4 18.0485 -0.219509
      vertex 1.5 17.9572 -0.648935
      vertex 4 17.9572 -0.648935
    endloop
  endfacet
  facet normal -0 0.5 0.866026
    outer loop
      vertex 1.5 15.1059 -1.91844
      vertex 4 14.7257 -1.69894
      vertex 4 15.1059 -1.91844
    endloop
  endfacet
  facet normal 0 0.5 0.866026
    outer loop
      vertex 4 14.7257 -1.69894
      vertex 1.5 15.1059 -1.91844
      vertex 1.5 14.7257 -1.69894
    endloop
  endfacet
  facet normal -0 0.66913 0.743146
    outer loop
      vertex 1.5 14.7257 -1.69894
      vertex 4 14.3994 -1.40517
      vertex 4 14.7257 -1.69894
    endloop
  endfacet
  facet normal 0 0.66913 0.743146
    outer loop
      vertex 4 14.3994 -1.40517
      vertex 1.5 14.7257 -1.69894
      vertex 1.5 14.3994 -1.40517
    endloop
  endfacet
  facet normal 0 0.66913 -0.743146
    outer loop
      vertex 1.5 14.3994 1.40517
      vertex 4 14.7257 1.69894
      vertex 4 14.3994 1.40517
    endloop
  endfacet
  facet normal 0 0.66913 -0.743146
    outer loop
      vertex 4 14.7257 1.69894
      vertex 1.5 14.3994 1.40517
      vertex 1.5 14.7257 1.69894
    endloop
  endfacet
  facet normal 0 -0.913545 -0.406738
    outer loop
      vertex 1.5 17.9572 0.648935
      vertex 4 17.7787 1.05
      vertex 1.5 17.7787 1.05
    endloop
  endfacet
  facet normal 0 -0.913545 -0.406738
    outer loop
      vertex 4 17.7787 1.05
      vertex 1.5 17.9572 0.648935
      vertex 4 17.9572 0.648935
    endloop
  endfacet
  facet normal 0 -0.66913 -0.743146
    outer loop
      vertex 1.5 17.1943 1.69894
      vertex 4 17.5206 1.40517
      vertex 4 17.1943 1.69894
    endloop
  endfacet
  facet normal -0 -0.66913 -0.743146
    outer loop
      vertex 4 17.5206 1.40517
      vertex 1.5 17.1943 1.69894
      vertex 1.5 17.5206 1.40517
    endloop
  endfacet
  facet normal 0 -0.5 0.866026
    outer loop
      vertex 1.5 17.1943 -1.69894
      vertex 4 16.8141 -1.91844
      vertex 4 17.1943 -1.69894
    endloop
  endfacet
  facet normal 0 -0.5 0.866026
    outer loop
      vertex 4 16.8141 -1.91844
      vertex 1.5 17.1943 -1.69894
      vertex 1.5 16.8141 -1.91844
    endloop
  endfacet
  facet normal 0 -1 0
    outer loop
      vertex 1.5 18.0485 -0.219509
      vertex 4 18.0485 0.219509
      vertex 1.5 18.0485 0.219509
    endloop
  endfacet
  facet normal 0 -1 -0
    outer loop
      vertex 4 18.0485 0.219509
      vertex 1.5 18.0485 -0.219509
      vertex 4 18.0485 -0.219509
    endloop
  endfacet
  facet normal 0 0.809018 0.587784
    outer loop
      vertex 4 14.3994 -1.40517
      vertex 1.5 14.1413 -1.05
      vertex 4 14.1413 -1.05
    endloop
  endfacet
  facet normal 0 0.809018 0.587784
    outer loop
      vertex 1.5 14.1413 -1.05
      vertex 4 14.3994 -1.40517
      vertex 1.5 14.3994 -1.40517
    endloop
  endfacet
  facet normal 0 0.978148 -0.207911
    outer loop
      vertex 4 13.8715 0.219509
      vertex 1.5 13.9628 0.648935
      vertex 4 13.9628 0.648935
    endloop
  endfacet
  facet normal 0 0.978148 -0.207911
    outer loop
      vertex 1.5 13.9628 0.648935
      vertex 4 13.8715 0.219509
      vertex 1.5 13.8715 0.219509
    endloop
  endfacet
  facet normal 0 0.809018 -0.587784
    outer loop
      vertex 4 14.1413 1.05
      vertex 1.5 14.3994 1.40517
      vertex 4 14.3994 1.40517
    endloop
  endfacet
  facet normal 0 0.809018 -0.587784
    outer loop
      vertex 1.5 14.3994 1.40517
      vertex 4 14.1413 1.05
      vertex 1.5 14.1413 1.05
    endloop
  endfacet
  facet normal 0 0.913546 -0.406736
    outer loop
      vertex 4 13.9628 0.648935
      vertex 1.5 14.1413 1.05
      vertex 4 14.1413 1.05
    endloop
  endfacet
  facet normal 0 0.913546 -0.406736
    outer loop
      vertex 1.5 14.1413 1.05
      vertex 4 13.9628 0.648935
      vertex 1.5 13.9628 0.648935
    endloop
  endfacet
  facet normal 0 0.913546 0.406736
    outer loop
      vertex 4 14.1413 -1.05
      vertex 1.5 13.9628 -0.648935
      vertex 4 13.9628 -0.648935
    endloop
  endfacet
  facet normal 0 0.913546 0.406736
    outer loop
      vertex 1.5 13.9628 -0.648935
      vertex 4 14.1413 -1.05
      vertex 1.5 14.1413 -1.05
    endloop
  endfacet
  facet normal 0 0.978148 0.207911
    outer loop
      vertex 4 13.9628 -0.648935
      vertex 1.5 13.8715 -0.219509
      vertex 4 13.8715 -0.219509
    endloop
  endfacet
  facet normal 0 0.978148 0.207911
    outer loop
      vertex 1.5 13.8715 -0.219509
      vertex 4 13.9628 -0.648935
      vertex 1.5 13.9628 -0.648935
    endloop
  endfacet
  facet normal 0 0.5 -0.866026
    outer loop
      vertex 1.5 14.7257 1.69894
      vertex 4 15.1059 1.91844
      vertex 4 14.7257 1.69894
    endloop
  endfacet
  facet normal 0 0.5 -0.866026
    outer loop
      vertex 4 15.1059 1.91844
      vertex 1.5 14.7257 1.69894
      vertex 1.5 15.1059 1.91844
    endloop
  endfacet
  facet normal 0 0.309018 -0.951056
    outer loop
      vertex 1.5 15.1059 1.91844
      vertex 4 15.5234 2.05411
      vertex 4 15.1059 1.91844
    endloop
  endfacet
  facet normal 0 0.309018 -0.951056
    outer loop
      vertex 4 15.5234 2.05411
      vertex 1.5 15.1059 1.91844
      vertex 1.5 15.5234 2.05411
    endloop
  endfacet
  facet normal 0 0.104528 -0.994522
    outer loop
      vertex 1.5 15.5234 2.05411
      vertex 4 15.96 2.1
      vertex 4 15.5234 2.05411
    endloop
  endfacet
  facet normal 0 0.104528 -0.994522
    outer loop
      vertex 4 15.96 2.1
      vertex 1.5 15.5234 2.05411
      vertex 1.5 15.96 2.1
    endloop
  endfacet
  facet normal 0 -0.809018 -0.587784
    outer loop
      vertex 1.5 17.7787 1.05
      vertex 4 17.5206 1.40517
      vertex 1.5 17.5206 1.40517
    endloop
  endfacet
  facet normal 0 -0.809018 -0.587784
    outer loop
      vertex 4 17.5206 1.40517
      vertex 1.5 17.7787 1.05
      vertex 4 17.7787 1.05
    endloop
  endfacet
  facet normal 0 0.913545 -0.406738
    outer loop
      vertex 4 -17.9572 0.648935
      vertex 1.5 -17.7787 1.05
      vertex 4 -17.7787 1.05
    endloop
  endfacet
  facet normal 0 0.913545 -0.406738
    outer loop
      vertex 1.5 -17.7787 1.05
      vertex 4 -17.9572 0.648935
      vertex 1.5 -17.9572 0.648935
    endloop
  endfacet
  facet normal -0 0.104528 0.994522
    outer loop
      vertex 1.5 -15.96 -2.1
      vertex 4 -16.3966 -2.05411
      vertex 4 -15.96 -2.1
    endloop
  endfacet
  facet normal 0 0.104528 0.994522
    outer loop
      vertex 4 -16.3966 -2.05411
      vertex 1.5 -15.96 -2.1
      vertex 1.5 -16.3966 -2.05411
    endloop
  endfacet
  facet normal 0 -1 0
    outer loop
      vertex 1.5 -13.8715 -0.219509
      vertex 4 -13.8715 0.219509
      vertex 1.5 -13.8715 0.219509
    endloop
  endfacet
  facet normal 0 -1 -0
    outer loop
      vertex 4 -13.8715 0.219509
      vertex 1.5 -13.8715 -0.219509
      vertex 4 -13.8715 -0.219509
    endloop
  endfacet
  facet normal 0 -0.809018 -0.587784
    outer loop
      vertex 1.5 -14.1413 1.05
      vertex 4 -14.3994 1.40517
      vertex 1.5 -14.3994 1.40517
    endloop
  endfacet
  facet normal 0 -0.809018 -0.587784
    outer loop
      vertex 4 -14.3994 1.40517
      vertex 1.5 -14.1413 1.05
      vertex 4 -14.1413 1.05
    endloop
  endfacet
  facet normal 0 -0.309018 -0.951056
    outer loop
      vertex 1.5 -15.5234 2.05411
      vertex 4 -15.1059 1.91844
      vertex 4 -15.5234 2.05411
    endloop
  endfacet
  facet normal -0 -0.309018 -0.951056
    outer loop
      vertex 4 -15.1059 1.91844
      vertex 1.5 -15.5234 2.05411
      vertex 1.5 -15.1059 1.91844
    endloop
  endfacet
  facet normal 0 -0.66913 -0.743146
    outer loop
      vertex 1.5 -14.7257 1.69894
      vertex 4 -14.3994 1.40517
      vertex 4 -14.7257 1.69894
    endloop
  endfacet
  facet normal -0 -0.66913 -0.743146
    outer loop
      vertex 4 -14.3994 1.40517
      vertex 1.5 -14.7257 1.69894
      vertex 1.5 -14.3994 1.40517
    endloop
  endfacet
  facet normal 0 -0.809018 0.587784
    outer loop
      vertex 1.5 -14.3994 -1.40517
      vertex 4 -14.1413 -1.05
      vertex 1.5 -14.1413 -1.05
    endloop
  endfacet
  facet normal 0 -0.809018 0.587784
    outer loop
      vertex 4 -14.1413 -1.05
      vertex 1.5 -14.3994 -1.40517
      vertex 4 -14.3994 -1.40517
    endloop
  endfacet
  facet normal 0 -0.309018 0.951056
    outer loop
      vertex 1.5 -15.1059 -1.91844
      vertex 4 -15.5234 -2.05411
      vertex 4 -15.1059 -1.91844
    endloop
  endfacet
  facet normal 0 -0.309018 0.951056
    outer loop
      vertex 4 -15.5234 -2.05411
      vertex 1.5 -15.1059 -1.91844
      vertex 1.5 -15.5234 -2.05411
    endloop
  endfacet
  facet normal 0 -0.66913 0.743146
    outer loop
      vertex 1.5 -14.3994 -1.40517
      vertex 4 -14.7257 -1.69894
      vertex 4 -14.3994 -1.40517
    endloop
  endfacet
  facet normal 0 -0.66913 0.743146
    outer loop
      vertex 4 -14.7257 -1.69894
      vertex 1.5 -14.3994 -1.40517
      vertex 1.5 -14.7257 -1.69894
    endloop
  endfacet
  facet normal 0 -0.5 0.866026
    outer loop
      vertex 1.5 -14.7257 -1.69894
      vertex 4 -15.1059 -1.91844
      vertex 4 -14.7257 -1.69894
    endloop
  endfacet
  facet normal 0 -0.5 0.866026
    outer loop
      vertex 4 -15.1059 -1.91844
      vertex 1.5 -14.7257 -1.69894
      vertex 1.5 -15.1059 -1.91844
    endloop
  endfacet
  facet normal 0 -0.978148 -0.207911
    outer loop
      vertex 1.5 -13.8715 0.219509
      vertex 4 -13.9628 0.648935
      vertex 1.5 -13.9628 0.648935
    endloop
  endfacet
  facet normal 0 -0.978148 -0.207911
    outer loop
      vertex 4 -13.9628 0.648935
      vertex 1.5 -13.8715 0.219509
      vertex 4 -13.8715 0.219509
    endloop
  endfacet
  facet normal 0 -0.913546 0.406736
    outer loop
      vertex 1.5 -14.1413 -1.05
      vertex 4 -13.9628 -0.648935
      vertex 1.5 -13.9628 -0.648935
    endloop
  endfacet
  facet normal 0 -0.913546 0.406736
    outer loop
      vertex 4 -13.9628 -0.648935
      vertex 1.5 -14.1413 -1.05
      vertex 4 -14.1413 -1.05
    endloop
  endfacet
  facet normal 0 0.104528 -0.994522
    outer loop
      vertex 1.5 -16.3966 2.05411
      vertex 4 -15.96 2.1
      vertex 4 -16.3966 2.05411
    endloop
  endfacet
  facet normal 0 0.104528 -0.994522
    outer loop
      vertex 4 -15.96 2.1
      vertex 1.5 -16.3966 2.05411
      vertex 1.5 -15.96 2.1
    endloop
  endfacet
  facet normal 0 -0.5 -0.866026
    outer loop
      vertex 1.5 -15.1059 1.91844
      vertex 4 -14.7257 1.69894
      vertex 4 -15.1059 1.91844
    endloop
  endfacet
  facet normal -0 -0.5 -0.866026
    outer loop
      vertex 4 -14.7257 1.69894
      vertex 1.5 -15.1059 1.91844
      vertex 1.5 -14.7257 1.69894
    endloop
  endfacet
  facet normal 0 -0.913546 -0.406736
    outer loop
      vertex 1.5 -13.9628 0.648935
      vertex 4 -14.1413 1.05
      vertex 1.5 -14.1413 1.05
    endloop
  endfacet
  facet normal 0 -0.913546 -0.406736
    outer loop
      vertex 4 -14.1413 1.05
      vertex 1.5 -13.9628 0.648935
      vertex 4 -13.9628 0.648935
    endloop
  endfacet
  facet normal 0 -0.104528 0.994522
    outer loop
      vertex 1.5 -15.5234 -2.05411
      vertex 4 -15.96 -2.1
      vertex 4 -15.5234 -2.05411
    endloop
  endfacet
  facet normal 0 -0.104528 0.994522
    outer loop
      vertex 4 -15.96 -2.1
      vertex 1.5 -15.5234 -2.05411
      vertex 1.5 -15.96 -2.1
    endloop
  endfacet
  facet normal -0 0.5 0.866026
    outer loop
      vertex 1.5 -16.8141 -1.91844
      vertex 4 -17.1943 -1.69894
      vertex 4 -16.8141 -1.91844
    endloop
  endfacet
  facet normal 0 0.5 0.866026
    outer loop
      vertex 4 -17.1943 -1.69894
      vertex 1.5 -16.8141 -1.91844
      vertex 1.5 -17.1943 -1.69894
    endloop
  endfacet
  facet normal 0 0.309018 -0.951056
    outer loop
      vertex 1.5 -16.8141 1.91844
      vertex 4 -16.3966 2.05411
      vertex 4 -16.8141 1.91844
    endloop
  endfacet
  facet normal 0 0.309018 -0.951056
    outer loop
      vertex 4 -16.3966 2.05411
      vertex 1.5 -16.8141 1.91844
      vertex 1.5 -16.3966 2.05411
    endloop
  endfacet
  facet normal 0 0.913545 0.406738
    outer loop
      vertex 4 -17.7787 -1.05
      vertex 1.5 -17.9572 -0.648935
      vertex 4 -17.9572 -0.648935
    endloop
  endfacet
  facet normal 0 0.913545 0.406738
    outer loop
      vertex 1.5 -17.9572 -0.648935
      vertex 4 -17.7787 -1.05
      vertex 1.5 -17.7787 -1.05
    endloop
  endfacet
  facet normal 0 0.809018 0.587784
    outer loop
      vertex 4 -17.5206 -1.40517
      vertex 1.5 -17.7787 -1.05
      vertex 4 -17.7787 -1.05
    endloop
  endfacet
  facet normal 0 0.809018 0.587784
    outer loop
      vertex 1.5 -17.7787 -1.05
      vertex 4 -17.5206 -1.40517
      vertex 1.5 -17.5206 -1.40517
    endloop
  endfacet
  facet normal 0 -0.978148 0.207911
    outer loop
      vertex 1.5 -13.9628 -0.648935
      vertex 4 -13.8715 -0.219509
      vertex 1.5 -13.8715 -0.219509
    endloop
  endfacet
  facet normal 0 -0.978148 0.207911
    outer loop
      vertex 4 -13.8715 -0.219509
      vertex 1.5 -13.9628 -0.648935
      vertex 4 -13.9628 -0.648935
    endloop
  endfacet
  facet normal 0 -0.104528 -0.994522
    outer loop
      vertex 1.5 -15.96 2.1
      vertex 4 -15.5234 2.05411
      vertex 4 -15.96 2.1
    endloop
  endfacet
  facet normal -0 -0.104528 -0.994522
    outer loop
      vertex 4 -15.5234 2.05411
      vertex 1.5 -15.96 2.1
      vertex 1.5 -15.5234 2.05411
    endloop
  endfacet
  facet normal 0 0.5 -0.866026
    outer loop
      vertex 1.5 -17.1943 1.69894
      vertex 4 -16.8141 1.91844
      vertex 4 -17.1943 1.69894
    endloop
  endfacet
  facet normal 0 0.5 -0.866026
    outer loop
      vertex 4 -16.8141 1.91844
      vertex 1.5 -17.1943 1.69894
      vertex 1.5 -16.8141 1.91844
    endloop
  endfacet
  facet normal -0 0.309018 0.951056
    outer loop
      vertex 1.5 -16.3966 -2.05411
      vertex 4 -16.8141 -1.91844
      vertex 4 -16.3966 -2.05411
    endloop
  endfacet
  facet normal 0 0.309018 0.951056
    outer loop
      vertex 4 -16.8141 -1.91844
      vertex 1.5 -16.3966 -2.05411
      vertex 1.5 -16.8141 -1.91844
    endloop
  endfacet
  facet normal 0 0.809018 -0.587784
    outer loop
      vertex 4 -17.7787 1.05
      vertex 1.5 -17.5206 1.40517
      vertex 4 -17.5206 1.40517
    endloop
  endfacet
  facet normal 0 0.809018 -0.587784
    outer loop
      vertex 1.5 -17.5206 1.40517
      vertex 4 -17.7787 1.05
      vertex 1.5 -17.7787 1.05
    endloop
  endfacet
  facet normal 0 0.66913 -0.743146
    outer loop
      vertex 1.5 -17.5206 1.40517
      vertex 4 -17.1943 1.69894
      vertex 4 -17.5206 1.40517
    endloop
  endfacet
  facet normal 0 0.66913 -0.743146
    outer loop
      vertex 4 -17.1943 1.69894
      vertex 1.5 -17.5206 1.40517
      vertex 1.5 -17.1943 1.69894
    endloop
  endfacet
  facet normal -0 0.66913 0.743146
    outer loop
      vertex 1.5 -17.1943 -1.69894
      vertex 4 -17.5206 -1.40517
      vertex 4 -17.1943 -1.69894
    endloop
  endfacet
  facet normal 0 0.66913 0.743146
    outer loop
      vertex 4 -17.5206 -1.40517
      vertex 1.5 -17.1943 -1.69894
      vertex 1.5 -17.5206 -1.40517
    endloop
  endfacet
  facet normal 0 0.978147 0.207913
    outer loop
      vertex 4 -17.9572 -0.648935
      vertex 1.5 -18.0485 -0.219509
      vertex 4 -18.0485 -0.219509
    endloop
  endfacet
  facet normal 0 0.978147 0.207913
    outer loop
      vertex 1.5 -18.0485 -0.219509
      vertex 4 -17.9572 -0.648935
      vertex 1.5 -17.9572 -0.648935
    endloop
  endfacet
  facet normal 0 1 -0
    outer loop
      vertex 4 -18.0485 -0.219509
      vertex 1.5 -18.0485 0.219509
      vertex 4 -18.0485 0.219509
    endloop
  endfacet
  facet normal 0 1 0
    outer loop
      vertex 1.5 -18.0485 0.219509
      vertex 4 -18.0485 -0.219509
      vertex 1.5 -18.0485 -0.219509
    endloop
  endfacet
  facet normal 0 0.978147 -0.207913
    outer loop
      vertex 4 -18.0485 0.219509
      vertex 1.5 -17.9572 0.648935
      vertex 4 -17.9572 0.648935
    endloop
  endfacet
  facet normal 0 0.978147 -0.207913
    outer loop
      vertex 1.5 -17.9572 0.648935
      vertex 4 -18.0485 0.219509
      vertex 1.5 -18.0485 0.219509
    endloop
  endfacet
endsolid OpenSCAD_Model
