<?xml version="1.0" encoding="UTF-8" standalone="no"?>
<!-- Created with Inkscape (http://www.inkscape.org/) -->

<svg
   xmlns:dc="http://purl.org/dc/elements/1.1/"
   xmlns:cc="http://creativecommons.org/ns#"
   xmlns:rdf="http://www.w3.org/1999/02/22-rdf-syntax-ns#"
   xmlns:svg="http://www.w3.org/2000/svg"
   xmlns="http://www.w3.org/2000/svg"
   xmlns:sodipodi="http://sodipodi.sourceforge.net/DTD/sodipodi-0.dtd"
   xmlns:inkscape="http://www.inkscape.org/namespaces/inkscape"
   width="210mm"
   height="297mm"
   viewBox="0 0 744.09448819 1052.3622047"
   id="svg4186"
   version="1.1"
   inkscape:version="0.91 r13725"
   sodipodi:docname="sablony.svg">
  <defs
     id="defs4188" />
  <sodipodi:namedview
     id="base"
     pagecolor="#ffffff"
     bordercolor="#666666"
     borderopacity="1.0"
     inkscape:pageopacity="0.0"
     inkscape:pageshadow="2"
     inkscape:zoom="0.3125"
     inkscape:cx="291.4961"
     inkscape:cy="970.86394"
     inkscape:document-units="px"
     inkscape:current-layer="layer1"
     showgrid="false"
     inkscape:window-width="1535"
     inkscape:window-height="876"
     inkscape:window-x="65"
     inkscape:window-y="24"
     inkscape:window-maximized="1" />
  <metadata
     id="metadata4191">
    <rdf:RDF>
      <cc:Work
         rdf:about="">
        <dc:format>image/svg+xml</dc:format>
        <dc:type
           rdf:resource="http://purl.org/dc/dcmitype/StillImage" />
        <dc:title></dc:title>
      </cc:Work>
    </rdf:RDF>
  </metadata>
  <g
     inkscape:label="Vrstva 1"
     inkscape:groupmode="layer"
     id="layer1">
    <path
       style="fill:#000000;fill-opacity:1;fill-rule:evenodd;stroke:none;stroke-width:1px;stroke-linecap:butt;stroke-linejoin:miter;stroke-opacity:1"
       d="M 165.61904,20.22214 135.23476,57.66098 112.98807,36.50029 107.01951,74.48063 70.668166,63.08652 82.062272,90.75729 24.54874,102.1514 l 44.490419,35.80983 -18.447169,19.53316 32.011798,5.42556 -13.021624,42.86439 42.321386,-14.65062 8.13907,30.92728 19.53169,-23.33122 34.72531,37.98036 7.05308,-51.00198 c 0,0 31.47027,10.85195 31.47027,8.13907 0,-2.71289 -12.4801,-30.38428 -12.4801,-30.38428 l 43.9489,-9.76658 -32.0118,-27.12925 33.63932,-28.21376 -48.28846,-10.3081 11.39411,-32.5548 -29.29976,11.93711 z m -24.95873,52.52415 c 28.48651,0 51.65031,23.16529 51.65031,51.65179 0,28.48651 -23.1638,51.65031 -51.65031,51.65031 -28.48651,0 -51.65179,-23.1638 -51.65179,-51.65031 0,-28.4865 23.16528,-51.65179 51.65179,-51.65179 z m 0,9.75324 c -24.85777,0 -41.89856,17.04079 -41.89856,41.89855 0,24.85777 17.04079,41.89857 41.89856,41.89857 24.85777,0 41.89856,-17.0408 41.89856,-41.89857 0,-24.85776 -17.04079,-41.89855 -41.89856,-41.89855 z"
       id="path4745"
       inkscape:connector-curvature="0"
       sodipodi:nodetypes="ccccccccccccccccsccccccccssssssssss" />
    <circle
       style="fill:none;fill-opacity:1;stroke:none;stroke-width:10;stroke-miterlimit:4;stroke-dasharray:none;stroke-opacity:1"
       id="path4753"
       cx="-20.203051"
       cy="135.14369"
       r="109.09647" />
    <path
       style="fill:#000000;fill-opacity:1;stroke:none;stroke-width:10;stroke-miterlimit:4;stroke-dasharray:none;stroke-opacity:1"
       d="m 88.94468,387.97035 a 47.85687,47.85687 0 0 0 -47.85445,47.85442 47.85687,47.85687 0 0 0 47.85445,47.86012 47.85687,47.85687 0 0 0 47.86012,-47.86012 47.85687,47.85687 0 0 0 -2.2303,-14.25222 32.771551,32.771551 0 0 1 -32.62364,29.85852 32.771551,32.771551 0 0 1 -32.77154,-32.77155 32.771551,32.771551 0 0 1 21.13652,-30.62092 47.85687,47.85687 0 0 0 -1.37116,-0.0682 z"
       id="path4832"
       inkscape:connector-curvature="0" />
    <path
       style="fill:#000000;fill-opacity:1;stroke:none;stroke-width:10;stroke-miterlimit:4;stroke-dasharray:none;stroke-opacity:1"
       d="m 298.69346,258.79821 c -58.15386,0 -105.29345,38.80061 -105.29345,86.6657 6e-5,47.86508 58.4793,142.83249 105.29345,142.83239 42.49426,0 105.29333,-94.96737 105.29339,-142.83239 0,-47.86509 -47.13958,-86.6657 -105.29339,-86.6657 z m 62.46257,94.04827 a 20.519378,36.178904 62.317523 0 1 16.56063,7.93776 20.519378,36.178904 62.317523 0 1 -22.51392,34.98758 20.519378,36.178904 62.317523 0 1 -41.56694,-1.37019 20.519378,36.178904 62.317523 0 1 22.50211,-34.97579 20.519378,36.178904 62.317523 0 1 25.01812,-6.57936 z m -122.76353,1.08673 a 36.178904,20.519378 27.682477 0 1 25.01806,6.56757 36.178904,20.519378 27.682477 0 1 22.50217,34.98752 36.178904,20.519378 27.682477 0 1 -41.56694,1.3584 36.178904,20.519378 27.682477 0 1 -22.50211,-34.97573 36.178904,20.519378 27.682477 0 1 16.54882,-7.93776 z m 68.94746,65.23846 a 8.6397386,8.6397386 0 0 1 8.63465,8.64651 8.6397386,8.6397386 0 0 1 -8.63465,8.63465 8.6397386,8.6397386 0 0 1 -8.07952,-5.58716 7.8297624,7.8297624 0 0 1 -7.31175,5.04382 7.8297624,7.8297624 0 0 1 -7.83144,-7.81965 7.8297624,7.8297624 0 0 1 7.83144,-7.83143 7.8297624,7.8297624 0 0 1 7.20543,4.78388 8.6397386,8.6397386 0 0 1 8.18584,-5.87062 z"
       id="path4837"
       inkscape:connector-curvature="0" />
    <g
       id="g6057"
       transform="translate(51.200001,793.6)">
      <path
         style="fill:#000000;fill-opacity:1;stroke:none;stroke-width:10;stroke-miterlimit:4;stroke-dasharray:none;stroke-opacity:1"
         d="m 246.09562,3.2626611 0,91.6550279 152.5761,0 0,-91.6550279 -152.5761,0 z m 9.6045,11.2698199 19.7573,0 0,17.56248 -19.7573,0 0,-17.56248 z m 28.4014,0 19.7587,0 0,17.56248 -19.7587,0 0,-17.56248 z m 28.4028,0 19.7587,0 0,17.56248 -19.7587,0 0,-17.56248 z m 28.4028,0 19.7573,0 0,17.56248 -19.7573,0 0,-17.56248 z m 28.4014,0 19.7587,0 0,17.56248 -19.7587,0 0,-17.56248 z m -113.6084,25.777128 19.7573,0 0,17.56248 -19.7573,0 0,-17.56248 z m 28.4014,0 19.7587,0 0,17.56248 -19.7587,0 0,-17.56248 z m 28.4028,0 19.7587,0 0,17.56248 -19.7587,0 0,-17.56248 z m 28.4028,0 19.7573,0 0,17.56248 -19.7573,0 0,-17.56248 z m 28.4014,0 19.7587,0 0,17.56248 -19.7587,0 0,-17.56248 z m -113.6084,25.77578 19.7573,0 0,17.56248 -19.7573,0 0,-17.56248 z m 28.4014,0 19.7587,0 0,17.56248 -19.7587,0 0,-17.56248 z m 28.4028,0 19.7587,0 0,17.56248 -19.7587,0 0,-17.56248 z m 28.4028,0 19.7573,0 0,17.56248 -19.7573,0 0,-17.56248 z m 28.4014,0 19.7587,0 0,17.56248 -19.7587,0 0,-17.56248 z"
         id="rect5475"
         inkscape:connector-curvature="0" />
      <path
         style="fill:#000000;fill-opacity:1;stroke:none;stroke-width:10;stroke-miterlimit:4;stroke-dasharray:none;stroke-opacity:1"
         d="m 514.52232,3.2626611 0,91.6550279 152.57607,0 0,-91.6550279 -152.57607,0 z m 9.60452,11.2698199 19.75729,0 0,17.56248 -19.75729,0 0,-17.56248 z m 28.40144,0 19.75863,0 0,17.56248 -19.75863,0 0,-17.56248 z m 28.40278,0 19.75865,0 0,17.56248 -19.75865,0 0,-17.56248 z m 28.4028,0 19.75733,0 0,17.56248 -19.75733,0 0,-17.56248 z m 28.40143,0 19.7586,0 0,17.56248 -19.7586,0 0,-17.56248 z m -113.60845,25.777128 19.75729,0 0,17.56248 -19.75729,0 0,-17.56248 z m 28.40144,0 19.75864,0 0,17.56248 -19.75864,0 0,-17.56248 z m 28.40279,0 19.75864,0 0,17.56248 -19.75864,0 0,-17.56248 z m 28.4028,0 19.75732,0 0,17.56248 -19.75732,0 0,-17.56248 z m 28.40142,0 19.7586,0 0,17.56248 -19.7586,0 0,-17.56248 z m -113.60845,25.77578 19.75729,0 0,17.56248 -19.75729,0 0,-17.56248 z m 28.40144,0 19.75864,0 0,17.56248 -19.75864,0 0,-17.56248 z m 28.40279,0 19.75864,0 0,17.56248 -19.75864,0 0,-17.56248 z m 28.4028,0 19.75732,0 0,17.56248 -19.75732,0 0,-17.56248 z m 28.40142,0 19.7587,0 0,17.56248 -19.7587,0 0,-17.56248 z"
         id="rect5475-5"
         inkscape:connector-curvature="0" />
      <path
         style="fill:#000000;fill-opacity:1;stroke:none;stroke-width:10;stroke-miterlimit:4;stroke-dasharray:none;stroke-opacity:1"
         d="m 412.70832,-32.137609 0,165.295089 a 92.753119,102.08332 0 0 1 40.8882,-10.5229 92.753119,102.08332 0 0 1 40.8881,10.59313 l 0,-165.365319 -81.7763,0 z"
         id="rect5630"
         inkscape:connector-curvature="0" />
      <path
         style="fill:#000000;fill-opacity:1;stroke:none;stroke-width:10;stroke-miterlimit:4;stroke-dasharray:none;stroke-opacity:1"
         d="m 453.59652,129.31052 c -34.0503,0.008 -65.359,20.54983 -81.5603,53.51135 22.9645,-15.05321 51.7943,-19.14913 81.5603,-19.1765 29.7004,0.0206 58.4737,4.07391 81.42111,19.0617 -16.20521,-32.86892 -47.44301,-53.35488 -81.42111,-53.39655 z"
         id="path5632-2"
         inkscape:connector-curvature="0"
         sodipodi:nodetypes="ccccc" />
      <path
         inkscape:connector-curvature="0"
         id="path5669"
         d="m 449.43012,167.34196 -5.123,0.16601 c -20.8017,0.68096 -39.0728,3.45635 -52.5508,7.69727 -6.739,2.12046 -12.287,4.57257 -16.5098,7.62109 -4.2227,3.04852 -7.5245,7.1199 -7.5468,12.21289 l 0,0.0215 0,0.0215 c 0.022,5.28177 3.5383,9.44061 8.0097,12.54688 4.4715,3.10627 10.3554,5.59982 17.4903,7.73437 13.2688,3.96969 30.9787,6.48986 50.8203,7.15821 l 1.1738,11.93945 21.8809,0 1.1914,-12.12891 c 18.8488,-0.93361 35.4795,-3.53532 47.9023,-7.46484 6.69666,-2.11825 12.20937,-4.56605 16.40627,-7.60742 4.19689,-3.04138 7.4763,-7.10178 7.50195,-12.17383 l 0,-0.0195 0,-0.0215 c -0.0171,-4.89106 -3.09259,-8.87157 -7.05274,-11.85742 -3.96014,-2.98585 -9.15515,-5.39276 -15.47458,-7.49414 -12.6389,-4.20276 -29.8174,-7.05258 -49.627,-8.00977 l -4.7461,-0.23046 -4.0664,44.36328 c -1.7323,0.0359 -3.4591,0.094 -5.1972,0.0996 -0.2831,-0.001 -0.5648,-0.01 -0.8477,-0.0117 l -3.6348,-39.66406 0,-4.89844 z m -9.4629,10.36133 3.1934,34.84765 c -18.6781,-0.71813 -35.2905,-3.15513 -47.1172,-6.69336 -6.4963,-1.94353 -11.5783,-4.22655 -14.6738,-6.37695 -3.0755,-2.1365 -3.7289,-3.70001 -3.7403,-4.41797 0.011,-0.6865 0.5882,-2.14422 3.4239,-4.19141 2.8553,-2.06134 7.5874,-4.28554 13.6816,-6.20312 11.2125,-3.52807 27.1266,-6.05725 45.2324,-6.96484 z m 32.209,0.24414 c 17.0609,1.13587 31.8805,3.71397 42.2442,7.16015 5.6673,1.88453 10.02702,4.03876 12.63083,6.00196 2.58518,1.94915 3.08633,3.2937 3.0957,3.94726 -0.0104,0.68246 -0.5809,2.13096 -3.39453,4.16992 -2.8311,2.05162 -7.5248,4.26751 -13.5762,6.18164 -10.9645,3.46825 -26.4818,5.97141 -44.1523,6.9375 l 3.1523,-34.39843 z m -13.8222,43.80468 -0.2735,2.78711 -3.8926,0 -0.2656,-2.70117 c 1.482,-0.005 2.9531,-0.0599 4.4317,-0.0859 z"
         style="color:#000000;font-style:normal;font-variant:normal;font-weight:normal;font-stretch:normal;font-size:medium;line-height:normal;font-family:sans-serif;text-indent:0;text-align:start;text-decoration:none;text-decoration-line:none;text-decoration-style:solid;text-decoration-color:#000000;letter-spacing:normal;word-spacing:normal;text-transform:none;direction:ltr;block-progression:tb;writing-mode:lr-tb;baseline-shift:baseline;text-anchor:start;white-space:normal;clip-rule:nonzero;display:inline;overflow:visible;visibility:visible;opacity:1;isolation:auto;mix-blend-mode:normal;color-interpolation:sRGB;color-interpolation-filters:linearRGB;solid-color:#000000;solid-opacity:1;fill:#000000;fill-opacity:1;fill-rule:nonzero;stroke:none;stroke-width:9.92125988;stroke-linecap:butt;stroke-linejoin:miter;stroke-miterlimit:4;stroke-dasharray:none;stroke-dashoffset:0;stroke-opacity:1;color-rendering:auto;image-rendering:auto;shape-rendering:auto;text-rendering:auto;enable-background:accumulate" />
    </g>
    <path
       inkscape:connector-curvature="0"
       style="fill:#000000;fill-opacity:1;fill-rule:evenodd;stroke:#000000;stroke-width:1px;stroke-linecap:butt;stroke-linejoin:miter;stroke-opacity:1"
       d="m 546.06962,48.84118 c -94.5922,95.13886 -112.695,182.58321 -90.125,361.71875 l -64.0899,65.81058 11.002,99.5156 71.5039,-44.4278 c 1.2224,7.1692 2.4619,14.3895 3.7539,21.7989 l 3.3945,-0.078 13.4239,54.5371 c 4.5599,1.2149 9.2088,2.2999 13.9414,3.2558 -8.5122,20.6531 -11.3292,37.5665 -9.9199,51.9043 1.5254,15.5205 8.1805,27.6147 16.1582,36.95309 11.0037,12.8807 15.5466,13.8768 26.0136,31.8262 l 7.1348,12.2344 7.8789,-11.7696 c 12.1368,-18.1325 18.1236,-23.7827 28.793,-37.35339 14.6696,-18.659 18.966,-49.3399 3.0625,-84.043 4.2585,-0.8583 8.6056,-1.8521 13.0625,-3.0078 l 12.1679,-57.5996 2.4883,-0.059 c 0.9985,-6.7487 1.95,-13.3155 2.8985,-19.8692 l 73.5488,45.6973 11,-99.5156 -68.6973,-70.54298 c 18.102,-177.08876 0.5173,-266.38572 -88.3945,-356.98633 z m 1.4375,163.05273 a 46.386204,46.386204 0 0 1 46.3867,46.38672 46.386204,46.386204 0 0 1 -46.3867,46.38672 46.386204,46.386204 0 0 1 -46.3867,-46.38672 46.386204,46.386204 0 0 1 46.3867,-46.38672 z m 81.7656,226.166 38.1133,38.1152 -5.6895,50.3438 -40.3886,-27.3047 7.9648,-61.1543 z m -169.6484,2.4141 7.9629,61.1523 -40.3887,27.3067 -5.6895,-50.3457 38.1153,-38.1133 z m 135.4043,110.0644 -8.336,39.461 c -27.2017,7.4604 -52.7929,5.2577 -77.875,0 l -9.1679,-37.2422 95.3789,-2.2188 z m -25.3184,63.086 c 16.4444,32.1579 11.6518,57.018 1.2949,70.1914 -4.3947,5.5899 -8.1828,10.061 -12.0879,14.84959 0,-3.97659 10e-4,-7.49949 -0.01,-11.73629 -0.025,-16.2592 -0.074,-32.3633 -0.074,-32.3633 l -17.7168,0.055 c 0,0 0.049,16.0951 0.074,32.3359 0.01,5.3532 0.01,9.99979 0.01,14.81049 -4.1013,-4.4451 -8.0389,-8.08609 -12.6171,-13.44519 -6.354,-7.4378 -10.8577,-15.5956 -11.9961,-27.1778 -1.1236,-11.4312 1.2317,-26.618 10.3339,-47.3398 13.26,1.4455 27.3901,1.5834 42.7891,-0.1797 z"
       id="path5732" />
    <path
       style="fill:#000000;fill-opacity:1;stroke:none"
       d="m 177.71108,521.11385 c -17.5724,1.3e-4 -31.8185,14.24535 -31.8187,31.81777 0.01,7.70215 2.8129,15.1395 7.8891,20.93215 l -33.073,33.07208 -10.9812,-28.1915 c -0.1397,-0.35846 -0.5404,-0.53523 -0.8989,-0.3956 l -15.1766,5.91189 c -0.3584,0.13963 -0.5353,0.54041 -0.3956,0.89888 l 13.8001,35.42863 -67.727499,67.72745 c -1.2948,-1.16342 -2.5735,-2.34379 -3.8372,-3.54081 l -18.7004,18.6995 c 32.1061,32.35538 73.267399,54.21529 118.053299,62.69481 l 0,28.0172 c 0,0.3847 0.3091,0.6946 0.6938,0.6946 l 84.34382,0 c 0.3847,0 0.6947,-0.3099 0.6947,-0.6946 l 0,-28.4368 c 44.9893,-8.95579 86.1746,-31.42657 118.0541,-64.41047 l -18.89,-18.89003 c -1.8988,1.86375 -3.8347,3.68921 -5.8068,5.47527 l -61.4131,-61.41312 45.688,0 c 0.3846,0 0.6938,-0.30996 0.6938,-0.69466 l 0,-6.81845 8.1445,0 c 0.3847,0 0.6938,-0.30912 0.6938,-0.69381 l 0,-14.52041 c 0,-0.3847 -0.3091,-0.69467 -0.6938,-0.69467 l -8.1445,0 0,-6.81846 c 0,-0.3847 -0.3092,-0.6938 -0.6938,-0.6938 l -76.6231,0 -20.78182,-20.78263 c 5.59622,-5.90426 8.71822,-13.72772 8.72472,-21.86264 -1e-4,-17.57242 -14.24532,-31.81764 -31.81772,-31.81777 z m 0,17.67673 c 7.8098,1.7e-4 14.1399,6.33123 14.1401,14.14104 3e-4,7.81014 -6.33,14.14172 -14.1401,14.14189 -7.8101,-1.7e-4 -14.1414,-6.33175 -14.1411,-14.14189 2e-4,-7.80981 6.3313,-14.14087 14.1411,-14.14104 z m -21.4799,57.6211 -34.9373,60.51424 c -5.2551,-3.13546 -10.2315,-6.71619 -14.8742,-10.70275 l 7.6447,-7.64471 0.8228,2.11304 c 0.1397,0.35846 0.5405,0.53438 0.899,0.39475 l 15.1766,-5.91189 c 0.3585,-0.13964 0.5352,-0.54041 0.3956,-0.89888 l -3.6417,-9.34932 28.5145,-28.51448 z m 43.281,2.08997 12.66802,12.66797 0,9.27328 -12.66802,-21.94125 z m -35.9422,3.80227 0,69.29109 c -11.8567,-1.48485 -23.3814,-4.94628 -34.0939,-10.24051 l 34.0939,-59.05058 z m 28.2812,1.52945 32.78252,56.78033 c -10.2842,5.27339 -21.3553,8.84485 -32.78252,10.57544 l 0,-67.35577 z m 23.83312,22.67778 11.8374,0 19.2651,19.26514 c -4.3956,3.80117 -9.0929,7.23772 -14.047,10.27553 l -17.0555,-29.54067 z m 43.3493,31.51102 41.6216,41.62165 c -9.6834,7.72407 -20.0673,14.52652 -31.0163,20.31866 l -28.253,-48.93312 c 6.2542,-3.80701 12.1604,-8.15969 17.6477,-13.00719 z m -164.79652,0.38365 c 5.7266,5.03018 11.9041,9.52243 18.4542,13.41988 l -28.1496,48.75625 C 73.288981,714.7393 62.620781,707.83387 52.682881,699.95996 L 94.23708,658.40582 Z m 139.03672,17.17345 27.989,48.47685 c -21.8054,10.41595 -45.3275,16.77033 -69.41162,18.75161 l 0,-54.18965 c 14.46622,-1.87949 28.48812,-6.29324 41.42262,-13.03881 z m -112.39772,0.67245 c 13.3522,6.75821 27.816,11.04725 42.6939,12.66029 l 0,54.04696 c -24.4723,-1.69624 -48.4195,-7.90575 -70.6325,-18.31499 l 27.9386,-48.39226 z"
       id="path5848"
       inkscape:connector-curvature="0" />
  </g>
</svg>
