solid OpenSCAD_Model
  facet normal -0.999507 0.0314124 0
    outer loop
      vertex -6.5 0 0
      vertex -6.48717 0.408138 1.5
      vertex -6.48717 0.408138 0
    endloop
  endfacet
  facet normal -0.999507 0.0314124 0
    outer loop
      vertex -6.48717 0.408138 1.5
      vertex -6.5 0 0
      vertex -6.5 0 1.5
    endloop
  endfacet
  facet normal 0.0314124 0.999507 -0
    outer loop
      vertex 0.408138 6.48717 0
      vertex 0 6.5 1.5
      vertex 0.408138 6.48717 1.5
    endloop
  endfacet
  facet normal 0.0314124 0.999507 0
    outer loop
      vertex 0 6.5 1.5
      vertex 0.408138 6.48717 0
      vertex 0 6.5 0
    endloop
  endfacet
  facet normal 0.707107 0.707107 0
    outer loop
      vertex 4.7383 4.44956 1.5
      vertex 4.44956 4.7383 0
      vertex 4.44956 4.7383 1.5
    endloop
  endfacet
  facet normal 0.707107 0.707107 0
    outer loop
      vertex 4.44956 4.7383 0
      vertex 4.7383 4.44956 1.5
      vertex 4.7383 4.44956 0
    endloop
  endfacet
  facet normal -0.661313 0.75011 0
    outer loop
      vertex -4.14326 5.00834 0
      vertex -4.44956 4.7383 1.5
      vertex -4.14326 5.00834 1.5
    endloop
  endfacet
  facet normal -0.661313 0.75011 0
    outer loop
      vertex -4.44956 4.7383 1.5
      vertex -4.14326 5.00834 0
      vertex -4.44956 4.7383 0
    endloop
  endfacet
  facet normal -0.338737 0.940881 0
    outer loop
      vertex -2.00861 6.18187 0
      vertex -2.39281 6.04355 1.5
      vertex -2.00861 6.18187 1.5
    endloop
  endfacet
  facet normal -0.338737 0.940881 0
    outer loop
      vertex -2.39281 6.04355 1.5
      vertex -2.00861 6.18187 0
      vertex -2.39281 6.04355 0
    endloop
  endfacet
  facet normal 0.917755 0.397148 0
    outer loop
      vertex 6.04355 2.39281 1.5
      vertex 5.88138 2.76756 0
      vertex 5.88138 2.76756 1.5
    endloop
  endfacet
  facet normal 0.917755 0.397148 0
    outer loop
      vertex 5.88138 2.76756 0
      vertex 6.04355 2.39281 1.5
      vertex 6.04355 2.39281 0
    endloop
  endfacet
  facet normal 0.397148 0.917755 -0
    outer loop
      vertex 2.76756 5.88138 0
      vertex 2.39281 6.04355 1.5
      vertex 2.76756 5.88138 1.5
    endloop
  endfacet
  facet normal 0.397148 0.917755 0
    outer loop
      vertex 2.39281 6.04355 1.5
      vertex 2.76756 5.88138 0
      vertex 2.39281 6.04355 0
    endloop
  endfacet
  facet normal 0.562084 0.82708 -0
    outer loop
      vertex 3.8206 5.25861 0
      vertex 3.48287 5.48813 1.5
      vertex 3.8206 5.25861 1.5
    endloop
  endfacet
  facet normal 0.562084 0.82708 0
    outer loop
      vertex 3.48287 5.48813 1.5
      vertex 3.8206 5.25861 0
      vertex 3.48287 5.48813 0
    endloop
  endfacet
  facet normal -0.891006 0.453991 0
    outer loop
      vertex -5.88138 2.76756 0
      vertex -5.69599 3.1314 1.5
      vertex -5.69599 3.1314 0
    endloop
  endfacet
  facet normal -0.891006 0.453991 0
    outer loop
      vertex -5.69599 3.1314 1.5
      vertex -5.88138 2.76756 0
      vertex -5.88138 2.76756 1.5
    endloop
  endfacet
  facet normal -0.156434 0.987688 0
    outer loop
      vertex -0.814666 6.44874 0
      vertex -1.21798 6.38487 1.5
      vertex -0.814666 6.44874 1.5
    endloop
  endfacet
  facet normal -0.156434 0.987688 0
    outer loop
      vertex -1.21798 6.38487 1.5
      vertex -0.814666 6.44874 0
      vertex -1.21798 6.38487 0
    endloop
  endfacet
  facet normal 0.917755 -0.397148 0
    outer loop
      vertex 5.88138 -2.76756 1.5
      vertex 6.04355 -2.39281 0
      vertex 6.04355 -2.39281 1.5
    endloop
  endfacet
  facet normal 0.917755 -0.397148 0
    outer loop
      vertex 6.04355 -2.39281 0
      vertex 5.88138 -2.76756 1.5
      vertex 5.88138 -2.76756 0
    endloop
  endfacet
  facet normal 0 0 -1
    outer loop
      vertex 0 -2.25 0
      vertex 6.04355 -2.39281 0
      vertex 5.88138 -2.76756 0
    endloop
  endfacet
  facet normal 0 0 -1
    outer loop
      vertex 0 -2.25 0
      vertex 5.88138 -2.76756 0
      vertex 5.69599 -3.1314 0
    endloop
  endfacet
  facet normal 0 0 -1
    outer loop
      vertex 0 -2.25 0
      vertex 5.69599 -3.1314 0
      vertex 5.48813 -3.48287 0
    endloop
  endfacet
  facet normal 0 0 -1
    outer loop
      vertex 0 -2.25 0
      vertex 5.48813 -3.48287 0
      vertex 5.25861 -3.8206 0
    endloop
  endfacet
  facet normal 0 0 -1
    outer loop
      vertex 0 -2.25 0
      vertex 5.25861 -3.8206 0
      vertex 5.00834 -4.14326 0
    endloop
  endfacet
  facet normal 0 0 -1
    outer loop
      vertex 0 -2.25 0
      vertex 5.00834 -4.14326 0
      vertex 4.7383 -4.44956 0
    endloop
  endfacet
  facet normal 0 0 -1
    outer loop
      vertex 0 -2.25 0
      vertex 4.7383 -4.44956 0
      vertex 4.44956 -4.7383 0
    endloop
  endfacet
  facet normal 0 0 -1
    outer loop
      vertex 0 -2.25 0
      vertex 4.44956 -4.7383 0
      vertex 4.14326 -5.00834 0
    endloop
  endfacet
  facet normal 0 0 -1
    outer loop
      vertex 0 -2.25 0
      vertex 4.14326 -5.00834 0
      vertex 3.8206 -5.25861 0
    endloop
  endfacet
  facet normal 0 0 -1
    outer loop
      vertex 0 -2.25 0
      vertex 3.8206 -5.25861 0
      vertex 3.48287 -5.48813 0
    endloop
  endfacet
  facet normal 0 0 -1
    outer loop
      vertex 0 -2.25 0
      vertex 3.48287 -5.48813 0
      vertex 3.1314 -5.69599 0
    endloop
  endfacet
  facet normal 0 0 -1
    outer loop
      vertex 0 -2.25 0
      vertex 3.1314 -5.69599 0
      vertex 2.76756 -5.88138 0
    endloop
  endfacet
  facet normal 0 0 -1
    outer loop
      vertex 0 -2.25 0
      vertex 2.76756 -5.88138 0
      vertex 2.39281 -6.04355 0
    endloop
  endfacet
  facet normal 0 0 -1
    outer loop
      vertex 0 -2.25 0
      vertex 2.39281 -6.04355 0
      vertex 2.00861 -6.18187 0
    endloop
  endfacet
  facet normal 0 0 -1
    outer loop
      vertex 0 -2.25 0
      vertex 2.00861 -6.18187 0
      vertex 1.61648 -6.29579 0
    endloop
  endfacet
  facet normal 0 0 -1
    outer loop
      vertex 0 -2.25 0
      vertex 1.61648 -6.29579 0
      vertex 1.21798 -6.38487 0
    endloop
  endfacet
  facet normal 0 0 -1
    outer loop
      vertex 0 -2.25 0
      vertex 1.21798 -6.38487 0
      vertex 0.814666 -6.44874 0
    endloop
  endfacet
  facet normal 0 0 -1
    outer loop
      vertex 0 -2.25 0
      vertex 0.814666 -6.44874 0
      vertex 0.408138 -6.48717 0
    endloop
  endfacet
  facet normal 0 0 -1
    outer loop
      vertex 0 -2.25 0
      vertex 0.408138 -6.48717 0
      vertex 0 -6.5 0
    endloop
  endfacet
  facet normal 0 0 -1
    outer loop
      vertex 6.04355 -2.39281 0
      vertex 0 -2.25 0
      vertex 6.09496 -2.25 0
    endloop
  endfacet
  facet normal 0 0 -1
    outer loop
      vertex 0 -6.5 0
      vertex -0.141278 -2.24556 0
      vertex 0 -2.25 0
    endloop
  endfacet
  facet normal 0 0 -1
    outer loop
      vertex -0.408138 -6.48717 0
      vertex -0.141278 -2.24556 0
      vertex 0 -6.5 0
    endloop
  endfacet
  facet normal -0 0 -1
    outer loop
      vertex -0.141278 -2.24556 0
      vertex -0.408138 -6.48717 0
      vertex -0.282 -2.23226 0
    endloop
  endfacet
  facet normal 0 0 -1
    outer loop
      vertex -0.814666 -6.44874 0
      vertex -0.282 -2.23226 0
      vertex -0.408138 -6.48717 0
    endloop
  endfacet
  facet normal -0 0 -1
    outer loop
      vertex -0.282 -2.23226 0
      vertex -0.814666 -6.44874 0
      vertex -0.421607 -2.21015 0
    endloop
  endfacet
  facet normal 0 0 -1
    outer loop
      vertex -1.21798 -6.38487 0
      vertex -0.421607 -2.21015 0
      vertex -0.814666 -6.44874 0
    endloop
  endfacet
  facet normal -0 0 -1
    outer loop
      vertex -0.421607 -2.21015 0
      vertex -1.21798 -6.38487 0
      vertex -0.559552 -2.17931 0
    endloop
  endfacet
  facet normal 0 0 -1
    outer loop
      vertex -1.61648 -6.29579 0
      vertex -0.559552 -2.17931 0
      vertex -1.21798 -6.38487 0
    endloop
  endfacet
  facet normal -0 0 -1
    outer loop
      vertex -0.559552 -2.17931 0
      vertex -1.61648 -6.29579 0
      vertex -0.695288 -2.13988 0
    endloop
  endfacet
  facet normal 0 0 -1
    outer loop
      vertex -2.00861 -6.18187 0
      vertex -0.695288 -2.13988 0
      vertex -1.61648 -6.29579 0
    endloop
  endfacet
  facet normal -0 0 -1
    outer loop
      vertex -0.695288 -2.13988 0
      vertex -2.00861 -6.18187 0
      vertex -0.828279 -2.092 0
    endloop
  endfacet
  facet normal 0 0 -1
    outer loop
      vertex -2.39281 -6.04355 0
      vertex -0.828279 -2.092 0
      vertex -2.00861 -6.18187 0
    endloop
  endfacet
  facet normal -0 0 -1
    outer loop
      vertex -0.828279 -2.092 0
      vertex -2.39281 -6.04355 0
      vertex -0.958003 -2.03586 0
    endloop
  endfacet
  facet normal 0 0 -1
    outer loop
      vertex -2.76756 -5.88138 0
      vertex -0.958003 -2.03586 0
      vertex -2.39281 -6.04355 0
    endloop
  endfacet
  facet normal -0 0 -1
    outer loop
      vertex -0.958003 -2.03586 0
      vertex -2.76756 -5.88138 0
      vertex -1.08395 -1.97169 0
    endloop
  endfacet
  facet normal 0 0 -1
    outer loop
      vertex -3.1314 -5.69599 0
      vertex -1.08395 -1.97169 0
      vertex -2.76756 -5.88138 0
    endloop
  endfacet
  facet normal -0 0 -1
    outer loop
      vertex -1.08395 -1.97169 0
      vertex -3.1314 -5.69599 0
      vertex -1.20561 -1.89974 0
    endloop
  endfacet
  facet normal 0 0 -1
    outer loop
      vertex -3.48287 -5.48813 0
      vertex -1.20561 -1.89974 0
      vertex -3.1314 -5.69599 0
    endloop
  endfacet
  facet normal -0 0 -1
    outer loop
      vertex -1.20561 -1.89974 0
      vertex -3.48287 -5.48813 0
      vertex -1.32252 -1.82029 0
    endloop
  endfacet
  facet normal 0 0 -1
    outer loop
      vertex -3.8206 -5.25861 0
      vertex -1.32252 -1.82029 0
      vertex -3.48287 -5.48813 0
    endloop
  endfacet
  facet normal -0 0 -1
    outer loop
      vertex -1.32252 -1.82029 0
      vertex -3.8206 -5.25861 0
      vertex -1.4342 -1.73365 0
    endloop
  endfacet
  facet normal 0 0 -1
    outer loop
      vertex -4.14326 -5.00834 0
      vertex -1.4342 -1.73365 0
      vertex -3.8206 -5.25861 0
    endloop
  endfacet
  facet normal -0 0 -1
    outer loop
      vertex -1.4342 -1.73365 0
      vertex -4.14326 -5.00834 0
      vertex -1.54023 -1.64018 0
    endloop
  endfacet
  facet normal 0 0 -1
    outer loop
      vertex -4.44956 -4.7383 0
      vertex -1.54023 -1.64018 0
      vertex -4.14326 -5.00834 0
    endloop
  endfacet
  facet normal -0 0 -1
    outer loop
      vertex -1.54023 -1.64018 0
      vertex -4.44956 -4.7383 0
      vertex -1.64018 -1.54023 0
    endloop
  endfacet
  facet normal 0 0 -1
    outer loop
      vertex -4.7383 -4.44956 0
      vertex -1.64018 -1.54023 0
      vertex -4.44956 -4.7383 0
    endloop
  endfacet
  facet normal -0 0 -1
    outer loop
      vertex -1.64018 -1.54023 0
      vertex -4.7383 -4.44956 0
      vertex -1.73365 -1.4342 0
    endloop
  endfacet
  facet normal 0 0 -1
    outer loop
      vertex -5.00834 -4.14326 0
      vertex -1.73365 -1.4342 0
      vertex -4.7383 -4.44956 0
    endloop
  endfacet
  facet normal -0 0 -1
    outer loop
      vertex -1.73365 -1.4342 0
      vertex -5.00834 -4.14326 0
      vertex -1.82029 -1.32252 0
    endloop
  endfacet
  facet normal -0 0 -1
    outer loop
      vertex -1.82029 -1.32252 0
      vertex -5.25861 -3.8206 0
      vertex -1.89974 -1.20561 0
    endloop
  endfacet
  facet normal 0 0 -1
    outer loop
      vertex -5.25861 -3.8206 0
      vertex -1.82029 -1.32252 0
      vertex -5.00834 -4.14326 0
    endloop
  endfacet
  facet normal 0 0 -1
    outer loop
      vertex 0 2.25 0
      vertex 6.04355 2.39281 0
      vertex 6.09496 2.25 0
    endloop
  endfacet
  facet normal -0 0 -1
    outer loop
      vertex 6.04355 2.39281 0
      vertex 0 2.25 0
      vertex 5.88138 2.76756 0
    endloop
  endfacet
  facet normal -0 0 -1
    outer loop
      vertex 5.88138 2.76756 0
      vertex 0 2.25 0
      vertex 5.69599 3.1314 0
    endloop
  endfacet
  facet normal -0 0 -1
    outer loop
      vertex 5.69599 3.1314 0
      vertex 0 2.25 0
      vertex 5.48813 3.48287 0
    endloop
  endfacet
  facet normal -0 0 -1
    outer loop
      vertex 5.48813 3.48287 0
      vertex 0 2.25 0
      vertex 5.25861 3.8206 0
    endloop
  endfacet
  facet normal -0 0 -1
    outer loop
      vertex 5.25861 3.8206 0
      vertex 0 2.25 0
      vertex 5.00834 4.14326 0
    endloop
  endfacet
  facet normal -0 0 -1
    outer loop
      vertex 5.00834 4.14326 0
      vertex 0 2.25 0
      vertex 4.7383 4.44956 0
    endloop
  endfacet
  facet normal -0 0 -1
    outer loop
      vertex 4.7383 4.44956 0
      vertex 0 2.25 0
      vertex 4.44956 4.7383 0
    endloop
  endfacet
  facet normal -0 0 -1
    outer loop
      vertex 4.44956 4.7383 0
      vertex 0 2.25 0
      vertex 4.14326 5.00834 0
    endloop
  endfacet
  facet normal -0 0 -1
    outer loop
      vertex 4.14326 5.00834 0
      vertex 0 2.25 0
      vertex 3.8206 5.25861 0
    endloop
  endfacet
  facet normal -0 0 -1
    outer loop
      vertex 3.8206 5.25861 0
      vertex 0 2.25 0
      vertex 3.48287 5.48813 0
    endloop
  endfacet
  facet normal -0 0 -1
    outer loop
      vertex 3.48287 5.48813 0
      vertex 0 2.25 0
      vertex 3.1314 5.69599 0
    endloop
  endfacet
  facet normal -0 0 -1
    outer loop
      vertex 3.1314 5.69599 0
      vertex 0 2.25 0
      vertex 2.76756 5.88138 0
    endloop
  endfacet
  facet normal -0 0 -1
    outer loop
      vertex 2.76756 5.88138 0
      vertex 0 2.25 0
      vertex 2.39281 6.04355 0
    endloop
  endfacet
  facet normal -0 0 -1
    outer loop
      vertex 2.39281 6.04355 0
      vertex 0 2.25 0
      vertex 2.00861 6.18187 0
    endloop
  endfacet
  facet normal -0 0 -1
    outer loop
      vertex 2.00861 6.18187 0
      vertex 0 2.25 0
      vertex 1.61648 6.29579 0
    endloop
  endfacet
  facet normal -0 0 -1
    outer loop
      vertex 1.61648 6.29579 0
      vertex 0 2.25 0
      vertex 1.21798 6.38487 0
    endloop
  endfacet
  facet normal -0 0 -1
    outer loop
      vertex 1.21798 6.38487 0
      vertex 0 2.25 0
      vertex 0.814666 6.44874 0
    endloop
  endfacet
  facet normal -0 0 -1
    outer loop
      vertex 0.814666 6.44874 0
      vertex 0 2.25 0
      vertex 0.408138 6.48717 0
    endloop
  endfacet
  facet normal 0 0 -1
    outer loop
      vertex 0 2.25 0
      vertex 0 6.5 0
      vertex 0.408138 6.48717 0
    endloop
  endfacet
  facet normal 0 0 -1
    outer loop
      vertex -0.141278 2.24556 0
      vertex 0 6.5 0
      vertex 0 2.25 0
    endloop
  endfacet
  facet normal 0 0 -1
    outer loop
      vertex -0.408138 6.48717 0
      vertex -0.141278 2.24556 0
      vertex -0.282 2.23226 0
    endloop
  endfacet
  facet normal 0 0 -1
    outer loop
      vertex -0.141278 2.24556 0
      vertex -0.408138 6.48717 0
      vertex 0 6.5 0
    endloop
  endfacet
  facet normal 0 0 -1
    outer loop
      vertex -0.814666 6.44874 0
      vertex -0.282 2.23226 0
      vertex -0.421607 2.21015 0
    endloop
  endfacet
  facet normal 0 0 -1
    outer loop
      vertex -1.21798 6.38487 0
      vertex -0.421607 2.21015 0
      vertex -0.559552 2.17931 0
    endloop
  endfacet
  facet normal 0 0 -1
    outer loop
      vertex -1.61648 6.29579 0
      vertex -0.559552 2.17931 0
      vertex -0.695288 2.13988 0
    endloop
  endfacet
  facet normal 0 0 -1
    outer loop
      vertex -0.282 2.23226 0
      vertex -0.814666 6.44874 0
      vertex -0.408138 6.48717 0
    endloop
  endfacet
  facet normal 0 0 -1
    outer loop
      vertex -2.00861 6.18187 0
      vertex -0.695288 2.13988 0
      vertex -0.828279 2.092 0
    endloop
  endfacet
  facet normal 0 0 -1
    outer loop
      vertex -2.39281 6.04355 0
      vertex -0.828279 2.092 0
      vertex -0.958003 2.03586 0
    endloop
  endfacet
  facet normal 0 0 -1
    outer loop
      vertex -2.76756 5.88138 0
      vertex -0.958003 2.03586 0
      vertex -1.08395 1.97169 0
    endloop
  endfacet
  facet normal 0 0 -1
    outer loop
      vertex -3.1314 5.69599 0
      vertex -1.08395 1.97169 0
      vertex -1.20561 1.89974 0
    endloop
  endfacet
  facet normal 0 0 -1
    outer loop
      vertex -0.421607 2.21015 0
      vertex -1.21798 6.38487 0
      vertex -0.814666 6.44874 0
    endloop
  endfacet
  facet normal 0 0 -1
    outer loop
      vertex -3.48287 5.48813 0
      vertex -1.20561 1.89974 0
      vertex -1.32252 1.82029 0
    endloop
  endfacet
  facet normal 0 0 -1
    outer loop
      vertex -3.8206 5.25861 0
      vertex -1.32252 1.82029 0
      vertex -1.4342 1.73365 0
    endloop
  endfacet
  facet normal 0 0 -1
    outer loop
      vertex -4.14326 5.00834 0
      vertex -1.4342 1.73365 0
      vertex -1.54023 1.64018 0
    endloop
  endfacet
  facet normal 0 0 -1
    outer loop
      vertex -0.559552 2.17931 0
      vertex -1.61648 6.29579 0
      vertex -1.21798 6.38487 0
    endloop
  endfacet
  facet normal 0 0 -1
    outer loop
      vertex -4.44956 4.7383 0
      vertex -1.54023 1.64018 0
      vertex -1.64018 1.54023 0
    endloop
  endfacet
  facet normal 0 0 -1
    outer loop
      vertex -4.7383 4.44956 0
      vertex -1.64018 1.54023 0
      vertex -1.73365 1.4342 0
    endloop
  endfacet
  facet normal 0 0 -1
    outer loop
      vertex -5.00834 4.14326 0
      vertex -1.73365 1.4342 0
      vertex -1.82029 1.32252 0
    endloop
  endfacet
  facet normal 0 0 -1
    outer loop
      vertex -5.25861 3.8206 0
      vertex -1.82029 1.32252 0
      vertex -1.89974 1.20561 0
    endloop
  endfacet
  facet normal 0 0 -1
    outer loop
      vertex -5.48813 3.48287 0
      vertex -1.89974 1.20561 0
      vertex -1.97169 1.08395 0
    endloop
  endfacet
  facet normal 0 0 -1
    outer loop
      vertex -0.695288 2.13988 0
      vertex -2.00861 6.18187 0
      vertex -1.61648 6.29579 0
    endloop
  endfacet
  facet normal 0 0 -1
    outer loop
      vertex -5.69599 3.1314 0
      vertex -1.97169 1.08395 0
      vertex -2.03586 0.958003 0
    endloop
  endfacet
  facet normal 0 0 -1
    outer loop
      vertex -5.88138 2.76756 0
      vertex -2.03586 0.958003 0
      vertex -2.092 0.828279 0
    endloop
  endfacet
  facet normal 0 0 -1
    outer loop
      vertex -6.04355 2.39281 0
      vertex -2.092 0.828279 0
      vertex -2.13988 0.695288 0
    endloop
  endfacet
  facet normal 0 0 -1
    outer loop
      vertex -6.18187 2.00861 0
      vertex -2.13988 0.695288 0
      vertex -2.17931 0.559552 0
    endloop
  endfacet
  facet normal 0 0 -1
    outer loop
      vertex -6.29579 1.61648 0
      vertex -2.17931 0.559552 0
      vertex -2.21015 0.421607 0
    endloop
  endfacet
  facet normal 0 0 -1
    outer loop
      vertex -6.38487 1.21798 0
      vertex -2.21015 0.421607 0
      vertex -2.23226 0.282 0
    endloop
  endfacet
  facet normal 0 0 -1
    outer loop
      vertex -6.44874 0.814666 0
      vertex -2.23226 0.282 0
      vertex -2.24556 0.141278 0
    endloop
  endfacet
  facet normal 0 0 -1
    outer loop
      vertex -0.828279 2.092 0
      vertex -2.39281 6.04355 0
      vertex -2.00861 6.18187 0
    endloop
  endfacet
  facet normal 0 0 -1
    outer loop
      vertex -6.48717 0.408138 0
      vertex -2.24556 0.141278 0
      vertex -2.25 0 0
    endloop
  endfacet
  facet normal 0 0 -1
    outer loop
      vertex -5.48813 -3.48287 0
      vertex -1.89974 -1.20561 0
      vertex -5.25861 -3.8206 0
    endloop
  endfacet
  facet normal -0 0 -1
    outer loop
      vertex -1.89974 -1.20561 0
      vertex -5.48813 -3.48287 0
      vertex -1.97169 -1.08395 0
    endloop
  endfacet
  facet normal 0 0 -1
    outer loop
      vertex -0.958003 2.03586 0
      vertex -2.76756 5.88138 0
      vertex -2.39281 6.04355 0
    endloop
  endfacet
  facet normal 0 0 -1
    outer loop
      vertex -5.69599 -3.1314 0
      vertex -1.97169 -1.08395 0
      vertex -5.48813 -3.48287 0
    endloop
  endfacet
  facet normal 0 0 -1
    outer loop
      vertex -1.08395 1.97169 0
      vertex -3.1314 5.69599 0
      vertex -2.76756 5.88138 0
    endloop
  endfacet
  facet normal -0 0 -1
    outer loop
      vertex -1.97169 -1.08395 0
      vertex -5.69599 -3.1314 0
      vertex -2.03586 -0.958003 0
    endloop
  endfacet
  facet normal 0 0 -1
    outer loop
      vertex -1.20561 1.89974 0
      vertex -3.48287 5.48813 0
      vertex -3.1314 5.69599 0
    endloop
  endfacet
  facet normal 0 0 -1
    outer loop
      vertex -5.88138 -2.76756 0
      vertex -2.03586 -0.958003 0
      vertex -5.69599 -3.1314 0
    endloop
  endfacet
  facet normal 0 0 -1
    outer loop
      vertex -1.32252 1.82029 0
      vertex -3.8206 5.25861 0
      vertex -3.48287 5.48813 0
    endloop
  endfacet
  facet normal -0 0 -1
    outer loop
      vertex -2.03586 -0.958003 0
      vertex -5.88138 -2.76756 0
      vertex -2.092 -0.828279 0
    endloop
  endfacet
  facet normal 0 0 -1
    outer loop
      vertex -1.4342 1.73365 0
      vertex -4.14326 5.00834 0
      vertex -3.8206 5.25861 0
    endloop
  endfacet
  facet normal 0 0 -1
    outer loop
      vertex -6.04355 -2.39281 0
      vertex -2.092 -0.828279 0
      vertex -5.88138 -2.76756 0
    endloop
  endfacet
  facet normal 0 0 -1
    outer loop
      vertex -1.54023 1.64018 0
      vertex -4.44956 4.7383 0
      vertex -4.14326 5.00834 0
    endloop
  endfacet
  facet normal -0 0 -1
    outer loop
      vertex -2.092 -0.828279 0
      vertex -6.04355 -2.39281 0
      vertex -2.13988 -0.695288 0
    endloop
  endfacet
  facet normal 0 0 -1
    outer loop
      vertex -1.64018 1.54023 0
      vertex -4.7383 4.44956 0
      vertex -4.44956 4.7383 0
    endloop
  endfacet
  facet normal 0 0 -1
    outer loop
      vertex -6.18187 -2.00861 0
      vertex -2.13988 -0.695288 0
      vertex -6.04355 -2.39281 0
    endloop
  endfacet
  facet normal 0 0 -1
    outer loop
      vertex -1.73365 1.4342 0
      vertex -5.00834 4.14326 0
      vertex -4.7383 4.44956 0
    endloop
  endfacet
  facet normal -0 0 -1
    outer loop
      vertex -2.13988 -0.695288 0
      vertex -6.18187 -2.00861 0
      vertex -2.17931 -0.559552 0
    endloop
  endfacet
  facet normal 0 0 -1
    outer loop
      vertex -1.82029 1.32252 0
      vertex -5.25861 3.8206 0
      vertex -5.00834 4.14326 0
    endloop
  endfacet
  facet normal 0 0 -1
    outer loop
      vertex -6.29579 -1.61648 0
      vertex -2.17931 -0.559552 0
      vertex -6.18187 -2.00861 0
    endloop
  endfacet
  facet normal 0 0 -1
    outer loop
      vertex -1.89974 1.20561 0
      vertex -5.48813 3.48287 0
      vertex -5.25861 3.8206 0
    endloop
  endfacet
  facet normal -0 0 -1
    outer loop
      vertex -2.17931 -0.559552 0
      vertex -6.29579 -1.61648 0
      vertex -2.21015 -0.421607 0
    endloop
  endfacet
  facet normal 0 0 -1
    outer loop
      vertex -1.97169 1.08395 0
      vertex -5.69599 3.1314 0
      vertex -5.48813 3.48287 0
    endloop
  endfacet
  facet normal 0 0 -1
    outer loop
      vertex -6.38487 -1.21798 0
      vertex -2.21015 -0.421607 0
      vertex -6.29579 -1.61648 0
    endloop
  endfacet
  facet normal 0 0 -1
    outer loop
      vertex -2.03586 0.958003 0
      vertex -5.88138 2.76756 0
      vertex -5.69599 3.1314 0
    endloop
  endfacet
  facet normal -0 0 -1
    outer loop
      vertex -2.21015 -0.421607 0
      vertex -6.38487 -1.21798 0
      vertex -2.23226 -0.282 0
    endloop
  endfacet
  facet normal 0 0 -1
    outer loop
      vertex -2.092 0.828279 0
      vertex -6.04355 2.39281 0
      vertex -5.88138 2.76756 0
    endloop
  endfacet
  facet normal 0 0 -1
    outer loop
      vertex -6.44874 -0.814666 0
      vertex -2.23226 -0.282 0
      vertex -6.38487 -1.21798 0
    endloop
  endfacet
  facet normal 0 0 -1
    outer loop
      vertex -2.13988 0.695288 0
      vertex -6.18187 2.00861 0
      vertex -6.04355 2.39281 0
    endloop
  endfacet
  facet normal -0 0 -1
    outer loop
      vertex -2.23226 -0.282 0
      vertex -6.44874 -0.814666 0
      vertex -2.24556 -0.141278 0
    endloop
  endfacet
  facet normal 0 0 -1
    outer loop
      vertex -2.17931 0.559552 0
      vertex -6.29579 1.61648 0
      vertex -6.18187 2.00861 0
    endloop
  endfacet
  facet normal 0 0 -1
    outer loop
      vertex -6.48717 -0.408138 0
      vertex -2.24556 -0.141278 0
      vertex -6.44874 -0.814666 0
    endloop
  endfacet
  facet normal 0 0 -1
    outer loop
      vertex -2.21015 0.421607 0
      vertex -6.38487 1.21798 0
      vertex -6.29579 1.61648 0
    endloop
  endfacet
  facet normal -0 0 -1
    outer loop
      vertex -2.24556 -0.141278 0
      vertex -6.48717 -0.408138 0
      vertex -2.25 0 0
    endloop
  endfacet
  facet normal 0 0 -1
    outer loop
      vertex -2.23226 0.282 0
      vertex -6.44874 0.814666 0
      vertex -6.38487 1.21798 0
    endloop
  endfacet
  facet normal 0 0 -1
    outer loop
      vertex -6.5 0 0
      vertex -2.25 0 0
      vertex -6.48717 -0.408138 0
    endloop
  endfacet
  facet normal 0 0 -1
    outer loop
      vertex -2.24556 0.141278 0
      vertex -6.48717 0.408138 0
      vertex -6.44874 0.814666 0
    endloop
  endfacet
  facet normal 0 0 -1
    outer loop
      vertex -2.25 0 0
      vertex -6.5 0 0
      vertex -6.48717 0.408138 0
    endloop
  endfacet
  facet normal 0.82708 0.562084 0
    outer loop
      vertex 5.48813 3.48287 1.5
      vertex 5.25861 3.8206 0
      vertex 5.25861 3.8206 1.5
    endloop
  endfacet
  facet normal 0.82708 0.562084 0
    outer loop
      vertex 5.25861 3.8206 0
      vertex 5.48813 3.48287 1.5
      vertex 5.48813 3.48287 0
    endloop
  endfacet
  facet normal 0.790156 0.612906 0
    outer loop
      vertex 5.25861 3.8206 1.5
      vertex 5.00834 4.14326 0
      vertex 5.00834 4.14326 1.5
    endloop
  endfacet
  facet normal 0.790156 0.612906 0
    outer loop
      vertex 5.00834 4.14326 0
      vertex 5.25861 3.8206 1.5
      vertex 5.25861 3.8206 0
    endloop
  endfacet
  facet normal 0.860742 0.509041 0
    outer loop
      vertex 5.69599 3.1314 1.5
      vertex 5.48813 3.48287 0
      vertex 5.48813 3.48287 1.5
    endloop
  endfacet
  facet normal 0.860742 0.509041 0
    outer loop
      vertex 5.48813 3.48287 0
      vertex 5.69599 3.1314 1.5
      vertex 5.69599 3.1314 0
    endloop
  endfacet
  facet normal 0.218144 0.975916 -0
    outer loop
      vertex 1.61648 6.29579 0
      vertex 1.21798 6.38487 1.5
      vertex 1.61648 6.29579 1.5
    endloop
  endfacet
  facet normal 0.218144 0.975916 0
    outer loop
      vertex 1.21798 6.38487 1.5
      vertex 1.61648 6.29579 0
      vertex 1.21798 6.38487 0
    endloop
  endfacet
  facet normal 0.338737 0.940881 -0
    outer loop
      vertex 2.39281 6.04355 0
      vertex 2.00861 6.18187 1.5
      vertex 2.39281 6.04355 1.5
    endloop
  endfacet
  facet normal 0.338737 0.940881 0
    outer loop
      vertex 2.00861 6.18187 1.5
      vertex 2.39281 6.04355 0
      vertex 2.00861 6.18187 0
    endloop
  endfacet
  facet normal 0.661313 0.75011 -0
    outer loop
      vertex 4.44956 4.7383 0
      vertex 4.14326 5.00834 1.5
      vertex 4.44956 4.7383 1.5
    endloop
  endfacet
  facet normal 0.661313 0.75011 0
    outer loop
      vertex 4.14326 5.00834 1.5
      vertex 4.44956 4.7383 0
      vertex 4.14326 5.00834 0
    endloop
  endfacet
  facet normal -0.975916 0.218144 0
    outer loop
      vertex -6.38487 1.21798 0
      vertex -6.29579 1.61648 1.5
      vertex -6.29579 1.61648 0
    endloop
  endfacet
  facet normal -0.975916 0.218144 0
    outer loop
      vertex -6.29579 1.61648 1.5
      vertex -6.38487 1.21798 0
      vertex -6.38487 1.21798 1.5
    endloop
  endfacet
  facet normal -0.790156 0.612906 0
    outer loop
      vertex -5.25861 3.8206 0
      vertex -5.00834 4.14326 1.5
      vertex -5.00834 4.14326 0
    endloop
  endfacet
  facet normal -0.790156 0.612906 0
    outer loop
      vertex -5.00834 4.14326 1.5
      vertex -5.25861 3.8206 0
      vertex -5.25861 3.8206 1.5
    endloop
  endfacet
  facet normal -0.82708 0.562084 0
    outer loop
      vertex -5.48813 3.48287 0
      vertex -5.25861 3.8206 1.5
      vertex -5.25861 3.8206 0
    endloop
  endfacet
  facet normal -0.82708 0.562084 0
    outer loop
      vertex -5.25861 3.8206 1.5
      vertex -5.48813 3.48287 0
      vertex -5.48813 3.48287 1.5
    endloop
  endfacet
  facet normal 0 0 1
    outer loop
      vertex 0 2.25 1.5
      vertex 6.04355 2.39281 1.5
      vertex 5.88138 2.76756 1.5
    endloop
  endfacet
  facet normal 0 0 1
    outer loop
      vertex 0 2.25 1.5
      vertex 5.88138 2.76756 1.5
      vertex 5.69599 3.1314 1.5
    endloop
  endfacet
  facet normal 0 0 1
    outer loop
      vertex 0 2.25 1.5
      vertex 5.69599 3.1314 1.5
      vertex 5.48813 3.48287 1.5
    endloop
  endfacet
  facet normal 0 0 1
    outer loop
      vertex 0 2.25 1.5
      vertex 5.48813 3.48287 1.5
      vertex 5.25861 3.8206 1.5
    endloop
  endfacet
  facet normal 0 0 1
    outer loop
      vertex 0 2.25 1.5
      vertex 5.25861 3.8206 1.5
      vertex 5.00834 4.14326 1.5
    endloop
  endfacet
  facet normal 0 0 1
    outer loop
      vertex 0 2.25 1.5
      vertex 5.00834 4.14326 1.5
      vertex 4.7383 4.44956 1.5
    endloop
  endfacet
  facet normal 0 0 1
    outer loop
      vertex 0 2.25 1.5
      vertex 4.7383 4.44956 1.5
      vertex 4.44956 4.7383 1.5
    endloop
  endfacet
  facet normal 0 0 1
    outer loop
      vertex 0 2.25 1.5
      vertex 4.44956 4.7383 1.5
      vertex 4.14326 5.00834 1.5
    endloop
  endfacet
  facet normal 0 0 1
    outer loop
      vertex 0 2.25 1.5
      vertex 4.14326 5.00834 1.5
      vertex 3.8206 5.25861 1.5
    endloop
  endfacet
  facet normal 0 0 1
    outer loop
      vertex 0 2.25 1.5
      vertex 3.8206 5.25861 1.5
      vertex 3.48287 5.48813 1.5
    endloop
  endfacet
  facet normal 0 0 1
    outer loop
      vertex 0 2.25 1.5
      vertex 3.48287 5.48813 1.5
      vertex 3.1314 5.69599 1.5
    endloop
  endfacet
  facet normal 0 0 1
    outer loop
      vertex 0 2.25 1.5
      vertex 3.1314 5.69599 1.5
      vertex 2.76756 5.88138 1.5
    endloop
  endfacet
  facet normal 0 0 1
    outer loop
      vertex 0 2.25 1.5
      vertex 2.76756 5.88138 1.5
      vertex 2.39281 6.04355 1.5
    endloop
  endfacet
  facet normal 0 0 1
    outer loop
      vertex 0 2.25 1.5
      vertex 2.39281 6.04355 1.5
      vertex 2.00861 6.18187 1.5
    endloop
  endfacet
  facet normal 0 0 1
    outer loop
      vertex 0 2.25 1.5
      vertex 2.00861 6.18187 1.5
      vertex 1.61648 6.29579 1.5
    endloop
  endfacet
  facet normal 0 0 1
    outer loop
      vertex 0 2.25 1.5
      vertex 1.61648 6.29579 1.5
      vertex 1.21798 6.38487 1.5
    endloop
  endfacet
  facet normal 0 0 1
    outer loop
      vertex 0 2.25 1.5
      vertex 1.21798 6.38487 1.5
      vertex 0.814666 6.44874 1.5
    endloop
  endfacet
  facet normal 0 0 1
    outer loop
      vertex 0 2.25 1.5
      vertex 0.814666 6.44874 1.5
      vertex 0.408138 6.48717 1.5
    endloop
  endfacet
  facet normal 0 0 1
    outer loop
      vertex 0 2.25 1.5
      vertex 0.408138 6.48717 1.5
      vertex 0 6.5 1.5
    endloop
  endfacet
  facet normal 0 0 1
    outer loop
      vertex 6.04355 2.39281 1.5
      vertex 0 2.25 1.5
      vertex 6.09496 2.25 1.5
    endloop
  endfacet
  facet normal 0 0 1
    outer loop
      vertex 0 6.5 1.5
      vertex -0.141278 2.24556 1.5
      vertex 0 2.25 1.5
    endloop
  endfacet
  facet normal -0 0 1
    outer loop
      vertex -0.408138 6.48717 1.5
      vertex -0.141278 2.24556 1.5
      vertex 0 6.5 1.5
    endloop
  endfacet
  facet normal 0 0 1
    outer loop
      vertex -0.141278 2.24556 1.5
      vertex -0.408138 6.48717 1.5
      vertex -0.282 2.23226 1.5
    endloop
  endfacet
  facet normal -0 0 1
    outer loop
      vertex -0.814666 6.44874 1.5
      vertex -0.282 2.23226 1.5
      vertex -0.408138 6.48717 1.5
    endloop
  endfacet
  facet normal 0 0 1
    outer loop
      vertex -0.282 2.23226 1.5
      vertex -0.814666 6.44874 1.5
      vertex -0.421607 2.21015 1.5
    endloop
  endfacet
  facet normal -0 0 1
    outer loop
      vertex -1.21798 6.38487 1.5
      vertex -0.421607 2.21015 1.5
      vertex -0.814666 6.44874 1.5
    endloop
  endfacet
  facet normal 0 0 1
    outer loop
      vertex -0.421607 2.21015 1.5
      vertex -1.21798 6.38487 1.5
      vertex -0.559552 2.17931 1.5
    endloop
  endfacet
  facet normal -0 0 1
    outer loop
      vertex -1.61648 6.29579 1.5
      vertex -0.559552 2.17931 1.5
      vertex -1.21798 6.38487 1.5
    endloop
  endfacet
  facet normal 0 0 1
    outer loop
      vertex -0.559552 2.17931 1.5
      vertex -1.61648 6.29579 1.5
      vertex -0.695288 2.13988 1.5
    endloop
  endfacet
  facet normal -0 0 1
    outer loop
      vertex -2.00861 6.18187 1.5
      vertex -0.695288 2.13988 1.5
      vertex -1.61648 6.29579 1.5
    endloop
  endfacet
  facet normal 0 0 1
    outer loop
      vertex -0.695288 2.13988 1.5
      vertex -2.00861 6.18187 1.5
      vertex -0.828279 2.092 1.5
    endloop
  endfacet
  facet normal -0 0 1
    outer loop
      vertex -2.39281 6.04355 1.5
      vertex -0.828279 2.092 1.5
      vertex -2.00861 6.18187 1.5
    endloop
  endfacet
  facet normal 0 0 1
    outer loop
      vertex -0.828279 2.092 1.5
      vertex -2.39281 6.04355 1.5
      vertex -0.958003 2.03586 1.5
    endloop
  endfacet
  facet normal -0 0 1
    outer loop
      vertex -2.76756 5.88138 1.5
      vertex -0.958003 2.03586 1.5
      vertex -2.39281 6.04355 1.5
    endloop
  endfacet
  facet normal 0 0 1
    outer loop
      vertex -0.958003 2.03586 1.5
      vertex -2.76756 5.88138 1.5
      vertex -1.08395 1.97169 1.5
    endloop
  endfacet
  facet normal -0 0 1
    outer loop
      vertex -3.1314 5.69599 1.5
      vertex -1.08395 1.97169 1.5
      vertex -2.76756 5.88138 1.5
    endloop
  endfacet
  facet normal 0 0 1
    outer loop
      vertex -1.08395 1.97169 1.5
      vertex -3.1314 5.69599 1.5
      vertex -1.20561 1.89974 1.5
    endloop
  endfacet
  facet normal -0 0 1
    outer loop
      vertex -3.48287 5.48813 1.5
      vertex -1.20561 1.89974 1.5
      vertex -3.1314 5.69599 1.5
    endloop
  endfacet
  facet normal 0 0 1
    outer loop
      vertex -1.20561 1.89974 1.5
      vertex -3.48287 5.48813 1.5
      vertex -1.32252 1.82029 1.5
    endloop
  endfacet
  facet normal -0 0 1
    outer loop
      vertex -3.8206 5.25861 1.5
      vertex -1.32252 1.82029 1.5
      vertex -3.48287 5.48813 1.5
    endloop
  endfacet
  facet normal 0 0 1
    outer loop
      vertex -1.32252 1.82029 1.5
      vertex -3.8206 5.25861 1.5
      vertex -1.4342 1.73365 1.5
    endloop
  endfacet
  facet normal -0 0 1
    outer loop
      vertex -4.14326 5.00834 1.5
      vertex -1.4342 1.73365 1.5
      vertex -3.8206 5.25861 1.5
    endloop
  endfacet
  facet normal 0 0 1
    outer loop
      vertex -1.4342 1.73365 1.5
      vertex -4.14326 5.00834 1.5
      vertex -1.54023 1.64018 1.5
    endloop
  endfacet
  facet normal -0 0 1
    outer loop
      vertex -4.44956 4.7383 1.5
      vertex -1.54023 1.64018 1.5
      vertex -4.14326 5.00834 1.5
    endloop
  endfacet
  facet normal 0 0 1
    outer loop
      vertex -1.54023 1.64018 1.5
      vertex -4.44956 4.7383 1.5
      vertex -1.64018 1.54023 1.5
    endloop
  endfacet
  facet normal -0 0 1
    outer loop
      vertex -4.7383 4.44956 1.5
      vertex -1.64018 1.54023 1.5
      vertex -4.44956 4.7383 1.5
    endloop
  endfacet
  facet normal 0 0 1
    outer loop
      vertex -1.64018 1.54023 1.5
      vertex -4.7383 4.44956 1.5
      vertex -1.73365 1.4342 1.5
    endloop
  endfacet
  facet normal -0 0 1
    outer loop
      vertex -5.00834 4.14326 1.5
      vertex -1.73365 1.4342 1.5
      vertex -4.7383 4.44956 1.5
    endloop
  endfacet
  facet normal 0 0 1
    outer loop
      vertex -1.73365 1.4342 1.5
      vertex -5.00834 4.14326 1.5
      vertex -1.82029 1.32252 1.5
    endloop
  endfacet
  facet normal 0 0 1
    outer loop
      vertex -1.82029 1.32252 1.5
      vertex -5.25861 3.8206 1.5
      vertex -1.89974 1.20561 1.5
    endloop
  endfacet
  facet normal -0 0 1
    outer loop
      vertex -5.25861 3.8206 1.5
      vertex -1.82029 1.32252 1.5
      vertex -5.00834 4.14326 1.5
    endloop
  endfacet
  facet normal -0 0 1
    outer loop
      vertex 0 -2.25 1.5
      vertex 6.04355 -2.39281 1.5
      vertex 6.09496 -2.25 1.5
    endloop
  endfacet
  facet normal 0 0 1
    outer loop
      vertex 6.04355 -2.39281 1.5
      vertex 0 -2.25 1.5
      vertex 5.88138 -2.76756 1.5
    endloop
  endfacet
  facet normal 0 0 1
    outer loop
      vertex 5.88138 -2.76756 1.5
      vertex 0 -2.25 1.5
      vertex 5.69599 -3.1314 1.5
    endloop
  endfacet
  facet normal 0 0 1
    outer loop
      vertex 5.69599 -3.1314 1.5
      vertex 0 -2.25 1.5
      vertex 5.48813 -3.48287 1.5
    endloop
  endfacet
  facet normal 0 0 1
    outer loop
      vertex 5.48813 -3.48287 1.5
      vertex 0 -2.25 1.5
      vertex 5.25861 -3.8206 1.5
    endloop
  endfacet
  facet normal 0 0 1
    outer loop
      vertex 5.25861 -3.8206 1.5
      vertex 0 -2.25 1.5
      vertex 5.00834 -4.14326 1.5
    endloop
  endfacet
  facet normal 0 0 1
    outer loop
      vertex 5.00834 -4.14326 1.5
      vertex 0 -2.25 1.5
      vertex 4.7383 -4.44956 1.5
    endloop
  endfacet
  facet normal 0 0 1
    outer loop
      vertex 4.7383 -4.44956 1.5
      vertex 0 -2.25 1.5
      vertex 4.44956 -4.7383 1.5
    endloop
  endfacet
  facet normal 0 0 1
    outer loop
      vertex 4.44956 -4.7383 1.5
      vertex 0 -2.25 1.5
      vertex 4.14326 -5.00834 1.5
    endloop
  endfacet
  facet normal 0 0 1
    outer loop
      vertex 4.14326 -5.00834 1.5
      vertex 0 -2.25 1.5
      vertex 3.8206 -5.25861 1.5
    endloop
  endfacet
  facet normal 0 0 1
    outer loop
      vertex 3.8206 -5.25861 1.5
      vertex 0 -2.25 1.5
      vertex 3.48287 -5.48813 1.5
    endloop
  endfacet
  facet normal 0 0 1
    outer loop
      vertex 3.48287 -5.48813 1.5
      vertex 0 -2.25 1.5
      vertex 3.1314 -5.69599 1.5
    endloop
  endfacet
  facet normal 0 0 1
    outer loop
      vertex 3.1314 -5.69599 1.5
      vertex 0 -2.25 1.5
      vertex 2.76756 -5.88138 1.5
    endloop
  endfacet
  facet normal 0 0 1
    outer loop
      vertex 2.76756 -5.88138 1.5
      vertex 0 -2.25 1.5
      vertex 2.39281 -6.04355 1.5
    endloop
  endfacet
  facet normal 0 0 1
    outer loop
      vertex 2.39281 -6.04355 1.5
      vertex 0 -2.25 1.5
      vertex 2.00861 -6.18187 1.5
    endloop
  endfacet
  facet normal 0 0 1
    outer loop
      vertex 2.00861 -6.18187 1.5
      vertex 0 -2.25 1.5
      vertex 1.61648 -6.29579 1.5
    endloop
  endfacet
  facet normal 0 0 1
    outer loop
      vertex 1.61648 -6.29579 1.5
      vertex 0 -2.25 1.5
      vertex 1.21798 -6.38487 1.5
    endloop
  endfacet
  facet normal 0 0 1
    outer loop
      vertex 1.21798 -6.38487 1.5
      vertex 0 -2.25 1.5
      vertex 0.814666 -6.44874 1.5
    endloop
  endfacet
  facet normal 0 0 1
    outer loop
      vertex 0.814666 -6.44874 1.5
      vertex 0 -2.25 1.5
      vertex 0.408138 -6.48717 1.5
    endloop
  endfacet
  facet normal 0 0 1
    outer loop
      vertex 0 -2.25 1.5
      vertex 0 -6.5 1.5
      vertex 0.408138 -6.48717 1.5
    endloop
  endfacet
  facet normal 0 0 1
    outer loop
      vertex -0.141278 -2.24556 1.5
      vertex 0 -6.5 1.5
      vertex 0 -2.25 1.5
    endloop
  endfacet
  facet normal 0 0 1
    outer loop
      vertex -0.408138 -6.48717 1.5
      vertex -0.141278 -2.24556 1.5
      vertex -0.282 -2.23226 1.5
    endloop
  endfacet
  facet normal 0 0 1
    outer loop
      vertex -0.141278 -2.24556 1.5
      vertex -0.408138 -6.48717 1.5
      vertex 0 -6.5 1.5
    endloop
  endfacet
  facet normal 0 0 1
    outer loop
      vertex -0.814666 -6.44874 1.5
      vertex -0.282 -2.23226 1.5
      vertex -0.421607 -2.21015 1.5
    endloop
  endfacet
  facet normal 0 0 1
    outer loop
      vertex -1.21798 -6.38487 1.5
      vertex -0.421607 -2.21015 1.5
      vertex -0.559552 -2.17931 1.5
    endloop
  endfacet
  facet normal 0 0 1
    outer loop
      vertex -1.61648 -6.29579 1.5
      vertex -0.559552 -2.17931 1.5
      vertex -0.695288 -2.13988 1.5
    endloop
  endfacet
  facet normal 0 0 1
    outer loop
      vertex -0.282 -2.23226 1.5
      vertex -0.814666 -6.44874 1.5
      vertex -0.408138 -6.48717 1.5
    endloop
  endfacet
  facet normal 0 0 1
    outer loop
      vertex -2.00861 -6.18187 1.5
      vertex -0.695288 -2.13988 1.5
      vertex -0.828279 -2.092 1.5
    endloop
  endfacet
  facet normal 0 0 1
    outer loop
      vertex -2.39281 -6.04355 1.5
      vertex -0.828279 -2.092 1.5
      vertex -0.958003 -2.03586 1.5
    endloop
  endfacet
  facet normal 0 0 1
    outer loop
      vertex -2.76756 -5.88138 1.5
      vertex -0.958003 -2.03586 1.5
      vertex -1.08395 -1.97169 1.5
    endloop
  endfacet
  facet normal 0 0 1
    outer loop
      vertex -3.1314 -5.69599 1.5
      vertex -1.08395 -1.97169 1.5
      vertex -1.20561 -1.89974 1.5
    endloop
  endfacet
  facet normal 0 0 1
    outer loop
      vertex -0.421607 -2.21015 1.5
      vertex -1.21798 -6.38487 1.5
      vertex -0.814666 -6.44874 1.5
    endloop
  endfacet
  facet normal 0 0 1
    outer loop
      vertex -3.48287 -5.48813 1.5
      vertex -1.20561 -1.89974 1.5
      vertex -1.32252 -1.82029 1.5
    endloop
  endfacet
  facet normal 0 0 1
    outer loop
      vertex -3.8206 -5.25861 1.5
      vertex -1.32252 -1.82029 1.5
      vertex -1.4342 -1.73365 1.5
    endloop
  endfacet
  facet normal 0 0 1
    outer loop
      vertex -4.14326 -5.00834 1.5
      vertex -1.4342 -1.73365 1.5
      vertex -1.54023 -1.64018 1.5
    endloop
  endfacet
  facet normal 0 0 1
    outer loop
      vertex -0.559552 -2.17931 1.5
      vertex -1.61648 -6.29579 1.5
      vertex -1.21798 -6.38487 1.5
    endloop
  endfacet
  facet normal 0 0 1
    outer loop
      vertex -4.44956 -4.7383 1.5
      vertex -1.54023 -1.64018 1.5
      vertex -1.64018 -1.54023 1.5
    endloop
  endfacet
  facet normal 0 0 1
    outer loop
      vertex -4.7383 -4.44956 1.5
      vertex -1.64018 -1.54023 1.5
      vertex -1.73365 -1.4342 1.5
    endloop
  endfacet
  facet normal 0 0 1
    outer loop
      vertex -5.00834 -4.14326 1.5
      vertex -1.73365 -1.4342 1.5
      vertex -1.82029 -1.32252 1.5
    endloop
  endfacet
  facet normal 0 0 1
    outer loop
      vertex -5.25861 -3.8206 1.5
      vertex -1.82029 -1.32252 1.5
      vertex -1.89974 -1.20561 1.5
    endloop
  endfacet
  facet normal 0 0 1
    outer loop
      vertex -5.48813 -3.48287 1.5
      vertex -1.89974 -1.20561 1.5
      vertex -1.97169 -1.08395 1.5
    endloop
  endfacet
  facet normal 0 0 1
    outer loop
      vertex -0.695288 -2.13988 1.5
      vertex -2.00861 -6.18187 1.5
      vertex -1.61648 -6.29579 1.5
    endloop
  endfacet
  facet normal 0 0 1
    outer loop
      vertex -5.69599 -3.1314 1.5
      vertex -1.97169 -1.08395 1.5
      vertex -2.03586 -0.958003 1.5
    endloop
  endfacet
  facet normal 0 0 1
    outer loop
      vertex -5.88138 -2.76756 1.5
      vertex -2.03586 -0.958003 1.5
      vertex -2.092 -0.828279 1.5
    endloop
  endfacet
  facet normal 0 0 1
    outer loop
      vertex -6.04355 -2.39281 1.5
      vertex -2.092 -0.828279 1.5
      vertex -2.13988 -0.695288 1.5
    endloop
  endfacet
  facet normal 0 0 1
    outer loop
      vertex -6.18187 -2.00861 1.5
      vertex -2.13988 -0.695288 1.5
      vertex -2.17931 -0.559552 1.5
    endloop
  endfacet
  facet normal 0 0 1
    outer loop
      vertex -6.29579 -1.61648 1.5
      vertex -2.17931 -0.559552 1.5
      vertex -2.21015 -0.421607 1.5
    endloop
  endfacet
  facet normal 0 0 1
    outer loop
      vertex -6.38487 -1.21798 1.5
      vertex -2.21015 -0.421607 1.5
      vertex -2.23226 -0.282 1.5
    endloop
  endfacet
  facet normal 0 0 1
    outer loop
      vertex -6.44874 -0.814666 1.5
      vertex -2.23226 -0.282 1.5
      vertex -2.24556 -0.141278 1.5
    endloop
  endfacet
  facet normal 0 0 1
    outer loop
      vertex -0.828279 -2.092 1.5
      vertex -2.39281 -6.04355 1.5
      vertex -2.00861 -6.18187 1.5
    endloop
  endfacet
  facet normal 0 0 1
    outer loop
      vertex -6.48717 -0.408138 1.5
      vertex -2.24556 -0.141278 1.5
      vertex -2.25 0 1.5
    endloop
  endfacet
  facet normal -0 0 1
    outer loop
      vertex -5.48813 3.48287 1.5
      vertex -1.89974 1.20561 1.5
      vertex -5.25861 3.8206 1.5
    endloop
  endfacet
  facet normal 0 0 1
    outer loop
      vertex -1.89974 1.20561 1.5
      vertex -5.48813 3.48287 1.5
      vertex -1.97169 1.08395 1.5
    endloop
  endfacet
  facet normal 0 0 1
    outer loop
      vertex -0.958003 -2.03586 1.5
      vertex -2.76756 -5.88138 1.5
      vertex -2.39281 -6.04355 1.5
    endloop
  endfacet
  facet normal -0 0 1
    outer loop
      vertex -5.69599 3.1314 1.5
      vertex -1.97169 1.08395 1.5
      vertex -5.48813 3.48287 1.5
    endloop
  endfacet
  facet normal 0 0 1
    outer loop
      vertex -1.08395 -1.97169 1.5
      vertex -3.1314 -5.69599 1.5
      vertex -2.76756 -5.88138 1.5
    endloop
  endfacet
  facet normal 0 0 1
    outer loop
      vertex -1.97169 1.08395 1.5
      vertex -5.69599 3.1314 1.5
      vertex -2.03586 0.958003 1.5
    endloop
  endfacet
  facet normal 0 0 1
    outer loop
      vertex -1.20561 -1.89974 1.5
      vertex -3.48287 -5.48813 1.5
      vertex -3.1314 -5.69599 1.5
    endloop
  endfacet
  facet normal -0 0 1
    outer loop
      vertex -5.88138 2.76756 1.5
      vertex -2.03586 0.958003 1.5
      vertex -5.69599 3.1314 1.5
    endloop
  endfacet
  facet normal 0 0 1
    outer loop
      vertex -1.32252 -1.82029 1.5
      vertex -3.8206 -5.25861 1.5
      vertex -3.48287 -5.48813 1.5
    endloop
  endfacet
  facet normal 0 0 1
    outer loop
      vertex -2.03586 0.958003 1.5
      vertex -5.88138 2.76756 1.5
      vertex -2.092 0.828279 1.5
    endloop
  endfacet
  facet normal 0 0 1
    outer loop
      vertex -1.4342 -1.73365 1.5
      vertex -4.14326 -5.00834 1.5
      vertex -3.8206 -5.25861 1.5
    endloop
  endfacet
  facet normal -0 0 1
    outer loop
      vertex -6.04355 2.39281 1.5
      vertex -2.092 0.828279 1.5
      vertex -5.88138 2.76756 1.5
    endloop
  endfacet
  facet normal 0 0 1
    outer loop
      vertex -1.54023 -1.64018 1.5
      vertex -4.44956 -4.7383 1.5
      vertex -4.14326 -5.00834 1.5
    endloop
  endfacet
  facet normal 0 0 1
    outer loop
      vertex -2.092 0.828279 1.5
      vertex -6.04355 2.39281 1.5
      vertex -2.13988 0.695288 1.5
    endloop
  endfacet
  facet normal 0 0 1
    outer loop
      vertex -1.64018 -1.54023 1.5
      vertex -4.7383 -4.44956 1.5
      vertex -4.44956 -4.7383 1.5
    endloop
  endfacet
  facet normal -0 0 1
    outer loop
      vertex -6.18187 2.00861 1.5
      vertex -2.13988 0.695288 1.5
      vertex -6.04355 2.39281 1.5
    endloop
  endfacet
  facet normal 0 0 1
    outer loop
      vertex -1.73365 -1.4342 1.5
      vertex -5.00834 -4.14326 1.5
      vertex -4.7383 -4.44956 1.5
    endloop
  endfacet
  facet normal 0 0 1
    outer loop
      vertex -2.13988 0.695288 1.5
      vertex -6.18187 2.00861 1.5
      vertex -2.17931 0.559552 1.5
    endloop
  endfacet
  facet normal 0 0 1
    outer loop
      vertex -1.82029 -1.32252 1.5
      vertex -5.25861 -3.8206 1.5
      vertex -5.00834 -4.14326 1.5
    endloop
  endfacet
  facet normal -0 0 1
    outer loop
      vertex -6.29579 1.61648 1.5
      vertex -2.17931 0.559552 1.5
      vertex -6.18187 2.00861 1.5
    endloop
  endfacet
  facet normal 0 0 1
    outer loop
      vertex -1.89974 -1.20561 1.5
      vertex -5.48813 -3.48287 1.5
      vertex -5.25861 -3.8206 1.5
    endloop
  endfacet
  facet normal 0 0 1
    outer loop
      vertex -2.17931 0.559552 1.5
      vertex -6.29579 1.61648 1.5
      vertex -2.21015 0.421607 1.5
    endloop
  endfacet
  facet normal 0 0 1
    outer loop
      vertex -1.97169 -1.08395 1.5
      vertex -5.69599 -3.1314 1.5
      vertex -5.48813 -3.48287 1.5
    endloop
  endfacet
  facet normal -0 0 1
    outer loop
      vertex -6.38487 1.21798 1.5
      vertex -2.21015 0.421607 1.5
      vertex -6.29579 1.61648 1.5
    endloop
  endfacet
  facet normal 0 0 1
    outer loop
      vertex -2.03586 -0.958003 1.5
      vertex -5.88138 -2.76756 1.5
      vertex -5.69599 -3.1314 1.5
    endloop
  endfacet
  facet normal 0 0 1
    outer loop
      vertex -2.21015 0.421607 1.5
      vertex -6.38487 1.21798 1.5
      vertex -2.23226 0.282 1.5
    endloop
  endfacet
  facet normal 0 0 1
    outer loop
      vertex -2.092 -0.828279 1.5
      vertex -6.04355 -2.39281 1.5
      vertex -5.88138 -2.76756 1.5
    endloop
  endfacet
  facet normal -0 0 1
    outer loop
      vertex -6.44874 0.814666 1.5
      vertex -2.23226 0.282 1.5
      vertex -6.38487 1.21798 1.5
    endloop
  endfacet
  facet normal 0 0 1
    outer loop
      vertex -2.13988 -0.695288 1.5
      vertex -6.18187 -2.00861 1.5
      vertex -6.04355 -2.39281 1.5
    endloop
  endfacet
  facet normal 0 0 1
    outer loop
      vertex -2.23226 0.282 1.5
      vertex -6.44874 0.814666 1.5
      vertex -2.24556 0.141278 1.5
    endloop
  endfacet
  facet normal 0 0 1
    outer loop
      vertex -2.17931 -0.559552 1.5
      vertex -6.29579 -1.61648 1.5
      vertex -6.18187 -2.00861 1.5
    endloop
  endfacet
  facet normal -0 0 1
    outer loop
      vertex -6.48717 0.408138 1.5
      vertex -2.24556 0.141278 1.5
      vertex -6.44874 0.814666 1.5
    endloop
  endfacet
  facet normal 0 0 1
    outer loop
      vertex -2.21015 -0.421607 1.5
      vertex -6.38487 -1.21798 1.5
      vertex -6.29579 -1.61648 1.5
    endloop
  endfacet
  facet normal 0 0 1
    outer loop
      vertex -2.24556 0.141278 1.5
      vertex -6.48717 0.408138 1.5
      vertex -2.25 0 1.5
    endloop
  endfacet
  facet normal 0 0 1
    outer loop
      vertex -2.23226 -0.282 1.5
      vertex -6.44874 -0.814666 1.5
      vertex -6.38487 -1.21798 1.5
    endloop
  endfacet
  facet normal 0 0 1
    outer loop
      vertex -6.5 0 1.5
      vertex -2.25 0 1.5
      vertex -6.48717 0.408138 1.5
    endloop
  endfacet
  facet normal 0 0 1
    outer loop
      vertex -2.24556 -0.141278 1.5
      vertex -6.48717 -0.408138 1.5
      vertex -6.44874 -0.814666 1.5
    endloop
  endfacet
  facet normal 0 0 1
    outer loop
      vertex -2.25 0 1.5
      vertex -6.5 0 1.5
      vertex -6.48717 -0.408138 1.5
    endloop
  endfacet
  facet normal -0.509041 0.860742 0
    outer loop
      vertex -3.1314 5.69599 0
      vertex -3.48287 5.48813 1.5
      vertex -3.1314 5.69599 1.5
    endloop
  endfacet
  facet normal -0.509041 0.860742 0
    outer loop
      vertex -3.48287 5.48813 1.5
      vertex -3.1314 5.69599 0
      vertex -3.48287 5.48813 0
    endloop
  endfacet
  facet normal -0.397148 0.917755 0
    outer loop
      vertex -2.39281 6.04355 0
      vertex -2.76756 5.88138 1.5
      vertex -2.39281 6.04355 1.5
    endloop
  endfacet
  facet normal -0.397148 0.917755 0
    outer loop
      vertex -2.76756 5.88138 1.5
      vertex -2.39281 6.04355 0
      vertex -2.76756 5.88138 0
    endloop
  endfacet
  facet normal -0.0314124 0.999507 0
    outer loop
      vertex 0 6.5 0
      vertex -0.408138 6.48717 1.5
      vertex 0 6.5 1.5
    endloop
  endfacet
  facet normal -0.0314124 0.999507 0
    outer loop
      vertex -0.408138 6.48717 1.5
      vertex 0 6.5 0
      vertex -0.408138 6.48717 0
    endloop
  endfacet
  facet normal 0.0314124 -0.999507 0
    outer loop
      vertex 0 -6.5 0
      vertex 0.408138 -6.48717 1.5
      vertex 0 -6.5 1.5
    endloop
  endfacet
  facet normal 0.0314124 -0.999507 0
    outer loop
      vertex 0.408138 -6.48717 1.5
      vertex 0 -6.5 0
      vertex 0.408138 -6.48717 0
    endloop
  endfacet
  facet normal 0.612906 -0.790156 0
    outer loop
      vertex 3.8206 -5.25861 0
      vertex 4.14326 -5.00834 1.5
      vertex 3.8206 -5.25861 1.5
    endloop
  endfacet
  facet normal 0.612906 -0.790156 0
    outer loop
      vertex 4.14326 -5.00834 1.5
      vertex 3.8206 -5.25861 0
      vertex 4.14326 -5.00834 0
    endloop
  endfacet
  facet normal 0.75011 -0.661313 0
    outer loop
      vertex 4.7383 -4.44956 1.5
      vertex 5.00834 -4.14326 0
      vertex 5.00834 -4.14326 1.5
    endloop
  endfacet
  facet normal 0.75011 -0.661313 0
    outer loop
      vertex 5.00834 -4.14326 0
      vertex 4.7383 -4.44956 1.5
      vertex 4.7383 -4.44956 0
    endloop
  endfacet
  facet normal -0.562084 -0.82708 0
    outer loop
      vertex -3.8206 -5.25861 0
      vertex -3.48287 -5.48813 1.5
      vertex -3.8206 -5.25861 1.5
    endloop
  endfacet
  facet normal -0.562084 -0.82708 -0
    outer loop
      vertex -3.48287 -5.48813 1.5
      vertex -3.8206 -5.25861 0
      vertex -3.48287 -5.48813 0
    endloop
  endfacet
  facet normal -0.917755 -0.397148 0
    outer loop
      vertex -5.88138 -2.76756 0
      vertex -6.04355 -2.39281 1.5
      vertex -6.04355 -2.39281 0
    endloop
  endfacet
  facet normal -0.917755 -0.397148 0
    outer loop
      vertex -6.04355 -2.39281 1.5
      vertex -5.88138 -2.76756 0
      vertex -5.88138 -2.76756 1.5
    endloop
  endfacet
  facet normal -0.999507 -0.0314124 0
    outer loop
      vertex -6.48717 -0.408138 0
      vertex -6.5 0 1.5
      vertex -6.5 0 0
    endloop
  endfacet
  facet normal -0.999507 -0.0314124 0
    outer loop
      vertex -6.5 0 1.5
      vertex -6.48717 -0.408138 0
      vertex -6.48717 -0.408138 1.5
    endloop
  endfacet
  facet normal 0.940881 0.338739 0
    outer loop
      vertex 6.09496 2.25 1.5
      vertex 6.04355 2.39281 0
      vertex 6.04355 2.39281 1.5
    endloop
  endfacet
  facet normal 0.940881 0.338739 0
    outer loop
      vertex 6.04355 2.39281 0
      vertex 6.09496 2.25 1.5
      vertex 6.09496 2.25 0
    endloop
  endfacet
  facet normal 0.75011 0.661313 0
    outer loop
      vertex 5.00834 4.14326 1.5
      vertex 4.7383 4.44956 0
      vertex 4.7383 4.44956 1.5
    endloop
  endfacet
  facet normal 0.75011 0.661313 0
    outer loop
      vertex 4.7383 4.44956 0
      vertex 5.00834 4.14326 1.5
      vertex 5.00834 4.14326 0
    endloop
  endfacet
  facet normal 0.891006 0.453991 0
    outer loop
      vertex 5.88138 2.76756 1.5
      vertex 5.69599 3.1314 0
      vertex 5.69599 3.1314 1.5
    endloop
  endfacet
  facet normal 0.891006 0.453991 0
    outer loop
      vertex 5.69599 3.1314 0
      vertex 5.88138 2.76756 1.5
      vertex 5.88138 2.76756 0
    endloop
  endfacet
  facet normal 0.278991 0.960294 -0
    outer loop
      vertex 2.00861 6.18187 0
      vertex 1.61648 6.29579 1.5
      vertex 2.00861 6.18187 1.5
    endloop
  endfacet
  facet normal 0.278991 0.960294 0
    outer loop
      vertex 1.61648 6.29579 1.5
      vertex 2.00861 6.18187 0
      vertex 1.61648 6.29579 0
    endloop
  endfacet
  facet normal 0.156434 0.987688 -0
    outer loop
      vertex 1.21798 6.38487 0
      vertex 0.814666 6.44874 1.5
      vertex 1.21798 6.38487 1.5
    endloop
  endfacet
  facet normal 0.156434 0.987688 0
    outer loop
      vertex 0.814666 6.44874 1.5
      vertex 1.21798 6.38487 0
      vertex 0.814666 6.44874 0
    endloop
  endfacet
  facet normal 0.0941087 0.995562 -0
    outer loop
      vertex 0.814666 6.44874 0
      vertex 0.408138 6.48717 1.5
      vertex 0.814666 6.44874 1.5
    endloop
  endfacet
  facet normal 0.0941087 0.995562 0
    outer loop
      vertex 0.408138 6.48717 1.5
      vertex 0.814666 6.44874 0
      vertex 0.408138 6.48717 0
    endloop
  endfacet
  facet normal 0.509041 0.860742 -0
    outer loop
      vertex 3.48287 5.48813 0
      vertex 3.1314 5.69599 1.5
      vertex 3.48287 5.48813 1.5
    endloop
  endfacet
  facet normal 0.509041 0.860742 0
    outer loop
      vertex 3.1314 5.69599 1.5
      vertex 3.48287 5.48813 0
      vertex 3.1314 5.69599 0
    endloop
  endfacet
  facet normal 0.453991 0.891006 -0
    outer loop
      vertex 3.1314 5.69599 0
      vertex 2.76756 5.88138 1.5
      vertex 3.1314 5.69599 1.5
    endloop
  endfacet
  facet normal 0.453991 0.891006 0
    outer loop
      vertex 2.76756 5.88138 1.5
      vertex 3.1314 5.69599 0
      vertex 2.76756 5.88138 0
    endloop
  endfacet
  facet normal 0.612906 0.790156 -0
    outer loop
      vertex 4.14326 5.00834 0
      vertex 3.8206 5.25861 1.5
      vertex 4.14326 5.00834 1.5
    endloop
  endfacet
  facet normal 0.612906 0.790156 0
    outer loop
      vertex 3.8206 5.25861 1.5
      vertex 4.14326 5.00834 0
      vertex 3.8206 5.25861 0
    endloop
  endfacet
  facet normal -0.75011 0.661313 0
    outer loop
      vertex -5.00834 4.14326 0
      vertex -4.7383 4.44956 1.5
      vertex -4.7383 4.44956 0
    endloop
  endfacet
  facet normal -0.75011 0.661313 0
    outer loop
      vertex -4.7383 4.44956 1.5
      vertex -5.00834 4.14326 0
      vertex -5.00834 4.14326 1.5
    endloop
  endfacet
  facet normal -0.707107 0.707107 0
    outer loop
      vertex -4.7383 4.44956 0
      vertex -4.44956 4.7383 1.5
      vertex -4.44956 4.7383 0
    endloop
  endfacet
  facet normal -0.707107 0.707107 0
    outer loop
      vertex -4.44956 4.7383 1.5
      vertex -4.7383 4.44956 0
      vertex -4.7383 4.44956 1.5
    endloop
  endfacet
  facet normal -0.860742 0.509041 0
    outer loop
      vertex -5.69599 3.1314 0
      vertex -5.48813 3.48287 1.5
      vertex -5.48813 3.48287 0
    endloop
  endfacet
  facet normal -0.860742 0.509041 0
    outer loop
      vertex -5.48813 3.48287 1.5
      vertex -5.69599 3.1314 0
      vertex -5.69599 3.1314 1.5
    endloop
  endfacet
  facet normal -0.940881 0.338737 0
    outer loop
      vertex -6.18187 2.00861 0
      vertex -6.04355 2.39281 1.5
      vertex -6.04355 2.39281 0
    endloop
  endfacet
  facet normal -0.940881 0.338737 0
    outer loop
      vertex -6.04355 2.39281 1.5
      vertex -6.18187 2.00861 0
      vertex -6.18187 2.00861 1.5
    endloop
  endfacet
  facet normal -0.917755 0.397148 0
    outer loop
      vertex -6.04355 2.39281 0
      vertex -5.88138 2.76756 1.5
      vertex -5.88138 2.76756 0
    endloop
  endfacet
  facet normal -0.917755 0.397148 0
    outer loop
      vertex -5.88138 2.76756 1.5
      vertex -6.04355 2.39281 0
      vertex -6.04355 2.39281 1.5
    endloop
  endfacet
  facet normal -0.960294 0.278991 0
    outer loop
      vertex -6.29579 1.61648 0
      vertex -6.18187 2.00861 1.5
      vertex -6.18187 2.00861 0
    endloop
  endfacet
  facet normal -0.960294 0.278991 0
    outer loop
      vertex -6.18187 2.00861 1.5
      vertex -6.29579 1.61648 0
      vertex -6.29579 1.61648 1.5
    endloop
  endfacet
  facet normal -0.987688 0.156434 0
    outer loop
      vertex -6.44874 0.814666 0
      vertex -6.38487 1.21798 1.5
      vertex -6.38487 1.21798 0
    endloop
  endfacet
  facet normal -0.987688 0.156434 0
    outer loop
      vertex -6.38487 1.21798 1.5
      vertex -6.44874 0.814666 0
      vertex -6.44874 0.814666 1.5
    endloop
  endfacet
  facet normal -0.995562 0.0941087 0
    outer loop
      vertex -6.48717 0.408138 0
      vertex -6.44874 0.814666 1.5
      vertex -6.44874 0.814666 0
    endloop
  endfacet
  facet normal -0.995562 0.0941087 0
    outer loop
      vertex -6.44874 0.814666 1.5
      vertex -6.48717 0.408138 0
      vertex -6.48717 0.408138 1.5
    endloop
  endfacet
  facet normal -0.453991 0.891006 0
    outer loop
      vertex -2.76756 5.88138 0
      vertex -3.1314 5.69599 1.5
      vertex -2.76756 5.88138 1.5
    endloop
  endfacet
  facet normal -0.453991 0.891006 0
    outer loop
      vertex -3.1314 5.69599 1.5
      vertex -2.76756 5.88138 0
      vertex -3.1314 5.69599 0
    endloop
  endfacet
  facet normal -0.562084 0.82708 0
    outer loop
      vertex -3.48287 5.48813 0
      vertex -3.8206 5.25861 1.5
      vertex -3.48287 5.48813 1.5
    endloop
  endfacet
  facet normal -0.562084 0.82708 0
    outer loop
      vertex -3.8206 5.25861 1.5
      vertex -3.48287 5.48813 0
      vertex -3.8206 5.25861 0
    endloop
  endfacet
  facet normal -0.612906 0.790156 0
    outer loop
      vertex -3.8206 5.25861 0
      vertex -4.14326 5.00834 1.5
      vertex -3.8206 5.25861 1.5
    endloop
  endfacet
  facet normal -0.612906 0.790156 0
    outer loop
      vertex -4.14326 5.00834 1.5
      vertex -3.8206 5.25861 0
      vertex -4.14326 5.00834 0
    endloop
  endfacet
  facet normal -0.218144 0.975916 0
    outer loop
      vertex -1.21798 6.38487 0
      vertex -1.61648 6.29579 1.5
      vertex -1.21798 6.38487 1.5
    endloop
  endfacet
  facet normal -0.218144 0.975916 0
    outer loop
      vertex -1.61648 6.29579 1.5
      vertex -1.21798 6.38487 0
      vertex -1.61648 6.29579 0
    endloop
  endfacet
  facet normal -0.278991 0.960294 0
    outer loop
      vertex -1.61648 6.29579 0
      vertex -2.00861 6.18187 1.5
      vertex -1.61648 6.29579 1.5
    endloop
  endfacet
  facet normal -0.278991 0.960294 0
    outer loop
      vertex -2.00861 6.18187 1.5
      vertex -1.61648 6.29579 0
      vertex -2.00861 6.18187 0
    endloop
  endfacet
  facet normal -0.0941087 0.995562 0
    outer loop
      vertex -0.408138 6.48717 0
      vertex -0.814666 6.44874 1.5
      vertex -0.408138 6.48717 1.5
    endloop
  endfacet
  facet normal -0.0941087 0.995562 0
    outer loop
      vertex -0.814666 6.44874 1.5
      vertex -0.408138 6.48717 0
      vertex -0.814666 6.44874 0
    endloop
  endfacet
  facet normal 0.0941087 -0.995562 0
    outer loop
      vertex 0.408138 -6.48717 0
      vertex 0.814666 -6.44874 1.5
      vertex 0.408138 -6.48717 1.5
    endloop
  endfacet
  facet normal 0.0941087 -0.995562 0
    outer loop
      vertex 0.814666 -6.44874 1.5
      vertex 0.408138 -6.48717 0
      vertex 0.814666 -6.44874 0
    endloop
  endfacet
  facet normal 0.338737 -0.940881 0
    outer loop
      vertex 2.00861 -6.18187 0
      vertex 2.39281 -6.04355 1.5
      vertex 2.00861 -6.18187 1.5
    endloop
  endfacet
  facet normal 0.338737 -0.940881 0
    outer loop
      vertex 2.39281 -6.04355 1.5
      vertex 2.00861 -6.18187 0
      vertex 2.39281 -6.04355 0
    endloop
  endfacet
  facet normal 0.218144 -0.975916 0
    outer loop
      vertex 1.21798 -6.38487 0
      vertex 1.61648 -6.29579 1.5
      vertex 1.21798 -6.38487 1.5
    endloop
  endfacet
  facet normal 0.218144 -0.975916 0
    outer loop
      vertex 1.61648 -6.29579 1.5
      vertex 1.21798 -6.38487 0
      vertex 1.61648 -6.29579 0
    endloop
  endfacet
  facet normal 0.661313 -0.75011 0
    outer loop
      vertex 4.14326 -5.00834 0
      vertex 4.44956 -4.7383 1.5
      vertex 4.14326 -5.00834 1.5
    endloop
  endfacet
  facet normal 0.661313 -0.75011 0
    outer loop
      vertex 4.44956 -4.7383 1.5
      vertex 4.14326 -5.00834 0
      vertex 4.44956 -4.7383 0
    endloop
  endfacet
  facet normal 0.562084 -0.82708 0
    outer loop
      vertex 3.48287 -5.48813 0
      vertex 3.8206 -5.25861 1.5
      vertex 3.48287 -5.48813 1.5
    endloop
  endfacet
  facet normal 0.562084 -0.82708 0
    outer loop
      vertex 3.8206 -5.25861 1.5
      vertex 3.48287 -5.48813 0
      vertex 3.8206 -5.25861 0
    endloop
  endfacet
  facet normal 0.453991 -0.891006 0
    outer loop
      vertex 2.76756 -5.88138 0
      vertex 3.1314 -5.69599 1.5
      vertex 2.76756 -5.88138 1.5
    endloop
  endfacet
  facet normal 0.453991 -0.891006 0
    outer loop
      vertex 3.1314 -5.69599 1.5
      vertex 2.76756 -5.88138 0
      vertex 3.1314 -5.69599 0
    endloop
  endfacet
  facet normal 0.790156 -0.612906 0
    outer loop
      vertex 5.00834 -4.14326 1.5
      vertex 5.25861 -3.8206 0
      vertex 5.25861 -3.8206 1.5
    endloop
  endfacet
  facet normal 0.790156 -0.612906 0
    outer loop
      vertex 5.25861 -3.8206 0
      vertex 5.00834 -4.14326 1.5
      vertex 5.00834 -4.14326 0
    endloop
  endfacet
  facet normal 0.860742 -0.509041 0
    outer loop
      vertex 5.48813 -3.48287 1.5
      vertex 5.69599 -3.1314 0
      vertex 5.69599 -3.1314 1.5
    endloop
  endfacet
  facet normal 0.860742 -0.509041 0
    outer loop
      vertex 5.69599 -3.1314 0
      vertex 5.48813 -3.48287 1.5
      vertex 5.48813 -3.48287 0
    endloop
  endfacet
  facet normal 0.940881 -0.338739 0
    outer loop
      vertex 6.04355 -2.39281 1.5
      vertex 6.09496 -2.25 0
      vertex 6.09496 -2.25 1.5
    endloop
  endfacet
  facet normal 0.940881 -0.338739 0
    outer loop
      vertex 6.09496 -2.25 0
      vertex 6.04355 -2.39281 1.5
      vertex 6.04355 -2.39281 0
    endloop
  endfacet
  facet normal -0.707107 -0.707107 0
    outer loop
      vertex -4.44956 -4.7383 0
      vertex -4.7383 -4.44956 1.5
      vertex -4.7383 -4.44956 0
    endloop
  endfacet
  facet normal -0.707107 -0.707107 0
    outer loop
      vertex -4.7383 -4.44956 1.5
      vertex -4.44956 -4.7383 0
      vertex -4.44956 -4.7383 1.5
    endloop
  endfacet
  facet normal -0.612906 -0.790156 0
    outer loop
      vertex -4.14326 -5.00834 0
      vertex -3.8206 -5.25861 1.5
      vertex -4.14326 -5.00834 1.5
    endloop
  endfacet
  facet normal -0.612906 -0.790156 -0
    outer loop
      vertex -3.8206 -5.25861 1.5
      vertex -4.14326 -5.00834 0
      vertex -3.8206 -5.25861 0
    endloop
  endfacet
  facet normal -0.509041 -0.860742 0
    outer loop
      vertex -3.48287 -5.48813 0
      vertex -3.1314 -5.69599 1.5
      vertex -3.48287 -5.48813 1.5
    endloop
  endfacet
  facet normal -0.509041 -0.860742 -0
    outer loop
      vertex -3.1314 -5.69599 1.5
      vertex -3.48287 -5.48813 0
      vertex -3.1314 -5.69599 0
    endloop
  endfacet
  facet normal -0.397148 -0.917755 0
    outer loop
      vertex -2.76756 -5.88138 0
      vertex -2.39281 -6.04355 1.5
      vertex -2.76756 -5.88138 1.5
    endloop
  endfacet
  facet normal -0.397148 -0.917755 -0
    outer loop
      vertex -2.39281 -6.04355 1.5
      vertex -2.76756 -5.88138 0
      vertex -2.39281 -6.04355 0
    endloop
  endfacet
  facet normal -0.278991 -0.960294 0
    outer loop
      vertex -2.00861 -6.18187 0
      vertex -1.61648 -6.29579 1.5
      vertex -2.00861 -6.18187 1.5
    endloop
  endfacet
  facet normal -0.278991 -0.960294 -0
    outer loop
      vertex -1.61648 -6.29579 1.5
      vertex -2.00861 -6.18187 0
      vertex -1.61648 -6.29579 0
    endloop
  endfacet
  facet normal -0.156434 -0.987688 0
    outer loop
      vertex -1.21798 -6.38487 0
      vertex -0.814666 -6.44874 1.5
      vertex -1.21798 -6.38487 1.5
    endloop
  endfacet
  facet normal -0.156434 -0.987688 -0
    outer loop
      vertex -0.814666 -6.44874 1.5
      vertex -1.21798 -6.38487 0
      vertex -0.814666 -6.44874 0
    endloop
  endfacet
  facet normal -0.0314124 -0.999507 0
    outer loop
      vertex -0.408138 -6.48717 0
      vertex 0 -6.5 1.5
      vertex -0.408138 -6.48717 1.5
    endloop
  endfacet
  facet normal -0.0314124 -0.999507 -0
    outer loop
      vertex 0 -6.5 1.5
      vertex -0.408138 -6.48717 0
      vertex 0 -6.5 0
    endloop
  endfacet
  facet normal -0.891006 -0.453991 0
    outer loop
      vertex -5.69599 -3.1314 0
      vertex -5.88138 -2.76756 1.5
      vertex -5.88138 -2.76756 0
    endloop
  endfacet
  facet normal -0.891006 -0.453991 0
    outer loop
      vertex -5.88138 -2.76756 1.5
      vertex -5.69599 -3.1314 0
      vertex -5.69599 -3.1314 1.5
    endloop
  endfacet
  facet normal -0.82708 -0.562084 0
    outer loop
      vertex -5.25861 -3.8206 0
      vertex -5.48813 -3.48287 1.5
      vertex -5.48813 -3.48287 0
    endloop
  endfacet
  facet normal -0.82708 -0.562084 0
    outer loop
      vertex -5.48813 -3.48287 1.5
      vertex -5.25861 -3.8206 0
      vertex -5.25861 -3.8206 1.5
    endloop
  endfacet
  facet normal -0.75011 -0.661313 0
    outer loop
      vertex -4.7383 -4.44956 0
      vertex -5.00834 -4.14326 1.5
      vertex -5.00834 -4.14326 0
    endloop
  endfacet
  facet normal -0.75011 -0.661313 0
    outer loop
      vertex -5.00834 -4.14326 1.5
      vertex -4.7383 -4.44956 0
      vertex -4.7383 -4.44956 1.5
    endloop
  endfacet
  facet normal -0.975916 -0.218144 0
    outer loop
      vertex -6.29579 -1.61648 0
      vertex -6.38487 -1.21798 1.5
      vertex -6.38487 -1.21798 0
    endloop
  endfacet
  facet normal -0.975916 -0.218144 0
    outer loop
      vertex -6.38487 -1.21798 1.5
      vertex -6.29579 -1.61648 0
      vertex -6.29579 -1.61648 1.5
    endloop
  endfacet
  facet normal -0.940881 -0.338737 0
    outer loop
      vertex -6.04355 -2.39281 0
      vertex -6.18187 -2.00861 1.5
      vertex -6.18187 -2.00861 0
    endloop
  endfacet
  facet normal -0.940881 -0.338737 0
    outer loop
      vertex -6.18187 -2.00861 1.5
      vertex -6.04355 -2.39281 0
      vertex -6.04355 -2.39281 1.5
    endloop
  endfacet
  facet normal -0.995562 -0.0941087 0
    outer loop
      vertex -6.44874 -0.814666 0
      vertex -6.48717 -0.408138 1.5
      vertex -6.48717 -0.408138 0
    endloop
  endfacet
  facet normal -0.995562 -0.0941087 0
    outer loop
      vertex -6.48717 -0.408138 1.5
      vertex -6.44874 -0.814666 0
      vertex -6.44874 -0.814666 1.5
    endloop
  endfacet
  facet normal 0.156434 -0.987688 0
    outer loop
      vertex 0.814666 -6.44874 0
      vertex 1.21798 -6.38487 1.5
      vertex 0.814666 -6.44874 1.5
    endloop
  endfacet
  facet normal 0.156434 -0.987688 0
    outer loop
      vertex 1.21798 -6.38487 1.5
      vertex 0.814666 -6.44874 0
      vertex 1.21798 -6.38487 0
    endloop
  endfacet
  facet normal 0.397148 -0.917755 0
    outer loop
      vertex 2.39281 -6.04355 0
      vertex 2.76756 -5.88138 1.5
      vertex 2.39281 -6.04355 1.5
    endloop
  endfacet
  facet normal 0.397148 -0.917755 0
    outer loop
      vertex 2.76756 -5.88138 1.5
      vertex 2.39281 -6.04355 0
      vertex 2.76756 -5.88138 0
    endloop
  endfacet
  facet normal 0.278991 -0.960294 0
    outer loop
      vertex 1.61648 -6.29579 0
      vertex 2.00861 -6.18187 1.5
      vertex 1.61648 -6.29579 1.5
    endloop
  endfacet
  facet normal 0.278991 -0.960294 0
    outer loop
      vertex 2.00861 -6.18187 1.5
      vertex 1.61648 -6.29579 0
      vertex 2.00861 -6.18187 0
    endloop
  endfacet
  facet normal 0.707107 -0.707107 0
    outer loop
      vertex 4.44956 -4.7383 1.5
      vertex 4.7383 -4.44956 0
      vertex 4.7383 -4.44956 1.5
    endloop
  endfacet
  facet normal 0.707107 -0.707107 0
    outer loop
      vertex 4.7383 -4.44956 0
      vertex 4.44956 -4.7383 1.5
      vertex 4.44956 -4.7383 0
    endloop
  endfacet
  facet normal 0.509041 -0.860742 0
    outer loop
      vertex 3.1314 -5.69599 0
      vertex 3.48287 -5.48813 1.5
      vertex 3.1314 -5.69599 1.5
    endloop
  endfacet
  facet normal 0.509041 -0.860742 0
    outer loop
      vertex 3.48287 -5.48813 1.5
      vertex 3.1314 -5.69599 0
      vertex 3.48287 -5.48813 0
    endloop
  endfacet
  facet normal 0.82708 -0.562084 0
    outer loop
      vertex 5.25861 -3.8206 1.5
      vertex 5.48813 -3.48287 0
      vertex 5.48813 -3.48287 1.5
    endloop
  endfacet
  facet normal 0.82708 -0.562084 0
    outer loop
      vertex 5.48813 -3.48287 0
      vertex 5.25861 -3.8206 1.5
      vertex 5.25861 -3.8206 0
    endloop
  endfacet
  facet normal 0.891006 -0.453991 0
    outer loop
      vertex 5.69599 -3.1314 1.5
      vertex 5.88138 -2.76756 0
      vertex 5.88138 -2.76756 1.5
    endloop
  endfacet
  facet normal 0.891006 -0.453991 0
    outer loop
      vertex 5.88138 -2.76756 0
      vertex 5.69599 -3.1314 1.5
      vertex 5.69599 -3.1314 0
    endloop
  endfacet
  facet normal -0.661313 -0.75011 0
    outer loop
      vertex -4.44956 -4.7383 0
      vertex -4.14326 -5.00834 1.5
      vertex -4.44956 -4.7383 1.5
    endloop
  endfacet
  facet normal -0.661313 -0.75011 -0
    outer loop
      vertex -4.14326 -5.00834 1.5
      vertex -4.44956 -4.7383 0
      vertex -4.14326 -5.00834 0
    endloop
  endfacet
  facet normal -0.453991 -0.891006 0
    outer loop
      vertex -3.1314 -5.69599 0
      vertex -2.76756 -5.88138 1.5
      vertex -3.1314 -5.69599 1.5
    endloop
  endfacet
  facet normal -0.453991 -0.891006 -0
    outer loop
      vertex -2.76756 -5.88138 1.5
      vertex -3.1314 -5.69599 0
      vertex -2.76756 -5.88138 0
    endloop
  endfacet
  facet normal -0.338737 -0.940881 0
    outer loop
      vertex -2.39281 -6.04355 0
      vertex -2.00861 -6.18187 1.5
      vertex -2.39281 -6.04355 1.5
    endloop
  endfacet
  facet normal -0.338737 -0.940881 -0
    outer loop
      vertex -2.00861 -6.18187 1.5
      vertex -2.39281 -6.04355 0
      vertex -2.00861 -6.18187 0
    endloop
  endfacet
  facet normal -0.218144 -0.975916 0
    outer loop
      vertex -1.61648 -6.29579 0
      vertex -1.21798 -6.38487 1.5
      vertex -1.61648 -6.29579 1.5
    endloop
  endfacet
  facet normal -0.218144 -0.975916 -0
    outer loop
      vertex -1.21798 -6.38487 1.5
      vertex -1.61648 -6.29579 0
      vertex -1.21798 -6.38487 0
    endloop
  endfacet
  facet normal -0.0941087 -0.995562 0
    outer loop
      vertex -0.814666 -6.44874 0
      vertex -0.408138 -6.48717 1.5
      vertex -0.814666 -6.44874 1.5
    endloop
  endfacet
  facet normal -0.0941087 -0.995562 -0
    outer loop
      vertex -0.408138 -6.48717 1.5
      vertex -0.814666 -6.44874 0
      vertex -0.408138 -6.48717 0
    endloop
  endfacet
  facet normal -0.860742 -0.509041 0
    outer loop
      vertex -5.48813 -3.48287 0
      vertex -5.69599 -3.1314 1.5
      vertex -5.69599 -3.1314 0
    endloop
  endfacet
  facet normal -0.860742 -0.509041 0
    outer loop
      vertex -5.69599 -3.1314 1.5
      vertex -5.48813 -3.48287 0
      vertex -5.48813 -3.48287 1.5
    endloop
  endfacet
  facet normal -0.790156 -0.612906 0
    outer loop
      vertex -5.00834 -4.14326 0
      vertex -5.25861 -3.8206 1.5
      vertex -5.25861 -3.8206 0
    endloop
  endfacet
  facet normal -0.790156 -0.612906 0
    outer loop
      vertex -5.25861 -3.8206 1.5
      vertex -5.00834 -4.14326 0
      vertex -5.00834 -4.14326 1.5
    endloop
  endfacet
  facet normal -0.960294 -0.278991 0
    outer loop
      vertex -6.18187 -2.00861 0
      vertex -6.29579 -1.61648 1.5
      vertex -6.29579 -1.61648 0
    endloop
  endfacet
  facet normal -0.960294 -0.278991 0
    outer loop
      vertex -6.29579 -1.61648 1.5
      vertex -6.18187 -2.00861 0
      vertex -6.18187 -2.00861 1.5
    endloop
  endfacet
  facet normal -0.987688 -0.156434 0
    outer loop
      vertex -6.38487 -1.21798 0
      vertex -6.44874 -0.814666 1.5
      vertex -6.44874 -0.814666 0
    endloop
  endfacet
  facet normal -0.987688 -0.156434 0
    outer loop
      vertex -6.44874 -0.814666 1.5
      vertex -6.38487 -1.21798 0
      vertex -6.38487 -1.21798 1.5
    endloop
  endfacet
  facet normal 0.999506 -0.031414 0
    outer loop
      vertex -2.25 0 1.5
      vertex -2.24556 0.141278 0
      vertex -2.24556 0.141278 1.5
    endloop
  endfacet
  facet normal 0.999506 -0.031414 0
    outer loop
      vertex -2.24556 0.141278 0
      vertex -2.25 0 1.5
      vertex -2.25 0 0
    endloop
  endfacet
  facet normal 0.995562 0.0941067 0
    outer loop
      vertex -2.23226 -0.282 1.5
      vertex -2.24556 -0.141278 0
      vertex -2.24556 -0.141278 1.5
    endloop
  endfacet
  facet normal 0.995562 0.0941067 0
    outer loop
      vertex -2.24556 -0.141278 0
      vertex -2.23226 -0.282 1.5
      vertex -2.23226 -0.282 0
    endloop
  endfacet
  facet normal 0.94088 -0.338739 0
    outer loop
      vertex -2.13988 0.695288 1.5
      vertex -2.092 0.828279 0
      vertex -2.092 0.828279 1.5
    endloop
  endfacet
  facet normal 0.94088 -0.338739 0
    outer loop
      vertex -2.092 0.828279 0
      vertex -2.13988 0.695288 1.5
      vertex -2.13988 0.695288 0
    endloop
  endfacet
  facet normal 0 -1 0
    outer loop
      vertex 0 2.25 0
      vertex 6.09496 2.25 1.5
      vertex 0 2.25 1.5
    endloop
  endfacet
  facet normal 0 -1 -0
    outer loop
      vertex 6.09496 2.25 1.5
      vertex 0 2.25 0
      vertex 6.09496 2.25 0
    endloop
  endfacet
  facet normal 0.156436 0.987688 -0
    outer loop
      vertex -0.282 -2.23226 0
      vertex -0.421607 -2.21015 1.5
      vertex -0.282 -2.23226 1.5
    endloop
  endfacet
  facet normal 0.156436 0.987688 0
    outer loop
      vertex -0.421607 -2.21015 1.5
      vertex -0.282 -2.23226 0
      vertex -0.421607 -2.21015 0
    endloop
  endfacet
  facet normal 0 1 -0
    outer loop
      vertex 6.09496 -2.25 0
      vertex 0 -2.25 1.5
      vertex 6.09496 -2.25 1.5
    endloop
  endfacet
  facet normal 0 1 0
    outer loop
      vertex 0 -2.25 1.5
      vertex 6.09496 -2.25 0
      vertex 0 -2.25 0
    endloop
  endfacet
  facet normal 0.707107 0.707107 0
    outer loop
      vertex -1.54023 -1.64018 1.5
      vertex -1.64018 -1.54023 0
      vertex -1.64018 -1.54023 1.5
    endloop
  endfacet
  facet normal 0.707107 0.707107 0
    outer loop
      vertex -1.64018 -1.54023 0
      vertex -1.54023 -1.64018 1.5
      vertex -1.54023 -1.64018 0
    endloop
  endfacet
  facet normal 0.218142 0.975917 -0
    outer loop
      vertex -0.421607 -2.21015 0
      vertex -0.559552 -2.17931 1.5
      vertex -0.421607 -2.21015 1.5
    endloop
  endfacet
  facet normal 0.218142 0.975917 0
    outer loop
      vertex -0.559552 -2.17931 1.5
      vertex -0.421607 -2.21015 0
      vertex -0.559552 -2.17931 0
    endloop
  endfacet
  facet normal 0.999506 0.031414 0
    outer loop
      vertex -2.24556 -0.141278 1.5
      vertex -2.25 0 0
      vertex -2.25 0 1.5
    endloop
  endfacet
  facet normal 0.999506 0.031414 0
    outer loop
      vertex -2.25 0 0
      vertex -2.24556 -0.141278 1.5
      vertex -2.24556 -0.141278 0
    endloop
  endfacet
  facet normal 0.397146 -0.917755 0
    outer loop
      vertex -0.958003 2.03586 0
      vertex -0.828279 2.092 1.5
      vertex -0.958003 2.03586 1.5
    endloop
  endfacet
  facet normal 0.397146 -0.917755 0
    outer loop
      vertex -0.828279 2.092 1.5
      vertex -0.958003 2.03586 0
      vertex -0.828279 2.092 0
    endloop
  endfacet
  facet normal 0.707107 -0.707107 0
    outer loop
      vertex -1.64018 1.54023 1.5
      vertex -1.54023 1.64018 0
      vertex -1.54023 1.64018 1.5
    endloop
  endfacet
  facet normal 0.707107 -0.707107 0
    outer loop
      vertex -1.54023 1.64018 0
      vertex -1.64018 1.54023 1.5
      vertex -1.64018 1.54023 0
    endloop
  endfacet
  facet normal 0.891006 0.453991 0
    outer loop
      vertex -1.97169 -1.08395 1.5
      vertex -2.03586 -0.958003 0
      vertex -2.03586 -0.958003 1.5
    endloop
  endfacet
  facet normal 0.891006 0.453991 0
    outer loop
      vertex -2.03586 -0.958003 0
      vertex -1.97169 -1.08395 1.5
      vertex -1.97169 -1.08395 0
    endloop
  endfacet
  facet normal 0.0941067 0.995562 -0
    outer loop
      vertex -0.141278 -2.24556 0
      vertex -0.282 -2.23226 1.5
      vertex -0.141278 -2.24556 1.5
    endloop
  endfacet
  facet normal 0.0941067 0.995562 0
    outer loop
      vertex -0.282 -2.23226 1.5
      vertex -0.141278 -2.24556 0
      vertex -0.282 -2.23226 0
    endloop
  endfacet
  facet normal 0.031414 0.999506 -0
    outer loop
      vertex 0 -2.25 0
      vertex -0.141278 -2.24556 1.5
      vertex 0 -2.25 1.5
    endloop
  endfacet
  facet normal 0.031414 0.999506 0
    outer loop
      vertex -0.141278 -2.24556 1.5
      vertex 0 -2.25 0
      vertex -0.141278 -2.24556 0
    endloop
  endfacet
  facet normal 0.453991 0.891006 -0
    outer loop
      vertex -0.958003 -2.03586 0
      vertex -1.08395 -1.97169 1.5
      vertex -0.958003 -2.03586 1.5
    endloop
  endfacet
  facet normal 0.453991 0.891006 0
    outer loop
      vertex -1.08395 -1.97169 1.5
      vertex -0.958003 -2.03586 0
      vertex -1.08395 -1.97169 0
    endloop
  endfacet
  facet normal 0.790153 0.61291 0
    outer loop
      vertex -1.73365 -1.4342 1.5
      vertex -1.82029 -1.32252 0
      vertex -1.82029 -1.32252 1.5
    endloop
  endfacet
  facet normal 0.790153 0.61291 0
    outer loop
      vertex -1.82029 -1.32252 0
      vertex -1.73365 -1.4342 1.5
      vertex -1.73365 -1.4342 0
    endloop
  endfacet
  facet normal 0.987688 -0.156436 0
    outer loop
      vertex -2.23226 0.282 1.5
      vertex -2.21015 0.421607 0
      vertex -2.21015 0.421607 1.5
    endloop
  endfacet
  facet normal 0.987688 -0.156436 0
    outer loop
      vertex -2.21015 0.421607 0
      vertex -2.23226 0.282 1.5
      vertex -2.23226 0.282 0
    endloop
  endfacet
  facet normal 0.917755 -0.397146 0
    outer loop
      vertex -2.092 0.828279 1.5
      vertex -2.03586 0.958003 0
      vertex -2.03586 0.958003 1.5
    endloop
  endfacet
  facet normal 0.917755 -0.397146 0
    outer loop
      vertex -2.03586 0.958003 0
      vertex -2.092 0.828279 1.5
      vertex -2.092 0.828279 0
    endloop
  endfacet
  facet normal 0.278995 -0.960293 0
    outer loop
      vertex -0.695288 2.13988 0
      vertex -0.559552 2.17931 1.5
      vertex -0.695288 2.13988 1.5
    endloop
  endfacet
  facet normal 0.278995 -0.960293 0
    outer loop
      vertex -0.559552 2.17931 1.5
      vertex -0.695288 2.13988 0
      vertex -0.559552 2.17931 0
    endloop
  endfacet
  facet normal 0.156436 -0.987688 0
    outer loop
      vertex -0.421607 2.21015 0
      vertex -0.282 2.23226 1.5
      vertex -0.421607 2.21015 1.5
    endloop
  endfacet
  facet normal 0.156436 -0.987688 0
    outer loop
      vertex -0.282 2.23226 1.5
      vertex -0.421607 2.21015 0
      vertex -0.282 2.23226 0
    endloop
  endfacet
  facet normal 0.218142 -0.975917 0
    outer loop
      vertex -0.559552 2.17931 0
      vertex -0.421607 2.21015 1.5
      vertex -0.559552 2.17931 1.5
    endloop
  endfacet
  facet normal 0.218142 -0.975917 0
    outer loop
      vertex -0.421607 2.21015 1.5
      vertex -0.559552 2.17931 0
      vertex -0.421607 2.21015 0
    endloop
  endfacet
  facet normal 0.562085 -0.82708 0
    outer loop
      vertex -1.32252 1.82029 0
      vertex -1.20561 1.89974 1.5
      vertex -1.32252 1.82029 1.5
    endloop
  endfacet
  facet normal 0.562085 -0.82708 0
    outer loop
      vertex -1.20561 1.89974 1.5
      vertex -1.32252 1.82029 0
      vertex -1.20561 1.89974 0
    endloop
  endfacet
  facet normal 0.61291 -0.790153 0
    outer loop
      vertex -1.4342 1.73365 0
      vertex -1.32252 1.82029 1.5
      vertex -1.4342 1.73365 1.5
    endloop
  endfacet
  facet normal 0.61291 -0.790153 0
    outer loop
      vertex -1.32252 1.82029 1.5
      vertex -1.4342 1.73365 0
      vertex -1.32252 1.82029 0
    endloop
  endfacet
  facet normal 0.278995 0.960293 -0
    outer loop
      vertex -0.559552 -2.17931 0
      vertex -0.695288 -2.13988 1.5
      vertex -0.559552 -2.17931 1.5
    endloop
  endfacet
  facet normal 0.278995 0.960293 0
    outer loop
      vertex -0.695288 -2.13988 1.5
      vertex -0.559552 -2.17931 0
      vertex -0.695288 -2.13988 0
    endloop
  endfacet
  facet normal 0.562085 0.82708 -0
    outer loop
      vertex -1.20561 -1.89974 0
      vertex -1.32252 -1.82029 1.5
      vertex -1.20561 -1.89974 1.5
    endloop
  endfacet
  facet normal 0.562085 0.82708 0
    outer loop
      vertex -1.32252 -1.82029 1.5
      vertex -1.20561 -1.89974 0
      vertex -1.32252 -1.82029 0
    endloop
  endfacet
  facet normal 0.66131 0.750113 -0
    outer loop
      vertex -1.4342 -1.73365 0
      vertex -1.54023 -1.64018 1.5
      vertex -1.4342 -1.73365 1.5
    endloop
  endfacet
  facet normal 0.66131 0.750113 0
    outer loop
      vertex -1.54023 -1.64018 1.5
      vertex -1.4342 -1.73365 0
      vertex -1.54023 -1.64018 0
    endloop
  endfacet
  facet normal 0.82708 0.562085 0
    outer loop
      vertex -1.82029 -1.32252 1.5
      vertex -1.89974 -1.20561 0
      vertex -1.89974 -1.20561 1.5
    endloop
  endfacet
  facet normal 0.82708 0.562085 0
    outer loop
      vertex -1.89974 -1.20561 0
      vertex -1.82029 -1.32252 1.5
      vertex -1.82029 -1.32252 0
    endloop
  endfacet
  facet normal 0.860744 0.509038 0
    outer loop
      vertex -1.89974 -1.20561 1.5
      vertex -1.97169 -1.08395 0
      vertex -1.97169 -1.08395 1.5
    endloop
  endfacet
  facet normal 0.860744 0.509038 0
    outer loop
      vertex -1.97169 -1.08395 0
      vertex -1.89974 -1.20561 1.5
      vertex -1.89974 -1.20561 0
    endloop
  endfacet
  facet normal 0.987688 0.156436 0
    outer loop
      vertex -2.21015 -0.421607 1.5
      vertex -2.23226 -0.282 0
      vertex -2.23226 -0.282 1.5
    endloop
  endfacet
  facet normal 0.987688 0.156436 0
    outer loop
      vertex -2.23226 -0.282 0
      vertex -2.21015 -0.421607 1.5
      vertex -2.21015 -0.421607 0
    endloop
  endfacet
  facet normal 0.995562 -0.0941067 0
    outer loop
      vertex -2.24556 0.141278 1.5
      vertex -2.23226 0.282 0
      vertex -2.23226 0.282 1.5
    endloop
  endfacet
  facet normal 0.995562 -0.0941067 0
    outer loop
      vertex -2.23226 0.282 0
      vertex -2.24556 0.141278 1.5
      vertex -2.24556 0.141278 0
    endloop
  endfacet
  facet normal 0.975917 -0.218142 0
    outer loop
      vertex -2.21015 0.421607 1.5
      vertex -2.17931 0.559552 0
      vertex -2.17931 0.559552 1.5
    endloop
  endfacet
  facet normal 0.975917 -0.218142 0
    outer loop
      vertex -2.17931 0.559552 0
      vertex -2.21015 0.421607 1.5
      vertex -2.21015 0.421607 0
    endloop
  endfacet
  facet normal 0.960293 -0.278995 0
    outer loop
      vertex -2.17931 0.559552 1.5
      vertex -2.13988 0.695288 0
      vertex -2.13988 0.695288 1.5
    endloop
  endfacet
  facet normal 0.960293 -0.278995 0
    outer loop
      vertex -2.13988 0.695288 0
      vertex -2.17931 0.559552 1.5
      vertex -2.17931 0.559552 0
    endloop
  endfacet
  facet normal 0.860744 -0.509038 0
    outer loop
      vertex -1.97169 1.08395 1.5
      vertex -1.89974 1.20561 0
      vertex -1.89974 1.20561 1.5
    endloop
  endfacet
  facet normal 0.860744 -0.509038 0
    outer loop
      vertex -1.89974 1.20561 0
      vertex -1.97169 1.08395 1.5
      vertex -1.97169 1.08395 0
    endloop
  endfacet
  facet normal 0.338739 -0.94088 0
    outer loop
      vertex -0.828279 2.092 0
      vertex -0.695288 2.13988 1.5
      vertex -0.828279 2.092 1.5
    endloop
  endfacet
  facet normal 0.338739 -0.94088 0
    outer loop
      vertex -0.695288 2.13988 1.5
      vertex -0.828279 2.092 0
      vertex -0.695288 2.13988 0
    endloop
  endfacet
  facet normal 0.0941067 -0.995562 0
    outer loop
      vertex -0.282 2.23226 0
      vertex -0.141278 2.24556 1.5
      vertex -0.282 2.23226 1.5
    endloop
  endfacet
  facet normal 0.0941067 -0.995562 0
    outer loop
      vertex -0.141278 2.24556 1.5
      vertex -0.282 2.23226 0
      vertex -0.141278 2.24556 0
    endloop
  endfacet
  facet normal 0.031414 -0.999506 0
    outer loop
      vertex -0.141278 2.24556 0
      vertex 0 2.25 1.5
      vertex -0.141278 2.24556 1.5
    endloop
  endfacet
  facet normal 0.031414 -0.999506 0
    outer loop
      vertex 0 2.25 1.5
      vertex -0.141278 2.24556 0
      vertex 0 2.25 0
    endloop
  endfacet
  facet normal 0.509038 -0.860744 0
    outer loop
      vertex -1.20561 1.89974 0
      vertex -1.08395 1.97169 1.5
      vertex -1.20561 1.89974 1.5
    endloop
  endfacet
  facet normal 0.509038 -0.860744 0
    outer loop
      vertex -1.08395 1.97169 1.5
      vertex -1.20561 1.89974 0
      vertex -1.08395 1.97169 0
    endloop
  endfacet
  facet normal 0.453991 -0.891006 0
    outer loop
      vertex -1.08395 1.97169 0
      vertex -0.958003 2.03586 1.5
      vertex -1.08395 1.97169 1.5
    endloop
  endfacet
  facet normal 0.453991 -0.891006 0
    outer loop
      vertex -0.958003 2.03586 1.5
      vertex -1.08395 1.97169 0
      vertex -0.958003 2.03586 0
    endloop
  endfacet
  facet normal 0.66131 -0.750113 0
    outer loop
      vertex -1.54023 1.64018 0
      vertex -1.4342 1.73365 1.5
      vertex -1.54023 1.64018 1.5
    endloop
  endfacet
  facet normal 0.66131 -0.750113 0
    outer loop
      vertex -1.4342 1.73365 1.5
      vertex -1.54023 1.64018 0
      vertex -1.4342 1.73365 0
    endloop
  endfacet
  facet normal 0.509038 0.860744 -0
    outer loop
      vertex -1.08395 -1.97169 0
      vertex -1.20561 -1.89974 1.5
      vertex -1.08395 -1.97169 1.5
    endloop
  endfacet
  facet normal 0.509038 0.860744 0
    outer loop
      vertex -1.20561 -1.89974 1.5
      vertex -1.08395 -1.97169 0
      vertex -1.20561 -1.89974 0
    endloop
  endfacet
  facet normal 0.917755 0.397146 0
    outer loop
      vertex -2.03586 -0.958003 1.5
      vertex -2.092 -0.828279 0
      vertex -2.092 -0.828279 1.5
    endloop
  endfacet
  facet normal 0.917755 0.397146 0
    outer loop
      vertex -2.092 -0.828279 0
      vertex -2.03586 -0.958003 1.5
      vertex -2.03586 -0.958003 0
    endloop
  endfacet
  facet normal 0.960293 0.278995 0
    outer loop
      vertex -2.13988 -0.695288 1.5
      vertex -2.17931 -0.559552 0
      vertex -2.17931 -0.559552 1.5
    endloop
  endfacet
  facet normal 0.960293 0.278995 0
    outer loop
      vertex -2.17931 -0.559552 0
      vertex -2.13988 -0.695288 1.5
      vertex -2.13988 -0.695288 0
    endloop
  endfacet
  facet normal 0.94088 0.338739 0
    outer loop
      vertex -2.092 -0.828279 1.5
      vertex -2.13988 -0.695288 0
      vertex -2.13988 -0.695288 1.5
    endloop
  endfacet
  facet normal 0.94088 0.338739 0
    outer loop
      vertex -2.13988 -0.695288 0
      vertex -2.092 -0.828279 1.5
      vertex -2.092 -0.828279 0
    endloop
  endfacet
  facet normal 0.790153 -0.61291 0
    outer loop
      vertex -1.82029 1.32252 1.5
      vertex -1.73365 1.4342 0
      vertex -1.73365 1.4342 1.5
    endloop
  endfacet
  facet normal 0.790153 -0.61291 0
    outer loop
      vertex -1.73365 1.4342 0
      vertex -1.82029 1.32252 1.5
      vertex -1.82029 1.32252 0
    endloop
  endfacet
  facet normal 0.750113 -0.66131 0
    outer loop
      vertex -1.73365 1.4342 1.5
      vertex -1.64018 1.54023 0
      vertex -1.64018 1.54023 1.5
    endloop
  endfacet
  facet normal 0.750113 -0.66131 0
    outer loop
      vertex -1.64018 1.54023 0
      vertex -1.73365 1.4342 1.5
      vertex -1.73365 1.4342 0
    endloop
  endfacet
  facet normal 0.891006 -0.453991 0
    outer loop
      vertex -2.03586 0.958003 1.5
      vertex -1.97169 1.08395 0
      vertex -1.97169 1.08395 1.5
    endloop
  endfacet
  facet normal 0.891006 -0.453991 0
    outer loop
      vertex -1.97169 1.08395 0
      vertex -2.03586 0.958003 1.5
      vertex -2.03586 0.958003 0
    endloop
  endfacet
  facet normal 0.82708 -0.562085 0
    outer loop
      vertex -1.89974 1.20561 1.5
      vertex -1.82029 1.32252 0
      vertex -1.82029 1.32252 1.5
    endloop
  endfacet
  facet normal 0.82708 -0.562085 0
    outer loop
      vertex -1.82029 1.32252 0
      vertex -1.89974 1.20561 1.5
      vertex -1.89974 1.20561 0
    endloop
  endfacet
  facet normal 0.338739 0.94088 -0
    outer loop
      vertex -0.695288 -2.13988 0
      vertex -0.828279 -2.092 1.5
      vertex -0.695288 -2.13988 1.5
    endloop
  endfacet
  facet normal 0.338739 0.94088 0
    outer loop
      vertex -0.828279 -2.092 1.5
      vertex -0.695288 -2.13988 0
      vertex -0.828279 -2.092 0
    endloop
  endfacet
  facet normal 0.397146 0.917755 -0
    outer loop
      vertex -0.828279 -2.092 0
      vertex -0.958003 -2.03586 1.5
      vertex -0.828279 -2.092 1.5
    endloop
  endfacet
  facet normal 0.397146 0.917755 0
    outer loop
      vertex -0.958003 -2.03586 1.5
      vertex -0.828279 -2.092 0
      vertex -0.958003 -2.03586 0
    endloop
  endfacet
  facet normal 0.61291 0.790153 -0
    outer loop
      vertex -1.32252 -1.82029 0
      vertex -1.4342 -1.73365 1.5
      vertex -1.32252 -1.82029 1.5
    endloop
  endfacet
  facet normal 0.61291 0.790153 0
    outer loop
      vertex -1.4342 -1.73365 1.5
      vertex -1.32252 -1.82029 0
      vertex -1.4342 -1.73365 0
    endloop
  endfacet
  facet normal 0.750113 0.66131 0
    outer loop
      vertex -1.64018 -1.54023 1.5
      vertex -1.73365 -1.4342 0
      vertex -1.73365 -1.4342 1.5
    endloop
  endfacet
  facet normal 0.750113 0.66131 0
    outer loop
      vertex -1.73365 -1.4342 0
      vertex -1.64018 -1.54023 1.5
      vertex -1.64018 -1.54023 0
    endloop
  endfacet
  facet normal 0.975917 0.218142 0
    outer loop
      vertex -2.17931 -0.559552 1.5
      vertex -2.21015 -0.421607 0
      vertex -2.21015 -0.421607 1.5
    endloop
  endfacet
  facet normal 0.975917 0.218142 0
    outer loop
      vertex -2.21015 -0.421607 0
      vertex -2.17931 -0.559552 1.5
      vertex -2.17931 -0.559552 0
    endloop
  endfacet
endsolid OpenSCAD_Model
